<svg xmlns="http://www.w3.org/2000/svg" width="55.289" height="52.81" viewBox="0 0 55.289 52.81">
  <g id="Group_2084" data-name="Group 2084" transform="translate(-4541.176 -9527.574)" opacity="0.7">
    <path id="Path_2674" data-name="Path 2674" d="M4596.465,9545.648q-1.351,3.226-2.7,6.45c-.049.116-.091.235-.143.351a1.2,1.2,0,0,1-1.93.595c-1.126-.709-2.236-1.444-3.354-2.167-.8-.519-1.616-1.014-2.392-1.567a4.409,4.409,0,0,1-.7-.818,4.49,4.49,0,0,1,.92-.645c.787-.3,1.6-.512,2.442-.771a1.756,1.756,0,0,0-.052-.323c-3.092-8.116-8.885-13.1-17.442-14.591a22.094,22.094,0,0,0-25.181,17.242,21.779,21.779,0,0,0,4.643,18.813c.181.226.372.44.543.671a2.117,2.117,0,0,1-.329,2.949,2.056,2.056,0,0,1-2.9-.23c-.016-.02-.032-.038-.047-.058a35.679,35.679,0,0,1-2.649-3.537,26.421,26.421,0,1,1,47.307-22.829c.064.186.138.366.228.6.888-.271,1.759-.534,2.626-.8a1.055,1.055,0,0,1,1.106.127Z"/>
    <path id="Path_2675" data-name="Path 2675" d="M4567.025,9561.516h-12.762a7.359,7.359,0,0,1,2.231-4.632c1.434-1.355,3.018-2.553,4.5-3.858a7.867,7.867,0,0,0,1.415-1.6,1.62,1.62,0,0,0-.422-2.251,1.448,1.448,0,0,0-.189-.11,1.862,1.862,0,0,0-2.543.68l-.022.04a10.983,10.983,0,0,0-.466,1.368l-4.147-.338a4.628,4.628,0,0,1,3.93-4.716,11.888,11.888,0,0,1,4.773.055,4.354,4.354,0,0,1,2.651,7.071,13.293,13.293,0,0,1-2.1,2.074c-.974.822-2.017,1.563-3.032,2.336-.125.1-.262.176-.4.264l.093.162h6.481Z"/>
    <path id="Path_2676" data-name="Path 2676" d="M4579.957,9561.516h-3.715v-2.844h-7.792c0-1.175-.009-2.287.01-3.4a.8.8,0,0,1,.232-.408q3.625-4.321,7.264-8.634a.839.839,0,0,1,.513-.319c1.13-.029,2.262-.015,3.456-.015v9.446h1.914v3.311h-1.881Zm-3.764-10.966-4.06,4.779h4.06Z"/>
    <path id="Path_2677" data-name="Path 2677" d="M4570.333,9577.848a2.108,2.108,0,0,1,1.487-2.031,14.8,14.8,0,0,1,1.835-.431,2.1,2.1,0,0,1,2.289,1.551,2.058,2.058,0,0,1-1.255,2.5,10.3,10.3,0,0,1-2.092.487,2.089,2.089,0,0,1-2.257-1.9C4570.336,9577.964,4570.333,9577.905,4570.333,9577.848Z"/>
    <path id="Path_2678" data-name="Path 2678" d="M4583.512,9574.067a2.853,2.853,0,0,1-.033.364,3.971,3.971,0,0,1-3.725,2.458,2.01,2.01,0,0,1-1.641-1.527,1.944,1.944,0,0,1,.707-2.171,10.175,10.175,0,0,1,1.674-1.075,2.1,2.1,0,0,1,3.018,1.951Z"/>
    <path id="Path_2679" data-name="Path 2679" d="M4593.036,9561.185a15.652,15.652,0,0,1-.829,2.213,2.007,2.007,0,0,1-2.549.781,2.1,2.1,0,0,1-1.261-2.37,12.491,12.491,0,0,1,.626-1.887,2.072,2.072,0,0,1,2.361-1.175A2.25,2.25,0,0,1,4593.036,9561.185Z"/>
    <path id="Path_2680" data-name="Path 2680" d="M4587.249,9566.014a2.2,2.2,0,0,1,1.911,3.211,8.979,8.979,0,0,1-1.342,1.744,2.094,2.094,0,0,1-3.315-2.437,8.928,8.928,0,0,1,1.437-1.866A4.6,4.6,0,0,1,4587.249,9566.014Z"/>
    <path id="Path_2681" data-name="Path 2681" d="M4557.473,9578.3a5.465,5.465,0,0,1-2.785-1.446,2.011,2.011,0,0,1-.069-2.546,2.048,2.048,0,0,1,2.386-.76,11.8,11.8,0,0,1,1.792.864,2.072,2.072,0,0,1,.9,2.393A2.173,2.173,0,0,1,4557.473,9578.3Z"/>
    <path id="Path_2682" data-name="Path 2682" d="M4565.461,9580.377a18.044,18.044,0,0,1-1.856-.293,2.095,2.095,0,0,1,.641-4.108,14.185,14.185,0,0,1,1.713.168,2.1,2.1,0,0,1,1.819,2.289A2.155,2.155,0,0,1,4565.461,9580.377Z"/>
  </g>
</svg>
