<svg xmlns="http://www.w3.org/2000/svg" width="40" height="53.881" viewBox="0 0 40 53.881">
  <g id="Group_40470" data-name="Group 40470" transform="translate(-9280.387 -1595.236)" opacity="0.7">
    <path id="Path_43683" data-name="Path 43683" d="M9317.751,1595.236a3.8,3.8,0,0,1,2,1.273,3.736,3.736,0,0,1,.64,2.283q-.009,18.731,0,37.462,0,4.683,0,9.365a3.2,3.2,0,0,1-3.5,3.5h-33a3.2,3.2,0,0,1-3.5-3.5q0-23.2,0-46.406c0-2.38.472-3.092,2.631-3.977Zm-26.811,2.1h-6.974c-1.141,0-1.475.334-1.475,1.474v22.309h13.226a4.2,4.2,0,0,1,.526.014,1.04,1.04,0,0,1,.015,2.075,3.989,3.989,0,0,1-.524.015h-13.242v.458q0,11,0,21.993c0,.954.385,1.329,1.353,1.331q3.315,0,6.63,0c.167,0,.335-.016.49-.023a9.52,9.52,0,0,1,8.623-8.358,9.09,9.09,0,0,1,5.775,1.392,9.475,9.475,0,0,1,4.449,6.99h6.989c1.141,0,1.475-.333,1.476-1.473v-22.309h-13.228a4.148,4.148,0,0,1-.524-.013,1.04,1.04,0,0,1-.017-2.075,3.988,3.988,0,0,1,.525-.016h13.243v-.459q0-11,0-21.992c0-.954-.386-1.33-1.354-1.331q-3.315,0-6.631,0c-.167,0-.334.015-.49.023a9.494,9.494,0,0,1-18.862-.024Zm16.69.025H9293.14a7.32,7.32,0,0,0,14.491,0Zm0,49.624a7.316,7.316,0,0,0-14.485,0Z"/>
    <path id="Path_43684" data-name="Path 43684" d="M9310.942,1605.761a5.261,5.261,0,1,1-5.293,5.228A5.321,5.321,0,0,1,9310.942,1605.761Zm3.122,5.265a3.154,3.154,0,1,0-3.146,3.148A3.184,3.184,0,0,0,9314.064,1611.026Z"/>
    <path id="Path_43685" data-name="Path 43685" d="M9295.12,1633.322a5.261,5.261,0,1,1-5.27-5.251A5.32,5.32,0,0,1,9295.12,1633.322Zm-5.239,3.162a3.153,3.153,0,1,0-3.175-3.118A3.181,3.181,0,0,0,9289.881,1636.484Z"/>
    <path id="Path_43686" data-name="Path 43686" d="M9316.169,1635.414a3.153,3.153,0,1,1-3.162-3.131A3.182,3.182,0,0,1,9316.169,1635.414Zm-3.172-1.022a1.044,1.044,0,1,0,1.062,1.026A1.08,1.08,0,0,0,9313,1634.392Z"/>
    <path id="Path_43687" data-name="Path 43687" d="M9301.429,1622.159a1.044,1.044,0,1,1-1.062-1.027A1.076,1.076,0,0,1,9301.429,1622.159Z"/>
    <path id="Path_43688" data-name="Path 43688" d="M9311.954,1611a1.044,1.044,0,1,1-1.062-1.026A1.075,1.075,0,0,1,9311.954,1611Z"/>
    <path id="Path_43689" data-name="Path 43689" d="M9289.877,1632.287a1.044,1.044,0,1,1-1.062,1.026A1.077,1.077,0,0,1,9289.877,1632.287Z"/>
  </g>
</svg>
