<svg xmlns="http://www.w3.org/2000/svg" width="47.599" height="74.374" viewBox="0 0 47.599 74.374">
  <g id="Group_7099" data-name="Group 7099" transform="translate(-4836.658 -229.115)">
    <rect id="Rectangle_10220" data-name="Rectangle 10220" width="44.818" height="63.775" transform="translate(4838.048 236.182)" fill="#dde7d5"/>
    <rect id="Rectangle_10221" data-name="Rectangle 10221" width="47.599" height="3.533" transform="translate(4836.658 229.115)" fill="#dde7d5"/>
    <rect id="Rectangle_10222" data-name="Rectangle 10222" width="41.456" height="3.533" transform="translate(4839.729 232.648)" fill="#a6ada0"/>
    <rect id="Rectangle_10223" data-name="Rectangle 10223" width="44.818" height="3.533" transform="translate(4838.048 299.957)" fill="#a6ada0"/>
    <g id="Group_7090" data-name="Group 7090">
      <rect id="Rectangle_10224" data-name="Rectangle 10224" width="10.792" height="3.874" transform="translate(4855.061 242.478)" fill="#5c5c5c"/>
      <path id="Path_9056" data-name="Path 9056" d="M4853.849,241.267v6.3h13.215v-6.3Zm12,5.086h-10.794v-3.877h10.8Z" fill="#8b9b7f"/>
    </g>
    <g id="Group_7091" data-name="Group 7091">
      <rect id="Rectangle_10225" data-name="Rectangle 10225" width="10.792" height="3.874" transform="translate(4855.061 251.923)" fill="#5c5c5c"/>
      <path id="Path_9057" data-name="Path 9057" d="M4853.849,250.711v6.3h13.215v-6.3Zm12,5.086h-10.794V251.92h10.8Z" fill="#8b9b7f"/>
    </g>
    <g id="Group_7092" data-name="Group 7092">
      <rect id="Rectangle_10226" data-name="Rectangle 10226" width="10.792" height="3.874" transform="translate(4855.061 261.368)" fill="#5c5c5c"/>
      <path id="Path_9058" data-name="Path 9058" d="M4853.849,260.157v6.3h13.215v-6.3Zm12,5.085h-10.794v-3.876h10.8Z" fill="#8b9b7f"/>
    </g>
    <g id="Group_7093" data-name="Group 7093">
      <rect id="Rectangle_10227" data-name="Rectangle 10227" width="10.792" height="3.874" transform="translate(4855.061 270.812)" fill="#5c5c5c"/>
      <path id="Path_9059" data-name="Path 9059" d="M4853.849,269.6v6.3h13.215v-6.3Zm12,5.085h-10.794v-3.874h10.8Z" fill="#8b9b7f"/>
    </g>
    <g id="Group_7094" data-name="Group 7094">
      <rect id="Rectangle_10228" data-name="Rectangle 10228" width="10.792" height="3.874" transform="translate(4855.061 280.258)" fill="#5c5c5c"/>
      <path id="Path_9060" data-name="Path 9060" d="M4853.849,279.046v6.3h13.215v-6.3Zm12,5.086h-10.794v-3.877h10.8Z" fill="#8b9b7f"/>
    </g>
    <rect id="Rectangle_10229" data-name="Rectangle 10229" width="2.66" height="2.66" transform="translate(4868.51 241.267)" fill="#5c5c5c"/>
    <rect id="Rectangle_10230" data-name="Rectangle 10230" width="2.66" height="2.66" transform="translate(4868.51 244.899)" fill="#8b9b7f"/>
    <rect id="Rectangle_10231" data-name="Rectangle 10231" width="6.286" height="6.286" transform="translate(4872.704 241.267)" fill="#5c5c5c"/>
    <rect id="Rectangle_10232" data-name="Rectangle 10232" width="2.66" height="2.661" transform="translate(4868.51 250.714)" fill="#5c5c5c"/>
    <rect id="Rectangle_10233" data-name="Rectangle 10233" width="2.66" height="2.66" transform="translate(4868.51 254.345)" fill="#8b9b7f"/>
    <rect id="Rectangle_10234" data-name="Rectangle 10234" width="6.286" height="6.286" transform="translate(4872.704 250.714)" fill="#5c5c5c"/>
    <rect id="Rectangle_10235" data-name="Rectangle 10235" width="2.66" height="2.66" transform="translate(4868.51 260.159)" fill="#5c5c5c"/>
    <rect id="Rectangle_10236" data-name="Rectangle 10236" width="2.66" height="2.66" transform="translate(4868.51 263.791)" fill="#8b9b7f"/>
    <rect id="Rectangle_10237" data-name="Rectangle 10237" width="6.286" height="6.286" transform="translate(4872.704 260.159)" fill="#5c5c5c"/>
    <rect id="Rectangle_10238" data-name="Rectangle 10238" width="2.66" height="2.661" transform="translate(4868.51 269.603)" fill="#5c5c5c"/>
    <rect id="Rectangle_10239" data-name="Rectangle 10239" width="2.66" height="2.66" transform="translate(4868.51 273.235)" fill="#8b9b7f"/>
    <rect id="Rectangle_10240" data-name="Rectangle 10240" width="6.286" height="6.286" transform="translate(4872.704 269.603)" fill="#5c5c5c"/>
    <rect id="Rectangle_10241" data-name="Rectangle 10241" width="2.66" height="2.66" transform="translate(4868.51 279.049)" fill="#5c5c5c"/>
    <rect id="Rectangle_10242" data-name="Rectangle 10242" width="2.66" height="2.66" transform="translate(4868.51 282.68)" fill="#8b9b7f"/>
    <rect id="Rectangle_10243" data-name="Rectangle 10243" width="6.286" height="6.286" transform="translate(4872.704 279.049)" fill="#5c5c5c"/>
    <rect id="Rectangle_10244" data-name="Rectangle 10244" width="2.66" height="2.66" transform="translate(4849.694 241.267)" fill="#5c5c5c"/>
    <rect id="Rectangle_10245" data-name="Rectangle 10245" width="2.66" height="2.66" transform="translate(4849.694 244.899)" fill="#8b9b7f"/>
    <rect id="Rectangle_10246" data-name="Rectangle 10246" width="6.286" height="6.286" transform="translate(4841.875 241.267)" fill="#5c5c5c"/>
    <rect id="Rectangle_10247" data-name="Rectangle 10247" width="2.66" height="2.661" transform="translate(4849.694 250.714)" fill="#5c5c5c"/>
    <rect id="Rectangle_10248" data-name="Rectangle 10248" width="2.66" height="2.66" transform="translate(4849.694 254.345)" fill="#8b9b7f"/>
    <rect id="Rectangle_10249" data-name="Rectangle 10249" width="6.286" height="6.286" transform="translate(4841.875 250.714)" fill="#5c5c5c"/>
    <rect id="Rectangle_10250" data-name="Rectangle 10250" width="2.66" height="2.66" transform="translate(4849.694 260.159)" fill="#5c5c5c"/>
    <rect id="Rectangle_10251" data-name="Rectangle 10251" width="2.66" height="2.66" transform="translate(4849.694 263.791)" fill="#8b9b7f"/>
    <rect id="Rectangle_10252" data-name="Rectangle 10252" width="6.286" height="6.286" transform="translate(4841.875 260.159)" fill="#5c5c5c"/>
    <rect id="Rectangle_10253" data-name="Rectangle 10253" width="2.66" height="2.661" transform="translate(4849.694 269.603)" fill="#5c5c5c"/>
    <rect id="Rectangle_10254" data-name="Rectangle 10254" width="2.66" height="2.66" transform="translate(4849.694 273.235)" fill="#8b9b7f"/>
    <rect id="Rectangle_10255" data-name="Rectangle 10255" width="6.286" height="6.286" transform="translate(4841.875 269.603)" fill="#5c5c5c"/>
    <rect id="Rectangle_10256" data-name="Rectangle 10256" width="2.66" height="2.66" transform="translate(4849.694 279.049)" fill="#5c5c5c"/>
    <rect id="Rectangle_10257" data-name="Rectangle 10257" width="2.66" height="2.66" transform="translate(4849.694 282.68)" fill="#8b9b7f"/>
    <rect id="Rectangle_10258" data-name="Rectangle 10258" width="6.286" height="6.286" transform="translate(4841.875 279.049)" fill="#5c5c5c"/>
    <rect id="Rectangle_10259" data-name="Rectangle 10259" width="6.286" height="6.286" transform="translate(4841.875 288.488)" fill="#5c5c5c"/>
    <rect id="Rectangle_10260" data-name="Rectangle 10260" width="6.286" height="6.286" transform="translate(4872.704 288.488)" fill="#5c5c5c"/>
    <g id="Group_7095" data-name="Group 7095">
      <rect id="Rectangle_10261" data-name="Rectangle 10261" width="3.867" height="2.654" transform="translate(4841.151 244.899)" fill="#a6ada0"/>
      <rect id="Rectangle_10262" data-name="Rectangle 10262" width="3.866" height="2.654" transform="translate(4845.018 244.899)" fill="#7d8278"/>
      <rect id="Rectangle_10263" data-name="Rectangle 10263" width="3.866" height="2.655" transform="translate(4845.018 254.348)" fill="#7d8278"/>
      <rect id="Rectangle_10264" data-name="Rectangle 10264" width="3.867" height="2.655" transform="translate(4841.151 254.348)" fill="#a6ada0"/>
      <rect id="Rectangle_10265" data-name="Rectangle 10265" width="3.866" height="2.654" transform="translate(4845.018 263.794)" fill="#7d8278"/>
      <rect id="Rectangle_10266" data-name="Rectangle 10266" width="3.867" height="2.654" transform="translate(4841.151 263.794)" fill="#a6ada0"/>
      <rect id="Rectangle_10267" data-name="Rectangle 10267" width="3.866" height="2.654" transform="translate(4845.018 273.238)" fill="#7d8278"/>
      <rect id="Rectangle_10268" data-name="Rectangle 10268" width="3.867" height="2.654" transform="translate(4841.151 273.238)" fill="#a6ada0"/>
      <rect id="Rectangle_10269" data-name="Rectangle 10269" width="3.867" height="2.654" transform="translate(4841.151 282.684)" fill="#a6ada0"/>
      <rect id="Rectangle_10270" data-name="Rectangle 10270" width="3.866" height="2.654" transform="translate(4845.018 282.684)" fill="#7d8278"/>
    </g>
    <g id="Group_7096" data-name="Group 7096">
      <rect id="Rectangle_10271" data-name="Rectangle 10271" width="3.867" height="2.654" transform="translate(4875.846 244.899)" fill="#7d8278"/>
      <rect id="Rectangle_10272" data-name="Rectangle 10272" width="3.865" height="2.654" transform="translate(4871.98 244.899)" fill="#a6ada0"/>
      <rect id="Rectangle_10273" data-name="Rectangle 10273" width="3.867" height="2.655" transform="translate(4875.846 254.348)" fill="#7d8278"/>
      <rect id="Rectangle_10274" data-name="Rectangle 10274" width="3.865" height="2.655" transform="translate(4871.98 254.348)" fill="#a6ada0"/>
      <rect id="Rectangle_10275" data-name="Rectangle 10275" width="3.865" height="2.654" transform="translate(4871.98 263.794)" fill="#a6ada0"/>
      <rect id="Rectangle_10276" data-name="Rectangle 10276" width="3.867" height="2.654" transform="translate(4875.846 263.794)" fill="#7d8278"/>
      <rect id="Rectangle_10277" data-name="Rectangle 10277" width="3.867" height="2.654" transform="translate(4875.846 273.238)" fill="#7d8278"/>
      <rect id="Rectangle_10278" data-name="Rectangle 10278" width="3.865" height="2.654" transform="translate(4871.98 273.238)" fill="#a6ada0"/>
      <rect id="Rectangle_10279" data-name="Rectangle 10279" width="3.867" height="2.654" transform="translate(4875.846 282.684)" fill="#7d8278"/>
      <rect id="Rectangle_10280" data-name="Rectangle 10280" width="3.865" height="2.654" transform="translate(4871.98 282.684)" fill="#a6ada0"/>
    </g>
    <g id="Group_7097" data-name="Group 7097">
      <rect id="Rectangle_10281" data-name="Rectangle 10281" width="12.764" height="11.468" transform="translate(4854.074 288.488)" fill="#5c5c5c"/>
      <rect id="Rectangle_10282" data-name="Rectangle 10282" width="0.488" height="1.369" transform="translate(4861.958 293.816)" fill="#dde7d5"/>
      <rect id="Rectangle_10283" data-name="Rectangle 10283" width="0.49" height="1.369" transform="translate(4858.467 293.816)" fill="#dde7d5"/>
      <path id="Path_9061" data-name="Path 9061" d="M4865.457,288.487v1.7h-4.678v-1.7h-.643v1.7h-4.677v-1.7h-.642v11.468h.642v-9.128h4.677v9.128h.643v-9.128h4.678v9.128h.643V288.487Z" fill="#8b9b7f"/>
    </g>
    <g id="Group_7098" data-name="Group 7098">
      <rect id="Rectangle_10284" data-name="Rectangle 10284" width="12.764" height="1.766" transform="translate(4854.074 299.957)" fill="#f1f5ee"/>
      <rect id="Rectangle_10285" data-name="Rectangle 10285" width="12.764" height="1.768" transform="translate(4854.074 301.722)" fill="#dde7d5"/>
    </g>
  </g>
</svg>
