<svg xmlns="http://www.w3.org/2000/svg" width="63.418" height="63.423" viewBox="0 0 63.418 63.423">
  <g id="Group_2103" data-name="Group 2103" transform="translate(-14516.839 -6479.216)">
    <path id="Path_2753" data-name="Path 2753" d="M14580.257,6508.3v.371a.163.163,0,0,0-.017.23l.017.017v.619a1.3,1.3,0,0,0,0,.866v.99a1.3,1.3,0,0,0,0,.866v1.238c-.138.87-.113,1.756-.208,2.63a25.018,25.018,0,0,1-1.69,6.368,32.1,32.1,0,0,1-21.4,19.251,26.181,26.181,0,0,1-6.155.853,59.878,59.878,0,0,1-6.725-.121,25.458,25.458,0,0,1-7.212-1.85,30.957,30.957,0,0,1-8.584-5.068,32.123,32.123,0,0,1-7.392-8.725,32.592,32.592,0,0,1-3.311-8.1,26,26,0,0,1-.7-5.619,63.752,63.752,0,0,1,.108-6.665,23.657,23.657,0,0,1,1.482-6.29,31.388,31.388,0,0,1,4.446-8.309,32.307,32.307,0,0,1,17.763-11.942,24.06,24.06,0,0,1,4.822-.629c.12-.007.248.033.354-.062h.864c.239.131.5.031.743.062.246-.031.5.069.743-.062h2.1c.069.076.16.059.247.062a.283.283,0,0,0,.248-.062h.371c.912.137,1.841.1,2.75.212a26.539,26.539,0,0,1,6.755,1.883,31.325,31.325,0,0,1,8.977,5.58,32.164,32.164,0,0,1,6.556,7.978,33.284,33.284,0,0,1,3.318,8.019,24.342,24.342,0,0,1,.665,5C14580.2,6508.02,14580.151,6508.17,14580.257,6508.3Z" fill="#fdba12"/>
    <path id="Path_2754" data-name="Path 2754" d="M14580.257,6510.4a.766.766,0,0,1,0-.866Z" fill="#fdc22e"/>
    <path id="Path_2755" data-name="Path 2755" d="M14580.257,6512.255a.766.766,0,0,1,0-.866Z" fill="#fdc22e"/>
    <path id="Path_2756" data-name="Path 2756" d="M14547.453,6479.331c-.246-.025-.515.1-.732-.115h.743C14547.549,6479.261,14547.545,6479.3,14547.453,6479.331Z" fill="#fdcd51"/>
    <path id="Path_2757" data-name="Path 2757" d="M14547.453,6479.331c0-.038.008-.076.011-.115h.743C14547.977,6479.4,14547.709,6479.326,14547.453,6479.331Z" fill="#fdc127"/>
    <path id="Path_2758" data-name="Path 2758" d="M14550.563,6479.319a.237.237,0,0,1-.254-.1h.247C14550.645,6479.246,14550.647,6479.28,14550.563,6479.319Z" fill="#fdd87b"/>
    <path id="Path_2759" data-name="Path 2759" d="M14550.563,6479.319c0-.035,0-.07-.007-.1h.248C14550.761,6479.331,14550.663,6479.331,14550.563,6479.319Z" fill="#fee198"/>
    <path id="Path_2760" data-name="Path 2760" d="M14580.257,6508.914c-.128-.082-.147-.164,0-.247Z" fill="#fee29b"/>
    <path id="Path_2761" data-name="Path 2761" d="M14551.108,6514.3c0,2.72.007,5.442-.009,8.162a1.2,1.2,0,0,0,.4.975c.575.532,1.116,1.1,1.669,1.655a1.285,1.285,0,0,1-.939,2.271q-3.65-.01-7.3,0a1.277,1.277,0,0,1-1.325-.809,1.249,1.249,0,0,1,.374-1.453c.583-.583,1.158-1.176,1.753-1.746a.963.963,0,0,0,.317-.76q-.012-6.617,0-13.234a1.025,1.025,0,0,0-.339-.814c-.581-.555-1.14-1.134-1.709-1.7a1.286,1.286,0,0,1,.957-2.284c1.545.013,3.091,0,4.638.006,1.057,0,1.5.439,1.5,1.507C14551.114,6508.818,14551.107,6511.559,14551.108,6514.3Z" fill="#fefefe"/>
    <path id="Path_2762" data-name="Path 2762" d="M14548.581,6502.008a3.789,3.789,0,1,1,3.8-3.775v.015A3.809,3.809,0,0,1,14548.581,6502.008Z" fill="#fefefe"/>
  </g>
</svg>
