<svg xmlns="http://www.w3.org/2000/svg" width="30" height="21.283" viewBox="0 0 30 21.283">
  <g id="Group_39066" data-name="Group 39066" transform="translate(-11450.483 -218.001)">
    <path id="Path_42096" data-name="Path 42096" d="M11451.459,236.879a1.043,1.043,0,0,0-.153-.015c-.622.055-.855-.115-.818-.849.022-.462,0-.927,0-1.39,0-.514.148-.66.667-.664h.3v-.435q0-1.617,0-3.234a1.969,1.969,0,0,1,1.934-2.15v-.348q0-3.839,0-7.677a1.944,1.944,0,0,1,2.1-2.115h19.98a1.947,1.947,0,0,1,2.1,2.113v8.012c.2.041.388.066.566.12a1.913,1.913,0,0,1,1.364,1.832c.01,1.169,0,2.338,0,3.506v.377c.169,0,.326-.007.481,0a.466.466,0,0,1,.481.479q.018.966,0,1.934a.467.467,0,0,1-.477.483c-.149.01-.3,0-.486,0,0,.591,0,1.162,0,1.733,0,.539-.145.685-.674.686-.393,0-.786,0-1.179,0a.5.5,0,0,1-.567-.461c-.122-.581-.245-1.162-.35-1.746-.03-.165-.091-.231-.253-.211a1.275,1.275,0,0,1-.151,0q-10.853,0-21.705-.008c-.293,0-.4.081-.44.364-.082.537-.2,1.068-.313,1.6a.5.5,0,0,1-.567.461c-.433,0-.866.006-1.3,0a.493.493,0,0,1-.552-.564C11451.455,238.113,11451.459,237.509,11451.459,236.879Zm3.87-8.735c0-.668-.009-1.311,0-1.954a1.913,1.913,0,0,1,1.888-1.9q2.946-.021,5.894,0a1.836,1.836,0,0,1,1.829,1.541,15.634,15.634,0,0,1,.06,1.928c0,.127,0,.253,0,.371h.967v-1.747a1.945,1.945,0,0,1,2.088-2.1q2.75,0,5.5,0a1.943,1.943,0,0,1,2.086,2.1c0,.581,0,1.162,0,1.75h.968v-.287q0-3.884,0-7.766a.99.99,0,0,0-1.114-1.116h-20.007a1,1,0,0,0-1.128,1.132q0,3.868,0,7.736v.307Zm23.216,5.807c0-1.27,0-2.508,0-3.745a.984.984,0,0,0-1.09-1.081h-23.938a.984.984,0,0,0-1.091,1.08q0,1.737,0,3.475c0,.087.01.174.017.271Zm-27.073,1.924h28.017v-.931h-28.017Zm12.561-7.728c0-.685.015-1.338,0-1.991a.934.934,0,0,0-.931-.9q-2.931-.014-5.861,0a.908.908,0,0,0-.918.8c-.039.689-.011,1.381-.011,2.083Zm10.641,0c0-.685.016-1.338,0-1.991a.932.932,0,0,0-.93-.9q-2.931-.014-5.862,0a.909.909,0,0,0-.918.8c-.039.689-.01,1.381-.01,2.083Zm-21.392,8.736h-.832v1.406h.552Zm25.242,1.418v-1.415h-.834l.284,1.415Z" fill="#febb12"/>
  </g>
</svg>
