<svg xmlns="http://www.w3.org/2000/svg" width="50.001" height="56.369" viewBox="0 0 50.001 56.369">
  <g id="Group_40468" data-name="Group 40468" transform="translate(-8938.854 -1593.992)" opacity="0.7">
    <path id="Path_43678" data-name="Path 43678" d="M8941.721,1650.361c-.1-.037-.2-.08-.307-.11a3.387,3.387,0,0,1-2.552-3.319c-.013-2.679,0-5.358,0-8.037v-26.642c0-.184-.011-.368.006-.551a.82.82,0,0,1,1.64,0c.014.146.006.293.006.44v7.041l1.633-.463v-17.849l-1.633-.464v2.638c0,1.541,0,3.082,0,4.623,0,.643-.312,1.015-.826,1.014s-.821-.371-.821-1.016c0-3.413-.012-6.826,0-10.239a3.378,3.378,0,0,1,3.475-3.428q17.426-.009,34.85,0a3.392,3.392,0,0,1,3.514,3.56q.006,9.715,0,19.431c0,9.743-.024,19.486.021,29.229.01,1.855-.557,3.508-2.884,4.146Zm32.125-3.3h-16.183a2.691,2.691,0,0,1-.548-.019.819.819,0,0,1,.01-1.614,2.775,2.775,0,0,1,.548-.017q8.065,0,16.13.006a.758.758,0,0,0,.717-.358,3.822,3.822,0,0,1,.883-.888.761.761,0,0,0,.351-.721c-.013-2.421-.008-4.843-.006-7.265,0-.687.3-1.066.835-1.059s.814.382.815,1.08q0,3.357,0,6.715v.565l1.628.456V1625.18l-1.628.461v.579c0,1.89,0,3.78,0,5.669,0,.468-.128.841-.62.974-.58.157-1.029-.247-1.031-.935-.007-2.092-.011-4.183,0-6.275a.752.752,0,0,0-.371-.708,3.337,3.337,0,0,1-.023-5.515.845.845,0,0,0,.393-.808q-.012-8.7.006-17.392a1.151,1.151,0,0,0-.585-1.213,1.748,1.748,0,0,1-.627-.677.77.77,0,0,0-.8-.4q-13.928.012-27.855,0a.925.925,0,0,0-.932.48,2.3,2.3,0,0,1-.735.725.819.819,0,0,0-.413.8q.016,8.86,0,17.722a.8.8,0,0,0,.385.757,3.34,3.34,0,0,1-.008,5.514.8.8,0,0,0-.377.76q.015,8.779,0,17.558a1.01,1.01,0,0,0,.507,1.03,2.4,2.4,0,0,1,.745.792.676.676,0,0,0,.671.336c2.478-.009,4.954-.006,7.433,0,.684,0,1.059.311,1.044.848-.014.513-.377.8-1.036.8q-3.441,0-6.881,0h-.576l-.468,1.617h29.073Zm-28.141-49.782h28.147l.465-1.606h-29.075Zm33.318,21.9v-18.764l-1.593.456v17.857Zm-38.484,6.007v18.761l1.586-.451v-17.859Zm3.452-27.777a1.74,1.74,0,1,0-1.751,1.749A1.776,1.776,0,0,0,8943.991,1597.4Zm0,24.85a1.74,1.74,0,1,0-1.83,1.666A1.774,1.774,0,0,0,8943.989,1622.253Zm-1.748,26.438a1.745,1.745,0,0,0,.043-3.489,1.745,1.745,0,1,0-.043,3.489Zm36.806-1.764a1.74,1.74,0,1,0-1.735,1.763A1.762,1.762,0,0,0,8979.047,1646.927Zm-1.754-51.263a1.744,1.744,0,1,0,1.754,1.742A1.771,1.771,0,0,0,8977.293,1595.664Zm1.754,26.531a1.74,1.74,0,1,0-1.771,1.727A1.766,1.766,0,0,0,8979.047,1622.195Z"/>
    <path id="Path_43679" data-name="Path 43679" d="M8985,1650.361a1.732,1.732,0,0,1-.895-1.723q.028-19.783.014-39.567a2.4,2.4,0,0,1,1.691-2.533,2.364,2.364,0,0,1,3.035,2.1c.015.183.007.367.007.55q0,14.859,0,29.717c0,.887-.266,1.278-.853,1.261-.561-.017-.8-.393-.8-1.258v-4.476h-1.389v14.244h1.389v-1.639c0-1.229,0-2.458,0-3.687,0-.6.326-.956.828-.953s.816.361.818.963c.006,1.871-.007,3.742.009,5.613a1.539,1.539,0,0,1-.887,1.392Zm2.163-17.639v-20.978H8985.8v20.978Zm.035-22.678c0-.464.022-.867-.006-1.267a.668.668,0,0,0-.716-.681.652.652,0,0,0-.691.643c-.035.429-.008.864-.008,1.3Z"/>
    <path id="Path_43680" data-name="Path 43680" d="M8962.515,1616.587c.059,2.125-.986,3.432-2.733,3.434s-2.8-1.316-2.736-3.431a358.956,358.956,0,0,0-3.844-6.652c-2-1.273-2.522-2.791-1.517-4.285a2.791,2.791,0,0,1,4.214-.452,1072.256,1072.256,0,0,1,7.758.006,2.8,2.8,0,0,1,2.685-.655,2.677,2.677,0,0,1,1.673,1.334,2.8,2.8,0,0,1-1.646,4,470.9,470.9,0,0,0-3.853,6.7Zm-7.453-9.37a1.078,1.078,0,0,0-1.051-1.115,1.1,1.1,0,1,0-.032,2.2A1.088,1.088,0,0,0,8955.062,1607.217Zm2.8,1.087a1.1,1.1,0,0,0-.052-2.2,1.1,1.1,0,1,0,.052,2.2Zm1.074,5.636a1.09,1.09,0,0,0-1.047-1.122,1.1,1.1,0,1,0-.045,2.2A1.1,1.1,0,0,0,8958.939,1613.94Zm1.942,3.332a1.1,1.1,0,1,0-2.205-.008,1.1,1.1,0,0,0,2.205.008Zm3.615-10.094a1.086,1.086,0,0,0,1.1,1.126,1.1,1.1,0,1,0-.009-2.2A1.081,1.081,0,0,0,8964.5,1607.178Zm-1.674,6.72a1.114,1.114,0,0,0-1.154-1.08,1.1,1.1,0,0,0,.093,2.2A1.12,1.12,0,0,0,8962.823,1613.9Zm-3-4.434a1.1,1.1,0,1,0,1.061,1.114A1.1,1.1,0,0,0,8959.821,1609.464Zm3-2.284a1.108,1.108,0,0,0-1.154-1.078,1.1,1.1,0,0,0,.1,2.2A1.116,1.116,0,0,0,8962.817,1607.18Zm-8,3.363a1.1,1.1,0,0,0,1.1,1.125,1.1,1.1,0,1,0-.013-2.2A1.087,1.087,0,0,0,8954.813,1610.543Zm9.934.021a1.091,1.091,0,0,0-1.07-1.1,1.113,1.113,0,0,0-1.136,1.1,1.127,1.127,0,0,0,1.136,1.1A1.1,1.1,0,0,0,8964.747,1610.564Z"/>
    <path id="Path_43681" data-name="Path 43681" d="M8959.755,1634.39a2.756,2.756,0,1,1-2.73,2.777A2.743,2.743,0,0,1,8959.755,1634.39Zm.006,3.857a1.113,1.113,0,0,0,1.12-1.06,1.1,1.1,0,0,0-2.2-.091A1.11,1.11,0,0,0,8959.761,1638.247Z"/>
  </g>
</svg>
