<svg xmlns="http://www.w3.org/2000/svg" width="48.383" height="54.55" viewBox="0 0 48.383 54.55">
  <g id="Group_2072" data-name="Group 2072" transform="translate(-4807.986 -8526.474)" opacity="0.7">
    <path id="Path_2625" data-name="Path 2625" d="M4810.758,8581.023c-.1-.036-.2-.078-.3-.106a3.279,3.279,0,0,1-2.47-3.213c-.011-2.592,0-5.185,0-7.777v-25.782c0-.177-.01-.356,0-.532a.795.795,0,0,1,1.59,0c.013.138.006.283.006.426v6.813l1.58-.447v-17.272l-1.58-.45v7.027c0,.622-.3.982-.8.98s-.8-.359-.8-.982c0-3.3-.01-6.606,0-9.908a3.269,3.269,0,0,1,3.217-3.319h.145q16.862-.007,33.725,0a3.283,3.283,0,0,1,3.4,3.157c0,.1,0,.192,0,.288q.007,9.4,0,18.8c0,9.43-.023,18.856.021,28.285.008,1.8-.54,3.395-2.791,4.013Zm31.087-3.2h-15.66a2.613,2.613,0,0,1-.531-.02.792.792,0,0,1,.01-1.562,2.671,2.671,0,0,1,.53-.016q7.8,0,15.609.006a.734.734,0,0,0,.691-.346,3.668,3.668,0,0,1,.854-.859.736.736,0,0,0,.34-.7c-.013-2.344-.008-4.687-.006-7.031,0-.665.294-1.03.808-1.024s.788.37.788,1.046q0,3.249,0,6.5v.547l1.576.44v-18.152l-1.576.445v6.048c0,.451-.124.813-.6.941-.561.152-1-.239-1-.906-.007-2.023-.011-4.048,0-6.071a.731.731,0,0,0-.359-.686,3.23,3.23,0,0,1-.023-5.337.821.821,0,0,0,.381-.781q-.015-8.414,0-16.831a1.115,1.115,0,0,0-.566-1.175,1.688,1.688,0,0,1-.607-.655.748.748,0,0,0-.78-.387q-13.477.012-26.957,0a.9.9,0,0,0-.9.463,2.215,2.215,0,0,1-.712.7.8.8,0,0,0-.4.773q.018,8.575,0,17.149a.771.771,0,0,0,.372.732,3.235,3.235,0,0,1-.006,5.337.77.77,0,0,0-.365.735q.01,8.5,0,16.991a.975.975,0,0,0,.491,1,2.32,2.32,0,0,1,.72.767.659.659,0,0,0,.65.326c2.4-.01,4.794-.007,7.189,0,.662,0,1.025.3,1.011.819-.014.5-.365.775-1,.776q-3.33,0-6.659,0h-.557l-.452,1.563h28.132Zm-27.234-48.178h27.239l.449-1.555h-28.136Zm32.243,21.189v-18.155l-1.541.441v17.281Zm-37.241,5.813v18.154l1.535-.436V8557.09Zm3.34-26.881a1.684,1.684,0,1,0-1.694,1.693,1.719,1.719,0,0,0,1.7-1.69Zm0,24.048a1.684,1.684,0,1,0-1.77,1.612,1.718,1.718,0,0,0,1.77-1.609Zm-1.692,25.584a1.688,1.688,0,0,0,.043-3.376h0a1.688,1.688,0,0,0-.043,3.376Zm35.618-1.707a1.684,1.684,0,1,0-1.679,1.706,1.706,1.706,0,0,0,1.678-1.7Zm-1.7-49.607a1.688,1.688,0,1,0,1.7,1.687,1.716,1.716,0,0,0-1.7-1.684Zm1.7,25.674a1.684,1.684,0,1,0-1.713,1.671,1.709,1.709,0,0,0,1.712-1.668Z"/>
    <path id="Path_2626" data-name="Path 2626" d="M4852.636,8581.023a1.677,1.677,0,0,1-.864-1.668q.026-19.148.013-38.289a2.32,2.32,0,0,1,1.637-2.452,2.288,2.288,0,0,1,2.937,2.029c.012.178.007.354.007.532v28.754c0,.858-.257,1.237-.825,1.221-.542-.017-.773-.381-.773-1.219V8565.6h-1.344v13.788h1.344V8577.8c0-1.189-.006-2.379,0-3.567,0-.58.315-.927.8-.924s.791.351.793.933c.005,1.81-.008,3.621.007,5.431a1.489,1.489,0,0,1-.858,1.348Zm2.094-17.073v-20.3h-1.32v20.3Zm.034-21.945c0-.449.022-.839-.006-1.227a.645.645,0,0,0-.631-.659c-.02,0-.04,0-.06,0a.63.63,0,0,0-.668.59l0,.032c-.034.415-.008.836-.008,1.263Z"/>
    <path id="Path_2627" data-name="Path 2627" d="M4830.88,8548.339c.056,2.058-.955,3.322-2.646,3.323s-2.711-1.273-2.648-3.317q-1.824-3.239-3.719-6.437c-1.93-1.232-2.44-2.7-1.468-4.147a2.7,2.7,0,0,1,3.756-.7,2.527,2.527,0,0,1,.323.26q3.753-.01,7.506,0a2.709,2.709,0,0,1,2.6-.633,2.59,2.59,0,0,1,1.619,1.291,2.713,2.713,0,0,1-1.116,3.671,2.745,2.745,0,0,1-.478.2q-1.888,3.227-3.728,6.481Zm-7.212-9.066a1.047,1.047,0,0,0-1.013-1.08h0a1.067,1.067,0,0,0-.1,2.131h.071A1.053,1.053,0,0,0,4823.668,8539.272Zm2.713,1.052a1.066,1.066,0,1,0-.051-2.132h0a1.066,1.066,0,1,0,.051,2.132Zm1.036,5.454a1.052,1.052,0,0,0-1.011-1.086,1.066,1.066,0,1,0-.108,2.13l.063,0a1.062,1.062,0,0,0,1.059-1.046Zm1.88,3.224a1.066,1.066,0,1,0-2.133-.018v.01a1.066,1.066,0,0,0,2.133.008Zm3.5-9.767a1.05,1.05,0,0,0,1.009,1.089h.053a1.066,1.066,0,0,0,.04-2.132h-.049a1.045,1.045,0,0,0-1.051,1.04v0Zm-1.621,6.5a1.076,1.076,0,0,0-1.108-1.045h-.008a1.066,1.066,0,1,0,.091,2.13h0a1.081,1.081,0,0,0,1.026-1.085Zm-2.9-4.29a1.067,1.067,0,1,0,1.026,1.106v-.028a1.066,1.066,0,0,0-1.026-1.078Zm2.9-2.212a1.071,1.071,0,0,0-1.1-1.044h-.019a1.066,1.066,0,0,0,.095,2.13,1.079,1.079,0,0,0,1.022-1.086Zm-7.746,3.254a1.064,1.064,0,0,0,1.037,1.089h.03a1.067,1.067,0,0,0,.044-2.133h-.056a1.052,1.052,0,0,0-1.055,1.045Zm9.614.021a1.056,1.056,0,0,0-1.037-1.064,1.077,1.077,0,0,0-1.1,1.054v.01a1.09,1.09,0,0,0,1.1,1.07,1.067,1.067,0,0,0,1.037-1.068Z"/>
    <path id="Path_2628" data-name="Path 2628" d="M4828.209,8565.565a2.667,2.667,0,1,1-2.642,2.691v0a2.656,2.656,0,0,1,2.623-2.687Zm.006,3.732a1.08,1.08,0,0,0,1.084-1.025,1.067,1.067,0,1,0-1.094,1.024Z"/>
  </g>
</svg>
