<svg xmlns="http://www.w3.org/2000/svg" width="25" height="25.005" viewBox="0 0 25 25.005">
  <g id="Group_2226" data-name="Group 2226" transform="translate(-2087.337 -447.374)" opacity="0.5">
    <path id="Path_3308" data-name="Path 3308" d="M2105.67,452.378c1.418,0,2.8-.008,4.177,0a2.47,2.47,0,0,1,2.408,1.894,2.89,2.89,0,0,1,.078.694q.006,7.409,0,14.816a2.494,2.494,0,0,1-2.391,2.593c-.067,0-.133,0-.2,0q-9.907,0-19.813,0a2.5,2.5,0,0,1-2.592-2.4q0-.1,0-.2,0-7.407,0-14.815a2.5,2.5,0,0,1,2.4-2.593q.1,0,.192,0c1.327,0,2.655,0,3.983,0a.834.834,0,0,0,.09-.016v-.266c0-.72,0-1.441,0-2.161a2.5,2.5,0,0,1,2.433-2.554h.119q3.281-.008,6.56,0a2.493,2.493,0,0,1,2.552,2.433q0,.06,0,.12C2105.674,450.737,2105.67,451.542,2105.67,452.378Zm.822,1.685h-13.3V470.7h13.3Zm-15,16.646V454.044h-1.473c-.71,0-1.009.3-1.009,1.015v14.633c0,.078,0,.156,0,.234a.82.82,0,0,0,.771.778c.562.018,1.126.005,1.709.005Zm16.7-16.663v16.665h1.475c.705,0,1.006-.3,1.006-1.019V455.059c0-.078,0-.156,0-.234a.821.821,0,0,0-.774-.775c-.564-.018-1.127,0-1.706,0ZM2104,452.365c0-.868.013-1.717-.006-2.566a.8.8,0,0,0-.818-.753q-3.331-.008-6.664,0a.823.823,0,0,0-.841.8v.038c0,.165,0,.33,0,.494v1.983Z"/>
  </g>
</svg>
