<svg xmlns="http://www.w3.org/2000/svg" width="57.387" height="57.387" viewBox="0 0 57.387 57.387">
  <g id="Group_2169" data-name="Group 2169" transform="translate(-10826.763 -10531.175)">
    <circle id="Ellipse_49" data-name="Ellipse 49" cx="28.693" cy="28.693" r="28.693" transform="translate(10826.763 10531.175)" fill="#febb12"/>
    <g id="Group_2168" data-name="Group 2168">
      <path id="Path_2928" data-name="Path 2928" d="M10871.6,10568.45c-.053.232-.1.468-.16.7a4.719,4.719,0,0,1-4.644,3.509q-5.029.01-10.058,0h-12.614a4.723,4.723,0,0,1-4.812-4.633c0-.035,0-.07,0-.1q-.012-6.022,0-12.046a4.708,4.708,0,0,1,4.661-4.752h.077c1.272-.011,2.544,0,3.816,0,.559,0,.718-.116.895-.645.12-.357.231-.719.357-1.071a3.322,3.322,0,0,1,3.173-2.31q3.168-.034,6.337,0a3.324,3.324,0,0,1,3.17,2.313c.137.385.259.775.393,1.163a.676.676,0,0,0,.769.552c1.261,0,2.52,0,3.783,0a4.707,4.707,0,0,1,4.81,4.038.422.422,0,0,0,.053.107Zm-16.142,2.853h11.192a4.6,4.6,0,0,0,.786-.043,3.363,3.363,0,0,0,2.823-3.463q.006-5.9,0-11.792a4.069,4.069,0,0,0-.086-.876,3.319,3.319,0,0,0-3.313-2.646c-1.292-.015-2.585,0-3.878,0a2.037,2.037,0,0,1-2.081-1.506c-.131-.388-.253-.778-.391-1.163a1.955,1.955,0,0,0-1.887-1.362q-3.17-.016-6.337,0a1.949,1.949,0,0,0-1.883,1.367c-.134.375-.253.755-.38,1.133a2.051,2.051,0,0,1-2.127,1.53h-3.689a4.3,4.3,0,0,0-.751.049,3.366,3.366,0,0,0-2.8,3.481q0,5.878,0,11.76a4.194,4.194,0,0,0,.083.876,3.337,3.337,0,0,0,3.4,2.657q5.656.01,11.315,0Z" fill="#fff"/>
      <path id="Path_2929" data-name="Path 2929" d="M10855.467,10569.963a8.072,8.072,0,1,1,8.063-8.081v.015A8.086,8.086,0,0,1,10855.467,10569.963Zm-.211-1.346a6.73,6.73,0,1,0-6.524-6.943,6.73,6.73,0,0,0,6.524,6.943Z" fill="#fff"/>
      <path id="Path_2930" data-name="Path 2930" d="M10850.084,10561.705a5.389,5.389,0,0,1,5.276-5.188.682.682,0,0,1,.764.593c0,.02,0,.04,0,.06.008.4-.293.67-.773.687a4.049,4.049,0,0,0-3.934,3.908c-.016.5-.283.813-.694.8s-.653-.326-.644-.838Z" fill="#fff"/>
    </g>
  </g>
</svg>
