<svg xmlns="http://www.w3.org/2000/svg" xmlns:xlink="http://www.w3.org/1999/xlink" width="361.9" height="277.765" viewBox="0 0 361.9 277.765">
  <defs>
    <clipPath id="clip-path">
      <rect id="Rectangle_44271" data-name="Rectangle 44271" width="361.9" height="277.765" rx="17" transform="translate(5319.773 1485.941)" fill="none"/>
    </clipPath>
    <linearGradient id="linear-gradient" x1="0.5" y1="1" x2="0.5" gradientUnits="objectBoundingBox">
      <stop offset="0" stop-color="#ffd3ac"/>
      <stop offset="1" stop-color="#fff"/>
    </linearGradient>
    <linearGradient id="linear-gradient-2" y1="0.5" x2="1" y2="0.5" gradientUnits="objectBoundingBox">
      <stop offset="0" stop-color="#ff9266"/>
      <stop offset="1" stop-color="#ffdc78" stop-opacity="0.502"/>
    </linearGradient>
    <linearGradient id="linear-gradient-3" x1="0.5" y1="1" x2="0.5" y2="0" xlink:href="#linear-gradient-2"/>
    <linearGradient id="linear-gradient-4" y1="0.5" x2="1" y2="0.5" gradientUnits="objectBoundingBox">
      <stop offset="0" stop-color="#ff7f77"/>
      <stop offset="1" stop-color="#ffdc78"/>
    </linearGradient>
    <linearGradient id="linear-gradient-8" y1="0.5" x2="1" y2="0.5" gradientUnits="objectBoundingBox">
      <stop offset="0" stop-color="#006b78"/>
      <stop offset="1" stop-color="#ffe1ba"/>
    </linearGradient>
  </defs>
  <g id="Group_43416" data-name="Group 43416" transform="translate(-5319.773 -1485.941)">
    <g id="Group_43415" data-name="Group 43415" clip-path="url(#clip-path)">
      <g id="Group_43414" data-name="Group 43414">
        <rect id="Rectangle_44270" data-name="Rectangle 44270" width="365.41" height="365.41" transform="translate(5318.018 1442.119)" fill="#ffe7c7"/>
        <circle id="Ellipse_534" data-name="Ellipse 534" cx="40.566" cy="40.566" r="40.566" transform="translate(5478.097 1545.537)" fill="url(#linear-gradient)"/>
        <g id="Group_43391" data-name="Group 43391">
          <path id="Path_46373" data-name="Path 46373" d="M5542,1491.3h97.243s1.288-12.88-11.592-6.44c0,0-7.728-19.706-18.676-1.8,0,0-8.372-29.752-28.657-14.3-6.118,5.8-6.762,8.42-6.762,8.42s-15.456-14.86-22.54,5.1C5551.02,1482.283,5538.785,1482.283,5542,1491.3Z" fill="#fff" opacity="0.65"/>
          <path id="Path_46374" data-name="Path 46374" d="M5347.283,1515.827h149.508s1.98-19.8-17.822-9.9c0,0-11.882-30.3-28.714-2.772,0,0-12.871-45.743-44.06-21.981-9.406,8.911-10.4,12.947-10.4,12.947s-23.762-22.848-34.654,7.846C5361.144,1501.965,5342.332,1501.965,5347.283,1515.827Z" fill="#fff" opacity="0.65"/>
          <path id="Path_46375" data-name="Path 46375" d="M5543.443,1548.17h53.1s.7-7.033-6.33-3.517c0,0-4.22-10.76-10.2-.984,0,0-4.571-16.247-15.648-7.807-3.341,3.165-3.693,4.6-3.693,4.6s-8.439-8.115-12.308,2.787C5548.366,1543.247,5541.685,1543.247,5543.443,1548.17Z" fill="#fff" opacity="0.65"/>
        </g>
        <g id="Group_43396" data-name="Group 43396">
          <g id="Group_43393" data-name="Group 43393">
            <path id="Path_46376" data-name="Path 46376" d="M5318.464,1576.1s74.023-9.663,146.269,27.812,179.109-47.3,218.248-34.146v100.1H5318.464Z" fill="url(#linear-gradient-2)"/>
            <path id="Path_46377" data-name="Path 46377" d="M5670.444,1684.813l-83.675-98.455a10.193,10.193,0,0,0-14.186-.955l-45.486,39.736a10.192,10.192,0,0,1-14.21-.982l-79.3-94.062a10.178,10.178,0,0,0-14.624-.6l-86.559,85.608a8.307,8.307,0,0,0-2.532,5.909v39.068c0,4.8,4.264,8.7,9.536,8.72l142.571.441c5.284.016,9.553,3.933,9.536,8.748l-.044,12.487c-.017,4.836,4.286,8.76,9.592,8.749l161.834-.355C5670.845,1698.856,5675.308,1690.536,5670.444,1684.813Z" fill="url(#linear-gradient-3)"/>
            <g id="Group_43392" data-name="Group 43392">
              <path id="Path_46378" data-name="Path 46378" d="M5628.129,1620.965l-4.263-5.16h2.005l-3.73-4.515h3.73l-3.463-4.193h1.851l-7.558-12.417-7.558,12.417h1.808l-3.463,4.193h3.73l-3.73,4.515h2l-4.263,5.16Z" fill="url(#linear-gradient-4)"/>
              <path id="Path_46379" data-name="Path 46379" d="M5639.935,1618.309l-3.4-4.117h1.6l-2.976-3.6h2.976l-2.763-3.345h1.477l-6.03-9.907-6.03,9.907h1.442l-2.763,3.345h2.976l-2.976,3.6h1.6l-3.4,4.117Z" fill="url(#linear-gradient-4)"/>
              <path id="Path_46380" data-name="Path 46380" d="M5675.5,1618.309l-3.4-4.117h1.6l-2.976-3.6h2.976l-2.764-3.345h1.477l-6.03-9.907-6.03,9.907h1.442l-2.764,3.345h2.976l-2.976,3.6h1.6l-3.4,4.117Z" fill="url(#linear-gradient-4)"/>
              <path id="Path_46381" data-name="Path 46381" d="M5662.262,1618.309l-5.223-6.323h2.457l-4.57-5.532h4.57l-4.244-5.137h2.268l-9.26-15.214-9.26,15.214h2.215l-4.244,5.137h4.57l-4.57,5.532h2.457l-5.223,6.323Z" fill="url(#linear-gradient-4)"/>
            </g>
          </g>
          <g id="Group_43394" data-name="Group 43394">
            <path id="Path_46382" data-name="Path 46382" d="M5683.428,1617.515s-114.583-10.962-223.188,40.195-142.222,68.61-142.222,68.61l365.41-5.776Z" fill="#ffeed7"/>
            <path id="Path_46383" data-name="Path 46383" d="M5318.018,1613.281s90.152-10.121,219.011,82.83c47.738,22.5,146.4-9.371,146.4-9.371v120.788h-365.41Z" fill="#ffe1ba"/>
            <path id="Path_46384" data-name="Path 46384" d="M5392.927,1623.391c-17.592,49.063,63.948,109.952,63.948,109.952l-54.452,12.116c23.47-111.016-84.4-54.719-84.4-54.719v-7.63c68.94-23.322,69.227-61.266,69.227-61.266Z" fill="#ffeed7"/>
          </g>
          <g id="Group_43395" data-name="Group 43395">
            <path id="Path_46385" data-name="Path 46385" d="M5605.416,1694.763l-9.049-12.357h4.256l-7.918-10.812h7.918l-7.352-10.04h3.929l-16.043-29.733-16.042,29.733h3.837l-7.352,10.04h7.918l-7.918,10.812h4.257l-9.049,12.357Z" fill="#026270"/>
            <path id="Path_46386" data-name="Path 46386" d="M5682.535,1683.11l-5.269-6.378h2.479l-4.611-5.581h4.611l-4.281-5.182h2.288l-9.342-15.348-9.341,15.348h2.234l-4.281,5.182h4.61l-4.61,5.581h2.479l-5.269,6.378Z" fill="#026270"/>
            <path id="Path_46387" data-name="Path 46387" d="M5570.99,1696.3l-9.741-11.792h4.583l-8.524-10.318h8.524l-7.915-9.581h4.23l-17.271-28.375-17.271,28.375h4.131l-7.915,9.581h8.524l-8.524,10.318h4.583l-9.741,11.792Z" fill="#026270"/>
            <path id="Path_46388" data-name="Path 46388" d="M5668.383,1682.109l-7-8.469h3.292l-6.122-7.411h6.122l-5.685-6.881h3.038l-12.4-20.38-12.4,20.38h2.967l-5.685,6.881h6.122l-6.122,7.411h3.292l-7,8.469Z" fill="#026270"/>
            <path id="Path_46389" data-name="Path 46389" d="M5644.774,1687.619l-10.546-12.767h4.961l-9.229-11.171h9.229l-8.569-10.373h4.579l-18.7-30.72-18.7,30.72h4.472l-8.569,10.373h9.228l-9.228,11.171h4.961l-10.546,12.767Z" fill="#026270"/>
          </g>
          <path id="Path_46390" data-name="Path 46390" d="M5683.428,1680.655c-10.009-.084-20.025.1-30.03.327q-37.032.838-74,3.433c-31.4,2.217-62.758,5.394-93.87,10.211-52.259,8.092-102.069,23.385-148.849,48.687-7.719,4.175-18.66,10.5-18.66,10.5v53.715h365.41Z" fill="url(#linear-gradient-8)"/>
          <path id="Path_46391" data-name="Path 46391" d="M5450.54,1739.806" fill="#fff"/>
        </g>
        <g id="Group_43397" data-name="Group 43397">
          <path id="Path_46392" data-name="Path 46392" d="M5606.94,1523.152s6.736-6.523,10.445-6.293c0,0-4.73-2.128-9.333,3.516,0,0-.014-4.9-4.074-6.543C5603.978,1513.832,5607.491,1518.113,5606.94,1523.152Z" fill="#026270"/>
          <path id="Path_46393" data-name="Path 46393" d="M5592.261,1523.7s2.565-2.485,3.978-2.4c0,0-1.8-.811-3.554,1.339a2.809,2.809,0,0,0-1.552-2.492A5.356,5.356,0,0,1,5592.261,1523.7Z" fill="#026270"/>
          <path id="Path_46394" data-name="Path 46394" d="M5613.523,1537.735s3.529-3.418,5.472-3.3c0,0-2.478-1.115-4.889,1.842,0,0-.008-2.567-2.134-3.428A7.371,7.371,0,0,1,5613.523,1537.735Z" fill="#026270"/>
        </g>
        <g id="Group_43402" data-name="Group 43402">
          <g id="Group_43398" data-name="Group 43398">
            <path id="Path_46395" data-name="Path 46395" d="M5550.524,1734.673c-.232.513.953,1.549,2.647,2.314s3.255.969,3.487.455-.953-1.549-2.647-2.314S5550.756,1734.16,5550.524,1734.673Z" fill="#7d3e5d"/>
            <path id="Path_46396" data-name="Path 46396" d="M5547.855,1745.539l2.955-.1,3.989-8.834-2.417-1.091Z" fill="#7d3e5d"/>
          </g>
          <g id="Group_43401" data-name="Group 43401">
            <ellipse id="Ellipse_535" data-name="Ellipse 535" cx="85.506" cy="16.617" rx="85.506" ry="16.617" transform="translate(5379.421 1734.091) rotate(-1.58)" fill="#026270" opacity="0.33"/>
            <path id="Path_46397" data-name="Path 46397" d="M5492.6,1656.862l-65.321,2.768-46.625,92.994,67.254,8.12,103.768-15.367Z" fill="#ef7680"/>
            <path id="Path_46398" data-name="Path 46398" d="M5492.6,1656.862l-45.437,92.944,104.513-4.429Z" fill="#ef7680"/>
            <path id="Path_46399" data-name="Path 46399" d="M5492.6,1656.862l2.34,55.226-18.2,44.538-29.42,4.707Z" fill="#fd9a94"/>
            <path id="Path_46400" data-name="Path 46400" d="M5503.646,1715.583l5.938,31.578,27.845-1.18Z" fill="#fd9a94"/>
            <path id="Path_46401" data-name="Path 46401" d="M5491.53,1715.468l-3.017,39.393-40.6,6.472Z" fill="#ef7680"/>
            <path id="Path_46402" data-name="Path 46402" d="M5492.6,1656.862l-3.529,91.168,20.508-.869Z" fill="#7d3e5d"/>
            <g id="Group_43399" data-name="Group 43399">
              <path id="Path_46403" data-name="Path 46403" d="M5379.309,1741.928c.274.492-.819,1.625-2.442,2.53s-3.162,1.241-3.436.749.819-1.624,2.442-2.53S5379.035,1741.437,5379.309,1741.928Z" fill="#7d3e5d"/>
              <path id="Path_46404" data-name="Path 46404" d="M5382.887,1752.53l-2.953.148-4.722-8.465,2.315-1.292Z" fill="#7d3e5d"/>
            </g>
            <g id="Group_43400" data-name="Group 43400">
              <path id="Path_46405" data-name="Path 46405" d="M5445.819,1751.342c.274.492-.819,1.625-2.442,2.53s-3.162,1.241-3.436.749.819-1.625,2.442-2.53S5445.544,1750.85,5445.819,1751.342Z" fill="#7d3e5d"/>
              <path id="Path_46406" data-name="Path 46406" d="M5449.4,1761.944l-2.954.148-4.721-8.465,2.315-1.292Z" fill="#7d3e5d"/>
            </g>
          </g>
        </g>
        <g id="Group_43407" data-name="Group 43407">
          <ellipse id="Ellipse_536" data-name="Ellipse 536" cx="44.585" cy="8.665" rx="44.585" ry="8.665" transform="translate(5577.603 1695.212) rotate(-0.537)" fill="#026270" opacity="0.33"/>
          <g id="Group_43406" data-name="Group 43406">
            <g id="Group_43403" data-name="Group 43403">
              <path id="Path_46407" data-name="Path 46407" d="M5577.623,1697.975c.13.263-.467.825-1.335,1.256s-1.677.568-1.808.305.467-.826,1.335-1.257S5577.492,1697.712,5577.623,1697.975Z" fill="#7d3e5d"/>
              <path id="Path_46408" data-name="Path 46408" d="M5579.223,1703.585l-1.542,0-2.249-4.526,1.238-.615Z" fill="#7d3e5d"/>
            </g>
            <path id="Path_46409" data-name="Path 46409" d="M5606.3,1656.313l34.09.184,26.087,47.559-89.255-.482Z" fill="#ffd3ac"/>
            <path id="Path_46410" data-name="Path 46410" d="M5606.3,1656.313l25.467,47.555-54.544-.294Z" fill="#ffd3ac"/>
            <path id="Path_46411" data-name="Path 46411" d="M5606.3,1656.313l-.155,28.822,12.606,18.663,13.016.07Z" fill="#ffb27d"/>
            <path id="Path_46412" data-name="Path 46412" d="M5601.682,1687.125l-2.485,16.569-14.532-.078Z" fill="#ffb27d"/>
            <path id="Path_46413" data-name="Path 46413" d="M5607.993,1686.831l1.906,16.92,16.6.09Z" fill="#ffd3ac"/>
            <path id="Path_46414" data-name="Path 46414" d="M5606.3,1656.313l3.6,47.437-10.7-.058Z" fill="#7d3e5d"/>
            <g id="Group_43404" data-name="Group 43404">
              <path id="Path_46415" data-name="Path 46415" d="M5666.978,1698.457c-.133.261.459.831,1.322,1.271s1.671.586,1.8.324-.458-.831-1.321-1.271S5667.112,1698.195,5666.978,1698.457Z" fill="#7d3e5d"/>
              <path id="Path_46416" data-name="Path 46416" d="M5665.318,1704.05l1.542.02,2.3-4.5-1.231-.628Z" fill="#7d3e5d"/>
            </g>
            <g id="Group_43405" data-name="Group 43405">
              <path id="Path_46417" data-name="Path 46417" d="M5633.124,1698.274c-.134.262.458.831,1.321,1.271s1.671.586,1.805.324-.458-.83-1.321-1.271S5633.257,1698.013,5633.124,1698.274Z" fill="#7d3e5d"/>
              <path id="Path_46418" data-name="Path 46418" d="M5631.464,1703.867l1.542.02,2.3-4.5-1.231-.628Z" fill="#7d3e5d"/>
            </g>
          </g>
        </g>
        <g id="Group_43413" data-name="Group 43413">
          <path id="Path_46419" data-name="Path 46419" d="M5646.944,1742.231c-.144,4.267-10.371,7.386-22.843,6.965s-22.466-4.221-22.322-8.488,10.371-7.386,22.843-6.965S5647.088,1737.964,5646.944,1742.231Z" fill="#026270" opacity="0.33"/>
          <g id="Group_43412" data-name="Group 43412">
            <g id="Group_43411" data-name="Group 43411">
              <g id="Group_43408" data-name="Group 43408">
                <path id="Path_46420" data-name="Path 46420" d="M5638.064,1744.891l-26.3-9.55a2.861,2.861,0,0,1-1.556-4.464h0a3.508,3.508,0,0,1,3.66-1.082l26.977,7.39Z" fill="#7e4c19"/>
                <path id="Path_46421" data-name="Path 46421" d="M5635.218,1740.1a3.918,3.918,0,0,0,2.981,4.807,4.209,4.209,0,0,0,4.937-3.1,3.919,3.919,0,0,0-2.981-4.808A4.21,4.21,0,0,0,5635.218,1740.1Z" fill="#8b5f3c"/>
              </g>
              <g id="Group_43409" data-name="Group 43409">
                <path id="Path_46422" data-name="Path 46422" d="M5611.085,1744.751l26.694-9.124a3.341,3.341,0,0,0,1.741-4.952h0a3.342,3.342,0,0,0-3.612-1.458l-27.276,6.637Z" fill="#513426"/>
                <path id="Path_46423" data-name="Path 46423" d="M5614.13,1739.51a4.089,4.089,0,1,1-4.8-3.819A4.357,4.357,0,0,1,5614.13,1739.51Z" fill="#8b5f3c"/>
              </g>
              <g id="Group_43410" data-name="Group 43410">
                <path id="Path_46424" data-name="Path 46424" d="M5624.952,1734.993a15.994,15.994,0,0,0,10.685-6.322c2.769-3.689,2.99-8.6,1.59-12.872a16.724,16.724,0,0,0-3.079-5.725c-1.076-1.226-3.551-2.164-3.711-3.986,0,0-.563-6.433-8.365-13.037a.377.377,0,0,0-.616.233c-.426,2.868-2.411,14.153-7.671,17.378a.38.38,0,0,1-.575-.335,3.89,3.89,0,0,1,.193-1.122.378.378,0,0,0-.574-.436,4.975,4.975,0,0,0-.777.667,10.791,10.791,0,0,0-1.864,2.812c-2.261,4.9-1.288,11.547,1.524,16.013A13.944,13.944,0,0,0,5624.952,1734.993Z" fill="#ef7680"/>
                <path id="Path_46425" data-name="Path 46425" d="M5624.611,1732.029a11.185,11.185,0,0,0,7.472-4.421,9.868,9.868,0,0,0,1.112-9,11.669,11.669,0,0,0-2.153-4c-.753-.858-2.484-1.514-2.6-2.788,0,0-.394-4.5-5.851-9.118a.264.264,0,0,0-.43.163c-.3,2.007-1.687,9.9-5.365,12.154a.265.265,0,0,1-.4-.234,2.721,2.721,0,0,1,.134-.785.265.265,0,0,0-.4-.305,3.551,3.551,0,0,0-.543.466,7.585,7.585,0,0,0-1.3,1.967c-1.581,3.429-.9,8.076,1.066,11.2A9.752,9.752,0,0,0,5624.611,1732.029Z" fill="#ffd3ac"/>
                <path id="Path_46426" data-name="Path 46426" d="M5624.636,1731.98a6.61,6.61,0,0,0,4.417-2.614,5.836,5.836,0,0,0,.658-5.322,6.922,6.922,0,0,0-1.273-2.366c-.445-.507-1.469-.9-1.534-1.648,0,0-.233-2.66-3.459-5.391a.157.157,0,0,0-.255.1c-.176,1.186-1,5.851-3.171,7.185a.158.158,0,0,1-.238-.139,1.651,1.651,0,0,1,.08-.464.156.156,0,0,0-.237-.18,2.039,2.039,0,0,0-.322.276,4.447,4.447,0,0,0-.77,1.162,7.4,7.4,0,0,0,.63,6.621A5.761,5.761,0,0,0,5624.636,1731.98Z" fill="#7d3e5d"/>
              </g>
            </g>
            <circle id="Ellipse_537" data-name="Ellipse 537" cx="1.484" cy="1.484" r="1.484" transform="matrix(0.35, -0.937, 0.937, 0.35, 5613.534, 1704.159)" fill="#ffd3ac"/>
            <path id="Path_46427" data-name="Path 46427" d="M5638.932,1704.709a1.484,1.484,0,1,1-1.29-1.656A1.485,1.485,0,0,1,5638.932,1704.709Z" fill="#ffd3ac"/>
            <path id="Path_46428" data-name="Path 46428" d="M5609.931,1707.67a.864.864,0,1,1-.751-.964A.864.864,0,0,1,5609.931,1707.67Z" fill="#ffd3ac"/>
            <path id="Path_46429" data-name="Path 46429" d="M5643.471,1710.878a2.054,2.054,0,1,1-1.785-2.291A2.054,2.054,0,0,1,5643.471,1710.878Z" fill="#ef7680"/>
            <path id="Path_46430" data-name="Path 46430" d="M5613.2,1699.086a1.027,1.027,0,1,1-.892-1.146A1.026,1.026,0,0,1,5613.2,1699.086Z" fill="#ef7680"/>
          </g>
        </g>
      </g>
    </g>
  </g>
</svg>
