<svg xmlns="http://www.w3.org/2000/svg" xmlns:xlink="http://www.w3.org/1999/xlink" width="111.241" height="46.947" viewBox="0 0 111.241 46.947">
  <defs>
    <linearGradient id="linear-gradient" x1="160.854" y1="181.394" x2="160.803" y2="181.369" gradientUnits="objectBoundingBox">
      <stop offset="0" stop-color="#fff"/>
      <stop offset="0.47" stop-color="#fff" stop-opacity="0.165"/>
      <stop offset="0.996" stop-color="#fff" stop-opacity="0"/>
    </linearGradient>
  </defs>
  <g id="Group_7992" data-name="Group 7992" transform="translate(-5118.956 -579.354)">
    <g id="Group_7991" data-name="Group 7991">
      <path id="Path_10523" data-name="Path 10523" d="M5120.156,623.73l27.944-40.485,2.9-3.8" fill="none" stroke="#1d1d1b" stroke-linejoin="round" stroke-width="0.291"/>
      <line id="Line_88" data-name="Line 88" x2="13.245" y2="9.153" transform="translate(5143.861 580.739)" fill="none" stroke="#1d1d1b" stroke-linejoin="round" stroke-width="0.291"/>
      <path id="Path_10524" data-name="Path 10524" d="M5147.75,583.247c0,23.282-16.768,40.484-16.768,40.484h61.054V583.247Z" fill="#be7b3f"/>
      <path id="Path_10525" data-name="Path 10525" d="M5168.982,623.73s16.91-17.023,23.054-40.485c0,0,6.977,27.931,21.943,40.485Z" fill="#804e1a"/>
      <path id="Path_10526" data-name="Path 10526" d="M5159.111,593.457l-4.094,10.738h13.211l2.543-10.738Z" fill="#804e1a"/>
      <path id="Path_10527" data-name="Path 10527" d="M5192.036,590.881a230.241,230.241,0,0,1-4.724,32.849h9.746A200.323,200.323,0,0,1,5192.036,590.881Z" fill="#232204"/>
      <line id="Line_89" data-name="Line 89" x2="39.261" y2="42.789" transform="translate(5189.879 580.94)" fill="none" stroke="#1d1d1b" stroke-linejoin="round" stroke-width="0.291"/>
      <line id="Line_90" data-name="Line 90" x1="34.739" y2="45.128" transform="translate(5159.111 580.94)" fill="none" stroke="#1d1d1b" stroke-linejoin="round" stroke-width="0.291"/>
      <path id="Path_10528" data-name="Path 10528" d="M5156.155,604.668l3.471-9.832h10.93l-2.328,9.832Z" fill="#232204"/>
      <path id="Path_10529" data-name="Path 10529" d="M5148.811,585.4s.611,15.337-6.7,25.392c0,0,7.766-7.131,10.373-25.392Z" fill="url(#linear-gradient)"/>
      <path id="Path_10530" data-name="Path 10530" d="M5159.111,593.457a2.712,2.712,0,0,1-1.293-3.157,2.277,2.277,0,0,1,2.551-1.927H5170.9s-.656.192-1.03,2.052a3.954,3.954,0,0,0,.9,3.032Z" fill="#653711"/>
      <circle id="Ellipse_153" data-name="Ellipse 153" cx="2.537" cy="2.537" r="2.537" transform="translate(5168.331 588.384)" fill="#542e0e"/>
      <path id="Path_10531" data-name="Path 10531" d="M5192.589,583.247a.553.553,0,1,1-.553-.553h0a.553.553,0,0,1,.553.552Z" fill="#232204"/>
    </g>
    <path id="Path_10532" data-name="Path 10532" d="M5191.763,591.567s-2.6,21.732-10.747,32.286h6.295S5191.054,604.646,5191.763,591.567Z" fill="#9f632e"/>
    <line id="Line_91" data-name="Line 91" x2="2.97" y2="0.175" transform="translate(5118.964 623.582)" fill="none" stroke="#1d1d1b" stroke-linejoin="round" stroke-width="0.291"/>
    <line id="Line_92" data-name="Line 92" x2="2.97" y2="0.175" transform="translate(5157.636 625.98)" fill="none" stroke="#1d1d1b" stroke-linejoin="round" stroke-width="0.291"/>
    <line id="Line_93" data-name="Line 93" x2="2.97" y2="0.175" transform="translate(5227.218 623.765)" fill="none" stroke="#1d1d1b" stroke-linejoin="round" stroke-width="0.291"/>
  </g>
</svg>
