<svg xmlns="http://www.w3.org/2000/svg" width="24" height="23.995" viewBox="0 0 24 23.995">
  <g id="Group_685" data-name="Group 685" transform="translate(-2087.837 -254.489)" opacity="0.5">
    <path id="Path_659" data-name="Path 659" d="M2087.837,258.053c.043-.188.081-.378.13-.565a3.991,3.991,0,0,1,3.842-3c.984-.007,1.967,0,2.951,0a3.954,3.954,0,0,1,4.06,3.818,33.094,33.094,0,0,1-.022,3.6,3.882,3.882,0,0,1-3.534,3.535,34.166,34.166,0,0,1-3.814,0,3.93,3.93,0,0,1-3.565-3.334,1.535,1.535,0,0,0-.048-.174Zm2,1.931c0,.476,0,.952,0,1.428a1.989,1.989,0,0,0,2.077,2.076q1.418,0,2.834,0a2,2,0,0,0,2.083-2.076q0-1.416,0-2.833a1.989,1.989,0,0,0-2.07-2.084q-1.428-.008-2.857,0a1.981,1.981,0,0,0-2.067,2.06C2089.837,259.032,2089.841,259.508,2089.841,259.984Z"/>
    <path id="Path_660" data-name="Path 660" d="M2104.382,278.484c-.232-.057-.469-.1-.7-.173a3.918,3.918,0,0,1-2.835-3.649,34.914,34.914,0,0,1,.024-3.6,3.876,3.876,0,0,1,3.537-3.532,35.518,35.518,0,0,1,3.861,0,3.891,3.891,0,0,1,3.508,3.382,20.649,20.649,0,0,1,.051,2.127,17.146,17.146,0,0,1-.045,1.964,3.943,3.943,0,0,1-3.384,3.441.754.754,0,0,0-.13.042Zm5.448-5.506c0-.476,0-.952,0-1.429a1.988,1.988,0,0,0-2.069-2.061q-1.428,0-2.857,0a2,2,0,0,0-2.068,2.065q0,1.428,0,2.856a1.986,1.986,0,0,0,2.06,2.07q1.44.01,2.881,0a1.98,1.98,0,0,0,2.053-2.05C2109.835,273.945,2109.83,273.462,2109.83,272.978Z"/>
    <path id="Path_661" data-name="Path 661" d="M2087.837,271.033c.04-.172.077-.346.121-.517a3.954,3.954,0,0,1,3.747-3.019c1.185-.037,2.375-.043,3.557.029a3.881,3.881,0,0,1,3.534,3.534,33.25,33.25,0,0,1,0,3.789,3.918,3.918,0,0,1-3.383,3.592.686.686,0,0,0-.128.043h-3.89a.777.777,0,0,0-.129-.042,4,4,0,0,1-3.323-3.022c-.04-.165-.074-.331-.11-.5Zm2,1.934c0,.492-.005.983,0,1.475a1.976,1.976,0,0,0,2.042,2.037q1.452.012,2.9,0a1.984,1.984,0,0,0,2.047-2.059q.006-1.428,0-2.856a2,2,0,0,0-2.082-2.076q-1.416,0-2.833,0a1.988,1.988,0,0,0-2.079,2.074C2089.838,272.031,2089.841,272.5,2089.841,272.967Z"/>
    <path id="Path_662" data-name="Path 662" d="M2104.839,259.494v-.312c0-.914-.007-1.827.006-2.741a.973.973,0,0,1,.9-.946.989.989,0,0,1,1.046.723,1.527,1.527,0,0,1,.038.394c0,.867,0,1.734,0,2.6v.282h.276c.922,0,1.844,0,2.766.005a.922.922,0,0,1,.867.575.949.949,0,0,1-.125,1.036.994.994,0,0,1-.843.377c-.883-.005-1.765,0-2.648,0h-.293v.288c0,.922.007,1.844-.007,2.765a.969.969,0,0,1-.9.945.992.992,0,0,1-1.046-.723,1.526,1.526,0,0,1-.037-.394c0-.867,0-1.734,0-2.6v-.28h-.3c-.914,0-1.828,0-2.742-.005a.961.961,0,0,1-.9-.662,1,1,0,0,1,.29-1.086,1.04,1.04,0,0,1,.715-.24c.883,0,1.765,0,2.648,0Z"/>
  </g>
</svg>
