<svg xmlns="http://www.w3.org/2000/svg" width="30" height="27.451" viewBox="0 0 30 27.451">
  <g id="Group_39069" data-name="Group 39069" transform="translate(-11624.758 -214.917)">
    <path id="Path_42097" data-name="Path 42097" d="M11632.47,216.416c.1-1.1.361-1.49,1-1.5a.86.86,0,0,1,.852.476,5.68,5.68,0,0,1,.25,1.005h10.454c0-.15-.006-.3,0-.452a1,1,0,1,1,2,.017c0,.134,0,.268,0,.452h.347c1.042,0,2.083,0,3.124,0a4.205,4.205,0,0,1,4.262,4.256q.007,8.716,0,17.432a4.189,4.189,0,0,1-4.253,4.259q-10.746.008-21.492,0a4.189,4.189,0,0,1-4.249-4.263q0-8.7,0-17.4a4.21,4.21,0,0,1,4.3-4.285c1.021,0,2.041,0,3.063,0Zm-5.711,8.587v.343q0,6.342,0,12.684a2.217,2.217,0,0,0,2.376,2.383q10.622,0,21.243,0a2.217,2.217,0,0,0,2.378-2.382q0-6.342,0-12.683V225Zm20.263-6.577c0,.168,0,.3,0,.436a1,1,0,0,1-1,1.053,1.014,1.014,0,0,1-1-1.059c0-.14,0-.281,0-.424h-10.511a6.168,6.168,0,0,1-.05.663.985.985,0,0,1-1.056.817,1,1,0,0,1-.908-.948c-.009-.174,0-.348,0-.531-1.3,0-2.562-.056-3.814.018a1.993,1.993,0,0,0-1.869,1.807,26.355,26.355,0,0,0-.021,2.709h25.955c0-.865.039-1.709-.01-2.548a2.108,2.108,0,0,0-1.959-1.979C11649.544,218.379,11648.3,218.426,11647.021,218.426Z" fill="#febb12"/>
  </g>
</svg>
