<svg xmlns="http://www.w3.org/2000/svg" width="25" height="30.872" viewBox="0 0 25 30.872">
  <g id="Group_715" data-name="Group 715" transform="translate(-2087.337 -578.408)" opacity="0.5">
    <path id="Path_691" data-name="Path 691" d="M2112.337,591.148a13.868,13.868,0,0,1-1.544,5.808,29.785,29.785,0,0,1-5.043,7.122,45.276,45.276,0,0,1-5.273,4.891c-.522.411-.761.416-1.273.007a41.786,41.786,0,0,1-8.565-9,18.207,18.207,0,0,1-3.008-6.549,12.026,12.026,0,0,1,2.661-10.592,11.717,11.717,0,0,1,7.676-4.3,12.527,12.527,0,0,1,14.369,12.607Zm-23.534-.293-.082.014c.14.863.227,1.739.432,2.587a17.857,17.857,0,0,0,2.926,6.018,41.113,41.113,0,0,0,7.563,7.978c.17.141.266.1.41-.023a45.333,45.333,0,0,0,5-4.775,27.353,27.353,0,0,0,4.485-6.5,11.689,11.689,0,0,0,1.155-7.187,11.031,11.031,0,0,0-21.893,1.892Z"/>
    <path id="Path_692" data-name="Path 692" d="M2109.394,590.91a9.56,9.56,0,1,1-9.552-9.583A9.577,9.577,0,0,1,2109.394,590.91Zm-14.217.215v-.361q0-2.787,0-5.575c0-.663.261-.92.931-.92h7.475c.646,0,.908.263.909.911v5.929h3.415a8.085,8.085,0,1,0-16.164.016Zm2.941,4.9c0-.728,0-1.431,0-2.134a.727.727,0,0,1,.75-.79q.964-.015,1.93,0a.722.722,0,0,1,.747.761c.01.562,0,1.124,0,1.686v.477H2103V585.762h-6.339v10.259Zm-2.876,1.5a7.966,7.966,0,0,0,9.152,0Zm-3.306-4.906a7.978,7.978,0,0,0,1.558,3.281c.042.053.1.127.157.128.505.01,1.01.006,1.509.006v-3.415Zm12.57,3.418c.461,0,.9.015,1.335-.008a.535.535,0,0,0,.368-.187,11.621,11.621,0,0,0,.9-1.452c.269-.557.446-1.158.674-1.768h-3.279Zm-4.441-.011v-1.442h-.456v1.442Z"/>
    <path id="Path_693" data-name="Path 693" d="M2098.6,587.454c0,.183.013.368,0,.55a.73.73,0,0,1-1.457-.014c-.018-.355-.018-.713,0-1.068a.731.731,0,0,1,1.46.013c.012.173,0,.346,0,.519Z"/>
    <path id="Path_694" data-name="Path 694" d="M2099.1,587.452c0-.183-.013-.368,0-.549a.733.733,0,0,1,.739-.671.718.718,0,0,1,.714.662,8.889,8.889,0,0,1,0,1.129.717.717,0,0,1-.719.656.735.735,0,0,1-.734-.678C2099.09,587.819,2099.1,587.635,2099.1,587.452Z"/>
    <path id="Path_695" data-name="Path 695" d="M2101.062,587.456c0-.173-.009-.347,0-.519a.735.735,0,0,1,.739-.705.724.724,0,0,1,.721.689,10.529,10.529,0,0,1,0,1.068.726.726,0,0,1-.72.69.735.735,0,0,1-.74-.7C2101.053,587.8,2101.062,587.629,2101.062,587.456Z"/>
    <path id="Path_696" data-name="Path 696" d="M2097.142,591.374c0-.183-.013-.368,0-.549a.732.732,0,0,1,.739-.671.719.719,0,0,1,.714.662,8.8,8.8,0,0,1,0,1.129.717.717,0,0,1-.72.656.734.734,0,0,1-.733-.678C2097.129,591.741,2097.141,591.557,2097.142,591.374Z"/>
    <path id="Path_697" data-name="Path 697" d="M2100.566,591.39c0,.173.011.347,0,.519a.73.73,0,0,1-1.459-.01c-.016-.345-.016-.692,0-1.038a.731.731,0,0,1,1.462.01c.01.172,0,.346,0,.519Z"/>
    <path id="Path_698" data-name="Path 698" d="M2102.528,591.382c0,.173.01.347,0,.519a.731.731,0,0,1-1.46.006c-.016-.356-.017-.713,0-1.068a.731.731,0,0,1,1.458-.006C2102.54,591.015,2102.527,591.2,2102.528,591.382Z"/>
    <path id="Path_699" data-name="Path 699" d="M2094.682,594.316c0,.183.013.367,0,.549a.73.73,0,0,1-1.457-.008c-.019-.356-.018-.713,0-1.069a.731.731,0,0,1,1.46.009c.012.172,0,.346,0,.519Z"/>
    <path id="Path_700" data-name="Path 700" d="M2106.45,594.324c0,.173.01.346,0,.519a.73.73,0,0,1-1.459.006c-.017-.356-.018-.713,0-1.069a.731.731,0,0,1,1.458-.006C2106.462,593.956,2106.449,594.141,2106.45,594.324Z"/>
  </g>
</svg>
