<svg xmlns="http://www.w3.org/2000/svg" width="20.364" height="20.364" viewBox="0 0 20.364 20.364">
  <g id="Group_378" data-name="Group 378" transform="translate(-3323.527 -1673.402)" opacity="0.8">
    <path id="Path_382" data-name="Path 382" d="M3343.1,1673.4c.053.023.106.047.16.069a.989.989,0,0,1,.413,1.548c-.062.077-.134.146-.2.217q-4.085,4.083-8.169,8.166a1.6,1.6,0,0,1-.2.147c.093.1.146.156.2.21q4.111,4.113,8.224,8.224a1.026,1.026,0,0,1,.347,1,.989.989,0,0,1-1.626.532c-.06-.052-.114-.11-.171-.166l-8.153-8.154c-.061-.061-.116-.127-.191-.209-.07.066-.126.118-.18.172l-8.252,8.251a1,1,0,0,1-1.625-.136,3.165,3.165,0,0,1-.139-.3v-.4a1.878,1.878,0,0,1,.518-.735q4.046-4.038,8.086-8.083c.054-.055.107-.111.18-.189-.079-.069-.147-.122-.208-.182q-4.035-4.035-8.072-8.069a1.813,1.813,0,0,1-.5-.72v-.4a1.147,1.147,0,0,1,.795-.8h.4a1.8,1.8,0,0,1,.721.5q4.046,4.053,8.095,8.1a.893.893,0,0,1,.119.207l.094-.034a2.115,2.115,0,0,1,.161-.2q4.034-4.037,8.067-8.073a1.813,1.813,0,0,1,.721-.5Z"/>
  </g>
</svg>
