<svg xmlns="http://www.w3.org/2000/svg" width="55" height="61.235" viewBox="0 0 55 61.235">
  <g id="Group_43473" data-name="Group 43473" transform="translate(-5054.286 -2583.953)">
    <path id="Path_47010" data-name="Path 47010" d="M5082.981,2583.953c1.228.232,2.482.371,3.679.714a17.579,17.579,0,0,1,11.031,8.974,18.017,18.017,0,0,1,2.036,8.749c-.012,2.232,0,4.464,0,6.7a3.632,3.632,0,0,1-3.9,3.929c-.6,0-1.193,0-1.7,0-.457,1.555-.826,3.079-1.357,4.544a11.59,11.59,0,0,1-2.6,3.914c.642,1.285,1.26,2.555,1.918,3.8a1.094,1.094,0,0,0,.591.419c1.787.616,3.6,1.164,5.37,1.818a16.884,16.884,0,0,1,10.036,10.1,17.108,17.108,0,0,1,1.2,6.06c.024,1.045-.423,1.508-1.472,1.508q-26.038,0-52.077,0c-1.008,0-1.5-.476-1.445-1.47.4-7.06,3.52-12.459,9.947-15.639a48.968,48.968,0,0,1,6.349-2.25,1.707,1.707,0,0,0,1.153-.983c.438-.981.936-1.935,1.437-2.885a.67.67,0,0,0-.1-.877,16.646,16.646,0,0,1-1.782-2.529,1.251,1.251,0,0,0-1.321-.77,3.339,3.339,0,0,1-3.373-2.107,7.26,7.26,0,0,1-.346-2.213.9.9,0,0,0-.527-.916,3.25,3.25,0,0,1-1.861-2.991c-.016-3.088-.139-6.191.111-9.261a17.853,17.853,0,0,1,16.33-16.261,1.53,1.53,0,0,0,.283-.08Zm9.5,20.381c-1.323-.242-2.55-.407-3.747-.7a21.414,21.414,0,0,1-9.459-4.993,1.021,1.021,0,0,0-.665-.282,8.287,8.287,0,0,0-4.141,1.551,14.574,14.574,0,0,0-3.069,3.48,1.4,1.4,0,0,0-.266.862c.186,2.322.375,4.646.636,6.96.157,1.4.445,2.776.678,4.191,1.1,0,2.1-.016,3.089.009a.633.633,0,0,0,.665-.429,3.448,3.448,0,0,1,3.065-1.958c.855-.041,1.715-.037,2.571,0a3.58,3.58,0,0,1-.049,7.159c-.737.023-1.475.007-2.213.006a3.589,3.589,0,0,1-3.429-2.067c-.064-.125-.195-.3-.3-.306-.722-.027-1.446-.014-2.259-.014a9.531,9.531,0,0,0,4.332,3.959c5.714,2.506,11.627-.811,13.156-6.645a48.963,48.963,0,0,0,.978-6.065C5092.263,2607.5,5092.346,2605.926,5092.486,2604.334Zm-12.861,38.439c-1.576-2.436-3.2-4.71-4.568-7.128s-2.5-5-3.756-7.552c-1.329.445-2.755.942-4.194,1.4-5.059,1.615-8.161,5.134-9.762,10.078a31.942,31.942,0,0,0-.694,3.2Zm4.269-.02h22.914a15.625,15.625,0,0,0-6.2-11.236c-2.552-1.842-5.612-2.37-8.55-3.518C5090.3,2633.447,5087.1,2638.041,5083.894,2642.753Zm8.6-40.9a9.846,9.846,0,0,0-6.021-10.019,14.829,14.829,0,0,0-6.064-.689,9.649,9.649,0,0,0-8.72,6.2c-.275.727-.431,1.5-.642,2.251l.254.156a2.054,2.054,0,0,1,.238-.407,10.839,10.839,0,0,1,7.217-3.417,2.2,2.2,0,0,1,1.832.647A19.436,19.436,0,0,0,5092.5,2601.851Zm4.749-1.179a15.5,15.5,0,0,0-30.91-.007h2.22c.034-.04.055-.054.057-.069.018-.178.03-.357.049-.535a11.953,11.953,0,0,1,8.139-10.651,16.189,16.189,0,0,1,6.851-.628,11.98,11.98,0,0,1,10.82,8.849c.261.989.379,2.016.566,3.041Zm-15.576,29.837c-1.344,1.421-2.621,2.787-3.92,4.132a.536.536,0,0,0-.078.806c1.345,2.02,2.665,4.055,4,6.084.027.041.093.057.167.1.581-.917,1.143-1.829,1.731-2.724.775-1.18,1.581-2.341,2.346-3.527a.636.636,0,0,0,.012-.593C5084.54,2633.362,5083.128,2631.963,5081.671,2630.509Zm1.726-1.824,4.118,4.116c.826-2,1.651-4,2.464-6a.533.533,0,0,0-.033-.389c-.487-1-.988-1.991-1.516-3.049Zm-7.294,4.228,3.814-4.03-5.037-5c-.412.823-.85,1.686-1.271,2.557a.535.535,0,0,0-.011.39C5074.407,2628.815,5075.227,2630.793,5076.1,2632.913Zm-9.857-29.805c0,2.152-.018,4.255.01,6.357a1.12,1.12,0,0,0,1.094,1.135c.608.046,1.222.01,1.859.01l-.6-7.5Zm28.118,7.465a1,1,0,0,0,.192.046c.457,0,.914.011,1.371,0a1.249,1.249,0,0,0,1.4-1.4c.011-1.928,0-3.856,0-5.783a1.754,1.754,0,0,0-.052-.313h-2.325Zm-13.781,7.222c.4,0,.8.022,1.195,0a1.209,1.209,0,0,0,1.193-1.18,1.192,1.192,0,0,0-1.181-1.189c-.795-.035-1.594-.034-2.39,0a1.185,1.185,0,1,0-.012,2.369C5079.784,2617.817,5080.184,2617.794,5080.583,2617.795Zm3.11,7.089h-4.034l2.064,2.085Zm-13.674-9.513-.416-2.31h-.945C5068.54,2614.827,5068.838,2615.346,5070.019,2615.371Z" fill="#febb12"/>
    <path id="Path_47011" data-name="Path 47011" d="M5103.372,2638.375a1.192,1.192,0,0,1-.8,1.218,1.1,1.1,0,0,1-1.356-.453c-.584-.8-1.133-1.628-1.742-2.409a9.385,9.385,0,0,0-1-.941,1.2,1.2,0,1,1,1.558-1.808,12.043,12.043,0,0,1,3.121,3.8A4.205,4.205,0,0,1,5103.372,2638.375Z" fill="#febb12"/>
    <path id="Path_47012" data-name="Path 47012" d="M5094.969,2631.324a1.186,1.186,0,1,1-1.215,1.158A1.222,1.222,0,0,1,5094.969,2631.324Z" fill="#febb12"/>
  </g>
</svg>
