<svg xmlns="http://www.w3.org/2000/svg" width="32.571" height="29.799" viewBox="0 0 32.571 29.799">
  <g id="Group_40484" data-name="Group 40484" transform="translate(-9849.501 -1133.19)" opacity="0.4">
    <path id="Path_43739" data-name="Path 43739" d="M9857.875,1134.817h-.382c-1.108,0-2.216,0-3.324,0a4.569,4.569,0,0,0-4.665,4.651q0,9.444,0,18.888a4.546,4.546,0,0,0,4.613,4.628q11.666.009,23.333,0a4.55,4.55,0,0,0,4.618-4.624q.007-9.462,0-18.923a4.567,4.567,0,0,0-4.626-4.621c-1.132,0-2.262,0-3.393,0h-.377c0-.2,0-.345,0-.491a1.085,1.085,0,1,0-2.168-.018c-.006.163,0,.327,0,.49h-11.35a6.138,6.138,0,0,0-.271-1.091.93.93,0,0,0-.924-.516C9858.266,1133.2,9857.982,1133.617,9857.875,1134.817Z" fill="#fff"/>
    <path id="Path_43740" data-name="Path 43740" d="M9857.875,1134.817c.107-1.2.391-1.617,1.082-1.626a.93.93,0,0,1,.924.516,6.138,6.138,0,0,1,.271,1.091h11.35c0-.163,0-.327,0-.49a1.085,1.085,0,1,1,2.168.018c0,.146,0,.291,0,.491h.377c1.131,0,2.261,0,3.393,0a4.567,4.567,0,0,1,4.626,4.621q.009,9.462,0,18.923a4.55,4.55,0,0,1-4.618,4.624q-11.667.008-23.333,0a4.546,4.546,0,0,1-4.613-4.628q-.006-9.444,0-18.888a4.569,4.569,0,0,1,4.665-4.651c1.108,0,2.216,0,3.324,0Zm-6.2,9.321v.373q0,6.885,0,13.769a2.407,2.407,0,0,0,2.58,2.586h23.063a2.406,2.406,0,0,0,2.581-2.585q0-6.885,0-13.769v-.374Zm28.225-2.2c0-.842,0-1.655,0-2.467a2.4,2.4,0,0,0-2.481-2.481c-1.142,0-2.284,0-3.426,0-.1,0-.194.014-.318.023,0,.168,0,.313,0,.458a1.089,1.089,0,0,1-1.08,1.146,1.1,1.1,0,0,1-1.09-1.147c0-.152,0-.305,0-.463h-11.413c-.014.239-.008.465-.043.684a1.077,1.077,0,0,1-2.143-.138c-.007-.177,0-.355,0-.526a.75.75,0,0,0-.137-.034c-1.277,0-2.556-.021-3.833.007a2.226,2.226,0,0,0-2.17,1.854,28.2,28.2,0,0,0-.023,3.084Z"/>
  </g>
</svg>
