<svg xmlns="http://www.w3.org/2000/svg" width="28" height="28.294" viewBox="0 0 28 28.294">
  <g id="Group_686" data-name="Group 686" transform="translate(-2085.837 -319.118)" opacity="0.5">
    <path id="Path_663" data-name="Path 663" d="M2094.089,333.735h-.371c-2.028,0-4.056,0-6.084,0a1.7,1.7,0,0,1-1.757-1.354,2.2,2.2,0,0,1-.038-.48q0-5.47,0-10.942a1.723,1.723,0,0,1,1.831-1.837q8.87,0,17.739,0a1.864,1.864,0,0,1,1.474.667q1.1,1.246,2.227,2.469a.531.531,0,0,0,.35.172,2.927,2.927,0,0,1,3.219,2.636c.388,2.016.758,4.035,1.129,6.055a1.776,1.776,0,0,1-.391,1.46q-2.42,3.14-4.827,6.289-2.958,3.854-5.916,7.709a1.742,1.742,0,0,1-2.691.359q-4.308-3.3-8.613-6.6a1.731,1.731,0,0,1-.34-2.592q1.423-1.861,2.854-3.72C2093.94,333.943,2093.993,333.866,2094.089,333.735Zm15.175-10.382c-1.864.148-3.837.312-5.811.455a1.179,1.179,0,0,0-.949.46q-5.335,6.972-10.684,13.933c-.468.61-.42,1.007.179,1.466l8.566,6.571a.841.841,0,0,0,1.346-.166q.963-1.248,1.92-2.5,4.41-5.746,8.823-11.493a1.007,1.007,0,0,0,.254-.836c-.38-2.027-.753-4.056-1.141-6.081a2.111,2.111,0,0,0-.939-1.524A2.693,2.693,0,0,0,2109.264,323.353Zm-1.161-.823c-.084-.1-.133-.17-.188-.231-.569-.635-1.145-1.264-1.707-1.906a1.048,1.048,0,0,0-.851-.367q-8.814.006-17.628,0c-.683,0-.981.3-.981.994q0,5.4,0,10.8c0,.712.286,1,.995,1,2.076,0,4.152-.027,6.227.017a1.449,1.449,0,0,0,1.347-.667c2.148-2.853,4.338-5.675,6.509-8.511a1.732,1.732,0,0,1,1.258-.737c1.01-.087,2.022-.159,3.032-.238C2106.764,322.639,2107.412,322.586,2108.1,322.53Z"/>
    <path id="Path_664" data-name="Path 664" d="M2101.075,340.946a3.887,3.887,0,0,1-.287.816,11.1,11.1,0,0,1-.848,1.137c-.181.223-.431.213-.7,0q-1.4-1.068-2.8-2.142c-.33-.253-.664-.5-.99-.762a.459.459,0,0,1-.094-.736c.233-.311.466-.621.711-.922a1.67,1.67,0,0,1,2.271-.319c.705.511,1.391,1.048,2.075,1.587A1.876,1.876,0,0,1,2101.075,340.946Zm-1.56,1.028c.176-.233.341-.429.481-.642a.734.734,0,0,0-.135-1q-1.011-.8-2.052-1.57a.723.723,0,0,0-1.019.135c-.167.191-.313.4-.484.618Z"/>
    <path id="Path_665" data-name="Path 665" d="M2098.768,336.309l1.236.95.57-.732c.076-.1.145-.2.229-.289a.453.453,0,0,1,.615-.058.43.43,0,0,1,.09.608c-.241.34-.5.665-.776,1.028l1.233.947c.076-.093.146-.176.213-.262.329-.427.652-.859.988-1.282a.438.438,0,0,1,.627-.111.428.428,0,0,1,.108.626q-.738.991-1.5,1.96c-.184.231-.419.22-.7,0q-1.355-1.033-2.7-2.072c-.353-.271-.708-.54-1.059-.813a.472.472,0,0,1-.1-.774q.679-.893,1.366-1.78c.211-.272.459-.322.684-.151s.241.428.035.7C2099.54,335.306,2099.158,335.8,2098.768,336.309Z"/>
    <path id="Path_666" data-name="Path 666" d="M2104.414,336.934a1.819,1.819,0,0,1-.4-.3c-.974-1.388-1.936-2.783-2.9-4.176a.456.456,0,0,1-.023-.578.451.451,0,0,1,.561-.142q2.4.859,4.808,1.722a.45.45,0,0,1,.3.612.46.46,0,0,1-.618.234c-.314-.106-.626-.216-.935-.335a.225.225,0,0,0-.31.089c-.227.315-.463.624-.709.924a.223.223,0,0,0,0,.322,7.781,7.781,0,0,1,.574.844.631.631,0,0,1,.03.475C2104.743,336.741,2104.568,336.813,2104.414,336.934Zm-1.694-3.852-.036.047.847,1.218.59-.764Z"/>
    <path id="Path_667" data-name="Path 667" d="M2107.133,332.04l1.068-1.391a1.811,1.811,0,0,1,.181-.217.418.418,0,0,1,.57-.042.393.393,0,0,1,.131.574q-.753,1.031-1.554,2.028c-.175.218-.4.192-.681-.021q-1.455-1.111-2.907-2.228c-.271-.208-.542-.414-.811-.623-.3-.231-.374-.495-.2-.721s.446-.234.747,0q1.579,1.207,3.156,2.418C2106.919,331.882,2107.01,331.949,2107.133,332.04Z"/>
    <path id="Path_668" data-name="Path 668" d="M2110.41,326.631a1.636,1.636,0,1,1-1.633-1.652A1.636,1.636,0,0,1,2110.41,326.631Zm-1.651-.742a.726.726,0,1,0,.739.715A.748.748,0,0,0,2108.759,325.889Z"/>
    <path id="Path_669" data-name="Path 669" d="M2090.393,330.362c-.428,0-.648-.325-.525-.619a1.155,1.155,0,0,1,.133-.217q2.4-3.334,4.795-6.666a.626.626,0,0,1,.336-.271.556.556,0,0,1,.444.144.771.771,0,0,1,.064.467c0,.073-.083.145-.133.214q-2.379,3.312-4.762,6.62A2.1,2.1,0,0,1,2090.393,330.362Z"/>
    <path id="Path_670" data-name="Path 670" d="M2094.726,327.166a1.629,1.629,0,1,1-1.622,1.626A1.628,1.628,0,0,1,2094.726,327.166Zm.014,2.347a.726.726,0,0,0,.714-.727.718.718,0,0,0-.728-.708.7.7,0,0,0-.71.722A.717.717,0,0,0,2094.74,329.513Z"/>
    <path id="Path_671" data-name="Path 671" d="M2090.779,322.445a1.629,1.629,0,1,1-1.625,1.629A1.631,1.631,0,0,1,2090.779,322.445Zm0,.912a.721.721,0,0,0-.716.723.723.723,0,0,0,1.446-.016A.715.715,0,0,0,2090.781,323.357Z"/>
  </g>
</svg>
