<svg xmlns="http://www.w3.org/2000/svg" xmlns:xlink="http://www.w3.org/1999/xlink" width="90.353" height="90.353" viewBox="0 0 90.353 90.353">
  <defs>
    <filter id="Ellipse_57" x="0" y="0" width="90.353" height="90.353" filterUnits="userSpaceOnUse">
      <feOffset input="SourceAlpha"/>
      <feGaussianBlur stdDeviation="5" result="blur"/>
      <feFlood flood-opacity="0.078"/>
      <feComposite operator="in" in2="blur"/>
      <feComposite in="SourceGraphic"/>
    </filter>
    <linearGradient id="linear-gradient" y1="0.5" x2="1" y2="0.5" gradientUnits="objectBoundingBox">
      <stop offset="0" stop-color="#ca1e09"/>
      <stop offset="1" stop-color="#d81e09"/>
    </linearGradient>
    <linearGradient id="linear-gradient-2" x1="0" y1="0.5" x2="1" y2="0.5" xlink:href="#linear-gradient"/>
    <linearGradient id="linear-gradient-3" x1="0" y1="0.5" x2="1" y2="0.5" xlink:href="#linear-gradient"/>
    <linearGradient id="linear-gradient-4" x1="0" y1="0.5" x2="1" y2="0.5" xlink:href="#linear-gradient"/>
  </defs>
  <g id="Group_723" data-name="Group 723" transform="translate(-464.652 -401.285)">
    <g transform="matrix(1, 0, 0, 1, 464.65, 401.29)" filter="url(#Ellipse_57)">
      <circle id="Ellipse_57-2" data-name="Ellipse 57" cx="30.176" cy="30.176" r="30.176" transform="translate(15 15)" fill="#fff"/>
    </g>
    <g id="Group_637" data-name="Group 637" transform="translate(-4084.175)">
      <path id="Path_603" data-name="Path 603" d="M4583.378,439.758c-.132-.029-.228-.053-.324-.072a1.821,1.821,0,0,1-1.542-1.81c-.01-.666-.011-1.332,0-2a1.815,1.815,0,0,1,1.842-1.828c1.445-.013,2.89,0,4.335-.005h.514c0-.5,0-.963,0-1.426a1.928,1.928,0,0,1,2.049-2.05q3.761-.008,7.522,0a1.924,1.924,0,0,1,2.031,2.025c.007.465,0,.929,0,1.451h4.57a1.882,1.882,0,0,1,2.125,2.148c0,.495,0,.991,0,1.487a1.848,1.848,0,0,1-1.646,2.024c-.067.014-.133.035-.222.059v19.721a2.593,2.593,0,0,1-2.861,2.872h-15.555a2.59,2.59,0,0,1-2.841-2.848V439.758Zm1.19-.012v.456q0,9.687,0,19.373a1.406,1.406,0,0,0,1.589,1.592q7.84,0,15.68,0a1.411,1.411,0,0,0,1.606-1.618q0-9.665,0-19.33v-.473Zm9.468-4.51h-10.491c-.627,0-.841.217-.845.838,0,.468,0,.935,0,1.4,0,.906.153,1.06,1.06,1.06h20.473c.1,0,.2,0,.3,0,.544-.02.775-.249.782-.786s0-1.048,0-1.571c0-.761-.184-.942-.955-.942Zm-4.629-1.216h9.209c0-.476,0-.925,0-1.375-.008-.613-.272-.88-.878-.886s-1.189,0-1.783,0q-2.843,0-5.686,0c-.5,0-.828.226-.853.638C4589.383,432.929,4589.407,433.464,4589.407,434.02Z" fill="url(#linear-gradient)"/>
      <path id="Path_604" data-name="Path 604" d="M4593.411,450.458q0-2.931,0-5.863a2.376,2.376,0,0,1,.006-.339.591.591,0,0,1,1.179.013,2.509,2.509,0,0,1,0,.3q0,5.885,0,11.769a1.6,1.6,0,0,1-.012.339.589.589,0,0,1-1.167-.014,2.105,2.105,0,0,1-.01-.381Q4593.411,453.369,4593.411,450.458Z" fill="url(#linear-gradient-2)"/>
      <path id="Path_605" data-name="Path 605" d="M4588.2,450.439q0-2.908,0-5.819c0-.142-.045-.321.023-.416.135-.188.323-.44.509-.457a.867.867,0,0,1,.586.35c.1.116.069.351.069.533q0,5.82,0,11.639a1.783,1.783,0,0,1-.05.5.482.482,0,0,1-.612.384,1.2,1.2,0,0,1-.5-.48c-.067-.1-.022-.276-.022-.417Q4588.2,453.349,4588.2,450.439Z" fill="url(#linear-gradient-3)"/>
      <path id="Path_606" data-name="Path 606" d="M4598.619,450.459q0-2.931,0-5.862c0-.168-.028-.388.063-.492.15-.17.394-.374.582-.359s.38.263.517.448c.069.094.025.275.025.416q0,5.841,0,11.682a2.676,2.676,0,0,1-.013.381.58.58,0,0,1-1.136.068,1.829,1.829,0,0,1-.039-.463Q4598.617,453.369,4598.619,450.459Z" fill="url(#linear-gradient-4)"/>
    </g>
  </g>
</svg>
