<svg xmlns="http://www.w3.org/2000/svg" width="75.905" height="75.905" viewBox="0 0 75.905 75.905">
  <g id="Group_1329" data-name="Group 1329" transform="translate(-14497.279 -10481.134)">
    <g id="Group_1636" data-name="Group 1636">
      <circle id="Ellipse_23-2" data-name="Ellipse 23-2" cx="37.953" cy="37.953" r="37.953" transform="translate(14497.279 10481.134)" fill="#fff"/>
    </g>
    <g id="Group_1328" data-name="Group 1328">
      <path id="Path_1697" data-name="Path 1697" d="M14540.294,10497.183a10.621,10.621,0,0,1,1.861.79,3.919,3.919,0,0,1,1.7,3.45v1.088h.48c1.51,0,3.022-.012,4.533,0a3.913,3.913,0,0,1,1.726,7.518.645.645,0,0,0-.487.733q.018,12.231.01,24.461a5.946,5.946,0,0,1-1,3.52,4.968,4.968,0,0,1-4.2,2.238c-1.5.021-2.994,0-4.49,0-4.876,0-9.753-.037-14.628.013a5.3,5.3,0,0,1-5.435-5.156c0-.061,0-.122,0-.183-.05-2.551-.013-5.1-.013-7.655q0-8.682.007-17.362a.505.505,0,0,0-.4-.571,3.9,3.9,0,0,1-2.492-4.1,3.843,3.843,0,0,1,3.513-3.4c1.32-.078,2.647-.048,3.973-.062.527,0,1.054,0,1.618,0,.031-.593.037-1.173.095-1.746a3.965,3.965,0,0,1,3.328-3.514,1.185,1.185,0,0,0,.2-.067Zm-17.883,13.155v24.97a5.543,5.543,0,0,0,.066.853,3.151,3.151,0,0,0,3.184,2.767q9.582.009,19.164,0a3.006,3.006,0,0,0,2.141-.818,3.719,3.719,0,0,0,1.1-2.864v-24.911Zm12.809-2.077h13.428a6.669,6.669,0,0,0,.684-.029,1.832,1.832,0,0,0,.282-3.579,3.636,3.636,0,0,0-.891-.085q-13.494-.006-26.985,0a4.308,4.308,0,0,0-.682.047,1.816,1.816,0,0,0-1.529,1.66,1.8,1.8,0,0,0,1.212,1.858,3.427,3.427,0,0,0,1.01.125q6.735.01,13.476,0Zm6.557-5.771c0-.527.039-1.013-.009-1.489a1.887,1.887,0,0,0-1.884-1.752q-4.642-.029-9.284,0a1.876,1.876,0,0,0-1.879,1.613,11.625,11.625,0,0,0-.013,1.629Z" fill="#ff2424"/>
      <path id="Path_1698" data-name="Path 1698" d="M14530.2,10523.795v-8.465c0-.413.014-.827-.007-1.239a.993.993,0,0,0-.949-1.016c-.692-.039-1.095.438-1.095,1.313v18.767a2.332,2.332,0,0,0,.038.466,1.007,1.007,0,0,0,1.053.858,1.021,1.021,0,0,0,.949-.98c.014-.141.008-.285.008-.427Zm4.01-.054v9.405a2.368,2.368,0,0,0,.057.592.995.995,0,0,0,1.932-.026,2.555,2.555,0,0,0,.06-.591q.006-9.343,0-18.68a2.635,2.635,0,0,0-.057-.593.957.957,0,0,0-1.068-.769c-.589.05-.924.48-.925,1.214Q14534.211,10519.02,14534.213,10523.741Zm6.056.049v9.319c0,.9.367,1.387,1.038,1.372s1.017-.493,1.017-1.364v-18.681c0-.889-.378-1.378-1.05-1.367s-1,.474-1,1.359Q14540.268,10519.109,14540.269,10523.79Z" fill="#ff2424"/>
      <path id="Path_1699" data-name="Path 1699" d="M14530.2,10523.795v9.276c0,.142.006.286-.008.427a1.021,1.021,0,0,1-.949.98,1.007,1.007,0,0,1-1.053-.858,2.332,2.332,0,0,1-.038-.466v-18.767c0-.87.4-1.352,1.095-1.312a.993.993,0,0,1,.949,1.016c.021.412.007.826.007,1.239Z" fill="#ff2424"/>
      <path id="Path_1700" data-name="Path 1700" d="M14534.213,10523.741v-9.447c0-.733.335-1.165.925-1.214a.958.958,0,0,1,1.068.769,2.693,2.693,0,0,1,.057.593q0,9.34,0,18.68a2.667,2.667,0,0,1-.06.591.994.994,0,0,1-1.931.026,2.325,2.325,0,0,1-.059-.592Q14534.211,10528.443,14534.213,10523.741Z" fill="#ff2424"/>
      <path id="Path_1701" data-name="Path 1701" d="M14540.269,10523.79v-9.361c0-.885.346-1.349,1-1.359s1.05.479,1.05,1.367q0,9.341,0,18.681c0,.869-.36,1.35-1.016,1.364-.671.015-1.037-.47-1.037-1.372Q14540.268,10528.448,14540.269,10523.79Z" fill="#ff2424"/>
    </g>
  </g>
</svg>
