<svg xmlns="http://www.w3.org/2000/svg" width="48.398" height="60.397" viewBox="0 0 48.398 60.397">
  <g id="Group_2087" data-name="Group 2087" transform="translate(-5344.303 -9534.55)" opacity="0.7">
    <path id="Path_2688" data-name="Path 2688" d="M5392.7,9594.947h-48.385v-.686q0-7.938,0-15.875a7.038,7.038,0,0,1,5.123-7.1q4.53-1.515,9.062-3.021c.3-.1.592-.2.933-.319,0-.969.011-1.931-.01-2.893a.9.9,0,0,0-.217-.494,13.965,13.965,0,0,1-2.374-4.685,1.723,1.723,0,0,0-.542-.788c-.82-.654-1.679-1.258-2.519-1.888a4.187,4.187,0,0,1-.879-5.276,2.9,2.9,0,0,1,2.393-1.3c.352-.019.706,0,1.125,0,0-1.056-.044-2.06.009-3.059a13.965,13.965,0,0,0-.74-5.442c-.228-.65-.362-1.334-.552-2a2.936,2.936,0,0,1,1.791-3.747,2.852,2.852,0,0,1,.546-.136c2.329-.43,4.679-.751,7.019-1.12.766-.121,1.549-.183,2.3-.378a10.712,10.712,0,0,1,4.481.171c2.569.4,5.135.823,7.706,1.216,2.48.378,3.492,1.931,2.815,4.36-.309,1.109-.645,2.215-.909,3.336a9.749,9.749,0,0,0-.26,1.979c-.035,1.612-.012,3.228-.012,4.932.415,0,.784-.011,1.153,0a2.771,2.771,0,0,1,2.756,2.239c.4,2.331.078,3.469-1.595,4.576-.017.012-.033.026-.051.037a6.835,6.835,0,0,0-3.4,4.174,12.892,12.892,0,0,1-1.568,2.776,2.275,2.275,0,0,0-.3.91c-.045.67.015,1.345-.023,2.014a.668.668,0,0,0,.526.787l.036.006c3.166,1.032,6.321,2.1,9.481,3.151a6.946,6.946,0,0,1,5.086,7.051q0,7.906,0,15.812Zm-2.016-2.023V9578.46a5.1,5.1,0,0,0-3.716-5.163q-3.129-1.05-6.26-2.1c-1.02-.339-2.044-.671-3.128-1.026a3.311,3.311,0,0,0,0,.606c.268,1.262-.352,1.827-1.457,2.368-3.1,1.521-6.336,2.8-9.159,4.846a1,1,0,0,0-.487.916c.017,4.472.01,8.945.01,13.417v.593h14.122v-8.994h2.023v9Zm-31.272-22.717c-.27.077-.511.138-.745.214q-4.323,1.44-8.645,2.883a4.933,4.933,0,0,0-3.689,5.146q0,6.9,0,13.79v.669h8.1v-8.992h2v8.985h8.047v-.737c0-4.786,0-9.572-.01-14.358a.889.889,0,0,1,.488-.905c.5-.277.968-.627,1.521-1-1.919-.958-3.7-1.952-5.562-2.739-1.175-.5-1.739-1.145-1.486-2.42a2.552,2.552,0,0,0-.012-.539Zm-.983-18.758c0,1.634.013,3.139,0,4.642a11.471,11.471,0,0,0,5.885,10.378,7.738,7.738,0,0,0,6.179.921,11.38,11.38,0,0,0,7.949-9.27c.2-2.02.11-4.067.146-6.1a4.689,4.689,0,0,0-.047-.5A14.291,14.291,0,0,1,5358.425,9551.449Zm-.217-7.938H5378.8c.356-1.244.7-2.453,1.047-3.663.345-1.231.065-1.646-1.2-1.834-2.716-.4-5.427-.83-8.144-1.219a10.589,10.589,0,0,0-2.545-.179c-1.706.179-3.4.5-5.093.775-1.635.261-3.271.517-4.9.792-.794.136-1.12.532-.944,1.177C5357.4,9540.748,5357.809,9542.129,5358.208,9543.511Zm1.4,6.118c5.382,5.994,14.239,4.658,17.811,0Zm-1.154-2.089h20.08V9545.6h-20.08Zm11.15,26.563c2.019-1.011,3.927-1.964,5.83-2.926.1-.05.219-.177.22-.269.014-1.351.01-2.7.01-4.216a10.865,10.865,0,0,1-6.06,2.862Zm-8.045-7.193c0,1.411.015,2.644-.008,3.877a.681.681,0,0,0,.442.723c1.713.835,3.414,1.7,5.12,2.545a4.433,4.433,0,0,0,.465.172v-4.561a11.566,11.566,0,0,1-6.019-2.756Zm-5.18-14.219c-1.014-.15-1.5-.065-1.781.3a2.745,2.745,0,0,0,0,2.228c.534.5,1.144.915,1.784,1.416Zm24.258-.06v4c.616-.471,1.183-.855,1.693-1.307a2.4,2.4,0,0,0,.035-2.364,1.253,1.253,0,0,0-.653-.317,7.448,7.448,0,0,0-1.075-.013Z"/>
    <path id="Path_2689" data-name="Path 2689" d="M5372.589,9579.859h7.962v1.962h-7.962Z"/>
    <path id="Path_2690" data-name="Path 2690" d="M5370.483,9582.839h-1.931V9580.9h1.931Z"/>
    <path id="Path_2691" data-name="Path 2691" d="M5370.485,9586.874h-1.936v-1.946h1.936Z"/>
    <path id="Path_2692" data-name="Path 2692" d="M5370.483,9590.905h-1.931v-1.942h1.931Z"/>
  </g>
</svg>
