<svg xmlns="http://www.w3.org/2000/svg" width="30" height="22.503" viewBox="0 0 30 22.503">
  <g id="Group_41885" data-name="Group 41885" transform="translate(-4612.479 -3238.275)">
    <g id="Group_41884" data-name="Group 41884">
      <path id="Path_45359" data-name="Path 45359" d="M4642.479,3242.379v16.171a.945.945,0,0,0-.045.137,2.485,2.485,0,0,1-2.55,2.088q-12.406.006-24.812-.009a2.857,2.857,0,0,1-1.183-.265,2.406,2.406,0,0,1-1.408-2.341q-.006-7.719,0-15.438a1.7,1.7,0,0,1,.009-.234.62.62,0,0,1,.954-.446,1.89,1.89,0,0,1,.231.18q4.68,3.992,9.358,7.985c.994.85,1.969,1.724,2.978,2.555a2.285,2.285,0,0,0,1.731.477,3.2,3.2,0,0,0,1.78-.929q5.877-5.047,11.763-10.085C4641.789,3241.792,4642.117,3241.838,4642.479,3242.379Z" fill="#8a8a8a"/>
      <path id="Path_45360" data-name="Path 45360" d="M4627.479,3238.277q6.182,0,12.363,0a2.556,2.556,0,0,1,1.924.771c.427.438.4.786-.064,1.185-2.046,1.738-4.1,3.471-6.136,5.218q-3.537,3.031-7.056,6.081a1.315,1.315,0,0,1-2.061,0q-6.584-5.641-13.171-11.279c-.5-.43-.52-.783-.046-1.247a2.565,2.565,0,0,1,1.884-.729Q4621.3,3238.283,4627.479,3238.277Z" fill="#8a8a8a"/>
    </g>
  </g>
</svg>
