<svg xmlns="http://www.w3.org/2000/svg" width="50.001" height="50.002" viewBox="0 0 50.001 50.002">
  <g id="Group_40481" data-name="Group 40481" transform="translate(-9107.12 -2354.638)" opacity="0.7">
    <path id="Path_43732" data-name="Path 43732" d="M9123.63,2404.64a11.713,11.713,0,0,1-1.7-.679,4.37,4.37,0,0,1-2.286-3.9c-.036-4.2-.018-8.4-.011-12.595a1.487,1.487,0,0,1,1.559-1.575,1.5,1.5,0,0,1,1.56,1.625q.007,6.054,0,12.108c0,1.325.569,1.888,1.906,1.888h27.48c1.272,0,1.856-.577,1.856-1.837V2359.6a1.6,1.6,0,0,0-1.814-1.832h-27.628a1.585,1.585,0,0,0-1.8,1.8q0,6.1,0,12.206a1.558,1.558,0,0,1-2.376,1.432,1.6,1.6,0,0,1-.748-1.538q.007-6.1.006-12.2a6.063,6.063,0,0,1,.079-.921,4.654,4.654,0,0,1,4.383-3.887c.211-.008.423-.007.634-.007h27.286a4.679,4.679,0,0,1,5.047,3.929c.008.028.038.05.06.075v41.993c-.035.1-.077.207-.1.314a4.671,4.671,0,0,1-3.167,3.472c-.239.084-.488.146-.733.218Z"/>
    <path id="Path_43733" data-name="Path 43733" d="M9136.031,2381.2h-.527q-13.326,0-26.652,0a1.548,1.548,0,0,1-1.635-2.086,1.427,1.427,0,0,1,1.29-1.028,4.969,4.969,0,0,1,.585-.01h27.034c-.175-.191-.285-.32-.405-.439-1.54-1.543-3.09-3.077-4.622-4.63a1.568,1.568,0,1,1,2.25-2.17q1.9,1.9,3.8,3.8,1.881,1.881,3.76,3.765a1.575,1.575,0,0,1,0,2.474q-3.81,3.819-7.628,7.629a1.464,1.464,0,0,1-1.776.383,1.534,1.534,0,0,1-.93-1.614,2.22,2.22,0,0,1,.57-1.034c1.5-1.539,3.027-3.047,4.55-4.562.125-.125.27-.231.4-.345Z"/>
  </g>
</svg>
