<svg xmlns="http://www.w3.org/2000/svg" width="79.12" height="50.697" viewBox="0 0 79.12 50.697">
  <g id="Group_1991" data-name="Group 1991" transform="translate(-14249.602 -8522.515)" opacity="0.7">
    <path id="Path_2526" data-name="Path 2526" d="M14328.722,8572.465c-.415.47-.837.932-1.562.642s-.759-.888-.758-1.534q.007-5.793,0-11.586c0-.323-.031-.646-.055-1.1-1.456,1.3-2.759,2.4-2.619,4.55.178,2.743.066,5.508.02,8.263a1.873,1.873,0,0,1-.528,1.266c-.717.613-1.722.029-1.756-.989-.037-1.132-.01-2.266-.011-3.4,0-1.905.029-3.812-.009-5.716a5.262,5.262,0,0,1,1.715-4.141c.543-.5,1.113-.981,1.758-1.549l-7.064-3.549c-.831.851-1.714,1.714-2.541,2.626a1.383,1.383,0,0,0-.2.856c-.013,4.765-.006,9.527-.013,14.29a3.833,3.833,0,0,1-.1.989,1.027,1.027,0,0,1-1.163.8,1.066,1.066,0,0,1-1.026-.983,5.654,5.654,0,0,1-.026-.771c0-4.736-.011-9.475.012-14.212a1.659,1.659,0,0,0-.564-1.342c-.768-.722-1.482-1.5-2.228-2.263-.284.137-.5.257-.735.353a1.027,1.027,0,0,1-1.354-.4.97.97,0,0,1,.068-1.371.724.724,0,0,1,.1-.08c1.109-.67,1.026-1.687.974-2.719a.988.988,0,0,0-.274-.593,7.417,7.417,0,0,1-2.19-5.736c.017-.434.076-.852-.566-.978a.991.991,0,0,1-.6-.718c-.1-2-.291-4.028.66-5.907a7.259,7.259,0,0,1,6.761-4.2,15.922,15.922,0,0,1,3.988.245,7.233,7.233,0,0,1,5.7,7.295c.011.618,0,1.237,0,1.854-.008,1.027-.2,1.29-1.18,1.637-.054.784-.074,1.578-.173,2.364a7.01,7.01,0,0,1-1.977,4.013,2.322,2.322,0,0,0,.47,3.252c.027.021.057.041.085.062,1.741.888,3.468,1.808,5.25,2.606a5.88,5.88,0,0,1,3.709,4.122Zm-19.8-29.39h0c0,.155,0,.309,0,.462a5,5,0,0,0,6.565,4.784c2.541-.854,3.7-3.023,3.466-5.858-.013-.16-.35-.367-.569-.426a53.273,53.273,0,0,1-5.2-1.369c-1.108-.417-1.967-.618-2.861.283a2.032,2.032,0,0,1-.812.429.8.8,0,0,0-.611.959l.01.04A5.344,5.344,0,0,1,14308.919,8543.075Zm11.221-3.2c.38-3.067-1.1-5.6-3.78-6.093a13.993,13.993,0,0,0-4.824-.006,4.873,4.873,0,0,0-3.729,5.794c.016.068.032.137.051.205.866-.6,1.708-1.12,2.483-1.732.873-.687,1.088-.737,2.073-.222a18.659,18.659,0,0,0,7.726,2.054Zm-8.809,10.577c.037.526-.091,1.069.123,1.318.758.891,1.633,1.682,2.521,2.567.707-.731,1.312-1.44,2.006-2.049a1.369,1.369,0,0,0,.4-1.8,8,8,0,0,1-5.054-.038Z"/>
    <path id="Path_2527" data-name="Path 2527" d="M14304.124,8556.586c-1.159,1.076-2.373,2.076-3.414,3.231a2.971,2.971,0,0,0-.445,1.813c-.041,3.271-.016,6.541-.023,9.813,0,.33.049.757-.132.97-.28.336-.747.745-1.108.721s-.735-.506-1.013-.855c-.132-.165-.062-.5-.062-.754,0-3.271.028-6.543-.014-9.812a5.587,5.587,0,0,1,1.8-4.342c1.114-1.061,2.186-2.166,3.376-3.354a16.019,16.019,0,0,0-1.456-.876c-1.94-.888-3.9-1.733-5.84-2.623a.748.748,0,0,0-1,.18c-1.307,1.351-2.671,2.646-3.962,4.013a1.926,1.926,0,0,0-.485,1.2c-.033,5.125-.021,10.249-.023,15.374a6.223,6.223,0,0,1-.066,1,1.114,1.114,0,0,1-2.186.017,5.7,5.7,0,0,1-.066-1q-.006-7.687.007-15.373a1.618,1.618,0,0,0-.535-1.282c-1.332-1.289-2.638-2.6-3.933-3.933a.746.746,0,0,0-1-.2c-1.961.9-3.946,1.755-5.91,2.652a13.543,13.543,0,0,0-1.4.857c1.03,1.026,1.93,2.017,2.928,2.894a6.393,6.393,0,0,1,2.264,5.4c-.111,3.032-.026,6.076-.029,9.115a4.909,4.909,0,0,1-.046.847.955.955,0,0,1-1.018.891l-.058,0a2,2,0,0,1-1.075-.8c-.171-.227-.115-.645-.116-.976-.007-3.245-.025-6.489.008-9.734a3.33,3.33,0,0,0-1.084-2.61c-.891-.849-1.728-1.754-2.589-2.637l-.217.076v14.772c0,.231.006.462-.006.7a1.171,1.171,0,0,1-1.088,1.247h-.018a1.216,1.216,0,0,1-1.192-1.18,4.985,4.985,0,0,1-.015-.616c0-4.712.013-9.429,0-14.138a6.376,6.376,0,0,1,4.172-6.4c1.939-.828,3.847-1.728,5.788-2.548a1.8,1.8,0,0,0,1.224-1.827,2.768,2.768,0,0,0-.9-2.286,9.589,9.589,0,0,1-2.854-6.726,2.7,2.7,0,0,0-.444-.974c-.223-.426-.623-.824-.669-1.264-.3-2.86-.183-5.67,1.5-8.171a9.4,9.4,0,0,1,7.187-4.4c2.694-.245,5.423-.364,7.931.976a9.71,9.71,0,0,1,5.418,8.8,2.658,2.658,0,0,1-.809,2.018,1.61,1.61,0,0,0-.4.9c-.167,1.553-.154,3.139-.452,4.664a8.478,8.478,0,0,1-2.76,4.549,2.39,2.39,0,0,0,.594,3.674q3.023,1.361,6.058,2.7a6.215,6.215,0,0,1,3.976,6.132q.016,7.225,0,14.447c0,.3.035.708-.132.892-.3.324-.76.733-1.121.7s-.75-.506-1-.873c-.146-.215-.057-.6-.057-.908v-13.983Zm-6.29-23.845c.4-2.951-1.964-6.405-4.926-7.4a14.161,14.161,0,0,0-4.736-.448c-5.11.048-8.562,4.208-7.632,9.955.554-.354,1.068-.67,1.566-1.007.7-.474,1.369-.44,1.776.108a1.2,1.2,0,0,1-.3,1.677c-.031.022-.064.042-.1.062-.446.344-.96.6-1.4.95a1.088,1.088,0,0,0-.424.7,7.487,7.487,0,0,0,11.379,6.41c2.9-1.714,4.063-4.861,3.521-8.529a50.418,50.418,0,0,1-5.126-.032,11.2,11.2,0,0,1-6.619-3.026,1.186,1.186,0,0,1-.287-1.653.986.986,0,0,1,.094-.117,1.157,1.157,0,0,1,1.635-.047,1.123,1.123,0,0,1,.088.093c3.4,2.958,7.375,2.971,11.484,2.3Zm-8.666,20.341c1.4-1.4,2.724-2.731,4.041-4.066.1-.1.207-.272.181-.381-.168-.708-.371-1.408-.57-2.138a10.172,10.172,0,0,1-7.325.01c-.185.709-.367,1.345-.5,1.989a.661.661,0,0,0,.141.521c1.311,1.341,2.642,2.663,4.035,4.064Z"/>
    <path id="Path_2528" data-name="Path 2528" d="M14265.857,8557.333c-.849.857-1.716,1.7-2.533,2.593a1.342,1.342,0,0,0-.248.833c-.016,3.553-.01,7.106-.01,10.661q.009.347-.016.694a1.085,1.085,0,0,1-1.1,1.069h-.008a1.07,1.07,0,0,1-1.142-.944,4.225,4.225,0,0,1-.05-.846c0-3.527.012-7.054-.023-10.583a1.9,1.9,0,0,0-.462-1.128c-.725-.832-1.522-1.6-2.266-2.36l-5.286,2.7c.886.87,1.665,1.648,2.462,2.413a5.307,5.307,0,0,1,1.71,4.145c-.037,1.724,0,3.45-.011,5.176,0,.91-.442,1.45-1.148,1.45s-1.157-.539-1.164-1.444c-.011-1.7-.038-3.4.01-5.1a3.269,3.269,0,0,0-1.111-2.675c-.474-.432-.887-.932-1.328-1.4l-.205.056v8.8a4.224,4.224,0,0,1-.033.77,1.085,1.085,0,0,1-1.126.97,1.074,1.074,0,0,1-1.12-.974,6.515,6.515,0,0,1-.035-1.078c0-2.962.006-5.923,0-8.885a4.939,4.939,0,0,1,2.929-4.771c1.173-.588,2.342-1.183,3.521-1.754a1.686,1.686,0,0,0,1-1.582,3.71,3.71,0,0,0-1.367-3.533,6.528,6.528,0,0,1-2.21-4.391,15.686,15.686,0,0,1,.277-6.506,8.091,8.091,0,0,1,2.987-4.207.912.912,0,0,0,.4-1.031,4.691,4.691,0,0,1,2.105-4.879,4.758,4.758,0,0,1,5.379.024,4.7,4.7,0,0,1,2.059,4.9.835.835,0,0,0,.371.953,8.256,8.256,0,0,1,3.42,6.692,15.246,15.246,0,0,1-.4,5.282,8.353,8.353,0,0,1-2.713,3.951,1.223,1.223,0,0,0-.589,1.225,2.252,2.252,0,0,1,0,.617,2.328,2.328,0,0,0,1.636,2.83,1.11,1.11,0,0,1,.822,1.337,1.128,1.128,0,0,1-.107.275c-.3.626-.93.8-1.718.435C14266.917,8557.9,14266.445,8557.634,14265.857,8557.333Zm-10.181-12.567a6.23,6.23,0,0,0,6.16,6.3h.1c3.286-.019,6.322-2.906,6.132-5.883a9.5,9.5,0,0,1-8.392-2.192.728.728,0,0,0-.649-.022c-1.091.556-2.157,1.152-3.35,1.8Zm12.43-2a6.2,6.2,0,0,0-12.362-1.032c-.017.184-.023.368-.022.553.911-.611,1.747-1.088,2.486-1.685,1.086-.878,1.5-.879,2.472.113a7.147,7.147,0,0,0,7.427,2.054Zm-3.692,10.449h-5.035c-.026.52-.065,1.158-.085,1.8a.752.752,0,0,0,.124.489c.8.852,1.627,1.682,2.457,2.531.237-.222.37-.342.5-.467.659-.654,1.318-1.3,1.958-1.971a.815.815,0,0,0,.224-.526c-.021-.664-.1-1.326-.138-1.856Zm-.006-19.327a2.506,2.506,0,0,0-4.041-2.247,2.423,2.423,0,0,0-.989,2.247Z"/>
  </g>
</svg>
