<svg xmlns="http://www.w3.org/2000/svg" width="65.926" height="72.224" viewBox="0 0 65.926 72.224">
  <g id="Group_1992" data-name="Group 1992" transform="translate(-14527.611 -8511.752)" opacity="0.7">
    <path id="Path_2529" data-name="Path 2529" d="M14582.151,8511.752a9.42,9.42,0,0,1,4.013,1.883,7.627,7.627,0,0,1,.741,10.759c-.16.183-.327.358-.5.524a7.622,7.622,0,1,1-6.681-13.026,4.161,4.161,0,0,0,.456-.14Zm-1,13.13a5.488,5.488,0,1,0-.156,0Z"/>
    <path id="Path_2530" data-name="Path 2530" d="M14574.173,8557.1c-.851,0-1.577.011-2.3,0a2.856,2.856,0,0,1-3.075-3.091c-.012-5.849-.035-11.7.006-17.544a8.332,8.332,0,0,1,8.131-8.526c.081,0,.161,0,.242,0,2.817-.06,5.639-.065,8.454.024a8.344,8.344,0,0,1,7.907,8.043c.02.812-.364,1.329-1.01,1.359-.6.028-1.035-.4-1.1-1.2a6.211,6.211,0,0,0-3.528-5.449,5.267,5.267,0,0,0-2.144-.6c-3.05-.065-6.105-.109-9.154,0a6.067,6.067,0,0,0-5.585,5.49c-.1,1.331-.1,2.673-.1,4.009-.011,4.7,0,9.394,0,14.091,0,1.141.155,1.293,1.3,1.295h1.96v-17.968a4.712,4.712,0,0,1,.066-.908,1.017,1.017,0,0,1,2,.051,6.617,6.617,0,0,1,.04.912v43.188c0,.258-.009.518.011.775a.711.711,0,0,0,.673.746.688.688,0,0,0,.09,0c.752.006,1.5,0,2.256,0a.73.73,0,0,0,.8-.655.835.835,0,0,0,0-.131c.013-.21.008-.422.008-.634v-15.429a5.53,5.53,0,0,1,.046-.842,1.019,1.019,0,0,1,2-.038,4.895,4.895,0,0,1,.065.909q.007,7.786,0,15.571c0,1.143.108,1.249,1.245,1.253h1.763a.739.739,0,0,0,.808-.664.893.893,0,0,0,0-.114c.019-.234.008-.47.008-.705v-43.258a7.151,7.151,0,0,1,.026-.844,1.02,1.02,0,0,1,2.006-.132,3.969,3.969,0,0,1,.079.905q.006,8.527,0,17.051v.93c.9,0,1.763.037,2.618-.013.526-.032.641-.462.64-.932,0-1.668,0-3.335,0-5v-8.6a4.566,4.566,0,0,1,.021-.7.969.969,0,0,1,.923-.905.948.948,0,0,1,1.1.773,3.017,3.017,0,0,1,.072.767q0,6.725,0,13.455,0,3.289-3.3,3.3h-2.076v23.537c0,1.653-.671,2.854-2,3.09a7.6,7.6,0,0,1-4.757-.264.544.544,0,0,0-.437-.03,4.029,4.029,0,0,1-2.446.468c-.539-.008-1.081.015-1.619-.01a2.748,2.748,0,0,1-2.691-2.487,8.855,8.855,0,0,1-.05-1.056q0-11.13,0-22.263Z"/>
    <path id="Path_2531" data-name="Path 2531" d="M14547.017,8560.423c.227,2.091.44,4.142.673,6.191.122,1.09-.241,1.537-1.329,1.561-.443.01-.887,0-1.451,0v1.776c0,.725.022,1.458-.031,2.182a1.042,1.042,0,0,1-1.064,1,1.032,1.032,0,0,1-1-1.062v0c-.03-1.009-.014-2.019-.017-3.029v-.814h-8.263c-.014.231-.037.455-.037.682q0,5.952,0,11.905c0,.926.039.962.944.965.422,0,.848-.03,1.267.008.7.062.894-.264.891-.914-.018-3.405-.009-6.809-.008-10.214,0-.235,0-.471.02-.7a.969.969,0,0,1,.971-.969h.039a.961.961,0,0,1,1.028.87,4.5,4.5,0,0,1,.054.769q.006,5.036,0,10.074c0,1.079,0,1.079,1.113,1.08.4,0,.8-.022,1.2,0,.588.039.8-.239.791-.8-.012-1.69-.007-3.381,0-5.071,0-.281-.053-.64.093-.821.228-.28.609-.614.916-.6a1.629,1.629,0,0,1,.974.619c.152.175.123.536.124.813q.015,2.5,0,5a2.648,2.648,0,0,1-2.955,2.961,6,6,0,0,1-3.17-.4.5.5,0,0,0-.4.037,6.987,6.987,0,0,1-3.877.3,2.467,2.467,0,0,1-2.131-2.711c-.011-3.992,0-7.984,0-11.977v-.965c-.524,0-1.007.009-1.488,0-1.046-.024-1.412-.4-1.312-1.439.2-2.1.44-4.191.665-6.292a8.211,8.211,0,0,1-1.153-.379,2.518,2.518,0,0,1-1.451-2.4c-.009-5.283-.059-10.567.021-15.849a7.258,7.258,0,0,1,6.783-7.266,57.757,57.757,0,0,1,8.72.051,7.243,7.243,0,0,1,6.423,7.073c.052,5.354.027,10.707.014,16.062C14549.6,8559.176,14548.812,8559.98,14547.017,8560.423Zm-1.513,5.6c-.138-1.213-.269-2.33-.392-3.449q-1.173-10.708-2.345-21.415c-.088-.806.237-1.35.879-1.44s1.076.329,1.209,1.159c.014.093.034.185.045.279l1.318,12.106c.181,1.649.368,3.3.554,4.967.685.029.726-.361.726-.821q-.009-5.5,0-10.991c0-1.526.036-3.054-.019-4.579a5.144,5.144,0,0,0-4.812-5.149c-2.547-.172-5.114-.111-7.671-.065a5.387,5.387,0,0,0-2.16.535,5.331,5.331,0,0,0-3.082,5.189q-.015,7.4,0,14.795c0,.164,0,.33,0,.493.019.428.233.627.693.588a2.433,2.433,0,0,0,.1-.354q.727-6.612,1.446-13.227c.142-1.307.273-2.613.436-3.919a1.052,1.052,0,0,1,2.1.062c0,.034,0,.067-.008.1a6.208,6.208,0,0,1-.06.631q-.316,2.87-.635,5.736-.82,7.45-1.641,14.906c-.14,1.272-.269,2.548-.405,3.861Z"/>
    <path id="Path_2532" data-name="Path 2532" d="M14559.691,8581.783v-8.229c0-.28-.066-.636.071-.825.239-.323.612-.738.942-.751s.743.372.989.684c.156.2.1.586.1.888.006,2.466,0,4.93,0,7.4v.83c.625,0,1.184.026,1.738-.008.586-.035.689-.465.688-.954q0-2.465,0-4.931a5.262,5.262,0,0,1,.018-.633,1.031,1.031,0,0,1,2.034-.132.9.9,0,0,1,.048.205c-.008,2.043.065,4.087-.058,6.123a2.615,2.615,0,0,1-2.779,2.438c-1.761.021-3.521.016-5.282,0a2.773,2.773,0,0,1-2.966-2.949c-.017-2.91,0-5.821,0-8.733,0-1.479.029-2.959-.021-4.437a1.868,1.868,0,0,0-.441-1.1c-1.334-1.483-2.749-2.894-4.072-4.386a2.827,2.827,0,1,1,4.092-3.9c.047.049.092.1.135.153,1.139,1.217,2.269,2.443,3.439,3.626a1.547,1.547,0,0,0,.953.418c1.147.045,2.436.329,3.41-.088s1.636-1.562,2.43-2.392c.519-.543,1.02-1.1,1.549-1.637a2.825,2.825,0,0,1,4.22,3.757q-.04.045-.082.088c-1.34,1.478-2.739,2.9-4.077,4.383a1.78,1.78,0,0,0-.413,1.037c-.051,1.2-.017,2.395-.022,3.592a3.206,3.206,0,0,1-.066.7.963.963,0,0,1-1.069.817.932.932,0,0,1-.953-.91v-.037c-.024-1.759-.036-3.521.019-5.278a1.747,1.747,0,0,1,.552-.937c1.365-1.486,2.756-2.951,4.137-4.423.112-.12.229-.236.335-.361a.7.7,0,0,0,.085-.979.592.592,0,0,0-.082-.082.683.683,0,0,0-.968,0,.583.583,0,0,0-.086.1c-1.242,1.314-2.506,2.608-3.707,3.956a2.3,2.3,0,0,1-1.972.843c-1.241-.052-2.488-.043-3.73,0a2.059,2.059,0,0,1-1.721-.761c-1-1.121-2.045-2.2-3.075-3.3-.145-.155-.291-.307-.436-.462-.377-.4-.778-.9-1.344-.356-.527.508-.086.928.275,1.313l1.3,1.384a14.754,14.754,0,0,0,1.552,1.631c1.678,1.309,2.1,2.975,2.012,5.056-.158,3.772-.046,7.557-.045,11.337,0,1.075.126,1.2,1.223,1.2Z"/>
    <path id="Path_2533" data-name="Path 2533" d="M14546.247,8525.9a7.623,7.623,0,1,1-7.57-7.677h.025a7.6,7.6,0,0,1,7.545,7.656Zm-2.119-.086a5.5,5.5,0,1,0-5.476,5.533h.012A5.511,5.511,0,0,0,14544.128,8525.814Z"/>
    <path id="Path_2534" data-name="Path 2534" d="M14556.141,8556.449a4.6,4.6,0,1,1,4.626,4.581h-.035A4.655,4.655,0,0,1,14556.141,8556.449Zm4.628,2.468a2.493,2.493,0,1,0,.021-4.985h-.078a2.493,2.493,0,0,0,.057,4.984Z"/>
  </g>
</svg>
