<svg xmlns="http://www.w3.org/2000/svg" width="30" height="27.091" viewBox="0 0 30 27.091">
  <g id="Group_40453" data-name="Group 40453" transform="translate(-9329.012 -297.015)">
    <path id="Path_43672" data-name="Path 43672" d="M9329.012,310.449a10.513,10.513,0,0,1,.364-1.348,4.939,4.939,0,0,1,3.557-3.058c.075-.019.15-.042.254-.071-.165-.2-.329-.394-.478-.594a5.074,5.074,0,0,1-1-2.733c-.026-.387.125-.606.411-.619.269-.013.437.185.474.554a4.305,4.305,0,0,0,3.551,3.962,4.2,4.2,0,0,0,2.546-.3.467.467,0,0,0,.292-.43,5.1,5.1,0,0,1,1.213-2.892,7.645,7.645,0,0,1,.8-.771.582.582,0,0,0,.227-.609,4.347,4.347,0,0,0-6.8-2.82,4.109,4.109,0,0,0-1.447,1.764c-.058.134-.114.269-.182.4a.426.426,0,0,1-.563.231.431.431,0,0,1-.242-.58,4.81,4.81,0,0,1,1.294-2.027,5.245,5.245,0,0,1,8.751,2.586c.093.362.086.362.444.239a5.19,5.19,0,0,1,3.472.007c.334.116.334.116.421-.238a5.24,5.24,0,0,1,6.319-3.933,4.6,4.6,0,0,1,.668.213.43.43,0,0,1,.288.535.436.436,0,0,1-.555.295c-.237-.054-.467-.141-.7-.19a4.348,4.348,0,0,0-5.2,3.552.528.528,0,0,0,.217.558,5.159,5.159,0,0,1,2.015,3.6.619.619,0,0,0,.444.573,4.347,4.347,0,0,0,4.729-7.069c-.333-.342-.386-.586-.173-.8s.478-.157.8.17a5.23,5.23,0,0,1,.121,7.207l-.188.209c.325.126.647.223.943.372a4.891,4.891,0,0,1,2.9,4.523c.045,2.449.016,4.9.009,7.348a1.775,1.775,0,0,1-1.911,1.84c-1.678.005-3.357,0-5.036,0h-.32v2.1a1.872,1.872,0,0,1-.426,1.274,1.723,1.723,0,0,1-1.214.624c-.078.006-.156.008-.233.008q-5.843,0-11.684,0a1.717,1.717,0,0,1-1.7-1.011,2.428,2.428,0,0,1-.182-.906c-.026-.681-.008-1.363-.008-2.086h-.33c-1.562,0-3.124-.031-4.685.01a2,2,0,0,1-2.255-1.465Zm7.27,8.755v-.31c0-1.259-.009-2.519,0-3.777a7.078,7.078,0,0,1,.114-1.192,4.672,4.672,0,0,1,.91-2,.449.449,0,0,1,.642-.133.442.442,0,0,1,.1.622,1.884,1.884,0,0,1-.108.173,4.2,4.2,0,0,0-.766,2.531q0,3.543,0,7.086a.9.9,0,0,0,1.03,1.017q5.8,0,11.595,0a.9.9,0,0,0,1.031-1.018c0-2.381.015-4.763,0-7.144a4.124,4.124,0,0,0-3.085-4.1,1.588,1.588,0,0,0-1.193-.008,5.181,5.181,0,0,1-4.706.016,1.875,1.875,0,0,0-.814-.131,3.809,3.809,0,0,0-1.7.488.466.466,0,0,1-.688-.14c-.127-.248-.017-.506.3-.658.28-.133.569-.252.859-.363.436-.167.5-.34.22-.718a5.383,5.383,0,0,1-.859-1.716c-.16-.55-.234-.59-.79-.429a4.863,4.863,0,0,1-3.565-.252,2.379,2.379,0,0,0-1.694-.132,4.136,4.136,0,0,0-3.214,4.144c-.008,2.342,0,4.685,0,7.027,0,.814.3,1.118,1.108,1.118h5.272Zm13.1-12.125a5.4,5.4,0,0,1-1.521,2.955.692.692,0,0,0,.093.052,5.081,5.081,0,0,1,3.776,5.122c-.023,1.219,0,2.439,0,3.659v.306a.791.791,0,0,0,.122.027c1.785,0,3.571.01,5.357,0a.86.86,0,0,0,.9-.966c0-2.41.015-4.821,0-7.231a4.154,4.154,0,0,0-3.583-4.164,1.11,1.11,0,0,0-.73.117,4.945,4.945,0,0,1-2.308.555A5.383,5.383,0,0,1,9349.385,307.079Zm-5.191-5.14a4.345,4.345,0,1,0,4.355,4.353A4.333,4.333,0,0,0,9344.193,301.939Z" fill="#0e4763"/>
  </g>
</svg>
