<svg xmlns="http://www.w3.org/2000/svg" width="10" height="20.01" viewBox="0 0 10 20.01">
  <path id="Path_45362" data-name="Path 45362" d="M5794.275,3062.781q0-4.371,0-8.741c0-.173-.042-.236-.229-.233-.823.01-1.645,0-2.468,0h-.222v-3.533h.22c.829,0,1.659-.005,2.488,0,.175,0,.226-.054.222-.223-.019-.847-.053-1.694-.036-2.54a6.356,6.356,0,0,1,.529-2.543,3.564,3.564,0,0,1,2.721-2.092,11.611,11.611,0,0,1,2.752-.062c.286.011.572.045.858.062.165.01.249.053.246.252-.012.906,0,1.812-.006,2.718,0,.064,0,.127-.009.213h-.221c-.582,0-1.163,0-1.744,0a2.508,2.508,0,0,0-.5.057,1.219,1.219,0,0,0-1.041,1.219c-.03.532-.011,1.067-.015,1.6,0,.371,0,.743-.017,1.113-.009.174.032.224.209.223.934-.008,1.868,0,2.8,0h.227l-.441,3.533h-.209c-.8,0-1.593,0-2.39,0-.146,0-.208.032-.207.193q.006,4.371,0,8.741a.265.265,0,0,0,0,.039Z" transform="translate(-5791.36 -3042.771)" fill="#8a8a8a"/>
</svg>
