<svg xmlns="http://www.w3.org/2000/svg" xmlns:xlink="http://www.w3.org/1999/xlink" width="38.116" height="38.118" viewBox="0 0 38.116 38.118">
  <defs>
    <clipPath id="clip-path">
      <rect id="Rectangle_47362" data-name="Rectangle 47362" width="38.116" height="38.118" transform="translate(611.372 761.256)" fill="none"/>
    </clipPath>
  </defs>
  <g id="Group_8077" data-name="Group 8077" transform="translate(-611.372 -761.256)">
    <g id="Group_46664" data-name="Group 46664">
      <g id="Group_46663" data-name="Group 46663" clip-path="url(#clip-path)">
        <g id="Group_8076" data-name="Group 8076">
          <path id="Path_10588" data-name="Path 10588" d="M611.372,792.011v-23.35a3.4,3.4,0,0,0,.086-.731A6.7,6.7,0,0,1,613,764.411a8.238,8.238,0,0,1,4.316-2.938,7.187,7.187,0,0,1,2.024-.207c7.374-.007,14.747.006,22.119-.011a7.65,7.65,0,0,1,5.165,1.917,8.368,8.368,0,0,1,2.646,4.085,6.922,6.922,0,0,1,.2,1.95c.011,7.422,0,14.845.012,22.267a7.593,7.593,0,0,1-1.9,5.062,8.551,8.551,0,0,1-3.828,2.588,6.877,6.877,0,0,1-1.577.207.311.311,0,0,0-.177.037H618.734a3.286,3.286,0,0,0-.765-.09,6.612,6.612,0,0,1-3.3-1.4,8.42,8.42,0,0,1-3.038-4.156,7.266,7.266,0,0,1-.221-1.573.212.212,0,0,0-.037-.138" fill="#006c35"/>
          <path id="Path_10589" data-name="Path 10589" d="M641.795,773.593c-.4.31-.246.716-.189,1.11.09.612.174,1.226.236,1.841a1.432,1.432,0,0,0,.232.651,15.556,15.556,0,0,1,1.137,1.956c.09.2.2.416-.052.551-.273.147-.4-.07-.5-.281a6.973,6.973,0,0,0-.656-1.14c.025.491.044.878.065,1.268.012.23-.024.455-.3.465s-.318-.223-.331-.445c-.032-.543-.078-1.091-.07-1.631a2.743,2.743,0,0,0-.813-1.842c0,.295-.009.558,0,.82a14.244,14.244,0,0,1-.005,2.708c-.124.846-.739,1.073-1.414.545-.2-.152-.375-.323-.579-.5-.1.258-.224.558-.339.863a3.111,3.111,0,0,1-.444.851c-.365.459-.8.441-1.1-.066a2.965,2.965,0,0,1-.4-1.338.427.427,0,0,1,0-.343c.113-.288.326-.164.545-.092-.09-1.108-.17-2.182-.265-3.254-.1-1.16-.219-2.318-.33-3.477-.019-.2,0-.385.228-.444s.338.094.4.286c.079.235.161.468.234.7.048.155.089.318-.06.448-.1.09-.069.206-.06.31l.465,5.4c.04.461-.061.563-.531.482a2.8,2.8,0,0,0,.331,1.037,1.738,1.738,0,0,0,.392-.678c.169-.425.313-.862.509-1.273.225-.475.574-.484.855-.046a2.385,2.385,0,0,0,.545.651c.263.2.366.171.417-.152a9.931,9.931,0,0,0,.023-2c-.032-.705-.092-1.409-.121-2.115a1.036,1.036,0,0,0-.226-.645c-.469-.592-.922-1.2-1.379-1.8-.113-.148-.25-.3-.1-.5s.35-.123.534-.032c.145.071.287.146.43.218.108.055.216.155.179.259-.147.4.2.564.376.91a3.677,3.677,0,0,0-.033-.972c0-.2-.056-.421.207-.495s.358.137.462.325a1.246,1.246,0,0,1,.079.97,1.652,1.652,0,0,0,.327,1.539,3.856,3.856,0,0,0,.41.447c-.13-.884-.258-1.769-.393-2.652-.033-.216-.089-.445.167-.54s.374.117.486.3.229.38.343.568c.077.072.172.137.079.259" fill="#f4f4f4"/>
          <path id="Path_10590" data-name="Path 10590" d="M627.777,780.112a3.036,3.036,0,0,1-1.472,1.377,1.108,1.108,0,0,1-1.508-.43,1.075,1.075,0,0,1-.084-.19c-.1-.243-.184-.247-.392-.126-.471.273-.957.516-1.437.775-.21.112-.419.144-.533-.112s.086-.352.266-.449c.49-.263.982-.525,1.47-.793.2-.11.409-.2.424-.5a.238.238,0,0,1,.336-.2c.2.1.3-.009.421-.109a1.563,1.563,0,0,0,.591-2.2c-.023-.058-.048-.115-.069-.173-.1-.3-.147-.6.14-.812s.544-.032.778.142c.143.1.271.23.211.435-.065.223-.258.217-.461.216a2.988,2.988,0,0,1,.224,1.284,2.565,2.565,0,0,1-1.222,1.736c-.322.258-.355.422-.119.762a.482.482,0,0,0,.578.206,2.53,2.53,0,0,0,1.6-1.979,4.6,4.6,0,0,0-.413-2.566c-.024-.056-.059-.109-.084-.165-.079-.173-.1-.342.093-.453.216-.127.357,0,.455.176a4.267,4.267,0,0,1,.516,1.576c.04.334.113.365.382.165a2.843,2.843,0,0,1,1.195-.484.466.466,0,0,0,.4-.329,2.051,2.051,0,0,1,.561-.819.774.774,0,0,1,1.095-.033.814.814,0,0,1,.105.122.713.713,0,0,1-.092,1,.741.741,0,0,1-.16.1,2.905,2.905,0,0,1-.961.379c-.1.024-.213.039-.207.168.01.155.146.1.232.1.545.005,1.091,0,1.635,0,.561,0,.6.111.479.642a.992.992,0,0,1-1.068.909.835.835,0,0,1-.088-.011,2.98,2.98,0,0,0-1.366.306c-.184.086-.354.188-.335.436a.464.464,0,0,0,.378.445c.213.058.432.128.362.414s-.31.248-.517.223a2.987,2.987,0,0,1-2.333-1.179" fill="#f4f4f4"/>
          <path id="Path_10591" data-name="Path 10591" d="M620.492,787.214h15.885c.258,0,.492.026.479-.353a.262.262,0,0,1,.264-.262.294.294,0,0,1,.042,0,.28.28,0,0,1,.283.277v.015c-.018.309.149.325.388.321q.836-.018,1.672,0a.929.929,0,1,1,.227,1.845.966.966,0,0,1-.24,0c-.706.006-1.412,0-2.117,0-.476,0-.565-.065-.536-.532.023-.348-.108-.395-.416-.395q-6.465.015-12.932.006a5.435,5.435,0,0,1-2.312-.452,2.109,2.109,0,0,1-.687-.476" fill="#f4f4f3"/>
          <path id="Path_10592" data-name="Path 10592" d="M632.552,772.521a.291.291,0,0,1,.379-.142c.169.055.2.213.218.362.1.76.21,1.52.3,2.282a1.427,1.427,0,0,0,.2.588,20.948,20.948,0,0,1,1.5,2.811c.036.091.075.183.109.276a.3.3,0,0,1-.126.4l-.022.01a.282.282,0,0,1-.381-.118.333.333,0,0,1-.018-.043c-.155-.31-.28-.633-.433-.943a6.888,6.888,0,0,0-.651-1.089c.022.446.052.893.066,1.339.024.644.04,1.288.061,1.931.008.239-.012.485-.31.491s-.3-.234-.31-.456c-.018-1.338-.082-2.673-.182-4.007a2.135,2.135,0,0,0-.39-1.169c-.374-.507-.717-1.038-1.069-1.562-.124-.185-.226-.383-.506-.217-.052.031-.155-.021-.259-.038a12.115,12.115,0,0,1,.321,1.229c.024.243.186.182.326.126.21-.083.406-.094.494.149s-.095.38-.294.428a5.952,5.952,0,0,0-1.225.429c-.456.222-.792-.1-1.1-.427a1.169,1.169,0,0,1-1.291.544c-.568-.16-.62-.705-.737-1.24-.122.245-.2.437-.31.61a.667.667,0,0,1-.9.292.66.66,0,0,1-.248-.218,1.9,1.9,0,0,1-.337-1.3.262.262,0,0,1,.27-.253h0a.291.291,0,0,1,.317.262c0,.01,0,.021,0,.031a2.32,2.32,0,0,0,.141.723c.028.069.054.155.132.164.108.016.144-.084.173-.162.106-.277.2-.56.31-.834a1.465,1.465,0,0,1,.429-.683.459.459,0,0,1,.519-.074c.166.092.171.263.146.428a3.56,3.56,0,0,0,.016,1.183c.037.2.049.46.314.483a.547.547,0,0,0,.552-.367,2.885,2.885,0,0,0,.145-1.461c-.018-.171-.049-.342-.07-.516-.025-.207.013-.383.262-.4s.322.146.347.348a6.145,6.145,0,0,1,.09,1.368,1.084,1.084,0,0,0,.289.775.33.33,0,0,0,.391.136.347.347,0,0,0,.237-.379,4.411,4.411,0,0,0-.216-.861,5.414,5.414,0,0,1-.175-.756c-.046-.484.278-.713.723-.538.067.025.131.1.2.057.553-.353.97.1,1.44.235a.2.2,0,0,1,.111.218c.013.184-.132.354-.015.611-.11-.275.043-.465.014-.672a1.017,1.017,0,0,1,.024-.388" fill="#f4f4f4"/>
          <path id="Path_10593" data-name="Path 10593" d="M622.1,778.7a3.388,3.388,0,0,1-.675.97,1.69,1.69,0,0,1-1.741.444,1.559,1.559,0,0,1-1.021-1.343,2.628,2.628,0,0,1-.049-.553.29.29,0,0,1,.272-.3.3.3,0,0,1,.335.257v.018a6.047,6.047,0,0,0,.1.7.886.886,0,0,0,1.315.584,2.007,2.007,0,0,0,.977-1.291c-.5.037-1.01.1-1.166-.516a.981.981,0,0,1,.585-1.057c.48-.238.787-.155,1.261.368-.028-.53-.046-1.015-.08-1.5-.058-.853-.126-1.7-.189-2.557a2.015,2.015,0,0,1-.01-.258.286.286,0,0,1,.271-.3h0a.276.276,0,0,1,.325.216.345.345,0,0,1,.005.056c.049.505.1,1.011.131,1.517q.078,1.147.148,2.3c.56-.131.627-.081.629.445,0,.074-.021.168.063.194s.158-.055.194-.131a.8.8,0,0,0,.075-.247c.022-.178.089-.315.283-.335a.31.31,0,0,1,.346.267,1.442,1.442,0,0,0,.079.18c.207-.083.19-.266.218-.428.035-.2.124-.366.361-.325s.273.219.258.425a.914.914,0,0,1-.867.96.88.88,0,0,1-.211-.013.317.317,0,0,0-.2.082c-.474.317-.727.3-1.181-.109a8.069,8.069,0,0,1-.118,1.326,4.029,4.029,0,0,1-1.61,2.416,2.063,2.063,0,0,1-2.887-.421c-.034-.046-.066-.093-.1-.142a2.02,2.02,0,0,1-.246-1.074c.008-.214.085-.375.318-.373.215,0,.29.155.292.353a1.286,1.286,0,0,0,.775,1.32,1.549,1.549,0,0,0,1.634-.279,3.128,3.128,0,0,0,1.148-1.769c.036-.1.021-.2.047-.3a.335.335,0,0,0,.063-.243.341.341,0,0,1-.064.246.266.266,0,0,1-.1.222" fill="#f4f4f4"/>
          <path id="Path_10594" data-name="Path 10594" d="M617.689,775.087c0-.355,0-.709,0-1.064.006-.537.29-.878.737-.9s.786.325.8.873c.015.434,0,.868.01,1.3,0,.079-.1.259.108.236.135-.014.252-.07.236-.265a13.012,13.012,0,0,0-.252-2.173c-.03-.12-.063-.24-.082-.362-.027-.178.019-.329.219-.367s.323.072.381.264a8.331,8.331,0,0,1,.29,1.717c.005.062.006.124.009.186.037.7.045.71.755.748.289.016.442-.182.351-.5-.116-.4-.262-.8-.393-1.2-.062-.188-.152-.386.044-.546.181-.15.35-.026.516.054.123.06.249.114.365.184.3.182.307.433-.008.578-.155.073-.134.129-.093.245.07.2.137.4.187.6a.946.946,0,0,1-.647,1.171.935.935,0,0,1-.547-.007c-.426-.11-.45-.092-.455.332-.007.83,0,1.66-.063,2.489-.019.229-.049.454-.329.44s-.291-.246-.283-.472c.025-.73.04-1.461.067-2.192.008-.21.018-.344-.285-.288-.431.079-.691-.155-.717-.633-.027-.458,0-.917-.013-1.376-.005-.142.091-.393-.135-.4-.253,0-.16.258-.164.416-.011.434,0,.868-.006,1.3a.629.629,0,0,1-.544.685c-.314.036-.544-.141-.638-.542-.121-.517-.213-1.043-.323-1.563-.046-.218-.031-.421.218-.474s.342.139.386.35q.12.574.237,1.149l.057-.008" fill="#f4f4f4"/>
          <path id="Path_10595" data-name="Path 10595" d="M642.073,781.838h-.166c-.212,0-.374-.076-.367-.315.006-.215.155-.3.353-.295a1.354,1.354,0,0,0,1.214-.589,2.6,2.6,0,0,0,.405-1.627c-.06-1.24-.33-2.449-.5-3.673-.111-.808-.264-1.61-.394-2.416-.032-.2-.061-.413.18-.507.221-.086.341.082.455.23.145.186.291.369.424.563.123.177.133.391-.083.465-.232.083-.184.223-.16.373.206,1.357.43,2.711.627,4.069a4.237,4.237,0,0,1-.2,2.442,2,2,0,0,1-1.786,1.276" fill="#f4f4f4"/>
          <path id="Path_10596" data-name="Path 10596" d="M636.274,779.637c0,.114,0,.229,0,.343l-.1-.2a4.679,4.679,0,0,1-2.26,2.083.287.287,0,0,1-.4-.071.345.345,0,0,1-.02-.032.292.292,0,0,1,.083-.4.347.347,0,0,1,.061-.031,7.005,7.005,0,0,0,1.257-.853,1.619,1.619,0,0,0,.674-1.536c-.226-2.006-.378-4.02-.558-6.03a1.172,1.172,0,0,1-.007-.3.294.294,0,0,1,.453-.206,2.359,2.359,0,0,1,.408,1.3.679.679,0,0,0-.1.558c.16,1.764.354,3.524.452,5.293,0,.03.04.057.061.086" fill="#f4f4f4"/>
          <path id="Path_10597" data-name="Path 10597" d="M624.932,772.043a.763.763,0,0,1,.7.447.659.659,0,0,1-.13.822c-.574.491-1.169.956-1.765,1.42a.282.282,0,0,1-.4-.006.278.278,0,0,1-.031-.038.305.305,0,0,1,.044-.43.309.309,0,0,1,.037-.026c.279-.225.558-.453.848-.663.159-.115.21-.2.063-.373a.648.648,0,0,1-.017-.766.745.745,0,0,1,.648-.387" fill="#f4f4f3"/>
          <path id="Path_10598" data-name="Path 10598" d="M632.149,780.639c.163-.2.336-.361.548-.179.232.2.072.4-.063.584a.586.586,0,0,1-1.053.018c-.068-.09-.1-.144-.228-.092a.257.257,0,0,1-.336-.141l0-.005a.3.3,0,0,1,.063-.374c.18-.186.361-.371.549-.551a.322.322,0,0,1,.4-.087c.175.093.179.252.147.418a.708.708,0,0,0-.026.41" fill="#f3f4f3"/>
          <path id="Path_10599" data-name="Path 10599" d="M638.291,775.3c.165-.348.334-.547.656-.535a.3.3,0,0,1,.29.193c.047.11.043.254-.062.3-.293.132-.229.365-.21.593.015.173.052.362-.144.459s-.349-.036-.483-.172q-.352-.357-.709-.71c-.155-.155-.258-.327-.07-.512s.361-.074.51.084c.067.072.118.159.221.3" fill="#f4f4f3"/>
          <path id="Path_10600" data-name="Path 10600" d="M617.347,780.509a1.267,1.267,0,0,1,.31-.112c.207-.015.356.108.317.31a.7.7,0,0,1-.507.538.453.453,0,0,1-.568-.227,2.082,2.082,0,0,1-.1-1.687.259.259,0,0,1,.319-.178l.008,0a.3.3,0,0,1,.245.34l0,.021a2.421,2.421,0,0,0-.014.992" fill="#f3f3f2"/>
          <path id="Path_10601" data-name="Path 10601" d="M617.385,778.194a.268.268,0,0,1-.273-.155.276.276,0,0,1,.078-.368c.533-.332,1.071-.658,1.616-.97a.268.268,0,0,1,.362.1.262.262,0,0,1-.029.369l0,0a14.028,14.028,0,0,1-1.677,1.006.253.253,0,0,1-.073.011" fill="#f3f4f3"/>
          <path id="Path_10602" data-name="Path 10602" d="M638.295,777.956c-.21.017-.31-.028-.366-.136a.257.257,0,0,1,.016-.313,8.261,8.261,0,0,1,1.311-.95.254.254,0,0,1,.326.1.248.248,0,0,1,.028.31,8.562,8.562,0,0,1-1.315.981" fill="#f3f4f3"/>
          <path id="Path_10603" data-name="Path 10603" d="M624.767,775.174c.1-.016.189-.032.273-.039a.3.3,0,0,1,.113.595l-.014,0a.8.8,0,0,1-.8-.093.786.786,0,0,1-.177-.789c.033-.206.13-.353.365-.324s.262.19.246.382c-.006.085,0,.169,0,.265" fill="#f3f3f2"/>
          <path id="Path_10604" data-name="Path 10604" d="M625.95,772.538a.876.876,0,0,1,.512-.784.29.29,0,0,1,.4.083.276.276,0,0,1-.022.389.285.285,0,0,1-.045.033c-.217.147-.28.291-.085.509a.263.263,0,0,1-.013.371l-.031.025a.3.3,0,0,1-.408,0,.778.778,0,0,1-.3-.623" fill="#f3f3f2"/>
          <path id="Path_10605" data-name="Path 10605" d="M629.321,776.935a.812.812,0,0,1-.759-.393.285.285,0,0,1,.04-.4.258.258,0,0,1,.363-.032.243.243,0,0,1,.032.032c.168.207.306.187.486.028a.3.3,0,0,1,.482.014c.146.187.052.342-.112.468-.187.141-.367.3-.532.285" fill="#f3f3f2"/>
          <path id="Path_10606" data-name="Path 10606" d="M641.795,773.593l-.08-.258c.069.017.1-.021.155-.063.242-.2.413-.168.55.118a1.749,1.749,0,0,1,.155.974c-.026.214-.116.372-.337.362s-.3-.188-.286-.4a.892.892,0,0,0-.159-.732" fill="#f1f3ef"/>
          <path id="Path_10607" data-name="Path 10607" d="M634.655,773.438c.011.258-.046.389-.219.428a.283.283,0,0,1-.356-.18.321.321,0,0,1-.011-.044,4.844,4.844,0,0,0-.282-.837.289.289,0,0,1,.1-.4.3.3,0,0,1,.032-.016.293.293,0,0,1,.4.1.3.3,0,0,1,.027.057,2.785,2.785,0,0,1,.31.885" fill="#f3f3f2"/>
          <path id="Path_10608" data-name="Path 10608" d="M634.33,775.428a.653.653,0,0,1-.574-.577c.005-.193.227-.366.285-.292.258.329.826-.369.919.3.034.241-.364.576-.63.57" fill="#f3f3f1"/>
          <path id="Path_10609" data-name="Path 10609" d="M624.466,779.057c.016.2-.051.353-.262.378a.287.287,0,0,1-.335-.23.3.3,0,0,1,0-.074.472.472,0,0,0-.207-.4.25.25,0,0,1-.056-.349l.009-.012a.3.3,0,0,1,.356-.123.764.764,0,0,1,.5.816" fill="#f3f3f2"/>
          <path id="Path_10610" data-name="Path 10610" d="M639.769,778.473c.013.216-.027.417-.281.441s-.322-.176-.343-.389a1.359,1.359,0,0,0-.107-.465.269.269,0,0,1,.1-.366l.026-.013a.31.31,0,0,1,.419.123,1.264,1.264,0,0,1,.185.669" fill="#f2f3f1"/>
          <path id="Path_10611" data-name="Path 10611" d="M627.9,772.858c.065-.2.128-.438.221-.665a.259.259,0,0,1,.33-.158l.007,0a.28.28,0,0,1,.225.328v.008a4.552,4.552,0,0,1-.222.7.263.263,0,0,1-.336.155c-.161-.048-.236-.169-.223-.377" fill="#f1f2ee"/>
          <path id="Path_10612" data-name="Path 10612" d="M641.36,780.947a.631.631,0,0,1-.218.49.3.3,0,0,1-.5-.31c.031-.1.128-.17.046-.3a.287.287,0,0,1,.036-.4.274.274,0,0,1,.1-.054c.221-.094.336.072.444.228a.606.606,0,0,1,.088.35" fill="#f3f3f1"/>
          <path id="Path_10613" data-name="Path 10613" d="M620.922,772.66c-.23,0-.452-.052-.449-.321s.228-.315.455-.315.451.051.449.321-.227.318-.455.314" fill="#eff1ea"/>
          <path id="Path_10614" data-name="Path 10614" d="M617.379,772.5c-.009-.248.035-.465.32-.449s.293.242.294.464-.055.447-.327.435-.3-.246-.287-.451" fill="#f2f3ef"/>
          <path id="Path_10615" data-name="Path 10615" d="M632.506,772.981l-.089-.232.134-.23v.464h-.045" fill="#006c35"/>
          <path id="Path_10616" data-name="Path 10616" d="M622.235,778.477a.426.426,0,0,1-.079.3l-.058-.073.064-.222c.021-.037.046-.038.073-.005" fill="#006c35"/>
          <path id="Path_10617" data-name="Path 10617" d="M629.3,780.471c-.82-.271-1.155-.708-1.127-1.394.009-.212.064-.316.3-.3a3.609,3.609,0,0,1,1.188.242c.2.079.341.181.047.361a.979.979,0,0,0-.413,1.1" fill="#006c35"/>
          <path id="Path_10618" data-name="Path 10618" d="M630.728,776.9a1.238,1.238,0,0,1,.356-.406.162.162,0,0,1,.226.025.167.167,0,0,1,.022.036c.066.108-.015.164-.085.2a.686.686,0,0,1-.516.142" fill="#006c35"/>
          <path id="Path_10619" data-name="Path 10619" d="M639.914,788.142c-.064.279-.226.3-.413.3h-1.784c-.111,0-.265.052-.258-.159.006-.183.139-.14.24-.14.73,0,1.459,0,2.213,0" fill="#73ae01"/>
          <path id="Path_10620" data-name="Path 10620" d="M632.506,772.983a.169.169,0,0,0,.045,0l.172,1.106a5.02,5.02,0,0,1-.6-.784c.182-.058.357-.117.385-.322" fill="#006c35"/>
          <path id="Path_10621" data-name="Path 10621" d="M621.241,777.6c-.1-.009-.217,0-.19-.128a.433.433,0,0,1,.413-.355.2.2,0,0,1,.227.159.176.176,0,0,1,0,.065c-.051.235-.29.207-.449.259" fill="#006c35"/>
          <path id="Path_10622" data-name="Path 10622" d="M622.235,778.477c-.025,0-.049,0-.073.006l.1-.391c.059.171.073.283-.028.386" fill="#006c35"/>
          <path id="Path_10623" data-name="Path 10623" d="M624.944,772.671c.1.019.136.076.123.16a.126.126,0,0,1-.123.114.132.132,0,0,1-.129-.133V772.8a.121.121,0,0,1,.114-.127h.014" fill="#006c35"/>
        </g>
      </g>
    </g>
  </g>
</svg>
