<svg xmlns="http://www.w3.org/2000/svg" width="116.878" height="66.024" viewBox="0 0 116.878 66.024">
  <g id="Group_7134" data-name="Group 7134" transform="translate(-5430.256 -233.29)">
    <rect id="Rectangle_10298" data-name="Rectangle 10298" width="3.097" height="40.103" transform="translate(5519.273 239.196)" fill="#3c1200"/>
    <path id="Path_9080" data-name="Path 9080" d="M5524.963,253.741a7.65,7.65,0,0,0-8.283,0c-4.263,2.415-7.718,7.609-7.718,11.6s3.455,5.274,7.718,2.86a4.205,4.205,0,0,1,8.283,0c4.263,2.414,7.718,1.134,7.718-2.86S5529.226,256.157,5524.963,253.741Z" fill="#c82e00" fill-rule="evenodd"/>
    <path id="Path_9081" data-name="Path 9081" d="M5524.087,248.6a6.037,6.037,0,0,0-6.533,0c-3.362,1.9-6.088,6-6.088,9.151s2.726,4.16,6.088,2.258a3.317,3.317,0,0,1,6.533,0c3.363,1.9,6.088.894,6.088-2.258S5527.45,250.507,5524.087,248.6Z" fill="#e34900" fill-rule="evenodd"/>
    <path id="Path_9082" data-name="Path 9082" d="M5523.4,243.225a4.759,4.759,0,0,0-5.152,0c-2.653,1.5-4.8,4.735-4.8,7.22s2.15,3.281,4.8,1.779a2.617,2.617,0,0,1,5.152,0c2.653,1.5,4.8.706,4.8-1.779S5526.051,244.727,5523.4,243.225Z" fill="#f27400" fill-rule="evenodd"/>
    <path id="Path_9083" data-name="Path 9083" d="M5522.692,239.227a3.456,3.456,0,0,0-3.743,0c-1.926,1.091-3.487,3.438-3.487,5.243s1.561,2.383,3.487,1.292a1.9,1.9,0,0,1,3.743,0c1.927,1.091,3.489.512,3.489-1.292S5524.619,240.318,5522.692,239.227Z" fill="#f79800" fill-rule="evenodd"/>
    <path id="Path_9084" data-name="Path 9084" d="M5522.1,236.071a2.362,2.362,0,0,0-2.554,0,4.757,4.757,0,0,0-2.381,3.579c0,1.232,1.066,1.627,2.381.883a1.3,1.3,0,0,1,2.554,0c1.315.745,2.381.35,2.381-.883A4.755,4.755,0,0,0,5522.1,236.071Z" fill="#fdb300" fill-rule="evenodd"/>
    <path id="Path_9085" data-name="Path 9085" d="M5521.671,233.54a1.571,1.571,0,0,0-1.7,0,3.166,3.166,0,0,0-1.584,2.381c0,.82.709,1.083,1.584.589a.863.863,0,0,1,1.7,0c.875.5,1.584.233,1.584-.589A3.166,3.166,0,0,0,5521.671,233.54Z" fill="#fdbe1b" fill-rule="evenodd"/>
    <rect id="Rectangle_10299" data-name="Rectangle 10299" width="3.097" height="40.103" transform="translate(5453.83 239.196)" fill="#3c1200"/>
    <path id="Path_9086" data-name="Path 9086" d="M5459.52,253.741a7.656,7.656,0,0,0-8.284,0c-4.262,2.415-7.718,7.609-7.718,11.6s3.456,5.274,7.718,2.86a4.206,4.206,0,0,1,8.284,0c4.262,2.414,7.718,1.134,7.718-2.86S5463.782,256.157,5459.52,253.741Z" fill="#c82e00" fill-rule="evenodd"/>
    <path id="Path_9087" data-name="Path 9087" d="M5458.644,248.6a6.038,6.038,0,0,0-6.533,0c-3.362,1.9-6.088,6-6.088,9.151s2.726,4.16,6.088,2.258a3.317,3.317,0,0,1,6.533,0c3.363,1.9,6.088.894,6.088-2.258S5462.007,250.507,5458.644,248.6Z" fill="#e34900" fill-rule="evenodd"/>
    <path id="Path_9088" data-name="Path 9088" d="M5457.955,243.225a4.761,4.761,0,0,0-5.153,0c-2.652,1.5-4.8,4.735-4.8,7.22s2.15,3.281,4.8,1.779a2.618,2.618,0,0,1,5.153,0c2.653,1.5,4.8.706,4.8-1.779S5460.608,244.727,5457.955,243.225Z" fill="#f27400" fill-rule="evenodd"/>
    <path id="Path_9089" data-name="Path 9089" d="M5457.249,239.227a3.457,3.457,0,0,0-3.743,0c-1.926,1.091-3.487,3.438-3.487,5.243s1.561,2.383,3.487,1.292a1.9,1.9,0,0,1,3.743,0c1.927,1.091,3.488.512,3.488-1.292S5459.176,240.318,5457.249,239.227Z" fill="#f79800" fill-rule="evenodd"/>
    <path id="Path_9090" data-name="Path 9090" d="M5456.655,236.071a2.363,2.363,0,0,0-2.555,0,4.758,4.758,0,0,0-2.38,3.579c0,1.232,1.066,1.627,2.38.883a1.3,1.3,0,0,1,2.555,0c1.315.745,2.381.35,2.381-.883A4.755,4.755,0,0,0,5456.655,236.071Z" fill="#fdb300" fill-rule="evenodd"/>
    <path id="Path_9091" data-name="Path 9091" d="M5456.228,233.54a1.572,1.572,0,0,0-1.7,0,3.168,3.168,0,0,0-1.584,2.381c0,.82.709,1.083,1.584.589a.863.863,0,0,1,1.7,0c.874.5,1.584.233,1.584-.589A3.168,3.168,0,0,0,5456.228,233.54Z" fill="#fdbe1b" fill-rule="evenodd"/>
    <rect id="Rectangle_10300" data-name="Rectangle 10300" width="3.097" height="40.103" transform="translate(5440.568 259.212)" fill="#3c1200"/>
    <path id="Path_9092" data-name="Path 9092" d="M5446.258,273.758a7.654,7.654,0,0,0-8.283,0c-4.263,2.414-7.719,7.609-7.719,11.6s3.456,5.273,7.719,2.859a4.206,4.206,0,0,1,8.283,0c4.262,2.414,7.718,1.134,7.718-2.859S5450.52,276.172,5446.258,273.758Z" fill="#c82e00" fill-rule="evenodd"/>
    <path id="Path_9093" data-name="Path 9093" d="M5445.38,268.618a6.033,6.033,0,0,0-6.533,0c-3.362,1.9-6.088,6-6.088,9.152s2.726,4.159,6.088,2.255a3.317,3.317,0,0,1,6.533,0c3.362,1.9,6.088.894,6.088-2.255S5448.745,270.523,5445.38,268.618Z" fill="#e34900" fill-rule="evenodd"/>
    <path id="Path_9094" data-name="Path 9094" d="M5444.693,263.24a4.759,4.759,0,0,0-5.152,0c-2.653,1.5-4.8,4.735-4.8,7.22s2.151,3.281,4.8,1.779a2.617,2.617,0,0,1,5.152,0c2.653,1.5,4.8.7,4.8-1.779S5447.343,264.742,5444.693,263.24Z" fill="#f27400" fill-rule="evenodd"/>
    <path id="Path_9095" data-name="Path 9095" d="M5443.987,259.242a3.454,3.454,0,0,0-3.742,0c-1.927,1.091-3.489,3.438-3.489,5.242s1.562,2.383,3.489,1.293a1.9,1.9,0,0,1,3.742,0c1.927,1.09,3.488.512,3.488-1.293S5445.914,260.333,5443.987,259.242Z" fill="#f79800" fill-rule="evenodd"/>
    <path id="Path_9096" data-name="Path 9096" d="M5443.393,256.086a2.36,2.36,0,0,0-2.555,0,4.758,4.758,0,0,0-2.38,3.579c0,1.231,1.066,1.626,2.38.883a1.3,1.3,0,0,1,2.555,0c1.315.745,2.381.35,2.381-.883A4.757,4.757,0,0,0,5443.393,256.086Z" fill="#fdb300" fill-rule="evenodd"/>
    <path id="Path_9097" data-name="Path 9097" d="M5442.966,253.555a1.571,1.571,0,0,0-1.7,0,3.165,3.165,0,0,0-1.584,2.381c0,.82.71,1.083,1.584.589a.863.863,0,0,1,1.7,0c.875.5,1.584.233,1.584-.589A3.165,3.165,0,0,0,5442.966,253.555Z" fill="#fdbe1b" fill-rule="evenodd"/>
    <rect id="Rectangle_10301" data-name="Rectangle 10301" width="3.097" height="40.103" transform="translate(5533.727 259.212)" fill="#3c1200"/>
    <path id="Path_9098" data-name="Path 9098" d="M5539.416,273.758a7.654,7.654,0,0,0-8.283,0c-4.262,2.414-7.718,7.609-7.718,11.6s3.456,5.273,7.718,2.859a4.206,4.206,0,0,1,8.283,0c4.264,2.414,7.718,1.134,7.718-2.859S5543.679,276.172,5539.416,273.758Z" fill="#c82e00" fill-rule="evenodd"/>
    <path id="Path_9099" data-name="Path 9099" d="M5538.541,268.618a6.036,6.036,0,0,0-6.532,0c-3.363,1.9-6.089,6-6.089,9.152s2.726,4.159,6.089,2.255a3.317,3.317,0,0,1,6.533,0c3.363,1.9,6.088.894,6.088-2.255S5541.9,270.523,5538.541,268.618Z" fill="#e34900" fill-rule="evenodd"/>
    <path id="Path_9100" data-name="Path 9100" d="M5537.852,263.24a4.76,4.76,0,0,0-5.153,0c-2.652,1.5-4.8,4.735-4.8,7.22s2.151,3.281,4.8,1.779a2.617,2.617,0,0,1,5.153,0c2.652,1.5,4.8.7,4.8-1.779S5540.5,264.742,5537.852,263.24Z" fill="#f27400" fill-rule="evenodd"/>
    <path id="Path_9101" data-name="Path 9101" d="M5537.144,259.242a3.455,3.455,0,0,0-3.742,0c-1.927,1.091-3.489,3.438-3.489,5.242s1.562,2.383,3.489,1.293a1.9,1.9,0,0,1,3.742,0c1.927,1.09,3.488.512,3.488-1.293S5539.073,260.333,5537.144,259.242Z" fill="#f79800" fill-rule="evenodd"/>
    <path id="Path_9102" data-name="Path 9102" d="M5536.552,256.086a2.359,2.359,0,0,0-2.555,0,4.758,4.758,0,0,0-2.38,3.579c0,1.231,1.066,1.626,2.38.883a1.3,1.3,0,0,1,2.555,0c1.315.745,2.381.35,2.381-.883A4.756,4.756,0,0,0,5536.552,256.086Z" fill="#fdb300" fill-rule="evenodd"/>
    <path id="Path_9103" data-name="Path 9103" d="M5536.125,253.555a1.572,1.572,0,0,0-1.7,0,3.166,3.166,0,0,0-1.584,2.381c0,.82.709,1.083,1.584.589a.863.863,0,0,1,1.7,0c.875.5,1.584.233,1.584-.589A3.166,3.166,0,0,0,5536.125,253.555Z" fill="#fdbe1b" fill-rule="evenodd"/>
    <path id="Path_9104" data-name="Path 9104" d="M5526.049,264.872l0-.007q-.045-.079-.085-.159a10.881,10.881,0,0,1-.606-1.307c-.03-.059-.06-.118-.088-.177a3.929,3.929,0,0,1-.486-1.095c-.063-.159-.113-.324-.168-.487a4.03,4.03,0,0,1-.127-.48c-.016-.049-.03-.1-.043-.152-.03-.067-.058-.134-.084-.2l-.024-.039a3.947,3.947,0,0,1-.383-.641l-.057-.115a3.646,3.646,0,0,0-1.157-2.5l-.014-.014-.187-.188q-.63-.831-1.333-1.6l-.112-.17a3.951,3.951,0,0,1-1.129-2.049c-.093-.065-.182-.134-.267-.207-.147-.1-.291-.2-.427-.3l-.333-.266c-.143-.1-.28-.188-.415-.3h0l-.233-.186a9.215,9.215,0,0,1-.752-.718,3.9,3.9,0,0,1-.764-.687c-.268-.2-.514-.437-.763-.662-.214-.193-.415-.4-.61-.616a3.57,3.57,0,0,1-.429-.368l-1.214-1.214a3.993,3.993,0,0,1-.714-.972h-21.011v51.336H5527.1V266.441l-.092-.092A3.977,3.977,0,0,1,5526.049,264.872Z" fill="#dde7d5" fill-rule="evenodd"/>
    <path id="Path_9105" data-name="Path 9105" d="M5462.6,253.961a4.555,4.555,0,0,1-2.034,5.552,4.924,4.924,0,0,1-.491.336l-.047.046a4,4,0,0,1-.8.857h0l-.27.217-.15.224a5.014,5.014,0,0,0-2.11,2.377l-.03.062c-.043.165-.1.325-.152.485a4.075,4.075,0,0,1-.232.572l-.253.5a7.3,7.3,0,0,1-1.245,1.654,3.966,3.966,0,0,1-3.815,1.727v29.755h42.383V253.061h-31.373A3.953,3.953,0,0,1,5462.6,253.961Z" fill="#dde7d5" fill-rule="evenodd"/>
    <rect id="Rectangle_10302" data-name="Rectangle 10302" width="0.988" height="40.152" transform="translate(5520.871 255.534)" fill="#b33f00"/>
    <rect id="Rectangle_10303" data-name="Rectangle 10303" width="0.988" height="47.611" transform="translate(5513.759 248.075)" fill="#b33f00"/>
    <rect id="Rectangle_10304" data-name="Rectangle 10304" width="0.988" height="49.869" transform="translate(5506.286 245.818)" fill="#b33f00"/>
    <rect id="Rectangle_10305" data-name="Rectangle 10305" width="0.988" height="49.869" transform="translate(5498.734 245.818)" fill="#b33f00"/>
    <rect id="Rectangle_10306" data-name="Rectangle 10306" width="0.988" height="29.1" transform="translate(5486.987 266.587)" fill="#982500"/>
    <rect id="Rectangle_10307" data-name="Rectangle 10307" width="0.988" height="29.1" transform="translate(5479.513 266.587)" fill="#982500"/>
    <rect id="Rectangle_10308" data-name="Rectangle 10308" width="0.988" height="29.1" transform="translate(5472.402 266.587)" fill="#982500"/>
    <rect id="Rectangle_10309" data-name="Rectangle 10309" width="0.988" height="29.1" transform="translate(5464.928 266.587)" fill="#982500"/>
    <rect id="Rectangle_10310" data-name="Rectangle 10310" width="0.988" height="29.1" transform="translate(5457.376 266.587)" fill="#982500"/>
    <path id="Path_9106" data-name="Path 9106" d="M5456.154,254.8a.876.876,0,0,0-.278.3l-7.6,13.416a.882.882,0,0,0,.331,1.2h0c.124.07,40.745.1,42.6.109l6.938-13.4,5.5-4.661h-43.5Z" fill="#002e2e"/>
    <path id="Path_9107" data-name="Path 9107" d="M5469.357,245.006h-.023a.869.869,0,0,0-.519.179l-12.661,9.609a.885.885,0,0,0-.278.3l-.162.286h43.669l12.222-10.373Q5470.274,245.009,5469.357,245.006Z" fill="#084b4a"/>
    <path id="Path_9108" data-name="Path 9108" d="M5522.588,255.7a.9.9,0,0,0-.184-.268l-10.173-10.164h0a.879.879,0,0,0-1.151-.077l-12.66,9.61a.879.879,0,0,0-.279.3l-7.6,13.416a.88.88,0,1,0,1.519.889l.012-.02,7.508-13.263,11.946-9.067,9.536,9.528,6.392,12.469a.879.879,0,0,0,1.565-.8Z" fill="#166160"/>
    <rect id="Rectangle_10311" data-name="Rectangle 10311" width="45.068" height="5.571" transform="translate(5449.52 293.167)" fill="#c7d1bf"/>
    <rect id="Rectangle_10312" data-name="Rectangle 10312" width="36.426" height="5.571" transform="translate(5492.029 293.167)" fill="#c7d1bf"/>
    <rect id="Rectangle_10313" data-name="Rectangle 10313" width="27.825" height="18.955" rx="1.012" transform="translate(5496.167 273.651)" fill="#fdfdfd"/>
    <rect id="Rectangle_10314" data-name="Rectangle 10314" width="25.292" height="16.687" rx="0.523" transform="translate(5497.433 274.809)" fill="#e0dbce"/>
    <path id="Path_9109" data-name="Path 9109" d="M5522.756,273.95a.033.033,0,0,0-.045.009l-12.186,17.831a.033.033,0,0,0,.009.045l.8.545a.031.031,0,0,0,.044-.009l12.186-17.831a.033.033,0,0,0-.008-.045h0Z" fill="#fdfdfd" fill-rule="evenodd"/>
    <path id="Path_9110" data-name="Path 9110" d="M5511.333,273.95l-.8.545a.033.033,0,0,0-.009.045l12.186,17.831a.032.032,0,0,0,.045.009l.8-.545a.033.033,0,0,0,.009-.044h0l-12.186-17.831A.032.032,0,0,0,5511.333,273.95Z" fill="#fdfdfd" fill-rule="evenodd"/>
    <rect id="Rectangle_10315" data-name="Rectangle 10315" width="8.458" height="11.713" rx="0.451" transform="translate(5506.779 259.513)" fill="#fdfdfd"/>
    <rect id="Rectangle_10316" data-name="Rectangle 10316" width="6.673" height="9.752" rx="0.209" transform="translate(5507.671 260.509)" fill="#3c1200"/>
    <path id="Path_9111" data-name="Path 9111" d="M5510.651,273.95a.032.032,0,0,0-.044.009l-12.186,17.831a.033.033,0,0,0,.008.045h0l.8.545a.032.032,0,0,0,.045-.009l12.186-17.831a.034.034,0,0,0-.009-.045Z" fill="#fdfdfd" fill-rule="evenodd"/>
    <path id="Path_9112" data-name="Path 9112" d="M5499.226,273.95l-.8.545a.033.033,0,0,0-.009.044h0l12.186,17.831a.031.031,0,0,0,.044.009l.8-.545a.034.034,0,0,0,.009-.045l-12.186-17.832A.033.033,0,0,0,5499.226,273.95Z" fill="#fdfdfd" fill-rule="evenodd"/>
    <rect id="Rectangle_10317" data-name="Rectangle 10317" width="1.008" height="17.029" rx="0.031" transform="translate(5510.431 274.638)" fill="#fdfdfd"/>
    <rect id="Rectangle_10318" data-name="Rectangle 10318" width="8.458" height="11.713" rx="0.451" transform="translate(5460.469 274.227)" fill="#fdfdfd"/>
    <rect id="Rectangle_10319" data-name="Rectangle 10319" width="6.673" height="9.752" rx="0.209" transform="translate(5461.361 275.223)" fill="#3c1200"/>
    <rect id="Rectangle_10320" data-name="Rectangle 10320" width="8.458" height="11.713" rx="0.451" transform="translate(5474.658 274.227)" fill="#fdfdfd"/>
    <rect id="Rectangle_10321" data-name="Rectangle 10321" width="6.674" height="9.752" rx="0.209" transform="translate(5475.55 275.223)" fill="#3c1200"/>
  </g>
</svg>
