<svg xmlns="http://www.w3.org/2000/svg" width="30" height="29.991" viewBox="0 0 30 29.991">
  <g id="Group_40455" data-name="Group 40455" transform="translate(-9549.415 -295.565)">
    <path id="Path_43675" data-name="Path 43675" d="M9563.6,295.565h1.817a2.5,2.5,0,0,0,.284.052,14.7,14.7,0,0,1,6.069,1.784,15.089,15.089,0,0,1,7.315,16.1,16.122,16.122,0,0,1-3.852,7.611c-3.473,3.715-7.85,4.882-12.766,4.313a14.757,14.757,0,0,1-6.848-2.693,14.024,14.024,0,0,1-5.97-9.4c-.1-.585-.157-1.177-.233-1.765v-1.993c.017-.1.044-.206.051-.31a13.983,13.983,0,0,1,1.632-5.786,15.133,15.133,0,0,1,10.823-7.673C9562.473,295.69,9563.038,295.643,9563.6,295.565Zm-10,23.928c.051-.02.073-.023.085-.035a15.907,15.907,0,0,1,3.148-2.47.325.325,0,0,0,.085-.281,25.5,25.5,0,0,1-.667-4.569c-.02-.357-.035-.713-.053-1.073h-5.8A13.971,13.971,0,0,0,9553.594,319.493Zm.015-17.838c-1.79,1.9-3.59,6.7-3.156,8.415h5.748a25.862,25.862,0,0,1,.759-5.807c-.6-.414-1.19-.791-1.742-1.221S9554.153,302.129,9553.608,301.655Zm24.794,8.416c.269-2.146-1.54-6.906-3.2-8.425-.056.05-.114.1-.168.153a14.2,14.2,0,0,1-2.9,2.262.362.362,0,0,0-.188.488,22.83,22.83,0,0,1,.629,4.128c.028.464.053.928.079,1.394Zm.038.995h-5.787a1.637,1.637,0,0,0-.022.183,24.51,24.51,0,0,1-.711,5.441.265.265,0,0,0,.155.346,14.67,14.67,0,0,1,2.948,2.293c.06.06.126.113.2.183A14.055,14.055,0,0,0,9578.44,311.066Zm-13.526,13.477a.778.778,0,0,0,.13,0c.106-.019.211-.039.315-.065a5.437,5.437,0,0,0,2.755-1.838,12.477,12.477,0,0,0,2.219-3.958c.154-.416.284-.841.427-1.27a14.021,14.021,0,0,0-5.846-1.507Zm-1-27.957c-.057,0-.095,0-.132.009a4.8,4.8,0,0,0-2.584,1.4,13.1,13.1,0,0,0-3.125,5.732,13.97,13.97,0,0,0,5.841,1.508Zm6.816,7.135a14.17,14.17,0,0,0-2.4-4.955,6.679,6.679,0,0,0-1.8-1.615,3.953,3.953,0,0,0-1.622-.569v8.634A13.679,13.679,0,0,0,9570.735,303.721Zm-6.813,20.84V315.9a14.182,14.182,0,0,0-5.89,1.532c.356.894.674,1.793,1.069,2.657a9.278,9.278,0,0,0,2.532,3.431A4.523,4.523,0,0,0,9563.922,324.561Zm-6.755-14.49h6.747V306.2a15.278,15.278,0,0,1-6.081-1.511A25.214,25.214,0,0,0,9557.167,310.071Zm.02.992a20.861,20.861,0,0,0,.691,5.371,15.158,15.158,0,0,1,6.04-1.5v-3.873Zm13.814-6.38a15.24,15.24,0,0,1-6.085,1.517v3.869h6.753A25.263,25.263,0,0,0,9571,304.683Zm.639,6.384h-6.727v3.872a14.992,14.992,0,0,1,6.077,1.507A22.967,22.967,0,0,0,9571.64,311.067Zm-3.621,13.032a13.813,13.813,0,0,0,6.553-3.854,13.8,13.8,0,0,0-2.968-2.363A14.226,14.226,0,0,1,9568.019,324.1Zm6.553-23.213a13.877,13.877,0,0,0-6.548-3.851,14.3,14.3,0,0,1,3.58,6.214A13.843,13.843,0,0,0,9574.571,300.886Zm-17.339,2.366a13.92,13.92,0,0,1,3.611-6.2c-1.586.084-5.773,2.571-6.548,3.877A13.7,13.7,0,0,0,9557.232,303.252Zm-2.968,17a13.883,13.883,0,0,0,6.537,3.843,14.324,14.324,0,0,1-3.57-6.2A13.73,13.73,0,0,0,9554.265,320.252Z" fill="#0e4763"/>
  </g>
</svg>
