<svg xmlns="http://www.w3.org/2000/svg" width="20" height="19.956" viewBox="0 0 20 19.956">
  <g id="Group_41889" data-name="Group 41889" transform="translate(-5840.094 -3042.798)">
    <g id="Group_41888" data-name="Group 41888">
      <path id="Path_45363" data-name="Path 45363" d="M5853.146,3058.041a6.676,6.676,0,0,0,1.708-1.492,6.046,6.046,0,0,0,.836-1.4.345.345,0,0,0,.053-.2h-4.41c-.565,0-.806-.242-.806-.808q0-1.179,0-2.358a.664.664,0,0,1,.731-.744q3.995,0,7.987,0a.675.675,0,0,1,.753.631,1.661,1.661,0,0,0,.1.484v.117a.089.089,0,0,0,0,.117v.155a.3.3,0,0,0,0,.234v.195a.4.4,0,0,0,0,.273v.429c-.045.371-.061.745-.134,1.113a9.777,9.777,0,0,1-2,4.258,10.255,10.255,0,0,1-2.664,2.309.268.268,0,0,1-.2.062.277.277,0,0,1-.134-.135c-.591-1.029-1.192-2.052-1.782-3.082C5853.159,3058.153,5853.111,3058.106,5853.146,3058.041Z" fill="#8a8a8a"/>
      <path id="Path_45364" data-name="Path 45364" d="M5841.457,3057.762a8.246,8.246,0,0,1-.89-1.956,10.031,10.031,0,0,1-.43-2.071c-.005-.048.02-.107-.043-.138v-.156a.088.088,0,0,0,0-.117v-.234a.3.3,0,0,0,0-.234v-.156a.3.3,0,0,0,0-.234v-.233a.088.088,0,0,0,0-.117v-.2a10.6,10.6,0,0,1,.215-1.453,10.239,10.239,0,0,1,.958-2.474.5.5,0,0,1,.162-.215.272.272,0,0,1,.2.064c1,.587,2.015,1.16,3.023,1.74.066.038.143.07.167.154a7.117,7.117,0,0,0-.658,1.695,6,6,0,0,0,.587,4.234c.027.051.048.1.072.157-.015.072-.075.1-.131.135-1,.581-2.011,1.152-3.013,1.735A.309.309,0,0,1,5841.457,3057.762Z" fill="#8a8a8a"/>
      <path id="Path_45365" data-name="Path 45365" d="M5844.817,3049.737l-3.362-1.94c-.048-.079.009-.137.044-.2a9.706,9.706,0,0,1,1.252-1.659,10,10,0,0,1,5.908-3.091c.192-.027.387-.008.576-.054h.2a.052.052,0,0,0,.079,0h.117a.3.3,0,0,0,.234,0h.234a.354.354,0,0,1,.063.258q0,1.691,0,3.381a.35.35,0,0,1-.062.258,6.132,6.132,0,0,0-5.178,2.9C5844.886,3049.645,5844.85,3049.691,5844.817,3049.737Z" fill="#8a8a8a"/>
      <path id="Path_45366" data-name="Path 45366" d="M5850.1,3046.7v-3.9h.2a.674.674,0,0,0,.351,0h.235a4.584,4.584,0,0,0,.756.113,9.961,9.961,0,0,1,5.008,2.329.633.633,0,0,1,.058.95q-.924.951-1.876,1.873a.644.644,0,0,1-.916-.008,6.1,6.1,0,0,0-2.423-1.187A9.292,9.292,0,0,0,5850.1,3046.7Z" fill="#8a8a8a"/>
      <path id="Path_45367" data-name="Path 45367" d="M5841.457,3057.762l3.361-1.939a9.434,9.434,0,0,0,.7.951,6.063,6.063,0,0,0,4.477,2.081c.032,0,.064.005.1.007a.351.351,0,0,1,.062.257q0,1.689,0,3.377a.332.332,0,0,1-.062.256,9.691,9.691,0,0,1-4.453-1.041,9.906,9.906,0,0,1-4.109-3.794A1.628,1.628,0,0,1,5841.457,3057.762Z" fill="#8a8a8a"/>
      <path id="Path_45368" data-name="Path 45368" d="M5850.1,3062.752v-3.89a6.517,6.517,0,0,0,2.191-.43c.29-.121.573-.26.86-.391q.915,1.581,1.832,3.162c.039.067.08.133.121.2a5.44,5.44,0,0,1-1.15.589A9.5,9.5,0,0,1,5850.1,3062.752Z" fill="#8a8a8a"/>
    </g>
  </g>
</svg>
