<svg xmlns="http://www.w3.org/2000/svg" width="71.097" height="44.412" viewBox="0 0 71.097 44.412">
  <g id="Group_40467" data-name="Group 40467" transform="translate(-8760.04 -1599.971)" opacity="0.7">
    <path id="Path_43676" data-name="Path 43676" d="M8831.137,1625.66a4.238,4.238,0,0,1-2.853,3.208,20.851,20.851,0,0,1-2.7.378v.646c0,1.782.022,3.564,0,5.345a5.551,5.551,0,0,1-8.238,4.991c-.042-.021-.086-.036-.17-.071a2.071,2.071,0,0,0-.184.326,5.483,5.483,0,0,1-6.281,3.809,5.546,5.546,0,0,1-4.554-5.578c-.027-2.938-.006-5.877-.006-8.815v-.725h-21.1v.766c0,2.916.023,5.831-.006,8.747a5.528,5.528,0,0,1-7.2,5.44,5.321,5.321,0,0,1-3.517-3.29c-.085-.212-.159-.429-.261-.705a5.775,5.775,0,0,1-3.257.775,5.543,5.543,0,0,1-5.194-5.642c-.029-2.011-.007-4.022-.007-6.134-.437,0-.844.006-1.25,0a4.182,4.182,0,0,1-4.3-4.3c-.021-1.735-.016-3.471,0-5.206a4.189,4.189,0,0,1,4.371-4.373c.366-.005.732,0,1.18,0v-2.107c0-1.366-.027-2.732.008-4.1a5.545,5.545,0,0,1,8.2-4.911.563.563,0,0,0,.106.045,15.247,15.247,0,0,1,1.61-2.474,5.275,5.275,0,0,1,6.046-1.3,5.507,5.507,0,0,1,3.464,5.222c.027,2.938.007,5.877.008,8.816v.776h21.1v-.734c0-2.939-.027-5.878.007-8.816a5.526,5.526,0,0,1,7.222-5.406,5.317,5.317,0,0,1,3.5,3.309c.083.212.163.424.264.686a5.451,5.451,0,0,1,4.294-.6,5.526,5.526,0,0,1,4.146,5.491c.021,1.781,0,3.563,0,5.345v.761c.391,0,.73,0,1.069,0a4.173,4.173,0,0,1,4.362,3.23,1.6,1.6,0,0,0,.122.241Zm-48.872-3.473q0-7.078,0-14.159c0-.879.033-1.76-.015-2.636a2.767,2.767,0,0,0-3.73-2.462,2.866,2.866,0,0,0-1.807,2.916q0,16.346,0,32.69c0,.185,0,.371.017.555a2.76,2.76,0,0,0,3.822,2.307,2.79,2.79,0,0,0,1.717-2.831Q8782.256,1630.377,8782.265,1622.187Zm32.211.025v-12.493c0-1.411.03-2.823-.012-4.233a2.768,2.768,0,0,0-3.712-2.564,2.818,2.818,0,0,0-1.827,2.829q-.006,16.449,0,32.9a4.24,4.24,0,0,0,.021.485,2.759,2.759,0,0,0,3.921,2.217,2.8,2.8,0,0,0,1.614-2.76Q8814.468,1630.4,8814.476,1622.212Zm-40.542,0q0-2.706,0-5.413c0-2.591.024-5.183-.01-7.773a2.765,2.765,0,0,0-3.71-2.637,2.822,2.822,0,0,0-1.831,2.827q-.006,12.979,0,25.957a3.341,3.341,0,0,0,.021.485,2.7,2.7,0,0,0,1.9,2.342,2.765,2.765,0,0,0,3.631-2.809C8773.943,1630.868,8773.934,1626.541,8773.934,1622.215Zm48.873-.025q0-3.435,0-6.871c0-2.1.027-4.211-.01-6.315a2.768,2.768,0,0,0-3.734-2.6,2.855,2.855,0,0,0-1.808,2.914q0,11.832,0,23.666c0,.81-.017,1.62.008,2.429a2.772,2.772,0,1,0,5.54-.171C8822.818,1630.889,8822.806,1626.54,8822.807,1622.19Zm-16.684-4.118H8785.1v8.244h21v-2.738h-9.127a4.972,4.972,0,0,1-.623-.017,1.375,1.375,0,0,1,.031-2.746,5.9,5.9,0,0,1,.624-.013h9.125Zm-40.544-.045c-.486,0-.9-.02-1.312.005a1.39,1.39,0,0,0-1.43,1.465q-.038,2.7,0,5.4a1.326,1.326,0,0,0,1.171,1.41,12.245,12.245,0,0,0,1.57.013Zm60.033,8.323c.489,0,.905.022,1.318,0a1.372,1.372,0,0,0,1.415-1.406q.047-2.769,0-5.539a1.258,1.258,0,0,0-1.108-1.312,10.688,10.688,0,0,0-1.622-.017Z"/>
    <path id="Path_43677" data-name="Path 43677" d="M8789.5,1622.135a1.379,1.379,0,1,1,1.326,1.431A1.431,1.431,0,0,1,8789.5,1622.135Z"/>
  </g>
</svg>
