<svg xmlns="http://www.w3.org/2000/svg" xmlns:xlink="http://www.w3.org/1999/xlink" width="69.773" height="70.599" viewBox="0 0 69.773 70.599">
  <defs>
    <clipPath id="clip-path">
      <rect id="Rectangle_250" data-name="Rectangle 250" width="69.773" height="70.599" transform="translate(5453.809 567.499)" fill="none"/>
    </clipPath>
  </defs>
  <g id="Group_8082" data-name="Group 8082" transform="translate(-5453.809 -567.499)">
    <g id="Group_676" data-name="Group 676">
      <g id="Group_675" data-name="Group 675" clip-path="url(#clip-path)">
        <g id="Group_8081" data-name="Group 8081">
          <path id="Path_10624" data-name="Path 10624" d="M5455.2,592.356c-.633-.357-1.262-.714-1.371-1.541a1.955,1.955,0,0,1,1.074-2.026q8.4-5.367,16.777-10.764c5.218-3.349,10.443-6.682,15.645-10.058a2.269,2.269,0,0,1,2.774.011q16.048,10.338,32.142,20.606c1.561.991,2,2.841-.064,3.782a.747.747,0,0,1-.746.14c-2.026-1.129-3.94-2.439-5.889-3.692q-9.453-6.081-18.917-12.148c-2.168-1.391-4.354-2.755-6.49-4.2a2.278,2.278,0,0,0-2.835-.023q-10.2,6.615-20.446,13.144c-3.512,2.246-7,4.529-10.537,6.737a1.46,1.46,0,0,1-.245.134,1.3,1.3,0,0,1-.87-.105" fill="#8e4d3d"/>
          <path id="Path_10625" data-name="Path 10625" d="M5455.2,592.356l.9.008a3,3,0,0,1,1.51-.223H5520a2.613,2.613,0,0,1,1.3.223h.878a1.718,1.718,0,0,1-.15,3.4.64.64,0,0,1-.273.049c-2.54-.095-5.074.181-7.613.133q-24.015-.006-48.032,0c-.958-.005-1.917,0-2.875,0-2.622.006-5.24-.165-7.861-.181a1.725,1.725,0,0,1-.173-3.408" fill="#8e4d3d"/>
          <path id="Path_10626" data-name="Path 10626" d="M5522.025,634.693a17.493,17.493,0,0,1,.1,3.063c.012.23-.113.343-.343.34h-65.6c-.909,0-.932,0-.9-.9a10.405,10.405,0,0,1,.1-2.5.466.466,0,0,1,.2-.061c1.708.087,3.407-.144,5.114-.143q28.61.02,57.218.03c1.367,0,2.748.055,4.118.174" fill="#d29f6c"/>
          <path id="Path_10627" data-name="Path 10627" d="M5458.184,634.554c0-.9.035-1.808-.013-2.709-.031-.574.185-.711.713-.689.374.014.785.147,1.137-.117a.733.733,0,0,1,.574-.209c1.909,0,3.818-.083,5.726.043a2.564,2.564,0,0,0,.549.1c2.924-.03,5.85,0,8.774-.016a4.793,4.793,0,0,0,.837-.08,6.009,6.009,0,0,1,1.191-.061c.477.005.676-.222.674-.687,0-.445,0-.89,0-1.335,0-5.06-.006-10.12.011-15.18,0-.4-.2-.909.374-1.14a1.651,1.651,0,0,1,.206,1.148q.009,7.976,0,15.951c0,.211.013.423,0,.632-.031.532.2.764.742.752.842-.018,1.686,0,2.529,0h15.177c1.039,0,1.059-.02,1.06-1.06q0-8.081,0-16.162a1.951,1.951,0,0,1,.187-1.227c.374-.056.328.254.37.453a4.457,4.457,0,0,1,.033.909v15.489c0,.234.011.468,0,.7-.021.521.2.781.74.761a5.041,5.041,0,0,1,1.118.056,16.219,16.219,0,0,0,2.662.081c2.294.013,4.587-.006,6.88.013a2.368,2.368,0,0,0,.621-.091c1.91-.125,3.822-.046,5.733-.045a.736.736,0,0,1,.575.209c.353.263.762.131,1.136.117.528-.021.745.115.714.689-.049.9-.013,1.806-.013,2.71a1.494,1.494,0,0,1-.759.066q-29.757.006-59.516,0a1.49,1.49,0,0,1-.758-.066" fill="#e9bc8b"/>
          <path id="Path_10628" data-name="Path 10628" d="M5461,628.66V598.277c.035-.031.067-.085.1-.09a12.106,12.106,0,0,1,4.43.062,1.609,1.609,0,0,1,.19,1.014q.006,14.241,0,28.482a2.344,2.344,0,0,1-.1.9c-.167.325-.48.352-.785.359-1.054.025-2.11.027-3.162,0-.259-.007-.589.042-.676-.343" fill="#f8dfa5"/>
          <path id="Path_10629" data-name="Path 10629" d="M5516.4,598.277V628.66c-.063.357-.368.327-.6.335-1.095.039-2.191.033-3.288.005a.743.743,0,0,1-.723-.335,2.552,2.552,0,0,1-.114-1.038q0-14.1,0-28.2a2,2,0,0,1,.175-1.16.756.756,0,0,1,.509-.2c1.177-.041,2.36-.038,3.54,0a.671.671,0,0,1,.5.206" fill="#f8dfa5"/>
          <path id="Path_10630" data-name="Path 10630" d="M5516.4,598.277H5511.9c-.767.32-1.374.049-1.526-.725a1.784,1.784,0,0,1,.382-1.63,22.6,22.6,0,0,1,3.391-.1c.918,0,1.837,0,2.756,0,.22,0,.474-.068.6.21a1.814,1.814,0,0,1,.142,1.773c-.2.6-.789.427-1.252.473" fill="#d2a06c"/>
          <path id="Path_10631" data-name="Path 10631" d="M5465.5,598.277H5461c-1.368-.043-1.834-.986-1.111-2.247.131-.28.389-.208.613-.209.91-.006,1.82,0,2.731,0h2.727a1.1,1.1,0,0,1,.736.147,2,2,0,0,1,.339,1.453c-.056.834-.736,1.193-1.542.857" fill="#d2a06c"/>
          <path id="Path_10632" data-name="Path 10632" d="M5461,628.66a2.912,2.912,0,0,0,1.509.107,12.7,12.7,0,0,0,2.987-.107c.821-.369,1.394-.055,1.465.812a4.488,4.488,0,0,1-.016,1.049c-.049.313-.143.6-.564.542l-6.364-.024a1.643,1.643,0,0,1-.273-1.88c.178-.587.781-.463,1.256-.5" fill="#d29f6c"/>
          <path id="Path_10633" data-name="Path 10633" d="M5511.9,628.66a14.15,14.15,0,0,0,3.126.108,2.469,2.469,0,0,0,1.369-.108c.464.065,1.076-.066,1.255.5a1.636,1.636,0,0,1-.272,1.879l-6.365.025c-.022.006-.049.022-.068.015-.5-.2-.736-1.276-.441-2.02.211-.535.749-.689,1.394-.4" fill="#d29f6c"/>
          <path id="Path_10634" data-name="Path 10634" d="M5458.184,634.555h61.032a14.128,14.128,0,0,1,2.809.138q-1.827,0-3.652,0l-62.087.006c-.3,0-.608-.006-.912-.01a13.893,13.893,0,0,1,2.809-.138" fill="#eac6a1"/>
          <path id="Path_10635" data-name="Path 10635" d="M5463.25,595.884c-.875,0-1.751,0-2.626,0a1.253,1.253,0,0,0-.732.148c-.207-.289-.512-.148-.773-.16a31.218,31.218,0,0,1-3.745-.1h7.876c.049.026.063.049.049.078s-.031.039-.047.039" fill="#d5ac88"/>
          <path id="Path_10636" data-name="Path 10636" d="M5517.507,596.03a7.416,7.416,0,0,0-2.321-.139c-.344-.027-.691-.006-1.037-.007-.046-.026-.062-.052-.046-.078s.032-.039.049-.039h7.877a31.047,31.047,0,0,1-3.747.1c-.262.015-.566-.129-.774.16" fill="#d5ac88"/>
          <path id="Path_10637" data-name="Path 10637" d="M5521.3,592.364c-.187,0-.374-.011-.562-.011h-64.076c-.187,0-.374.007-.561.011a33.278,33.278,0,0,1,3.258-2.159c4.2-2.726,8.425-5.408,12.639-8.112q7.765-4.984,15.525-9.98a1.985,1.985,0,0,1,2.355,0q10.059,6.477,20.128,12.942,5.523,3.543,11.059,7.063a1.413,1.413,0,0,1,.235.248" fill="#d29f6c"/>
          <path id="Path_10638" data-name="Path 10638" d="M5514.151,595.768v.116c-.874,0-1.749,0-2.623,0a1.188,1.188,0,0,0-.729.145,4.778,4.778,0,0,1-1.047.088q-21.053,0-42.1,0a4.829,4.829,0,0,1-1.047-.088.825.825,0,0,0-.54-.148c-.046-.026-.061-.053-.046-.079s.031-.039.046-.039c.257-.01.514-.029.771-.029l46.686.009c.21,0,.42.013.631.021" fill="#d0a883"/>
          <path id="Path_10639" data-name="Path 10639" d="M5466.063,595.767v.118h-2.813v-.117h2.814" fill="#d0a783"/>
          <path id="Path_10640" data-name="Path 10640" d="M5466.6,596.03c.193-.258.473-.155.715-.155q21.382-.008,42.764,0c.243,0,.523-.1.716.155a2.181,2.181,0,0,0-.234,1.483c.1.826.753.752,1.339.764q0,15.192,0,30.383c-.473.031-1.028-.114-1.256.5a2.067,2.067,0,0,0,.37,1.908c-.148.167-.349.108-.528.108q-4.492,0-8.985,0c-.2,0-.427.057-.589-.139a1.735,1.735,0,0,1-.181-1.155c-.006-5.647.012-11.294-.009-16.941a12.019,12.019,0,0,0-23.935-1.468,12.619,12.619,0,0,0-.119,1.749q0,8.365,0,16.731a1.607,1.607,0,0,1-.182,1.084c-.138.176-.335.14-.517.14q-4.6,0-9.2,0c-.138,0-.284.017-.387-.111a2.065,2.065,0,0,0,.37-1.907c-.228-.61-.785-.465-1.255-.5q0-15.192,0-30.383c1.355-.036,1.76-.86,1.1-2.247" fill="#ebebeb"/>
          <path id="Path_10641" data-name="Path 10641" d="M5498.706,612.481a10.023,10.023,0,0,0-20.013,0c-.2.245-.112.54-.112.812,0,5.657-.013,11.314.009,16.971,0,.6-.133.864-.773.788a11.822,11.822,0,0,0-1.331-.018c0-6.209-.153-12.423.035-18.626a12.084,12.084,0,0,1,10.536-11.478,12.25,12.25,0,0,1,13.656,9.879,9.089,9.089,0,0,1,.2,1.668q.018,9.279,0,18.557c-.467,0-.939-.03-1.4.018-.576.059-.7-.181-.7-.717q.026-8.522.007-17.042c0-.272.089-.565-.113-.812" fill="#d29f6c"/>
          <path id="Path_10642" data-name="Path 10642" d="M5488.852,589.4c-.743-.007-1.2-.568-1.757-.927a14.291,14.291,0,0,1-4.3-4.055,4.172,4.172,0,0,1,1.254-6.147,3.667,3.667,0,0,1,3.983,0c.257.148.449.417.778.439a3.75,3.75,0,0,1,3.235,5.069,14.748,14.748,0,0,1-3.195,5.617" fill="#f6496e"/>
          <path id="Path_10643" data-name="Path 10643" d="M5488.852,589.4c.609-.96,1.249-1.9,1.819-2.887a8.564,8.564,0,0,0,1.394-3.989,3.282,3.282,0,0,0-2.316-3.377c-.321-.121-.694-.141-.937-.433a3.8,3.8,0,0,1,5.761.661,3.919,3.919,0,0,1,.392,4.41,13.011,13.011,0,0,1-4.269,4.468c-.582.426-1.227.767-1.841,1.147" fill="#f0004e"/>
        </g>
      </g>
    </g>
  </g>
</svg>
