<svg xmlns="http://www.w3.org/2000/svg" width="50" height="54.494" viewBox="0 0 50 54.494">
  <g id="Group_40476" data-name="Group 40476" transform="translate(-9275.387 -1969.046)" opacity="0.7">
    <path id="Path_43708" data-name="Path 43708" d="M9309.862,1969.046c.9.64,1.015,1.106.411,2.086a4.52,4.52,0,0,0-.209,4.549,24.028,24.028,0,0,1,1.519,3.888,5.815,5.815,0,0,1-1.159,4.907,1.087,1.087,0,0,1-1.425.321,1.117,1.117,0,0,1-.5-1.411,3.934,3.934,0,0,1,.318-.612,4.016,4.016,0,0,0,.2-4c-.482-1.062-1-2.114-1.395-3.209a6.317,6.317,0,0,1,.938-5.944,3.32,3.32,0,0,1,.67-.572Z"/>
    <path id="Path_43709" data-name="Path 43709" d="M9291.766,1969.046c.9.633,1.022,1.1.419,2.083a4.522,4.522,0,0,0-.214,4.549,24.177,24.177,0,0,1,1.521,3.887,5.82,5.82,0,0,1-1.158,4.908,1.085,1.085,0,0,1-1.422.326,1.112,1.112,0,0,1-.508-1.41,3.848,3.848,0,0,1,.316-.612,4.051,4.051,0,0,0,.185-4.054c-.485-1.061-1-2.112-1.394-3.209a6.288,6.288,0,0,1,.952-5.892,3.453,3.453,0,0,1,.664-.576Z"/>
    <path id="Path_43710" data-name="Path 43710" d="M9300.814,1969.046c.9.641,1.019,1.1.414,2.085a4.521,4.521,0,0,0-.211,4.548,24.033,24.033,0,0,1,1.521,3.887,5.807,5.807,0,0,1-1.159,4.907,1.1,1.1,0,0,1-1.471.3,1.128,1.128,0,0,1-.44-1.437,4.1,4.1,0,0,1,.3-.562,4.013,4.013,0,0,0,.2-4c-.5-1.095-1.038-2.176-1.428-3.309a6.319,6.319,0,0,1,1-5.887,3.029,3.029,0,0,1,.637-.53Z"/>
    <path id="Path_43711" data-name="Path 43711" d="M9314.014,2019.015h-27.251v.89c0,.8.014,1.6,0,2.4a1.131,1.131,0,1,1-2.252.017c-.019-.887-.006-1.774-.006-2.661,0-.192,0-.383,0-.658-.255,0-.46,0-.665,0a29.57,29.57,0,0,1-3.613-.084,5.568,5.568,0,0,1-4.809-5.63q-.051-10.164,0-20.328a5.6,5.6,0,0,1,5.793-5.729q19.184-.023,38.368,0a5.614,5.614,0,0,1,5.795,5.783q.038,10.085,0,20.169a5.649,5.649,0,0,1-5.821,5.817c-.939.01-1.881.015-2.821,0-.346-.008-.465.1-.456.452.02.922.014,1.845,0,2.767-.011.815-.466,1.336-1.136,1.329s-1.117-.529-1.124-1.347C9314.009,2021.15,9314.014,2020.107,9314.014,2019.015Zm-13.619-2.28h18.948a3.432,3.432,0,0,0,3.745-3.732q.006-9.9,0-19.8a4.489,4.489,0,0,0-.1-1.1,3.4,3.4,0,0,0-3.6-2.613h-37.949a3.431,3.431,0,0,0-3.744,3.732q-.007,9.9,0,19.8a4.544,4.544,0,0,0,.1,1.106,3.388,3.388,0,0,0,3.545,2.612Q9290.87,2016.737,9300.395,2016.735Z"/>
    <path id="Path_43712" data-name="Path 43712" d="M9284.5,2003.128q0,4.866,0,9.733c0,1.043-.4,1.594-1.15,1.588s-1.136-.551-1.136-1.6q0-9.788,0-19.573c0-.888.286-1.338.914-1.469a1.06,1.06,0,0,1,1.294.8,3.5,3.5,0,0,1,.075.789Q9284.5,1998.262,9284.5,2003.128Z"/>
    <path id="Path_43713" data-name="Path 43713" d="M9291.313,2003.116v9.733c0,1.05-.392,1.6-1.14,1.6s-1.147-.546-1.147-1.59V1993.34c0-1.032.417-1.593,1.164-1.576.73.016,1.121.558,1.121,1.565Q9291.316,1998.224,9291.313,2003.116Z"/>
    <path id="Path_43714" data-name="Path 43714" d="M9295.839,2003.083q0-4.893,0-9.786c0-.991.419-1.542,1.154-1.533.719.008,1.131.547,1.132,1.5q0,9.838,0,19.679a2.5,2.5,0,0,1-.088.734,1.058,1.058,0,0,1-1.037.766,1.081,1.081,0,0,1-1.074-.786,3.447,3.447,0,0,1-.081-.789Q9295.834,2007.977,9295.839,2003.083Z"/>
    <path id="Path_43715" data-name="Path 43715" d="M9304.938,2003.161q0,4.92,0,9.84c0,.86-.322,1.318-.973,1.42a1.068,1.068,0,0,1-1.238-.817,3.448,3.448,0,0,1-.071-.737q0-9.759,0-19.52c0-1.038.408-1.6,1.156-1.583s1.13.557,1.13,1.611Q9304.94,1998.268,9304.938,2003.161Z"/>
    <path id="Path_43716" data-name="Path 43716" d="M9311.751,2003.106q0,4.945,0,9.892c0,.862-.321,1.319-.97,1.423a1.067,1.067,0,0,1-1.24-.815,3.328,3.328,0,0,1-.073-.737q-.006-9.759,0-19.519c0-1.04.407-1.6,1.154-1.586s1.132.556,1.132,1.608Z"/>
    <path id="Path_43717" data-name="Path 43717" d="M9316.277,2003.11q0-4.945,0-9.892c0-.859.32-1.317.97-1.424a1.068,1.068,0,0,1,1.239.815,3.313,3.313,0,0,1,.072.736q.007,9.761,0,19.52c0,1.041-.4,1.593-1.153,1.584s-1.133-.553-1.133-1.606Z"/>
  </g>
</svg>
