<svg xmlns="http://www.w3.org/2000/svg" width="48.389" height="65.179" viewBox="0 0 48.389 65.179">
  <g id="Group_2074" data-name="Group 2074" transform="translate(-5344.313 -8524.682)" opacity="0.7">
    <path id="Path_2630" data-name="Path 2630" d="M5389.509,8524.682a4.585,4.585,0,0,1,2.414,1.54,4.508,4.508,0,0,1,.774,2.765q-.01,22.658,0,45.314v11.328a3.877,3.877,0,0,1-4.234,4.231h-39.911a3.876,3.876,0,0,1-4.233-4.231q0-28.063,0-56.133c0-2.879.569-3.74,3.179-4.812Zm-32.431,2.546h-8.433c-1.382,0-1.784.4-1.784,1.783V8556h16a5.545,5.545,0,0,1,.637.016,1.259,1.259,0,0,1,.018,2.512,5.107,5.107,0,0,1-.635.017h-16.018V8585.7c0,1.152.465,1.607,1.636,1.609q4.008,0,8.018,0c.2,0,.4-.018.593-.026a11.517,11.517,0,0,1,10.43-10.111,11.013,11.013,0,0,1,6.987,1.684,11.46,11.46,0,0,1,5.38,8.455h8.456c1.382,0,1.784-.4,1.784-1.782v-26.985h-16a5.3,5.3,0,0,1-.635-.016,1.259,1.259,0,0,1-.019-2.511,4.768,4.768,0,0,1,.636-.018h16.018v-27.156c0-1.153-.466-1.607-1.637-1.61q-4.009,0-8.017,0c-.2,0-.405.02-.594.028a11.483,11.483,0,0,1-22.816-.028Zm20.19.03h-17.53a8.855,8.855,0,0,0,17.53,0Zm0,60.026a8.847,8.847,0,0,0-17.522,0Z"/>
    <path id="Path_2631" data-name="Path 2631" d="M5381.273,8537.413a6.363,6.363,0,1,1-6.4,6.324h0A6.436,6.436,0,0,1,5381.273,8537.413Zm3.775,6.368a3.815,3.815,0,1,0-3.821,3.808h.019a3.847,3.847,0,0,0,3.8-3.808Z"/>
    <path id="Path_2632" data-name="Path 2632" d="M5362.134,8570.752a6.364,6.364,0,1,1-6.375-6.352h0A6.434,6.434,0,0,1,5362.134,8570.752Zm-6.338,3.825a3.814,3.814,0,1,0-3.84-3.788v.017a3.848,3.848,0,0,0,3.84,3.771Z"/>
    <path id="Path_2633" data-name="Path 2633" d="M5387.594,8573.282a3.815,3.815,0,1,1-3.841-3.788h.017A3.848,3.848,0,0,1,5387.594,8573.282Zm-3.836-1.237a1.263,1.263,0,1,0,1.285,1.244A1.3,1.3,0,0,0,5383.758,8572.045Z"/>
    <path id="Path_2634" data-name="Path 2634" d="M5369.765,8557.248a1.263,1.263,0,1,1-1.284-1.244A1.3,1.3,0,0,1,5369.765,8557.248Z"/>
    <path id="Path_2635" data-name="Path 2635" d="M5382.5,8543.755a1.263,1.263,0,1,1-1.283-1.244A1.3,1.3,0,0,1,5382.5,8543.755Z"/>
    <path id="Path_2636" data-name="Path 2636" d="M5355.792,8569.5a1.263,1.263,0,1,1-1.284,1.241h0A1.3,1.3,0,0,1,5355.792,8569.5Z"/>
  </g>
</svg>
