<svg xmlns="http://www.w3.org/2000/svg" width="62.21" height="59.595" viewBox="0 0 62.21 59.595">
  <g id="Group_2083" data-name="Group 2083" transform="translate(-4800.866 -9231.665)" opacity="0.7">
    <path id="Path_2673" data-name="Path 2673" d="M4863.076,9263.3a4.84,4.84,0,0,1-1.163,2.221.987.987,0,0,0-.139.623c-.013,2.188.019,4.374-.027,6.56a15.666,15.666,0,0,1-5.8,12.2c-.092.076-.178.161-.305.275l1.325,2.645c.245.487.5.967.731,1.466a1.314,1.314,0,0,1-.466,1.8l-.059.033a1.294,1.294,0,0,1-1.735-.575c-.015-.032-.03-.063-.043-.1-.576-1.09-1.115-2.2-1.672-3.3-.089-.178-.188-.351-.2-.376-1.759.543-3.429,1.154-5.149,1.555a16.208,16.208,0,0,1-3.613.346c-8.524.028-17.049.012-25.575.016a18,18,0,0,1-8.312-1.921c-.107-.055-.221-.095-.384-.165q-.837,1.66-1.664,3.3a7.4,7.4,0,0,1-.368.7,1.262,1.262,0,0,1-1.678.526,1.245,1.245,0,0,1-.611-1.65l.024-.05c.414-.92.892-1.812,1.343-2.718.243-.488.488-.976.754-1.507-.513-.473-1.056-.924-1.545-1.427a15.983,15.983,0,0,1-4.575-11.656c0-1.985.009-3.969-.01-5.953a1.267,1.267,0,0,0-.242-.76,3.745,3.745,0,0,1-.73-4.124,3.677,3.677,0,0,1,3.317-2.366,1.747,1.747,0,0,0,.246-.062v-.7c0-6.865.054-13.729-.022-20.594a5.675,5.675,0,0,1,5.458-5.885c.136,0,.272,0,.408,0,1.578.045,3.16.051,4.738,0a5.43,5.43,0,0,1,5.72,5.027c.01.173.28.4.478.479a5.91,5.91,0,0,1,3.786,4.118,6.447,6.447,0,0,1,.171,1.44c.026.931.012,1.861.006,2.793-.007,1.205-.5,1.7-1.693,1.7q-4.159.009-8.322,0a1.291,1.291,0,0,1-.707-.1c-.336-.25-.845-.588-.853-.9a22.966,22.966,0,0,1,.139-4.951,5.549,5.549,0,0,1,3.724-4.01c.221-.09.446-.168.656-.246a2.678,2.678,0,0,0-2.576-2.733c-1.9-.056-3.808-.06-5.709,0a2.891,2.891,0,0,0-2.817,2.961c0,.029,0,.058,0,.088-.012,2.814,0,5.629,0,8.444v13.12h.839q25.27,0,50.54-.01a4,4,0,0,1,3.594,1.622,9.953,9.953,0,0,1,.76,1.7Zm-58.228,3.4c0,2.444-.2,4.848.039,7.21a12.835,12.835,0,0,0,7.949,10.915,15.583,15.583,0,0,0,6.618,1.286q12.207.009,24.414-.008a30.376,30.376,0,0,0,3.449-.207,13.308,13.308,0,0,0,11.732-11.851c.229-2.389.094-4.812.123-7.219,0-.034-.037-.069-.069-.127Zm27.117-2.641h26.6c.222,0,.445.007.667-.009a1.325,1.325,0,0,0,1.248-1.189,1.3,1.3,0,0,0-1.027-1.323,3.888,3.888,0,0,0-.844-.059q-26.659,0-53.319,0c-.2,0-.406-.01-.607.01a1.357,1.357,0,0,0-1.219,1.291,1.3,1.3,0,0,0,1.175,1.255,6.84,6.84,0,0,0,.788.026Zm-9.073-19.472c0-.709.013-1.353,0-2a3.27,3.27,0,0,0-2.91-3.11,3.5,3.5,0,0,0-3.512,2.733,19.987,19.987,0,0,0-.016,2.376Z"/>
  </g>
</svg>
