<svg xmlns="http://www.w3.org/2000/svg" width="60.001" height="57.306" viewBox="0 0 60.001 57.306">
  <g id="Group_40479" data-name="Group 40479" transform="translate(-8765.588 -2350.986)" opacity="0.7">
    <path id="Path_43720" data-name="Path 43720" d="M8825.589,2370.609l-2.931,7c-.053.126-.1.255-.155.379a1.3,1.3,0,0,1-2.094.646c-1.223-.77-2.427-1.566-3.64-2.352-.867-.562-1.754-1.1-2.6-1.7a4.709,4.709,0,0,1-.761-.888,4.79,4.79,0,0,1,1-.7c.854-.323,1.741-.557,2.648-.838a1.813,1.813,0,0,0-.056-.349c-3.354-8.807-9.64-14.212-18.925-15.833a23.974,23.974,0,0,0-27.32,18.709,23.633,23.633,0,0,0,5.038,20.414c.2.243.4.477.59.728a2.3,2.3,0,0,1-.357,3.2,2.234,2.234,0,0,1-3.2-.314,38.688,38.688,0,0,1-2.873-3.839,28.684,28.684,0,0,1,16.264-42.716,28.653,28.653,0,0,1,35.065,17.947c.071.2.151.4.248.652.964-.3,1.909-.58,2.851-.873a1.144,1.144,0,0,1,1.2.138Z"/>
    <path id="Path_43721" data-name="Path 43721" d="M8793.645,2387.826H8779.8a7.984,7.984,0,0,1,2.421-5.022c1.557-1.472,3.275-2.77,4.884-4.188a8.495,8.495,0,0,0,1.534-1.735,1.756,1.756,0,0,0-.661-2.563,2.02,2.02,0,0,0-2.783.782,12.134,12.134,0,0,0-.507,1.484l-4.5-.367a5.02,5.02,0,0,1,4.264-5.115,12.892,12.892,0,0,1,5.18.058,4.724,4.724,0,0,1,2.876,7.675,14.545,14.545,0,0,1-2.278,2.252c-1.058.892-2.189,1.7-3.29,2.535-.137.1-.286.19-.43.284l.1.177h7.031Z"/>
    <path id="Path_43722" data-name="Path 43722" d="M8807.677,2387.826h-4.03v-3.085h-8.456c0-1.275-.01-2.482.012-3.688a.849.849,0,0,1,.252-.442q3.933-4.692,7.881-9.37a.921.921,0,0,1,.557-.346c1.227-.031,2.454-.015,3.749-.015v10.25h2.077v3.592h-2.041Zm-4.085-11.9-4.405,5.186h4.405Z"/>
    <path id="Path_43723" data-name="Path 43723" d="M8797.234,2405.548a2.286,2.286,0,0,1,1.612-2.205,16.063,16.063,0,0,1,1.992-.466,2.277,2.277,0,0,1,2.484,1.683,2.233,2.233,0,0,1-1.362,2.713,11.042,11.042,0,0,1-2.27.529A2.266,2.266,0,0,1,8797.234,2405.548Z"/>
    <path id="Path_43724" data-name="Path 43724" d="M8811.535,2401.445a3.2,3.2,0,0,1-.037.4c-.274,1.371-2.657,2.941-4.042,2.666a2.182,2.182,0,0,1-1.78-1.658,2.11,2.11,0,0,1,.768-2.355,11.2,11.2,0,0,1,1.816-1.167A2.286,2.286,0,0,1,8811.535,2401.445Z"/>
    <path id="Path_43725" data-name="Path 43725" d="M8821.869,2387.467a16.958,16.958,0,0,1-.9,2.4,2.172,2.172,0,0,1-2.765.849,2.28,2.28,0,0,1-1.369-2.572,13.611,13.611,0,0,1,.679-2.048,2.256,2.256,0,0,1,2.563-1.276A2.446,2.446,0,0,1,8821.869,2387.467Z"/>
    <path id="Path_43726" data-name="Path 43726" d="M8815.589,2392.707a2.391,2.391,0,0,1,2.073,3.484,9.832,9.832,0,0,1-1.456,1.892,2.272,2.272,0,0,1-3.6-2.646,9.671,9.671,0,0,1,1.559-2.028A4.984,4.984,0,0,1,8815.589,2392.707Z"/>
    <path id="Path_43727" data-name="Path 43727" d="M8783.281,2406.043a5.931,5.931,0,0,1-3.022-1.57,2.18,2.18,0,0,1-.075-2.761,2.219,2.219,0,0,1,2.59-.826,12.721,12.721,0,0,1,1.942.937,2.247,2.247,0,0,1,.974,2.6A2.358,2.358,0,0,1,8783.281,2406.043Z"/>
    <path id="Path_43728" data-name="Path 43728" d="M8791.947,2408.292a19.655,19.655,0,0,1-2.015-.318,2.273,2.273,0,0,1,.7-4.458,15.671,15.671,0,0,1,1.86.182,2.285,2.285,0,0,1,1.974,2.485A2.339,2.339,0,0,1,8791.947,2408.292Z"/>
  </g>
</svg>
