<svg xmlns="http://www.w3.org/2000/svg" width="30" height="26.762" viewBox="0 0 30 26.762">
  <g id="Group_39063" data-name="Group 39063" transform="translate(-11297.922 -215.262)">
    <path id="Path_42094" data-name="Path 42094" d="M11297.922,228a3.4,3.4,0,0,1,.4-.492q7.006-5.982,14.021-11.952c.464-.4.713-.392,1.179.006l4.034,3.44c.058.049.12.09.214.159.007-.13.014-.222.014-.315,0-.712,0-1.425,0-2.138a.683.683,0,0,1,.741-.756q1.436-.018,2.87,0c.529.006.786.29.786.841q0,2.929,0,5.859a.545.545,0,0,0,.213.469q2.593,2.2,5.171,4.409c.344.293.437.562.3.863a.621.621,0,0,1-.881.3,1.753,1.753,0,0,1-.284-.205q-6.781-5.772-13.56-11.546c-.059-.05-.121-.1-.206-.167-.073.057-.15.111-.222.171q-6.768,5.763-13.539,11.524a1.264,1.264,0,0,1-.5.284c-.378.089-.6-.15-.754-.46Zm21.153-10.732c0,.99,0,1.955.007,2.919a.414.414,0,0,0,.16.252c.435.377.879.745,1.319,1.115.093.077.187.151.3.245v-4.531Z" fill="#febb12"/>
    <path id="Path_42095" data-name="Path 42095" d="M11302.646,229.238c-.281.242-.493.428-.71.609-.363.3-.73.313-.986.023a.666.666,0,0,1,.155-1q2.333-2,4.673-4,3.272-2.8,6.547-5.593c.483-.412.72-.413,1.2,0l11.2,9.569a.737.737,0,0,1,.326.733.627.627,0,0,1-1.011.363c-.274-.2-.523-.433-.841-.7v.4q0,5.712,0,11.424a2.366,2.366,0,0,1-.022.408.609.609,0,0,1-.52.524,2.133,2.133,0,0,1-.408.023q-9.33,0-18.658,0c-.1,0-.2,0-.293-.007a.664.664,0,0,1-.642-.638,3.234,3.234,0,0,1-.009-.351V229.238Zm10.287-8.758c-.059.045-.092.067-.12.092q-4.349,3.705-8.692,7.416a.612.612,0,0,0-.171.422q-.013,5.992-.007,11.984v.306h5.107v-.372q0-3.516,0-7.032c0-.63.216-.844.847-.844h6.006c.708,0,.9.193.9.908V240.7h5.1c0-.081.013-.139.013-.2q0-6.08-.008-12.16a.584.584,0,0,0-.2-.381q-2.846-2.444-5.7-4.87Zm-2.582,20.224h5.137v-6.94h-5.137Z" fill="#febb12"/>
  </g>
</svg>
