<svg xmlns="http://www.w3.org/2000/svg" width="36.997" height="36.995" viewBox="0 0 36.997 36.995">
  <g id="Group_39058" data-name="Group 39058" transform="translate(-12084.566 -243.79)">
    <path id="Path_42091" data-name="Path 42091" d="M12109.334,270.411a15.076,15.076,0,1,1,1.9-1.91c.1.1.2.216.307.323q4.739,4.738,9.481,9.475a1.428,1.428,0,0,1,.48,1.5,1.357,1.357,0,0,1-2.172.676,4.569,4.569,0,0,1-.339-.325q-4.693-4.693-9.386-9.389A3.5,3.5,0,0,1,12109.334,270.411Zm2.637-11.541a12.336,12.336,0,1,0-12.359,12.322A12.354,12.354,0,0,0,12111.971,258.87Z" fill="#fff"/>
  </g>
</svg>
