<svg xmlns="http://www.w3.org/2000/svg" width="69.109" height="43.068" viewBox="0 0 69.109 43.068">
  <g id="Group_2079" data-name="Group 2079" transform="translate(-4797.415 -9035.162)" opacity="0.7">
    <path id="Path_2656" data-name="Path 2656" d="M4797.415,9046.435a28.5,28.5,0,0,1,2.2-2.042,44.121,44.121,0,0,1,16.56-7.4,68.227,68.227,0,0,1,22.181-1.528,57.867,57.867,0,0,1,18.87,4.733,35.565,35.565,0,0,1,8.609,5.375,1.449,1.449,0,0,1,.611,1.708,1.422,1.422,0,0,1-1.548.934c-.808.009-1.617,0-2.482,0v15.112c.345,0,.7-.013,1.055,0,.986.041,1.618.631,1.586,1.466a1.443,1.443,0,0,1-1.518,1.361c-.035,0-.069-.006-.1-.01-1.8.01-3.6,0-5.438,0-.106.533-.176,1.042-.308,1.532-1.487,5.52-5.126,8.832-10.6,10.172a15.54,15.54,0,0,1-3.613.357c-7.672.031-15.345.018-23.017.015a14.2,14.2,0,0,1-12.139-5.984,12.062,12.062,0,0,1-2.216-5.441c-.082-.568-.3-.673-.812-.662-1.53.031-3.06.016-4.59.008a3.121,3.121,0,0,1-.8-.078,1.342,1.342,0,0,1-.993-1.363,1.257,1.257,0,0,1,1.012-1.271,14.657,14.657,0,0,1,1.64-.159v-15.059c-.722,0-1.457-.041-2.185.011a1.846,1.846,0,0,1-1.958-.986Zm34.568,28.988h11.544a13.285,13.285,0,0,0,4.561-.757,10.914,10.914,0,0,0,7.12-9.262,10.784,10.784,0,0,0-10.311-11.236c-.089,0-.179-.007-.269-.008-8.254-.147-16.513-.052-24.771-.052a11.494,11.494,0,0,0-5.957,1.687,10.286,10.286,0,0,0-2.838,15.409,11.4,11.4,0,0,0,9.311,4.216q5.807.015,11.61.006Zm-27.494-30.057h55.228c-.224-.426-.3-.84-.548-.991a24.562,24.562,0,0,0-2.557-1.362,56.463,56.463,0,0,0-20.862-4.921,65.665,65.665,0,0,0-12.857.51,51.5,51.5,0,0,0-17.9,5.612c-.5.281-.693.573-.508,1.155Zm55.02,2.9h-55.052v15.06c.37,0,.705-.023,1.037.006.4.034.517-.139.583-.526a13.746,13.746,0,0,1,13.315-11.492c7.965-.093,15.93-.037,23.9-.031a17.816,17.816,0,0,1,2.756.16,13.622,13.622,0,0,1,10.571,7.485,34.112,34.112,0,0,1,1.547,4.346h1.349Z"/>
    <path id="Path_2657" data-name="Path 2657" d="M4842.585,9061.929a4.189,4.189,0,0,0-1.223.715,5.13,5.13,0,0,1-7.315.372,4.531,4.531,0,0,0-1.371-.824,1.8,1.8,0,0,0-2.152.487,5.057,5.057,0,0,1-7.244.324,1.413,1.413,0,0,1-.362-1.964c.015-.022.03-.042.046-.062a1.4,1.4,0,0,1,1.961-.235l.023.018a7.13,7.13,0,0,0,.849.541,2,2,0,0,0,2.617-.488,5.041,5.041,0,0,1,6.787-.479,8.712,8.712,0,0,0,1.821,1.106,1.718,1.718,0,0,0,2.074-.533c1.845-2.254,5.211-2.117,7.352-.188a1.4,1.4,0,0,1,.231,1.975l-.011.015a1.368,1.368,0,0,1-1.923.209l-.012-.01A4.327,4.327,0,0,0,4842.585,9061.929Z"/>
    <path id="Path_2658" data-name="Path 2658" d="M4821.123,9065.2a6.717,6.717,0,0,1,3.462,1.335,7.233,7.233,0,0,0,1.728,1,1.659,1.659,0,0,0,1.957-.524c1.809-2.255,5.169-2.154,7.3-.3a1.405,1.405,0,1,1-1.561,2.337,1.51,1.51,0,0,1-.142-.108,5.3,5.3,0,0,0-1.158-.665,1.9,1.9,0,0,0-2.263.533,5,5,0,0,1-6.927.465c-.283-.224-.559-.455-.853-.661a2.324,2.324,0,0,0-3.017.176,1.311,1.311,0,0,1-1.844.215,1.277,1.277,0,0,1-.134-.122,1.394,1.394,0,0,1-.044-1.972c.024-.025.049-.049.074-.072a4.7,4.7,0,0,1,1.319-1.022A14.581,14.581,0,0,1,4821.123,9065.2Z"/>
  </g>
</svg>
