<svg xmlns="http://www.w3.org/2000/svg" width="36.463" height="56.617" viewBox="0 0 36.463 56.617">
  <g id="Group_1987" data-name="Group 1987" transform="translate(-644.07 -10667.857)">
    <path id="Path_2516" data-name="Path 2516" d="M651.9,10724.474c-1.22-.734-1.388-1.165-1.034-2.591q2.935-11.833,5.872-23.664c.1-.411.04-.518-.406-.515-3.446.019-6.891.011-10.337.01a1.686,1.686,0,0,1-1.741-2.493q4.87-12.995,9.744-25.985a1.737,1.737,0,0,1,1.987-1.378h19.291a1.681,1.681,0,0,1,1.65,2.635q-4.139,8.3-8.292,16.592c-.1.193-.182.392-.3.651.247.011.44.026.633.026,3.206,0,6.412.011,9.617,0a1.708,1.708,0,0,1,1.414,2.934q-12.983,16.326-25.952,32.661a3.015,3.015,0,0,1-1.371,1.123Z" fill="#fcb912"/>
  </g>
</svg>
