<svg xmlns="http://www.w3.org/2000/svg" width="59.337" height="85.26" viewBox="0 0 59.337 85.26">
  <g id="Group_1993" data-name="Group 1993" transform="translate(-14802.342 -8505.234)" opacity="0.7">
    <path id="Path_2535" data-name="Path 2535" d="M14838.015,8505.234c1.217.256,2.456.432,3.645.781a19.168,19.168,0,0,1,13.807,18.1c.049,2.524.04,5.051.006,7.576a17.117,17.117,0,0,0,2.857,9.823,20.211,20.211,0,0,1-.049,22.361,1.43,1.43,0,0,1-1.911.662,1.322,1.322,0,0,1-.154-.086,1.445,1.445,0,0,1-.4-2c.026-.04.056-.078.086-.116a17.369,17.369,0,0,0,2.929-9.561,16.493,16.493,0,0,0-2.612-9.229,20.029,20.029,0,0,1-3.454-9.25c-.168-2.044-.069-4.1-.132-6.155a51.344,51.344,0,0,0-.31-6.552,16.068,16.068,0,0,0-15.109-13.451,92.958,92.958,0,0,0-11.558.142c-7.262.594-13.574,7.108-14.105,14.392-.217,2.981-.163,5.989-.136,8.984a20.46,20.46,0,0,1-3.35,11.478,17.274,17.274,0,0,0,4.144,23.466,1.383,1.383,0,0,0,.953.2c1.61-.231,3.205-.64,4.821-.761a6,6,0,0,0,5.848-5.527.97.97,0,0,0-.563-1.12c-6.646-3.7-10.1-9.357-10.234-16.979-.057-3.218-.019-6.438,0-9.657a1.406,1.406,0,0,1,2-1.435,1.552,1.552,0,0,1,.834,1.588c-.009,3.247-.066,6.5.011,9.739a15.637,15.637,0,0,0,8.194,13.954c9.87,5.721,22.666-.645,23.909-11.948.386-3.513.153-7.093.188-10.643a.665.665,0,0,0-.264-.52,14,14,0,0,1-6.646-5.984c-.865.538-1.676,1.063-2.5,1.554a38.16,38.16,0,0,1-14.363,4.956,4.715,4.715,0,0,1-.5.041,1.409,1.409,0,0,1-1.6-1.188l0-.03a1.446,1.446,0,0,1,1.274-1.6c.019,0,.038,0,.058-.006,1.66-.312,3.337-.562,4.97-.978a34,34,0,0,0,11.837-5.7c1.467-1.082,2.134-.895,2.926.774a10.752,10.752,0,0,0,6.1,5.7c1.453.546,1.561.686,1.563,2.237.007,3.274.035,6.549-.013,9.824a19.027,19.027,0,0,1-16.285,18.29,19.561,19.561,0,0,1-7.967-.553,4.934,4.934,0,0,0-.181.634,8.95,8.95,0,0,1-2.309,4.709,1.514,1.514,0,0,0-.364,1.079c.933,6.25,1.905,12.5,2.872,18.742.135.876.294,1.75.405,2.63.132,1.049-.33,1.748-1.187,1.866-.837.113-1.474-.471-1.631-1.5q-1.518-9.861-3.033-19.727c-.046-.3-.118-.593-.163-.815-1.924.229-3.837.316-5.688.7a11.718,11.718,0,0,0-9.4,11.558c-.026,2.747,0,5.5-.013,8.24a1.4,1.4,0,0,1-1.252,1.542,1.377,1.377,0,0,1-.535-.047,1.313,1.313,0,0,1-1.021-1.279c.052-3.687-.112-7.4.293-11.05.457-4.116,2.835-7.265,6.289-9.687-.2-.194-.384-.38-.578-.55a20.1,20.1,0,0,1-3.758-25.988,18.693,18.693,0,0,0,3.077-10.688c-.056-2.91-.082-5.835.132-8.734a19.115,19.115,0,0,1,15.523-16.891c.6-.1,1.191-.219,1.788-.329Z"/>
    <path id="Path_2536" data-name="Path 2536" d="M14842.862,8568.391c-.329,2.123-.674,4.308-1.011,6.492q-1.094,7.11-2.186,14.221a1.459,1.459,0,0,1-1.531,1.383c-.042,0-.084-.006-.126-.013-.846-.145-1.3-.851-1.141-1.9.506-3.372,1.035-6.74,1.557-10.11q.53-3.412,1.061-6.821a2.235,2.235,0,0,0,0-.428c-1.729.45-3.447.973-5.2,1.324a15.493,15.493,0,0,1-3.067.149,1.412,1.412,0,0,1-1.5-1.316c0-.039,0-.077,0-.115a1.43,1.43,0,0,1,1.474-1.387l.092.006a14.379,14.379,0,0,0,6.018-1.027c.437-.178.854-.4,1.282-.594a2.56,2.56,0,0,0,1.818-2.373,1.359,1.359,0,0,1,2.234-.989,6.757,6.757,0,0,0,3.679,1.127,14.622,14.622,0,0,1,14.468,14.176c.09,2.883.03,5.771.019,8.658a1.464,1.464,0,0,1-1.286,1.623c-.04,0-.08.009-.119.01-.865.014-1.423-.623-1.426-1.676-.009-2.608,0-5.218,0-7.826a11.861,11.861,0,0,0-11.916-12.155A28.967,28.967,0,0,1,14842.862,8568.391Z"/>
  </g>
</svg>
