<svg xmlns="http://www.w3.org/2000/svg" width="29.999" height="34.138" viewBox="0 0 29.999 34.138">
  <g id="Group_41883" data-name="Group 41883" transform="translate(-4612.489 -3033.129)">
    <g id="Group_41882" data-name="Group 41882">
      <path id="Path_45357" data-name="Path 45357" d="M4628.149,3033.129c.793.149,1.6.242,2.376.458a11.053,11.053,0,0,1,7.681,8.19,10.763,10.763,0,0,1-1.394,8.22c-1.126,1.81-2.295,3.593-3.444,5.388-.052.083-.1.17-.169.293.351.065.675.12,1,.186a19.612,19.612,0,0,1,5.482,1.792,5.576,5.576,0,0,1,2.37,2.082,2.924,2.924,0,0,1-.205,3.373,6.3,6.3,0,0,1-2.387,1.875,20.4,20.4,0,0,1-6.066,1.809,37.56,37.56,0,0,1-10,.254,24.1,24.1,0,0,1-7.342-1.8,7.312,7.312,0,0,1-2.739-1.9,3.11,3.11,0,0,1,.245-4.456A9.148,9.148,0,0,1,4616.7,3057a24.246,24.246,0,0,1,4.783-1.271c.084-.014.166-.039.284-.068l-.209-.332c-1.143-1.786-2.309-3.558-3.424-5.361a10.5,10.5,0,0,1-1.488-7.57,10.9,10.9,0,0,1,6.536-8.377,9.785,9.785,0,0,1,3.374-.843,1.915,1.915,0,0,0,.257-.052Zm-.666,27.748c.085-.124.154-.22.217-.32q3.6-5.641,7.206-11.283a8.769,8.769,0,0,0,.574-9.17,8.5,8.5,0,0,0-7.1-4.9,8.654,8.654,0,0,0-8.185,3.7,9.036,9.036,0,0,0-.353,10.038q3.717,5.825,7.441,11.645C4627.339,3060.675,4627.4,3060.761,4627.483,3060.877Zm-.013,4.316c.754,0,1.511.034,2.263-.007a26.381,26.381,0,0,0,7.12-1.269,8.471,8.471,0,0,0,3.012-1.585,1.224,1.224,0,0,0,.043-2.089,6.917,6.917,0,0,0-2.182-1.315,21.337,21.337,0,0,0-5.541-1.356.433.433,0,0,0-.32.189c-.466.7-.914,1.418-1.367,2.129q-1.047,1.643-2.091,3.286a1.04,1.04,0,0,1-1.111.558,1.118,1.118,0,0,1-.76-.593q-1.7-2.67-3.4-5.337c-.118-.187-.219-.287-.471-.231-.465.1-.944.14-1.412.227a15.827,15.827,0,0,0-5.068,1.648,6.459,6.459,0,0,0-1.377,1.08.994.994,0,0,0,0,1.491,4.183,4.183,0,0,0,.735.668,11.259,11.259,0,0,0,3.459,1.511A28.919,28.919,0,0,0,4627.47,3065.193Z" fill="#8a8a8a"/>
      <path id="Path_45358" data-name="Path 45358" d="M4627.487,3049.2a5,5,0,1,1,4.994-5.012A5.017,5.017,0,0,1,4627.487,3049.2Zm-.019-8a3,3,0,1,0,3.012,2.975A3.025,3.025,0,0,0,4627.468,3041.2Z" fill="#8a8a8a"/>
    </g>
  </g>
</svg>
