<svg xmlns="http://www.w3.org/2000/svg" width="25" height="33.845" viewBox="0 0 25 33.845">
  <g id="Group_39060" data-name="Group 39060" transform="translate(-11120.377 -211.72)">
    <path id="Path_42092" data-name="Path 42092" d="M11133.538,211.72c.337.042.675.074,1.01.129a12.263,12.263,0,0,1,10.047,8.09,11.415,11.415,0,0,1,.166,7.861,16.763,16.763,0,0,1-1.982,4.083q-4.163,6.333-8.355,12.647a2.821,2.821,0,0,1-.8.816,1.509,1.509,0,0,1-1.942-.34,4.452,4.452,0,0,1-.378-.5q-4.167-6.311-8.332-12.623a15.7,15.7,0,0,1-2.437-5.942,11.429,11.429,0,0,1,.435-5.51,12.538,12.538,0,0,1,10.167-8.577c.357-.052.718-.09,1.076-.135Zm-.652,32.443c.137-.189.236-.319.325-.455q2.458-3.72,4.911-7.443c1.381-2.108,2.779-4.207,4.1-6.351a11.2,11.2,0,0,0,1.625-4.911,10.124,10.124,0,0,0-1.848-6.939,10.769,10.769,0,0,0-10.7-4.742,10.252,10.252,0,0,0-4.821,1.929,10.881,10.881,0,0,0-4.092,5.574,9.956,9.956,0,0,0-.45,4.528,13.767,13.767,0,0,0,2.229,5.664q4.2,6.408,8.439,12.792C11132.68,243.916,11132.767,244.011,11132.886,244.163Z" fill="#febb12"/>
    <path id="Path_42093" data-name="Path 42093" d="M11132.879,230.835a6.615,6.615,0,1,1,6.612-6.622A6.615,6.615,0,0,1,11132.879,230.835Zm.076-11.76a5.148,5.148,0,1,0,5.069,5.268A5.171,5.171,0,0,0,11132.955,219.075Z" fill="#febb12"/>
  </g>
</svg>
