<svg xmlns="http://www.w3.org/2000/svg" width="18.097" height="23.664" viewBox="0 0 18.097 23.664">
  <path id="Icon_material-lock-outline" data-name="Icon material-lock-outline" d="M740.146,572.863a2.269,2.269,0,1,0-1.6-.665A2.269,2.269,0,0,0,740.146,572.863Zm6.786-10.179H745.8V560.42a5.656,5.656,0,0,0-11.311,0v2.262H733.36a2.268,2.268,0,0,0-2.262,2.264v11.311a2.267,2.267,0,0,0,2.262,2.262h13.572a2.269,2.269,0,0,0,2.263-2.262V564.946A2.269,2.269,0,0,0,746.932,562.684Zm-10.293-2.264a3.507,3.507,0,1,1,7.012-.144q0,.072,0,.144v2.262h-7.012Zm10.293,15.835H733.36V564.946h13.572Z" transform="translate(-731.098 -554.855)" fill="#393f45" opacity="0.5" style="mix-blend-mode: normal;isolation: isolate"/>
</svg>
