<svg xmlns="http://www.w3.org/2000/svg" width="91.41" height="88.393" viewBox="0 0 91.41 88.393">
  <g id="Group_8040" data-name="Group 8040" transform="translate(-914.295 -230.178)">
    <g id="Group_8036" data-name="Group 8036">
      <path id="Path_10557" data-name="Path 10557" d="M974.807,231.026a6.262,6.262,0,0,0-2.623-.534c-2.373-.871-4.888.249-7.061,1.2q-5.712,2.614-11.386,5.3a19.046,19.046,0,0,1-3.611,1.285c-2.4.631-4.9.185-7.342.183-2.259.038-4.69-.629-6.784.534,2.942.583,5.932.9,8.885,1.408-1.528.639-3.112,1.132-4.66,1.719-2.347-.979-4.572-2.254-6.98-3.067-1.037-.434-1.929.4-2.808.812q1.614,2.355,3.372,4.756.726.991,1.452,1.956c7.852-.356,15.449-2.631,22.759-5.386.069.375.141.749.21,1.124a23.26,23.26,0,0,0,3.612-.9,16.151,16.151,0,0,0-.306-1.88,67.891,67.891,0,0,0,10.364-4.961,12.456,12.456,0,0,0,2.881-2.241C975.091,231.98,975.308,231.322,974.807,231.026Z" fill="#0e4763"/>
      <path id="Path_10558" data-name="Path 10558" d="M963.856,296.872a18.406,18.406,0,0,0-6.075-11.73q-14.129-12.887-28.344-25.679a9.123,9.123,0,0,1-2.343-3.5,6.607,6.607,0,0,1,1.467-6.443,7.357,7.357,0,0,1,4.191-2.246,18.206,18.206,0,0,0-11.8,4.648,19.342,19.342,0,0,0-5.14,7.02,19.613,19.613,0,0,0-.224,14.592,20.727,20.727,0,0,0,5.629,7.843c2.214,2.1,4.424,4.215,6.668,6.287,3.525,3.251,6.982,6.575,10.493,9.841,3.475,3.224,7.285,6.581,8.647,11.3a7.465,7.465,0,0,1-1.164,6.616,9.139,9.139,0,0,1-5.65,3.034,30.5,30.5,0,0,0,4.35.074,27.208,27.208,0,0,0,7.542-1.232,19.462,19.462,0,0,0,9.278-8.12A19.862,19.862,0,0,0,963.856,296.872Z" fill="#0e4763"/>
      <path id="Path_10559" data-name="Path 10559" d="M1005.532,295.623a19,19,0,0,0-3.241-7.488l.027-.072a15.2,15.2,0,0,0-3.559-3.467c-.387-.247-.76-.505-1.134-.767a14.3,14.3,0,0,0,4.649-5.214,15.528,15.528,0,0,0,1.49-5.3,22.261,22.261,0,0,0-1.734-10.438l-.038.123a2.625,2.625,0,0,0-.291-.865,15.539,15.539,0,0,0-2.919-3.967,17.428,17.428,0,0,0-6.347-3.8,37.529,37.529,0,0,0-10.308-2.4,219.8,219.8,0,0,0-22.373-.038c-7.387-.085-14.778-.011-22.165-.039.554.5,1.112,1,1.691,1.474q10.352,8.835,20.679,17.692c0-1.707.006-3.414,0-5.118,2.4-.033,4.788,0,7.184-.047,4.467.082,8.938.017,13.408-.014a14.95,14.95,0,0,1,4.231.791,6.212,6.212,0,0,1,4,4.764,4.492,4.492,0,0,1-2.253,4.615c-2.645,1.467-5.771,1-8.644,1.219-4.459-.085-8.921-.022-13.381-.077a3.342,3.342,0,0,0-1.135.1c-2.52-.115-5.044-.038-7.563-.063.515.489,1.043.971,1.586,1.433q2.387,2.1,4.723,4.257a24.017,24.017,0,0,1,5.907,8.048c2.572-.052,5.143-.027,7.715-.049,2.573.192,5.2-.236,7.741.373a11.43,11.43,0,0,1,5.474,2.8,5.669,5.669,0,0,1,1.746,3.369,5.23,5.23,0,0,1-3.184,5.1c-4.134,1.946-8.8,1.1-13.2,1.367-1.485-.1-2.975.036-4.457-.069-.357,1.267-.453,2.591-.889,3.837a24.612,24.612,0,0,1-6.638,10.661c.633-.009,1.273-.034,1.91-.061q5.794-.069,11.6-.041c6.226.058,12.68.093,18.545-2.294a18.158,18.158,0,0,0,7.59-5.513C1005.167,306.271,1006.146,300.753,1005.532,295.623Z" fill="#febb12"/>
      <path id="Path_10560" data-name="Path 10560" d="M930.489,302.227a8.172,8.172,0,1,0,8.171,8.172h0A8.172,8.172,0,0,0,930.489,302.227Zm-6.622,8.626a.454.454,0,1,1,.454-.454.454.454,0,0,1-.454.454Zm6.609-7.517a.454.454,0,1,1-.453.453h0a.453.453,0,0,1,.453-.453Zm0,14.126a.454.454,0,1,1,.454-.454.454.454,0,0,1-.454.454Zm3.139-6.382h0l-2.265,0a1.094,1.094,0,1,1-1.54-1.534V306a.681.681,0,1,1,1.362,0h0v3.543a1.163,1.163,0,0,1,.179.179l2.265,0a.681.681,0,1,1,0,1.362Zm3.471-.227a.454.454,0,1,1,.454-.454.455.455,0,0,1-.454.454Z" fill="#febb12"/>
    </g>
  </g>
</svg>
