<svg xmlns="http://www.w3.org/2000/svg" width="30" height="25.005" viewBox="0 0 30 25.005">
  <g id="icon-7" transform="translate(-2088.523 -1018.052)" opacity="0.5">
    <path id="Path" d="M2118.453,1027.578a1.314,1.314,0,0,0-.208-.417l-3.009-3.74a.869.869,0,0,0-1.415,0,1.48,1.48,0,0,0,0,1.767l1.294,1.617h-5.588a1.281,1.281,0,0,0,0,2.5h5.588l-1.294,1.617a1.48,1.48,0,0,0,0,1.767.868.868,0,0,0,1.209.207.88.88,0,0,0,.206-.207l3-3.75a1.319,1.319,0,0,0,.208-.417A1.545,1.545,0,0,0,2118.453,1027.578Z"/>
    <path id="Path-2" d="M2107.416,1032.639a1.079,1.079,0,0,0-1.111,1.042v5.209h-4.446v-16.669a1.054,1.054,0,0,0-.792-1l-3.861-1.086h9.1v5.209a1.113,1.113,0,0,0,2.224,0v-6.251a1.079,1.079,0,0,0-1.111-1.042h-17.782c-.039.005-.077.011-.115.019a1.31,1.31,0,0,0-.15.025,1.162,1.162,0,0,0-.321.129c-.023.015-.054.017-.077.036s-.012.016-.031.023a1.046,1.046,0,0,0-.286.327.921.921,0,0,0-.031.087.962.962,0,0,0-.087.244.462.462,0,0,0,0,.09c0,.023-.013.041-.013.062v20.837a1.06,1.06,0,0,0,.894,1.021l11.112,2.084a1.213,1.213,0,0,0,.209.021,1.156,1.156,0,0,0,.7-.238,1.016,1.016,0,0,0,.417-.806v-1.04h5.557a1.078,1.078,0,0,0,1.111-1.042v-6.251A1.079,1.079,0,0,0,2107.416,1032.639Z"/>
  </g>
</svg>
