<svg xmlns="http://www.w3.org/2000/svg" width="91.41" height="88.392" viewBox="0 0 91.41 88.392">
  <g id="Group_8040" data-name="Group 8040" transform="translate(-2129.869 -36.563)">
    <g id="Group_8036" data-name="Group 8036">
      <path id="Path_10557" data-name="Path 10557" d="M2190.382,37.41a6.281,6.281,0,0,0-2.623-.533c-2.374-.871-4.888.248-7.061,1.2q-5.712,2.613-11.387,5.3a19.029,19.029,0,0,1-3.61,1.284c-2.4.632-4.9.186-7.343.184-2.259.037-4.689-.629-6.783.533,2.942.584,5.931.9,8.885,1.409-1.528.638-3.113,1.131-4.661,1.719-2.346-.98-4.572-2.254-6.979-3.068-1.038-.433-1.93.4-2.809.813q1.615,2.354,3.372,4.755.726.991,1.452,1.957c7.853-.357,15.45-2.632,22.76-5.386.069.375.141.749.209,1.123a23.137,23.137,0,0,0,3.613-.9,16.361,16.361,0,0,0-.306-1.88,67.927,67.927,0,0,0,10.363-4.96,12.444,12.444,0,0,0,2.881-2.242C2190.665,38.364,2190.882,37.706,2190.382,37.41Z" fill="#0e4763"/>
      <path id="Path_10558" data-name="Path 10558" d="M2179.43,103.257a18.4,18.4,0,0,0-6.074-11.73q-14.13-12.887-28.344-25.68a9.113,9.113,0,0,1-2.343-3.5,6.6,6.6,0,0,1,1.467-6.443,7.361,7.361,0,0,1,4.191-2.245,18.206,18.206,0,0,0-11.795,4.648,19.343,19.343,0,0,0-5.14,7.02,19.6,19.6,0,0,0-.224,14.592,20.713,20.713,0,0,0,5.629,7.843c2.213,2.1,4.424,4.214,6.668,6.286,3.525,3.251,6.982,6.576,10.492,9.841,3.475,3.225,7.286,6.582,8.647,11.3a7.467,7.467,0,0,1-1.164,6.617,9.134,9.134,0,0,1-5.65,3.034,30.814,30.814,0,0,0,4.351.074,27.289,27.289,0,0,0,7.542-1.232,19.467,19.467,0,0,0,9.278-8.12A19.853,19.853,0,0,0,2179.43,103.257Z" fill="#0e4763"/>
      <path id="Path_10559" data-name="Path 10559" d="M2221.106,102.008a18.991,18.991,0,0,0-3.241-7.489l.028-.071a15.207,15.207,0,0,0-3.56-3.468c-.386-.247-.76-.505-1.133-.766A14.309,14.309,0,0,0,2217.849,85a15.5,15.5,0,0,0,1.489-5.3,22.275,22.275,0,0,0-1.733-10.439l-.039.123a2.618,2.618,0,0,0-.29-.864,15.546,15.546,0,0,0-2.92-3.968,17.411,17.411,0,0,0-6.347-3.8,37.486,37.486,0,0,0-10.308-2.4,219.919,219.919,0,0,0-22.373-.039c-7.387-.085-14.777-.01-22.164-.038.554.5,1.111,1,1.69,1.474q10.353,8.835,20.68,17.691c0-1.707.006-3.413,0-5.118,2.4-.033,4.789,0,7.184-.046,4.468.082,8.938.016,13.408-.014a14.947,14.947,0,0,1,4.232.79,6.213,6.213,0,0,1,4,4.764,4.494,4.494,0,0,1-2.253,4.616c-2.646,1.467-5.771,1-8.644,1.218-4.46-.085-8.922-.022-13.381-.076a3.346,3.346,0,0,0-1.136.1c-2.519-.116-5.044-.039-7.563-.064.516.489,1.043.972,1.586,1.434q2.388,2.1,4.723,4.256a24.035,24.035,0,0,1,5.908,8.049c2.571-.052,5.143-.028,7.714-.05,2.574.193,5.2-.236,7.741.374a11.436,11.436,0,0,1,5.475,2.8,5.675,5.675,0,0,1,1.745,3.37,5.226,5.226,0,0,1-3.183,5.1c-4.134,1.946-8.8,1.1-13.2,1.367-1.484-.1-2.975.036-4.456-.068-.357,1.267-.453,2.59-.889,3.836a24.616,24.616,0,0,1-6.638,10.661c.633-.008,1.273-.033,1.909-.06q5.8-.07,11.6-.041c6.227.057,12.681.093,18.545-2.295a18.142,18.142,0,0,0,7.59-5.513C2220.741,112.656,2221.721,107.137,2221.106,102.008Z" fill="#febb12"/>
      <path id="Path_10560" data-name="Path 10560" d="M2146.063,108.612a8.172,8.172,0,1,0,8.172,8.172h0A8.172,8.172,0,0,0,2146.063,108.612Zm-6.622,8.625a.454.454,0,1,1,.455-.454.454.454,0,0,1-.455.454Zm6.61-7.517a.454.454,0,1,1-.454.454h0a.454.454,0,0,1,.454-.454Zm0,14.127a.454.454,0,1,1,.454-.454.454.454,0,0,1-.454.454Zm3.138-6.383h0l-2.265,0a1.094,1.094,0,1,1-1.539-1.533v-3.543a.681.681,0,0,1,1.362,0h0v3.543a1.119,1.119,0,0,1,.178.179l2.265,0a.681.681,0,1,1,0,1.362Zm3.471-.227a.454.454,0,1,1,.454-.454.454.454,0,0,1-.454.454Z" fill="#febb12"/>
    </g>
  </g>
</svg>
