<svg xmlns="http://www.w3.org/2000/svg" width="315.995" height="85.164" viewBox="0 0 315.995 85.164">
  <g id="Group_41879" data-name="Group 41879" transform="translate(-4467.941 -38.202)">
    <g id="Group_41875" data-name="Group 41875">
      <path id="Path_45326" data-name="Path 45326" d="M4526.243,39.018a6.037,6.037,0,0,0-2.527-.514c-2.287-.839-4.709.24-6.8,1.155q-5.5,2.517-10.971,5.1A18.252,18.252,0,0,1,4502.463,46c-2.315.608-4.719.178-7.074.177-2.176.036-4.518-.607-6.536.513,2.835.562,5.715.862,8.561,1.357-1.472.615-3,1.09-4.49,1.656-2.261-.944-4.406-2.172-6.725-2.955-1-.419-1.859.387-2.706.782q1.556,2.268,3.249,4.582.7.956,1.4,1.885c7.566-.343,14.885-2.535,21.928-5.189.067.361.136.722.2,1.083a22.547,22.547,0,0,0,3.481-.867,15.712,15.712,0,0,0-.295-1.811,65.372,65.372,0,0,0,9.985-4.779,11.985,11.985,0,0,0,2.776-2.16C4526.516,39.937,4526.726,39.3,4526.243,39.018Z" fill="#0e4763"/>
      <path id="Path_45327" data-name="Path 45327" d="M4515.692,102.46a17.733,17.733,0,0,0-5.853-11.3q-13.612-12.416-27.309-24.742a8.785,8.785,0,0,1-2.257-3.373,6.364,6.364,0,0,1,1.414-6.208,7.091,7.091,0,0,1,4.038-2.163,17.534,17.534,0,0,0-11.364,4.478,18.622,18.622,0,0,0-4.953,6.764,18.9,18.9,0,0,0-.216,14.059,19.967,19.967,0,0,0,5.424,7.556c2.133,2.028,4.262,4.061,6.423,6.057,3.4,3.132,6.728,6.335,10.11,9.482,3.347,3.106,7.019,6.341,8.331,10.887a7.192,7.192,0,0,1-1.122,6.375,8.817,8.817,0,0,1-5.443,2.925,29.6,29.6,0,0,0,4.191.071,26.256,26.256,0,0,0,7.267-1.187,18.76,18.76,0,0,0,8.939-7.824A19.14,19.14,0,0,0,4515.692,102.46Z" fill="#0e4763"/>
      <path id="Path_45328" data-name="Path 45328" d="M4555.845,101.257a18.294,18.294,0,0,0-3.122-7.216l.026-.068a14.618,14.618,0,0,0-3.429-3.342c-.373-.238-.732-.487-1.092-.738a13.77,13.77,0,0,0,4.479-5.023,14.962,14.962,0,0,0,1.436-5.106,21.468,21.468,0,0,0-1.671-10.057l-.037.119a2.51,2.51,0,0,0-.281-.833,14.946,14.946,0,0,0-2.812-3.822,16.77,16.77,0,0,0-6.116-3.659,36.133,36.133,0,0,0-9.931-2.318,212.451,212.451,0,0,0-21.556-.037c-7.117-.082-14.237-.01-21.355-.037.534.482,1.071.965,1.629,1.42q9.973,8.511,19.924,17.046c0-1.645.006-3.289,0-4.931,2.308-.032,4.613,0,6.922-.045,4.3.079,8.611.016,12.918-.014a14.419,14.419,0,0,1,4.077.762,5.985,5.985,0,0,1,3.855,4.59,4.329,4.329,0,0,1-2.171,4.447c-2.549,1.414-5.56.96-8.328,1.174-4.3-.082-8.6-.021-12.892-.074a3.209,3.209,0,0,0-1.095.095c-2.427-.111-4.859-.037-7.287-.061.5.471,1,.936,1.529,1.38q2.3,2.024,4.55,4.1a23.149,23.149,0,0,1,5.692,7.755c2.478-.051,4.955-.027,7.432-.048,2.48.185,5.011-.227,7.459.36a11.018,11.018,0,0,1,5.275,2.694,5.459,5.459,0,0,1,1.681,3.247,5.034,5.034,0,0,1-3.067,4.912c-3.984,1.875-8.481,1.06-12.72,1.317-1.43-.093-2.866.034-4.294-.066-.343,1.219-.436,2.5-.856,3.7a23.714,23.714,0,0,1-6.4,10.272c.611-.008,1.227-.032,1.84-.059q5.585-.067,11.174-.039c6,.055,12.217.09,17.867-2.211a17.491,17.491,0,0,0,7.314-5.311C4555.494,111.515,4556.438,106.2,4555.845,101.257Z" fill="#febb12"/>
      <path id="Path_45329" data-name="Path 45329" d="M4483.543,107.619a7.873,7.873,0,1,0,7.873,7.873A7.873,7.873,0,0,0,4483.543,107.619Zm-6.38,8.311a.438.438,0,1,1,.438-.438A.438.438,0,0,1,4477.163,115.93Zm6.368-7.243a.438.438,0,1,1-.437.437A.438.438,0,0,1,4483.531,108.687Zm0,13.611a.438.438,0,1,1,.438-.438A.437.437,0,0,1,4483.531,122.3Zm3.024-6.15h0l-2.182,0a1.054,1.054,0,1,1-1.483-1.478v-3.413a.656.656,0,0,1,1.312,0h0v3.413a1.1,1.1,0,0,1,.172.173l2.182,0a.656.656,0,0,1,0,1.312Zm3.344-.218a.438.438,0,1,1,.438-.438A.438.438,0,0,1,4489.9,115.93Z" fill="#febb12"/>
    </g>
    <g id="Group_41878" data-name="Group 41878">
      <g id="Group_41876" data-name="Group 41876">
        <path id="Path_45330" data-name="Path 45330" d="M4583.916,87.982a1,1,0,0,0-.674.184.688.688,0,0,0-.206.539v2.964a.6.6,0,0,0,.206.5,1.291,1.291,0,0,0,.674.205h-17.373V87.954a13.234,13.234,0,0,1,.6-2.752,15.1,15.1,0,0,1,1.177-2.687,16.587,16.587,0,0,1,1.673-2.454A14.327,14.327,0,0,1,4572.067,78a12.086,12.086,0,0,1,2.418-1.518,9.358,9.358,0,0,1,2.68-.808,8.9,8.9,0,0,1,2.865.071,9.569,9.569,0,0,1,2.964,1.106V87.982Zm-5.276-7.545a4.738,4.738,0,0,0-1.964.121,5.325,5.325,0,0,0-1.659.815,6.6,6.6,0,0,0-1.355,1.333,10.609,10.609,0,0,0-1.042,1.667,12.3,12.3,0,0,0-.744,1.822,12.719,12.719,0,0,0-.44,1.787h7.2Zm-4.354-11.544a2.478,2.478,0,0,1,1.773.724,2.608,2.608,0,0,1,.546.808,2.882,2.882,0,0,1,.234,1.021,2.574,2.574,0,0,1-.744,1.894,2.8,2.8,0,0,1-.844.574,2.336,2.336,0,0,1-1.021.2,2.474,2.474,0,0,1-1.844-.822,2.7,2.7,0,0,1-.524-.9,2.536,2.536,0,0,1-.128-1.113,2.883,2.883,0,0,1,.269-.936,2.561,2.561,0,0,1,.553-.759,2.6,2.6,0,0,1,.78-.5A2.43,2.43,0,0,1,4574.286,68.893Zm6,.029a2.472,2.472,0,0,1,1.773.723,2.62,2.62,0,0,1,.546.808,2.882,2.882,0,0,1,.234,1.021,2.559,2.559,0,0,1-.185,1.043,2.531,2.531,0,0,1-.56.851,2.743,2.743,0,0,1-.843.574,2.336,2.336,0,0,1-1.021.2,2.467,2.467,0,0,1-1.844-.822,2.709,2.709,0,0,1-.525-.9,2.554,2.554,0,0,1-.127-1.114,2.866,2.866,0,0,1,.269-.936,2.544,2.544,0,0,1,.553-.758,2.6,2.6,0,0,1,.78-.5A2.43,2.43,0,0,1,4580.285,68.922Z" fill="#febb12"/>
        <path id="Path_45331" data-name="Path 45331" d="M4583.008,92.393a.975.975,0,0,1-.673-.192.692.692,0,0,1-.206-.532V88.705a.818.818,0,0,1,.12-.5.737.737,0,0,1,.4-.22h4.34v-11.9h4.4v11.9h3.787a1,1,0,0,0-.674.184.69.69,0,0,0-.206.539v2.964a.606.606,0,0,0,.206.5,1.384,1.384,0,0,0,.674.22ZM4586,94.747a2.492,2.492,0,0,1,.979.191,2.462,2.462,0,0,1,.793.532,2.623,2.623,0,0,1,.546.808,2.888,2.888,0,0,1,.235,1.021,2.589,2.589,0,0,1-.185,1.043,2.546,2.546,0,0,1-.56.851,2.761,2.761,0,0,1-.844.574,2.347,2.347,0,0,1-1.021.2,2.47,2.47,0,0,1-1.843-.823,2.673,2.673,0,0,1-.525-.9,2.55,2.55,0,0,1-.128-1.113,2.884,2.884,0,0,1,.27-.936,2.527,2.527,0,0,1,.553-.758,2.589,2.589,0,0,1,.78-.5A2.43,2.43,0,0,1,4586,94.747Zm6,.028a2.487,2.487,0,0,1,1.773.723,2.65,2.65,0,0,1,.546.809,2.892,2.892,0,0,1,.233,1.021,2.565,2.565,0,0,1-.744,1.893,2.761,2.761,0,0,1-.844.574,2.349,2.349,0,0,1-1.021.2,2.478,2.478,0,0,1-1.844-.822,2.733,2.733,0,0,1-.525-.9,2.575,2.575,0,0,1-.127-1.114,2.889,2.889,0,0,1,.269-.935,2.565,2.565,0,0,1,.553-.759,2.606,2.606,0,0,1,.781-.5A2.425,2.425,0,0,1,4592,94.775Z" fill="#febb12"/>
        <path id="Path_45332" data-name="Path 45332" d="M4611.046,87.3a6.669,6.669,0,0,1-1.66,2.638,5.674,5.674,0,0,1-1.134,1.036,11.713,11.713,0,0,1-1.4.822,8.625,8.625,0,0,1-3.205.6h-9.417a.727.727,0,0,1-.446-.284.844.844,0,0,1-.149-.5V88.776a.937.937,0,0,1,.163-.574.618.618,0,0,1,.532-.22h9.317l1.376-.284a3.77,3.77,0,0,0,.659-.354,5.546,5.546,0,0,0,.518-.4,3.482,3.482,0,0,0,.418-.567,5.678,5.678,0,0,0,.362-.71,3.632,3.632,0,0,0,.226-.744,3.822,3.822,0,0,0,.072-.716,4.438,4.438,0,0,0-.072-.83,3.632,3.632,0,0,0-.226-.744l-.78-1.277-1.177-.78-1.376-.255h-8.438V75.956l7.1-9.956,3.588,2.609-5.247,7.347h2.992a10.781,10.781,0,0,1,1.688.127,6.836,6.836,0,0,1,1.517.426,6.528,6.528,0,0,1,1.4.716,7.275,7.275,0,0,1,1.134.943,6.9,6.9,0,0,1,.958,1.127,7.664,7.664,0,0,1,.7,1.284,8.05,8.05,0,0,1,.532,1.638,8.551,8.551,0,0,1,.163,1.695,9.151,9.151,0,0,1-.163,1.78A7.134,7.134,0,0,1,4611.046,87.3Z" fill="#febb12"/>
        <path id="Path_45333" data-name="Path 45333" d="M4615.712,92.393V87.982h14.181a11.207,11.207,0,0,0-.269-1.723,9.146,9.146,0,0,0-.539-1.6,14.629,14.629,0,0,0-.816-1.467,7.369,7.369,0,0,0-1.084-1.34,7.744,7.744,0,0,0-1-.844,4.52,4.52,0,0,0-1.156-.589l-2.61-.525-2.056.355q-.538.2-1.014.418a6.83,6.83,0,0,0-.971.56l-.525.454V76.566l2.255-.709,2.213-.27,2.254.27,2.156.553q.5.2.964.411a4.626,4.626,0,0,1,.922.567l1.829,1.333a16.421,16.421,0,0,1,1.525,2.078,17.1,17.1,0,0,1,1.156,2.233,13.044,13.044,0,0,1,.851,2.412,13.765,13.765,0,0,1,.382,2.538h1.986a.84.84,0,0,0-.6.2.681.681,0,0,0-.212.524v2.964a.575.575,0,0,0,.212.489,1.4,1.4,0,0,0,.6.235Zm9.218-22.606a3.1,3.1,0,0,1,.227,1.383,2.579,2.579,0,0,1-.355,1.134,2.475,2.475,0,0,1-.78.8,2.625,2.625,0,0,1-1.057.4,2.748,2.748,0,0,1-1.183-.093,2.972,2.972,0,0,1-1.15-.659l-.5-.851a1.365,1.365,0,0,1-.2-.482,2.662,2.662,0,0,1-.057-.553l.255-1.078.5-.752.852-.624,1.134-.2.979.2.779.624Z" fill="#febb12"/>
        <path id="Path_45334" data-name="Path 45334" d="M4635.538,92.393a1,1,0,0,1-.7-.2.68.68,0,0,1-.206-.51V88.705a.674.674,0,0,1,.206-.517,1.021,1.021,0,0,1,.7-.192h2.312V69.857h4.467V92.393Z" fill="#febb12"/>
        <path id="Path_45335" data-name="Path 45335" d="M4650.783,69.5V92.378h-4.411V69.5Z" fill="#febb12"/>
        <path id="Path_45336" data-name="Path 45336" d="M4685.514,76.3V92.378H4665.39A9.161,9.161,0,0,1,4659.717,90a8.389,8.389,0,0,1-1.63-2.638,8.676,8.676,0,0,1-.553-3.262,8.425,8.425,0,0,1,.553-3.261,6.98,6.98,0,0,1,.716-1.4,7.511,7.511,0,0,1,3.524-2.745,8.236,8.236,0,0,1,3.063-.581V80.48l-1.3.255a2.834,2.834,0,0,0-.66.319,3.105,3.105,0,0,0-1.2,1.61,4.453,4.453,0,0,0-.223,2.361,3.667,3.667,0,0,0,.522,1.362,3.447,3.447,0,0,0,2.864,1.6H4681.2V76.3Zm-15.132-.453a2.472,2.472,0,0,1,1.773.723,2.609,2.609,0,0,1,.546.808,2.893,2.893,0,0,1,.234,1.021,2.568,2.568,0,0,1-.185,1.042,2.535,2.535,0,0,1-.56.852,2.753,2.753,0,0,1-.844.574,2.331,2.331,0,0,1-1.02.2,2.471,2.471,0,0,1-1.844-.822,2.716,2.716,0,0,1-.525-.9,2.535,2.535,0,0,1-.127-1.113,2.859,2.859,0,0,1,.269-.936,2.56,2.56,0,0,1,.553-.759,2.6,2.6,0,0,1,.78-.5A2.429,2.429,0,0,1,4670.382,75.843Zm6,.028a2.472,2.472,0,0,1,1.773.723,2.633,2.633,0,0,1,.546.808,2.9,2.9,0,0,1,.234,1.021,2.592,2.592,0,0,1-.184,1.043,2.548,2.548,0,0,1-.561.851,2.755,2.755,0,0,1-.843.574,2.342,2.342,0,0,1-1.022.2,2.467,2.467,0,0,1-1.843-.822,2.7,2.7,0,0,1-.525-.9,2.569,2.569,0,0,1-.128-1.114,2.9,2.9,0,0,1,.27-.936,2.542,2.542,0,0,1,.553-.758,2.6,2.6,0,0,1,.78-.5A2.429,2.429,0,0,1,4676.381,75.871Z" fill="#febb12"/>
        <path id="Path_45337" data-name="Path 45337" d="M4693.768,69.5V92.378h-4.411V69.5Z" fill="#febb12"/>
        <path id="Path_45338" data-name="Path 45338" d="M4702.348,92.634l-1.078,2.609-1.7,2.609-2.255,2.61-3.716-2.808,1.432-1.687,1.178-1.447.822-1.262.709-1.277.553-1.432.369-1.6a17.754,17.754,0,0,0,.482-3.4,21.458,21.458,0,0,0-.127-3.376,16.464,16.464,0,0,0-.71-3.176,20.541,20.541,0,0,0-1.276-3.021h5.049a20,20,0,0,1,1.092,3.3,23.27,23.27,0,0,1,.539,3.546,18.5,18.5,0,0,1,.056,3.546,22.011,22.011,0,0,1-.609,3.658Zm-3.914-25a2.489,2.489,0,0,1,.979.192,2.451,2.451,0,0,1,.793.532,2.585,2.585,0,0,1,.547.808,2.882,2.882,0,0,1,.234,1.021,2.571,2.571,0,0,1-.185,1.042,2.513,2.513,0,0,1-.56.851,2.778,2.778,0,0,1-.843.575,2.352,2.352,0,0,1-1.022.2,2.47,2.47,0,0,1-1.843-.823,2.686,2.686,0,0,1-.525-.9,2.582,2.582,0,0,1-.128-1.114,2.886,2.886,0,0,1,.27-.935,2.544,2.544,0,0,1,.553-.759,2.586,2.586,0,0,1,.78-.5A2.432,2.432,0,0,1,4698.434,67.631Z" fill="#febb12"/>
        <path id="Path_45339" data-name="Path 45339" d="M4713.765,97.7l2.538-2.836q.5-.666.943-1.382t.816-1.355l-2.666.255a8.217,8.217,0,0,1-4.51-1.226,7.735,7.735,0,0,1-3.539-5.276,8.847,8.847,0,0,1,.518-5.063,8.443,8.443,0,0,1,1.787-2.616,10.575,10.575,0,0,1,5.048-2.239,8.336,8.336,0,0,1,4.014.182,8.165,8.165,0,0,1,4.411,3.617,8.724,8.724,0,0,1,1.177,5.289l-.17,2.936h1.4a.809.809,0,0,0-.61.22.774.774,0,0,0-.213.56v2.865a.783.783,0,0,0,.142.5.831.831,0,0,0,.51.248h-2.51l-2.014,3.915q-.694,1.063-1.517,2.134t-1.844,2.205Zm5.729-10.111a7.426,7.426,0,0,0-.149-4.389,3.847,3.847,0,0,0-5.3-2.716,3.815,3.815,0,0,0-2.127,4.418,3.6,3.6,0,0,0,.646,1.468,4.1,4.1,0,0,0,1.077.928C4714.666,87.9,4716.844,88.092,4719.494,87.585Z" fill="#febb12"/>
        <path id="Path_45340" data-name="Path 45340" d="M4724.713,92.378a1.081,1.081,0,0,1-.709-.184.657.657,0,0,1-.213-.525V88.705a.672.672,0,0,1,.213-.538,1.074,1.074,0,0,1,.709-.185h16.21a12.684,12.684,0,0,0-.27-1.851,11.336,11.336,0,0,0-.553-1.765,8.313,8.313,0,0,0-.858-1.546,12.285,12.285,0,0,0-1.184-1.433,6.285,6.285,0,0,0-1.142-.935,7.306,7.306,0,0,0-2.51-1.071,6.891,6.891,0,0,0-3.765.319l-2.51,1.432-2.61-3.616a11,11,0,0,1,2.092-1.383,11.724,11.724,0,0,1,3.482-1.092,11.856,11.856,0,0,1,4.134.085,16.344,16.344,0,0,1,2.177.688,11.971,11.971,0,0,1,3.814,2.453A10.345,10.345,0,0,1,4742.9,80.4a17.21,17.21,0,0,1,1.284,2.361,14.5,14.5,0,0,1,1.094,3.277,13.243,13.243,0,0,1,.238,1.942h2a.859.859,0,0,0-.61.2.681.681,0,0,0-.212.524v2.964a.556.556,0,0,0,.212.482,1.469,1.469,0,0,0,.61.227Zm9,2.468a2.47,2.47,0,0,1,.965.191,2.547,2.547,0,0,1,.794.525,2.467,2.467,0,0,1,.539.8,2.9,2.9,0,0,1,.226,1.013,2.5,2.5,0,0,1-.184,1.035,2.593,2.593,0,0,1-1.382,1.411,2.6,2.6,0,0,1-2.028-.028,2.507,2.507,0,0,1-.816-.6,2.536,2.536,0,0,1-.517-.886,2.573,2.573,0,0,1-.121-1.107,2.764,2.764,0,0,1,.269-.922,2.693,2.693,0,0,1,.546-.744,2.541,2.541,0,0,1,.767-.5A2.388,2.388,0,0,1,4733.718,94.846Z" fill="#febb12"/>
        <path id="Path_45341" data-name="Path 45341" d="M4746.709,92.378a1.081,1.081,0,0,1-.709-.184.657.657,0,0,1-.213-.525V88.705a.676.676,0,0,1,.213-.539,1.081,1.081,0,0,1,.709-.184h16.21a12.684,12.684,0,0,0-.27-1.851,11.442,11.442,0,0,0-.553-1.765,8.288,8.288,0,0,0-.858-1.546,12.141,12.141,0,0,0-1.184-1.432,7.245,7.245,0,0,0-1.142-.936,5.036,5.036,0,0,0-1.213-.6,4.558,4.558,0,0,0-1.3-.475,7.161,7.161,0,0,0-1.411-.135l-2.354.454c-.359.132-.7.272-1.014.418a6.839,6.839,0,0,0-.972.56l-.524.454-2.61-3.616.525-.369a9.149,9.149,0,0,1,1.567-1.014,10.429,10.429,0,0,1,1.7-.673,11.637,11.637,0,0,1,1.787-.419,12.711,12.711,0,0,1,1.9-.135,10.905,10.905,0,0,1,4.411.908,11.963,11.963,0,0,1,3.814,2.453A16.355,16.355,0,0,1,4764.9,80.4a15.7,15.7,0,0,1,1.283,2.361,24.442,24.442,0,0,1,.915,2.574,10.576,10.576,0,0,1,.418,2.645h2a.859.859,0,0,0-.61.2.683.683,0,0,0-.212.524v2.964a.557.557,0,0,0,.212.482,1.455,1.455,0,0,0,.61.227Z" fill="#febb12"/>
        <path id="Path_45342" data-name="Path 45342" d="M4768.691,92.393a1,1,0,0,1-.7-.2.676.676,0,0,1-.206-.51V88.705a.671.671,0,0,1,.206-.517,1.021,1.021,0,0,1,.7-.192H4771V69.857h4.468V92.393Z" fill="#febb12"/>
        <path id="Path_45343" data-name="Path 45343" d="M4783.936,69.5V92.378h-4.411V69.5Z" fill="#febb12"/>
      </g>
      <g id="Group_41877" data-name="Group 41877">
        <path id="Path_45344" data-name="Path 45344" d="M4570.054,118.076c.369,2.171,2.31,2.472,3.649,2.472,1.27,0,3.21-.37,3.21-2.056,0-3.511-9.816-1.247-9.816-7.414,0-3.4,3.188-4.988,6.167-4.988,3.442,0,6.606,1.5,6.606,5.312l-3.511-.509c-.439-1.917-2.125-1.986-3.256-1.986-1.155,0-2.5.485-2.5,1.871,0,1.224.785,1.5,4.919,2.494,1.225.3,4.9,1.063,4.9,4.8,0,3.026-2.356,5.289-6.86,5.289-3.695,0-7.021-1.8-7.021-5.866Z" fill="#0e4763"/>
        <path id="Path_45345" data-name="Path 45345" d="M4582.962,106.482h4.712l3.811,7.275,3.741-7.275h4.781v16.491h-3.4V111.309h-.046l-3.672,7.506H4590.1l-3.649-7.39h-.046v11.548h-3.442Z" fill="#0e4763"/>
        <path id="Path_45346" data-name="Path 45346" d="M4601.944,122.973l7.483-16.468h3.649l7.368,16.468h-3.511l-1.616-3.649h-8.338l-1.733,3.649ZM4611.3,109.6l-2.772,6.375H4614l-2.679-6.375Z" fill="#0e4763"/>
        <path id="Path_45347" data-name="Path 45347" d="M4631.55,116.876l4.619,6.12h-4.434l-4.157-5.936H4625.8V123h-3.649V106.482h7.437c4.157,0,5.751,2.61,5.751,5.289a4.939,4.939,0,0,1-3.927,5.1ZM4625.8,109.3v4.966h2.817c1.733,0,3.165-.393,3.165-2.495,0-2.148-1.432-2.471-3.165-2.471Z" fill="#0e4763"/>
        <path id="Path_45348" data-name="Path 45348" d="M4643,109.531h-5.243V106.5h14.066v3.049h-5.2v13.419H4643Z" fill="#0e4763"/>
        <path id="Path_45349" data-name="Path 45349" d="M4660.9,106.482h7.76c3.141,0,5.266,1.016,5.266,4.088a3.532,3.532,0,0,1-2.24,3.442,4,4,0,0,1,3.025,4.18c0,3.349-2.841,4.781-5.82,4.781H4660.9Zm3.626,6.675h3.672c1.293,0,2.217-.577,2.217-1.963,0-1.548-1.2-1.894-2.494-1.894h-3.4Zm0,7h3.88c1.409,0,2.679-.462,2.679-2.171,0-1.686-1.039-2.356-2.61-2.356h-3.949Z" fill="#0e4763"/>
        <path id="Path_45350" data-name="Path 45350" d="M4684.5,123.181a8.535,8.535,0,1,1,8.546-8.523A8.517,8.517,0,0,1,4684.5,123.181Zm-5.035-8.523a5.012,5.012,0,1,0,5.035-5.058A5.077,5.077,0,0,0,4679.465,114.658Z" fill="#0e4763"/>
        <path id="Path_45351" data-name="Path 45351" d="M4702.489,123.181a8.535,8.535,0,1,1,8.545-8.523A8.516,8.516,0,0,1,4702.489,123.181Zm-5.035-8.523a5.012,5.012,0,1,0,5.035-5.058A5.076,5.076,0,0,0,4697.454,114.658Z" fill="#0e4763"/>
        <path id="Path_45352" data-name="Path 45352" d="M4727.661,122.973h-4.989l-4.3-4.619-2.148,2.979v1.64h-3.695V106.459h3.695v9.354l6.444-9.354h4.5l-6.213,9.354Z" fill="#0e4763"/>
        <path id="Path_45353" data-name="Path 45353" d="M4729.806,106.482h3.626v16.491h-3.626Z" fill="#0e4763"/>
        <path id="Path_45354" data-name="Path 45354" d="M4739.3,111.586V123h-3.164v-16.56h4.157l7.368,10.3v-10.3h3.072V123h-3.072Z" fill="#0e4763"/>
        <path id="Path_45355" data-name="Path 45355" d="M4768.234,118.815a8.529,8.529,0,1,1-7.483-12.633,8.648,8.648,0,0,1,7.459,4.342c-1.454.739-1.57.808-3.187,1.617a4.861,4.861,0,0,0-4.272-2.425,4.988,4.988,0,1,0,0,9.977,4.688,4.688,0,0,0,4.365-2.494h-.37c-.739,0-2.425.023-3.349.023a2.7,2.7,0,0,1-.646-.023V114.15c2.333,0,5.589.023,8.43.023C4769.181,114.658,4769.088,117.707,4768.234,118.815Z" fill="#0e4763"/>
        <path id="Path_45356" data-name="Path 45356" d="M4773.566,118.076c.369,2.171,2.31,2.472,3.649,2.472,1.271,0,3.21-.37,3.21-2.056,0-3.511-9.816-1.247-9.816-7.414,0-3.4,3.188-4.988,6.167-4.988,3.442,0,6.606,1.5,6.606,5.312l-3.511-.509c-.439-1.917-2.125-1.986-3.256-1.986-1.155,0-2.5.485-2.5,1.871,0,1.224.785,1.5,4.919,2.494,1.225.3,4.9,1.063,4.9,4.8,0,3.026-2.356,5.289-6.86,5.289-3.7,0-7.021-1.8-7.021-5.866Z" fill="#0e4763"/>
      </g>
    </g>
  </g>
</svg>
