<svg xmlns="http://www.w3.org/2000/svg" width="189.656" height="131.92" viewBox="0 0 189.656 131.92">
  <g id="Group_46658" data-name="Group 46658" transform="translate(-865.172 -316.431)">
    <g id="Group_46654" data-name="Group 46654">
      <path id="Path_50381" data-name="Path 50381" d="M972.446,317.143a5.253,5.253,0,0,0-2.2-.448c-2-.733-4.108.209-5.935,1.007q-4.8,2.2-9.571,4.454a15.987,15.987,0,0,1-3.035,1.08c-2.02.53-4.117.155-6.171.154-1.9.031-3.942-.529-5.7.447,2.473.491,4.985.753,7.468,1.184-1.284.537-2.616.951-3.917,1.445-1.972-.823-3.843-1.894-5.867-2.578-.872-.365-1.622.338-2.361.682q1.357,1.98,2.835,4,.609.832,1.22,1.644c6.6-.3,12.986-2.211,19.131-4.527.058.315.118.63.176.945a19.586,19.586,0,0,0,3.036-.756,13.575,13.575,0,0,0-.257-1.58A57.125,57.125,0,0,0,970,320.125a10.446,10.446,0,0,0,2.422-1.885C972.685,317.945,972.867,317.392,972.446,317.143Z" fill="#0e4763"/>
      <path id="Path_50382" data-name="Path 50382" d="M963.241,372.49a15.473,15.473,0,0,0-5.106-9.859Q946.258,351.8,934.31,341.046a7.668,7.668,0,0,1-1.969-2.944,5.551,5.551,0,0,1,1.234-5.415A6.185,6.185,0,0,1,937.1,330.8a15.3,15.3,0,0,0-9.914,3.907,16.261,16.261,0,0,0-4.32,5.9,16.477,16.477,0,0,0-.189,12.265,17.422,17.422,0,0,0,4.732,6.593c1.86,1.768,3.718,3.542,5.6,5.284,2.963,2.732,5.869,5.527,8.819,8.272,2.921,2.71,6.124,5.532,7.269,9.5a6.277,6.277,0,0,1-.979,5.561,7.689,7.689,0,0,1-4.749,2.552,25.791,25.791,0,0,0,3.657.062,22.871,22.871,0,0,0,6.339-1.036,16.359,16.359,0,0,0,7.8-6.825A16.7,16.7,0,0,0,963.241,372.49Z" fill="#0e4763"/>
      <path id="Path_50383" data-name="Path 50383" d="M998.272,371.441a15.968,15.968,0,0,0-2.725-6.3l.023-.06a12.752,12.752,0,0,0-2.991-2.915c-.325-.208-.639-.425-.953-.644a12.013,12.013,0,0,0,3.908-4.383,13.028,13.028,0,0,0,1.252-4.454,18.714,18.714,0,0,0-1.458-8.774l-.032.1a2.2,2.2,0,0,0-.245-.727,13.035,13.035,0,0,0-2.453-3.334,14.635,14.635,0,0,0-5.335-3.192,31.5,31.5,0,0,0-8.665-2.022,185.2,185.2,0,0,0-18.8-.032c-6.21-.072-12.421-.01-18.631-.033.466.42.934.842,1.421,1.239q8.7,7.425,17.383,14.871c0-1.435,0-2.87,0-4.3,2.014-.028,4.025,0,6.039-.039,3.755.069,7.513.014,11.27-.012a12.577,12.577,0,0,1,3.557.664,5.222,5.222,0,0,1,3.363,4,3.775,3.775,0,0,1-1.894,3.879c-2.223,1.234-4.851.838-7.266,1.025-3.748-.072-7.5-.019-11.247-.065a2.8,2.8,0,0,0-.955.083c-2.117-.1-4.239-.032-6.357-.053.434.411.877.816,1.334,1.2q2.005,1.764,3.969,3.578a20.178,20.178,0,0,1,4.966,6.765c2.162-.044,4.323-.023,6.484-.042,2.164.162,4.371-.2,6.507.314a9.625,9.625,0,0,1,4.6,2.35,4.774,4.774,0,0,1,1.467,2.833,4.395,4.395,0,0,1-2.676,4.286c-3.476,1.635-7.4.925-11.1,1.148-1.248-.08-2.5.03-3.746-.057-.3,1.063-.38,2.177-.747,3.224a20.682,20.682,0,0,1-5.58,8.962c.533-.007,1.07-.028,1.606-.051q4.871-.059,9.747-.035c5.234.049,10.659.079,15.588-1.928a15.262,15.262,0,0,0,6.381-4.634A17.167,17.167,0,0,0,998.272,371.441Z" fill="#febb12"/>
      <path id="Path_50384" data-name="Path 50384" d="M935.194,376.992a6.868,6.868,0,1,0,6.869,6.868A6.868,6.868,0,0,0,935.194,376.992Zm-5.566,7.25a.382.382,0,1,1,.382-.382A.382.382,0,0,1,929.628,384.242Zm5.556-6.319a.382.382,0,1,1-.382.382A.382.382,0,0,1,935.184,377.923Zm0,11.874a.382.382,0,1,1,.381-.381A.382.382,0,0,1,935.184,389.8Zm2.638-5.364h0l-1.9,0a.919.919,0,1,1-1.294-1.289v-2.978a.573.573,0,0,1,1.145,0h0v2.978a.93.93,0,0,1,.15.151l1.9,0a.573.573,0,0,1,0,1.145Zm2.917-.191a.382.382,0,1,1,.382-.382A.381.381,0,0,1,940.739,384.242Z" fill="#febb12"/>
    </g>
    <g id="Group_46657" data-name="Group 46657">
      <g id="Group_46655" data-name="Group 46655">
        <path id="Path_50385" data-name="Path 50385" d="M880.328,417.482a.874.874,0,0,0-.588.161.6.6,0,0,0-.18.47V420.7a.525.525,0,0,0,.18.439,1.118,1.118,0,0,0,.588.179H865.172v-3.86a11.564,11.564,0,0,1,.519-2.4,13.224,13.224,0,0,1,1.027-2.344,14.446,14.446,0,0,1,1.46-2.141,12.528,12.528,0,0,1,1.812-1.8,10.562,10.562,0,0,1,2.11-1.324,8.182,8.182,0,0,1,2.338-.7,7.749,7.749,0,0,1,2.5.062,8.347,8.347,0,0,1,2.586.965v9.712Zm-4.6-6.582a4.14,4.14,0,0,0-1.713.105,4.643,4.643,0,0,0-1.448.712,5.7,5.7,0,0,0-1.181,1.163,9.2,9.2,0,0,0-.91,1.453,10.807,10.807,0,0,0-.649,1.59,11.111,11.111,0,0,0-.384,1.559h6.285Zm-3.8-10.071a2.174,2.174,0,0,1,.853.167,2.137,2.137,0,0,1,.693.464,2.3,2.3,0,0,1,.477.705,2.538,2.538,0,0,1,.2.891,2.248,2.248,0,0,1-.649,1.652,2.417,2.417,0,0,1-.737.5,2.044,2.044,0,0,1-.891.173,2.156,2.156,0,0,1-1.608-.718,2.348,2.348,0,0,1-.458-.785,2.234,2.234,0,0,1-.111-.971,2.511,2.511,0,0,1,.235-.817,2.219,2.219,0,0,1,.482-.662,2.268,2.268,0,0,1,.681-.439A2.123,2.123,0,0,1,871.927,400.829Zm5.234.025a2.163,2.163,0,0,1,.853.167,2.131,2.131,0,0,1,.693.464,2.293,2.293,0,0,1,.476.705,2.518,2.518,0,0,1,.205.891,2.238,2.238,0,0,1-.162.909,2.212,2.212,0,0,1-.488.742,2.4,2.4,0,0,1-.736.5,2.049,2.049,0,0,1-.891.172,2.15,2.15,0,0,1-1.608-.717,2.346,2.346,0,0,1-.458-.785,2.224,2.224,0,0,1-.111-.972,2.475,2.475,0,0,1,.235-.816,2.2,2.2,0,0,1,.482-.662,2.263,2.263,0,0,1,.68-.439A2.11,2.11,0,0,1,877.161,400.854Z" fill="#febb12"/>
        <path id="Path_50386" data-name="Path 50386" d="M879.536,421.33a.852.852,0,0,1-.588-.167.6.6,0,0,1-.179-.464v-2.586a.707.707,0,0,1,.105-.439.635.635,0,0,1,.353-.192h3.786V407.1h3.835v10.38h3.3a.874.874,0,0,0-.588.161.6.6,0,0,0-.18.47V420.7a.525.525,0,0,0,.18.439,1.2,1.2,0,0,0,.588.192Zm2.611,2.054a2.156,2.156,0,0,1,1.546.631,2.276,2.276,0,0,1,.476.7,2.518,2.518,0,0,1,.205.891,2.244,2.244,0,0,1-.65,1.652,2.412,2.412,0,0,1-.736.5,2.058,2.058,0,0,1-.891.173,2.16,2.16,0,0,1-1.608-.718,2.361,2.361,0,0,1-.458-.786,2.217,2.217,0,0,1-.111-.971,2.483,2.483,0,0,1,.235-.816,2.231,2.231,0,0,1,.482-.662,2.277,2.277,0,0,1,.681-.44A2.126,2.126,0,0,1,882.147,423.384Zm5.233.025a2.161,2.161,0,0,1,1.547.631,2.265,2.265,0,0,1,.476.7,2.517,2.517,0,0,1,.2.891,2.253,2.253,0,0,1-.16.909,2.22,2.22,0,0,1-.489.742,2.406,2.406,0,0,1-.736.5,2.05,2.05,0,0,1-.891.174,2.161,2.161,0,0,1-1.609-.718,2.379,2.379,0,0,1-.458-.786,2.232,2.232,0,0,1-.111-.971,2.511,2.511,0,0,1,.235-.817,2.247,2.247,0,0,1,.483-.662,2.275,2.275,0,0,1,.681-.439A2.118,2.118,0,0,1,887.38,423.409Z" fill="#febb12"/>
        <path id="Path_50387" data-name="Path 50387" d="M904,416.888a5.8,5.8,0,0,1-1.447,2.3,4.914,4.914,0,0,1-.99.9,10.122,10.122,0,0,1-1.225.717,7.522,7.522,0,0,1-2.8.52h-8.215a.634.634,0,0,1-.39-.248.732.732,0,0,1-.13-.433v-2.474a.826.826,0,0,1,.142-.5.54.54,0,0,1,.464-.192h8.129l1.2-.247a3.312,3.312,0,0,0,.575-.309,4.679,4.679,0,0,0,.452-.347,2.974,2.974,0,0,0,.365-.495,4.861,4.861,0,0,0,.316-.618,3.227,3.227,0,0,0,.2-.65,3.32,3.32,0,0,0,.063-.625,3.851,3.851,0,0,0-.063-.724,3.2,3.2,0,0,0-.2-.649l-.681-1.114-1.027-.68-1.2-.223h-7.362V406.99l6.2-8.685,3.13,2.276-4.577,6.409h2.61a9.3,9.3,0,0,1,1.472.112,5.877,5.877,0,0,1,1.324.371,5.671,5.671,0,0,1,1.225.625,6.254,6.254,0,0,1,.99.823,5.909,5.909,0,0,1,.835.983,6.537,6.537,0,0,1,.612,1.12,6.986,6.986,0,0,1,.464,1.429,7.385,7.385,0,0,1,.143,1.478,7.914,7.914,0,0,1-.143,1.553A6.2,6.2,0,0,1,904,416.888Z" fill="#febb12"/>
        <path id="Path_50388" data-name="Path 50388" d="M908.067,421.33v-3.848h12.372a9.658,9.658,0,0,0-.235-1.5,7.968,7.968,0,0,0-.47-1.392,12.745,12.745,0,0,0-.711-1.281,6.5,6.5,0,0,0-.947-1.169,6.751,6.751,0,0,0-.872-.736,3.933,3.933,0,0,0-1.009-.513l-2.276-.458-1.794.309c-.314.116-.608.237-.885.365a5.893,5.893,0,0,0-.847.489l-.458.4v-4.467l1.967-.618,1.931-.235,1.967.235,1.88.482c.289.116.569.235.842.359a4.023,4.023,0,0,1,.8.495l1.6,1.163a14.388,14.388,0,0,1,1.33,1.812,14.786,14.786,0,0,1,1.008,1.949,11.289,11.289,0,0,1,.742,2.1,11.911,11.911,0,0,1,.334,2.214h1.733a.735.735,0,0,0-.52.173.6.6,0,0,0-.186.458V420.7a.5.5,0,0,0,.186.427,1.221,1.221,0,0,0,.52.2Zm8.042-19.722a2.7,2.7,0,0,1,.2,1.207,2.25,2.25,0,0,1-.31.99,2.149,2.149,0,0,1-.68.7,2.287,2.287,0,0,1-.922.347,2.4,2.4,0,0,1-1.033-.08,2.6,2.6,0,0,1-1-.576l-.433-.742a1.167,1.167,0,0,1-.173-.421,2.324,2.324,0,0,1-.049-.482l.222-.941.433-.656.742-.544.99-.173.854.173.68.544Z" fill="#febb12"/>
        <path id="Path_50389" data-name="Path 50389" d="M925.363,421.33a.873.873,0,0,1-.612-.173.593.593,0,0,1-.18-.445v-2.6a.588.588,0,0,1,.18-.452.9.9,0,0,1,.612-.166h2.017V401.67h3.9v19.66Z" fill="#febb12"/>
        <path id="Path_50390" data-name="Path 50390" d="M938.664,401.361v19.956h-3.848V401.361Z" fill="#febb12"/>
        <path id="Path_50391" data-name="Path 50391" d="M968.963,407.287v14.03H951.407a7.983,7.983,0,0,1-4.949-2.078,7.322,7.322,0,0,1-1.423-2.3,7.6,7.6,0,0,1-.482-2.846,7.344,7.344,0,0,1,.482-2.845,6.163,6.163,0,0,1,.625-1.219,6.551,6.551,0,0,1,3.075-2.394,7.17,7.17,0,0,1,2.672-.507v3.81l-1.138.223a2.48,2.48,0,0,0-.576.278,2.708,2.708,0,0,0-1.045,1.4,3.884,3.884,0,0,0-.2,2.061,3.191,3.191,0,0,0,.455,1.187,3.009,3.009,0,0,0,2.5,1.392h13.8v-10.2Zm-13.2-.4a2.161,2.161,0,0,1,1.547.631,2.286,2.286,0,0,1,.476.706,2.493,2.493,0,0,1,.2.891,2.237,2.237,0,0,1-.161.909,2.213,2.213,0,0,1-.488.742,2.388,2.388,0,0,1-.737.5,2.028,2.028,0,0,1-.89.173,2.151,2.151,0,0,1-1.608-.717,2.346,2.346,0,0,1-.458-.786,2.22,2.22,0,0,1-.112-.971,2.514,2.514,0,0,1,.236-.817,2.226,2.226,0,0,1,.482-.662,2.289,2.289,0,0,1,.68-.439A2.127,2.127,0,0,1,955.762,406.891Zm5.234.025a2.173,2.173,0,0,1,.853.167,2.137,2.137,0,0,1,.693.464,2.3,2.3,0,0,1,.477.705,2.543,2.543,0,0,1,.2.891,2.244,2.244,0,0,1-.65,1.652,2.412,2.412,0,0,1-.736.5,2.058,2.058,0,0,1-.891.173,2.156,2.156,0,0,1-1.608-.718,2.347,2.347,0,0,1-.458-.785,2.235,2.235,0,0,1-.111-.971,2.512,2.512,0,0,1,.235-.817,2.231,2.231,0,0,1,.482-.662,2.274,2.274,0,0,1,.681-.439A2.123,2.123,0,0,1,961,406.916Z" fill="#febb12"/>
        <path id="Path_50392" data-name="Path 50392" d="M976.165,401.361v19.956h-3.849V401.361Z" fill="#febb12"/>
        <path id="Path_50393" data-name="Path 50393" d="M983.65,421.54l-.94,2.277-1.485,2.276-1.967,2.277-3.242-2.45,1.25-1.472,1.027-1.262.717-1.1.619-1.114.482-1.249.322-1.4a15.568,15.568,0,0,0,.421-2.969,18.6,18.6,0,0,0-.111-2.945,14.3,14.3,0,0,0-.62-2.771A17.825,17.825,0,0,0,979.01,407h4.4a17.276,17.276,0,0,1,.952,2.882,20.28,20.28,0,0,1,.471,3.093,16.121,16.121,0,0,1,.049,3.094,19.228,19.228,0,0,1-.532,3.192Zm-3.415-21.812a2.182,2.182,0,0,1,.854.167,2.133,2.133,0,0,1,.692.464,2.262,2.262,0,0,1,.477.7,2.516,2.516,0,0,1,.2.891,2.251,2.251,0,0,1-.161.909,2.191,2.191,0,0,1-.489.742,2.393,2.393,0,0,1-.735.5,2.05,2.05,0,0,1-.891.173,2.16,2.16,0,0,1-1.609-.718,2.346,2.346,0,0,1-.458-.785,2.236,2.236,0,0,1-.111-.972,2.508,2.508,0,0,1,.235-.816,2.222,2.222,0,0,1,.483-.662,2.25,2.25,0,0,1,.68-.439A2.127,2.127,0,0,1,980.235,399.728Z" fill="#febb12"/>
        <path id="Path_50394" data-name="Path 50394" d="M993.61,425.957l2.214-2.474q.434-.582.823-1.206t.712-1.182l-2.326.222a7.164,7.164,0,0,1-3.935-1.07,6.753,6.753,0,0,1-3.087-4.6,7.72,7.72,0,0,1,.452-4.417,7.357,7.357,0,0,1,1.559-2.283,9.235,9.235,0,0,1,4.4-1.953,7.3,7.3,0,0,1,3.5.159,7.135,7.135,0,0,1,3.848,3.155,7.616,7.616,0,0,1,1.027,4.615l-.149,2.561h1.225a.706.706,0,0,0-.532.192.674.674,0,0,0-.186.489v2.5a.689.689,0,0,0,.124.439.73.73,0,0,0,.445.216h-2.19l-1.756,3.416q-.607.927-1.324,1.861t-1.609,1.924Zm5-8.821a6.469,6.469,0,0,0-.13-3.83,3.356,3.356,0,0,0-4.621-2.369A3.326,3.326,0,0,0,992,414.791a3.124,3.124,0,0,0,.563,1.281,3.58,3.58,0,0,0,.939.81C994.4,417.409,996.3,417.579,998.608,417.136Z" fill="#febb12"/>
        <path id="Path_50395" data-name="Path 50395" d="M1003.161,421.317a.941.941,0,0,1-.618-.16.574.574,0,0,1-.186-.458v-2.586a.589.589,0,0,1,.186-.47.941.941,0,0,1,.618-.161H1017.3a11.145,11.145,0,0,0-.235-1.615,10.018,10.018,0,0,0-.483-1.54,7.263,7.263,0,0,0-.748-1.349,10.853,10.853,0,0,0-1.033-1.249,5.5,5.5,0,0,0-1-.816,6.4,6.4,0,0,0-2.19-.935,6.006,6.006,0,0,0-3.285.279l-2.19,1.249-2.277-3.154a9.588,9.588,0,0,1,1.825-1.207,10.5,10.5,0,0,1,6.644-.878,14.133,14.133,0,0,1,1.9.6,10.459,10.459,0,0,1,3.328,2.141,9.072,9.072,0,0,1,1.466,1.862,15.134,15.134,0,0,1,1.12,2.06,12.622,12.622,0,0,1,.954,2.858,11.6,11.6,0,0,1,.208,1.7h1.745a.754.754,0,0,0-.532.173.6.6,0,0,0-.186.458V420.7a.487.487,0,0,0,.186.421,1.291,1.291,0,0,0,.532.2Zm7.857,2.153a2.151,2.151,0,0,1,.841.167,2.214,2.214,0,0,1,.693.458,2.156,2.156,0,0,1,.47.693,2.568,2.568,0,0,1,.2.884,2.213,2.213,0,0,1-.161.9,2.259,2.259,0,0,1-1.206,1.231,2.272,2.272,0,0,1-1.77-.025,2.167,2.167,0,0,1-1.162-1.293,2.243,2.243,0,0,1-.106-.965,2.4,2.4,0,0,1,.235-.8,2.34,2.34,0,0,1,.477-.649,2.216,2.216,0,0,1,.668-.44A2.079,2.079,0,0,1,1011.018,423.47Z" fill="#febb12"/>
        <path id="Path_50396" data-name="Path 50396" d="M1022.351,421.317a.946.946,0,0,1-.619-.16.574.574,0,0,1-.186-.458v-2.586a.587.587,0,0,1,.186-.47.946.946,0,0,1,.619-.161h14.141a10.988,10.988,0,0,0-.235-1.615,10.019,10.019,0,0,0-.482-1.54,7.268,7.268,0,0,0-.749-1.349,10.654,10.654,0,0,0-1.033-1.249,6.321,6.321,0,0,0-1-.816,4.391,4.391,0,0,0-1.058-.52,4,4,0,0,0-1.132-.415,6.293,6.293,0,0,0-1.231-.117l-2.054.4q-.469.173-.884.365a5.929,5.929,0,0,0-.848.488l-.458.4-2.276-3.154.458-.322a7.9,7.9,0,0,1,1.367-.885,9.178,9.178,0,0,1,1.478-.588,10.372,10.372,0,0,1,1.559-.365,11.18,11.18,0,0,1,1.658-.117,9.783,9.783,0,0,1,1.949.192,9.6,9.6,0,0,1,1.9.6,10.428,10.428,0,0,1,3.328,2.14,14.279,14.279,0,0,1,1.466,1.862,13.684,13.684,0,0,1,1.12,2.06,21.5,21.5,0,0,1,.8,2.246,9.23,9.23,0,0,1,.365,2.307h1.744a.755.755,0,0,0-.532.173.6.6,0,0,0-.185.458V420.7a.489.489,0,0,0,.185.421,1.3,1.3,0,0,0,.532.2Z" fill="#febb12"/>
        <path id="Path_50397" data-name="Path 50397" d="M1041.528,421.33a.874.874,0,0,1-.613-.173.6.6,0,0,1-.179-.445v-2.6a.59.59,0,0,1,.179-.452.9.9,0,0,1,.613-.166h2.017V401.67h3.9v19.66Z" fill="#febb12"/>
        <path id="Path_50398" data-name="Path 50398" d="M1054.828,401.361v19.956h-3.848V401.361Z" fill="#febb12"/>
      </g>
      <g id="Group_46656" data-name="Group 46656">
        <path id="Path_50399" data-name="Path 50399" d="M868.234,443.737c.323,1.894,2.015,2.156,3.184,2.156,1.108,0,2.8-.322,2.8-1.793,0-3.063-8.564-1.089-8.564-6.469,0-2.961,2.781-4.352,5.38-4.352,3,0,5.763,1.31,5.763,4.635l-3.063-.444c-.383-1.672-1.853-1.733-2.841-1.733-1.007,0-2.176.424-2.176,1.632,0,1.069.685,1.31,4.292,2.177,1.068.262,4.271.927,4.271,4.191,0,2.639-2.055,4.614-5.984,4.614-3.224,0-6.125-1.571-6.125-5.118Z" fill="#0e4763"/>
        <path id="Path_50400" data-name="Path 50400" d="M879.5,433.622h4.11l3.325,6.347,3.264-6.347h4.171v14.387H891.4V437.833h-.04l-3.2,6.549h-2.438l-3.184-6.448h-.04v10.075h-3Z" fill="#0e4763"/>
        <path id="Path_50401" data-name="Path 50401" d="M896.056,448.009l6.528-14.367h3.184l6.427,14.367h-3.062l-1.411-3.184h-7.274l-1.511,3.184Zm8.16-11.667L901.8,441.9h4.776l-2.338-5.561Z" fill="#0e4763"/>
        <path id="Path_50402" data-name="Path 50402" d="M921.884,442.689l4.03,5.34h-3.868l-3.627-5.179h-1.552v5.179h-3.183V433.622h6.488c3.626,0,5.017,2.277,5.017,4.614a4.309,4.309,0,0,1-3.425,4.453Zm-5.017-6.609v4.332h2.458c1.512,0,2.761-.342,2.761-2.176,0-1.874-1.249-2.156-2.761-2.156Z" fill="#0e4763"/>
        <path id="Path_50403" data-name="Path 50403" d="M931.876,436.282H927.3v-2.64h12.271v2.66h-4.534v11.707h-3.163Z" fill="#0e4763"/>
        <path id="Path_50404" data-name="Path 50404" d="M947.489,433.622h6.77c2.74,0,4.594.886,4.594,3.566a3.081,3.081,0,0,1-1.955,3,3.491,3.491,0,0,1,2.64,3.647c0,2.921-2.478,4.171-5.078,4.171h-6.971Zm3.163,5.823h3.2c1.128,0,1.934-.5,1.934-1.713,0-1.35-1.048-1.652-2.176-1.652h-2.962Zm0,6.1h3.385c1.229,0,2.337-.4,2.337-1.894,0-1.471-.906-2.055-2.276-2.055h-3.446Z" fill="#0e4763"/>
        <path id="Path_50405" data-name="Path 50405" d="M968.079,448.19a7.446,7.446,0,1,1,7.455-7.435A7.43,7.43,0,0,1,968.079,448.19Zm-4.392-7.435a4.372,4.372,0,1,0,4.392-4.413A4.429,4.429,0,0,0,963.687,440.755Z" fill="#0e4763"/>
        <path id="Path_50406" data-name="Path 50406" d="M983.773,448.19a7.446,7.446,0,1,1,7.455-7.435A7.43,7.43,0,0,1,983.773,448.19Zm-4.393-7.435a4.373,4.373,0,1,0,4.393-4.413A4.43,4.43,0,0,0,979.38,440.755Z" fill="#0e4763"/>
        <path id="Path_50407" data-name="Path 50407" d="M1005.733,448.009h-4.352l-3.748-4.03-1.874,2.6v1.431h-3.224V433.6h3.224v8.16l5.622-8.16h3.929l-5.42,8.16Z" fill="#0e4763"/>
        <path id="Path_50408" data-name="Path 50408" d="M1007.6,433.622h3.163v14.387H1007.6Z" fill="#0e4763"/>
        <path id="Path_50409" data-name="Path 50409" d="M1015.885,438.075v9.954h-2.761V433.582h3.627l6.427,8.986v-8.986h2.681v14.447h-2.681Z" fill="#0e4763"/>
        <path id="Path_50410" data-name="Path 50410" d="M1041.129,444.382a7.441,7.441,0,1,1-6.528-11.022,7.549,7.549,0,0,1,6.508,3.788c-1.269.645-1.37.7-2.781,1.411a4.24,4.24,0,0,0-3.727-2.116,4.353,4.353,0,0,0,0,8.705,4.088,4.088,0,0,0,3.808-2.177h-.322c-.645,0-2.116.02-2.922.02a2.361,2.361,0,0,1-.564-.02v-2.66c2.035,0,4.876.021,7.355.021C1041.956,440.755,1041.875,443.415,1041.129,444.382Z" fill="#0e4763"/>
        <path id="Path_50411" data-name="Path 50411" d="M1045.781,443.737c.323,1.894,2.015,2.156,3.184,2.156,1.108,0,2.8-.322,2.8-1.793,0-3.063-8.563-1.089-8.563-6.469,0-2.961,2.781-4.352,5.38-4.352,3,0,5.763,1.31,5.763,4.635l-3.063-.444c-.383-1.672-1.854-1.733-2.841-1.733-1.008,0-2.176.424-2.176,1.632,0,1.069.685,1.31,4.291,2.177,1.069.262,4.272.927,4.272,4.191,0,2.639-2.055,4.614-5.984,4.614-3.224,0-6.125-1.571-6.125-5.118Z" fill="#0e4763"/>
      </g>
    </g>
  </g>
</svg>
