<svg xmlns="http://www.w3.org/2000/svg" width="35.818" height="35.816" viewBox="0 0 35.818 35.816">
  <g id="Group_1534" data-name="Group 1534" transform="translate(-2109.397 -12452.671)" opacity="0.35">
    <path id="Path_2107" data-name="Path 2107" d="M2133.375,12478.443a14.592,14.592,0,1,1,1.84-1.849c.1.1.194.209.3.313q4.587,4.588,9.179,9.173a1.384,1.384,0,0,1,.466,1.451,1.314,1.314,0,0,1-2.1.653,4.474,4.474,0,0,1-.328-.314q-4.545-4.544-9.088-9.089A3.794,3.794,0,0,1,2133.375,12478.443Zm2.553-11.172a11.943,11.943,0,1,0-11.966,11.929A11.959,11.959,0,0,0,2135.928,12467.271Z"/>
  </g>
</svg>
