<svg xmlns="http://www.w3.org/2000/svg" xmlns:xlink="http://www.w3.org/1999/xlink" width="102.142" height="102.142" viewBox="0 0 102.142 102.142">
  <defs>
    <filter id="Ellipse_45" x="0" y="0" width="102.142" height="102.142" filterUnits="userSpaceOnUse">
      <feOffset dy="7" input="SourceAlpha"/>
      <feGaussianBlur stdDeviation="5" result="blur"/>
      <feFlood flood-opacity="0.122"/>
      <feComposite operator="in" in2="blur"/>
      <feComposite in="SourceGraphic"/>
    </filter>
  </defs>
  <g id="Group_1533" data-name="Group 1533" transform="translate(-3632.682 -12133.819)">
    <g transform="matrix(1, 0, 0, 1, 3632.68, 12133.82)" filter="url(#Ellipse_45)">
      <circle id="Ellipse_45-2" data-name="Ellipse 45" cx="36.071" cy="36.071" r="36.071" transform="translate(15 8)" fill="#fff"/>
    </g>
    <g id="Group_1532" data-name="Group 1532">
      <path id="Path_2097" data-name="Path 2097" d="M3699.234,12206.848H3668.3a.521.521,0,0,1-.143-.358,20.454,20.454,0,0,1,.341-5.387,9.348,9.348,0,0,1,8.724-6.949c.748-.025.939-.462,1.128-1.006.332-.123.53.13.742.292,1.18.9,2.353,1.819,3.53,2.729,1.139.879,1.15.875,2.313-.015,1.24-.951,2.467-1.918,3.711-2.863.166-.126.329-.415.618-.176.238,1,.238,1,1.267,1.024a9.455,9.455,0,0,1,8.5,6.96,20.445,20.445,0,0,1,.341,5.391A.52.52,0,0,1,3699.234,12206.848Z" fill="#fea964"/>
      <path id="Path_2098" data-name="Path 2098" d="M3688.17,12148.932a26.4,26.4,0,0,1,2.689.672,8.917,8.917,0,0,1,2.064.987,1.248,1.248,0,0,1,.1,1.57,1.6,1.6,0,0,1-1.541.72c-3.227-.013-6.473-.367-9.673.271a12.306,12.306,0,0,0-9.534,10.761c-.073.847-.094,1.69-.1,2.537a2.386,2.386,0,0,1-.19,1.048,1.938,1.938,0,0,0-.364,1.268c.013,1.747.006,3.5,0,5.242a2.994,2.994,0,0,1-.06.84c-.675,1.66-1.757,3.1-2.523,4.716a11.671,11.671,0,0,0-1.162,5.012c0,.62.007,1.241,0,1.86a1.394,1.394,0,0,1-1.985,1.4,1.45,1.45,0,0,0-.209-.082,11.667,11.667,0,0,1-1.678-5.13,13.557,13.557,0,0,1,2.358-9.069,12.265,12.265,0,0,0,1.926-6.783c.007-1.885-.005-3.77,0-5.653a12.537,12.537,0,0,1,10.049-11.969c.3-.054.635,0,.9-.213Z" fill="#4d4e59"/>
      <path id="Path_2099" data-name="Path 2099" d="M3678.467,12193.156c-.014.012-.036.021-.041.037-.33,1.074-.334,1.021-1.537,1.11a8.931,8.931,0,0,0-5.429,2.306,9.15,9.15,0,0,0-2.976,5.236,9.55,9.55,0,0,0-.189,1.9c.015,1.035,0,2.071,0,3.105h-3.162a1.617,1.617,0,0,1-.578-1.431c.041-1.544-.02-3.092.021-4.636a9.092,9.092,0,0,1,4.664-7.929c.239-.146.5-.261.746-.391.248-.391.684-.442,1.067-.569a8.618,8.618,0,0,1,2.321-.427,11.465,11.465,0,0,0,2.6-.4,24.477,24.477,0,0,1,2.38,1.787A.261.261,0,0,1,3678.467,12193.156Z" fill="#febc7b"/>
      <path id="Path_2100" data-name="Path 2100" d="M3699.234,12206.848c0-1.073.032-2.148-.006-3.222a9.232,9.232,0,0,0-4.963-8.263,8.341,8.341,0,0,0-3.856-1.064c-1.084-.035-1.23-.155-1.22-1.241a.181.181,0,0,1,.073-.239,20.629,20.629,0,0,1,2.281-1.748,26.53,26.53,0,0,0,3.778.547,8.413,8.413,0,0,1,1.736.48.807.807,0,0,1,.485.36,9.293,9.293,0,0,1,5.234,6.593,8.026,8.026,0,0,1,.188,1.844c-.013,1.469-.03,2.938.008,4.4a1.751,1.751,0,0,1-.577,1.549Z" fill="#f9a057"/>
      <path id="Path_2101" data-name="Path 2101" d="M3676.084,12191.149a8.2,8.2,0,0,1-3.019.519,9.642,9.642,0,0,0-3.075.794,16.236,16.236,0,0,1-3.829-3.892c-.168-.266-.313-.546-.469-.821.148-.215.312-.037.451,0a1.207,1.207,0,0,0,1.591-1.2,21.028,21.028,0,0,1,.275-4.479,17.8,17.8,0,0,1,2.519-5.43c.289-.469.442-.991.689-1.475.055-.109.093-.2.224-.214.257.253.19.6.235.9a12.055,12.055,0,0,0,7,9.412.794.794,0,0,1,.454.4,5.579,5.579,0,0,1-.074,1.963,5.438,5.438,0,0,1-2.254,3.262A.885.885,0,0,1,3676.084,12191.149Z" fill="#42434d"/>
      <path id="Path_2102" data-name="Path 2102" d="M3697.542,12192.458a9.984,9.984,0,0,0-4.073-.861,6.313,6.313,0,0,1-2.007-.446,1.4,1.4,0,0,1-1.038-.488,5.294,5.294,0,0,1-2.01-5.029,1.147,1.147,0,0,1,.608-.477,12.105,12.105,0,0,0,6.855-9.66,17.5,17.5,0,0,0,.04-2.371q.012-2.345,0-4.69c-.006-.742-.271-1.046-.982-1.125a4.559,4.559,0,0,1-4.049-3.207c-.426-1.2-.963-1.343-2-.671a25.643,25.643,0,0,1-10.779,3.911,28.078,28.078,0,0,1-3.768.191c-.809-.03-1.617-.082-2.422-.163a6.265,6.265,0,0,0,.109-1.906,12.737,12.737,0,0,1,1.45-6.065,12.319,12.319,0,0,1,8.774-6.506,13.217,13.217,0,0,1,2.678-.233c1.956.015,3.911.008,5.867,0,.34,0,.671.086,1,.095a1.326,1.326,0,0,0,1.236-1.729c-.044-.144-.07-.29-.1-.437a12.207,12.207,0,0,1,5.965,7.986,12.337,12.337,0,0,1,.337,3.022c0,1.6.024,3.2-.006,4.806a13.18,13.18,0,0,0,2.2,7.631,12.822,12.822,0,0,1,2.114,8.042,12.984,12.984,0,0,1-4.644,9.272C3698.453,12191.733,3697.993,12192.09,3697.542,12192.458Z" fill="#42434d"/>
      <path id="Path_2103" data-name="Path 2103" d="M3688.625,12187.73a5.387,5.387,0,0,0,2.837,3.42,25.116,25.116,0,0,1-2.112,1.754c-.055.05-.108.1-.161.152q-2.314,1.78-4.628,3.557a1.039,1.039,0,0,1-1.595-.007q-2.249-1.727-4.5-3.45a21.789,21.789,0,0,0-1.827-1.477c-.2-.162-.456-.265-.556-.53a5.413,5.413,0,0,0,2.823-3.419c.244-.162.475-.03.7.047a12.29,12.29,0,0,0,8.324,0C3688.15,12187.7,3688.381,12187.568,3688.625,12187.73Z" fill="#fedeb9"/>
      <path id="Path_2104" data-name="Path 2104" d="M3671.912,12167.371a8.261,8.261,0,0,1,2.487.019,1.738,1.738,0,0,1,1.625,1.749,28.588,28.588,0,0,1,.1,3.271,11.68,11.68,0,0,0,2.782,7.578,14.666,14.666,0,0,0,2.628,2.374,2.018,2.018,0,0,1-.085,3.391,1.924,1.924,0,0,1-1.286.318,1.629,1.629,0,0,1-1.145-.482,12.359,12.359,0,0,1-6.921-7.348,11.663,11.663,0,0,1-.657-3.29c0-2.127.009-4.254-.008-6.381A1.4,1.4,0,0,1,3671.912,12167.371Z" fill="#fef2e3"/>
      <path id="Path_2105" data-name="Path 2105" d="M3679.019,12185.588a4.821,4.821,0,0,0,1.131.336,14.076,14.076,0,0,0,7.772-.3c.188-.069.381-.187.587-.04a13.754,13.754,0,0,0,.116,2.146,19.279,19.279,0,0,1-3.131.815,13.079,13.079,0,0,1-5.256-.386c-.446-.133-.887-.286-1.331-.43A12.71,12.71,0,0,0,3679.019,12185.588Z" fill="#fed5a5"/>
      <path id="Path_2106" data-name="Path 2106" d="M3688.509,12185.584a12.767,12.767,0,0,1-5.533.9,8.877,8.877,0,0,1-2.826-.557,1.876,1.876,0,0,0,1.982-1.259,1.763,1.763,0,0,0-.627-2.136,12.776,12.776,0,0,1-3.811-3.987,11.316,11.316,0,0,1-1.717-5.7,34.232,34.232,0,0,0-.115-3.883,1.825,1.825,0,0,0-1.463-1.574,26.117,26.117,0,0,0,10.6-2.064,26.5,26.5,0,0,0,4.02-2.151c.981-.637,1.53-.442,1.909.646a4.569,4.569,0,0,0,4.1,3.351c.759.076,1.056.423,1.058,1.189.005,1.96.052,3.922-.009,5.88a12.132,12.132,0,0,1-7.217,11.167C3688.743,12185.465,3688.626,12185.525,3688.509,12185.584Z" fill="#feead1"/>
    </g>
  </g>
</svg>
