<svg xmlns="http://www.w3.org/2000/svg" width="23.198" height="15.472" viewBox="0 0 23.198 15.472">
  <g id="Group_720" data-name="Group 720" transform="translate(-728.547 -435.923)" opacity="0.5">
    <path id="Path_703" data-name="Path 703" d="M751.745,450.409a3.577,3.577,0,0,1-.321.588,1.187,1.187,0,0,1-.993.4q-3.669,0-7.338,0-6.6,0-13.2,0a1.327,1.327,0,0,1-.908-.281,1.217,1.217,0,0,1-.434-.979c0-1.51,0-3.02,0-4.53v-8.312a1.219,1.219,0,0,1,1.363-1.37q10.18,0,20.361,0a1.27,1.27,0,0,1,1.472.985Zm-1.538.081c-.061-.081-.1-.13-.134-.177l-3.15-3.89q-.861-1.065-1.723-2.13a.454.454,0,0,1,.137-.75c.209-.083.391-.014.584.224l4.274,5.28.63.774V437.4c-.093.068-.16.117-.226.167l-9.113,6.833a2.113,2.113,0,0,1-2.658.015l-9.166-6.874c-.061-.046-.125-.088-.2-.139v12.418c.075-.089.124-.145.171-.2l3.762-4.647c.337-.417.672-.835,1.012-1.25a.45.45,0,1,1,.69.566c-.018.024-.039.047-.058.07l-4.787,5.915c-.052.065-.1.133-.165.218Zm-19.992-13.659c.074.06.113.094.155.125l9.017,6.764a1.213,1.213,0,0,0,1.528-.006l8.981-6.736c.051-.039.1-.082.179-.147Z"/>
  </g>
</svg>
