<svg xmlns="http://www.w3.org/2000/svg" width="62.213" height="48.301" viewBox="0 0 62.213 48.301">
  <g id="Group_2080" data-name="Group 2080" transform="translate(-5069.231 -9032.557)" opacity="0.7">
    <path id="Path_2659" data-name="Path 2659" d="M5090.413,9055.685c-.87-1.552-1.728-3.067-2.575-4.589a5.758,5.758,0,0,1,2.688-8.472q10.038-4.77,20.087-9.513a5.008,5.008,0,1,1,4.455,8.966c-3.106,1.578-6.23,3.121-9.346,4.681l-5.409,2.717c.149.23.262.414.383.591q5.4,7.9,10.8,15.8a1.973,1.973,0,0,0,1.128.792,17.8,17.8,0,0,1,3.267,1.391,7.58,7.58,0,0,0,8.156.127,11.449,11.449,0,0,1,5.8-1.8,1.413,1.413,0,0,1,1.513,1.858,1.259,1.259,0,0,1-1.23.945,10.6,10.6,0,0,0-5.082,1.672,9.946,9.946,0,0,1-10.339-.265,8.061,8.061,0,0,0-8.97,0,9.993,9.993,0,0,1-10.858-.022,7.969,7.969,0,0,0-8.852-.016,10.145,10.145,0,0,1-10.979,0,8.58,8.58,0,0,0-4.231-1.343,1.433,1.433,0,0,1-1.576-1.491,1.4,1.4,0,0,1,1.454-1.348,1.433,1.433,0,0,1,.266.034,3.519,3.519,0,0,0,2.4-.629q8.2-4.862,16.421-9.681C5089.989,9055.963,5090.188,9055.828,5090.413,9055.685Zm18.034,10.751c-.152-.231-.277-.435-.415-.634l-9.758-14.19c-1.451-2.111-1.025-3.771,1.244-4.908q7.074-3.538,14.144-7.077a2.467,2.467,0,0,0,1.369-1.36,2.142,2.142,0,0,0-.594-2.357,2.2,2.2,0,0,0-2.588-.26q-10.1,4.794-20.21,9.577a2.915,2.915,0,0,0-1.382,4.4c.8,1.422,1.617,2.838,2.424,4.258,1.072,1.888.685,3.361-1.189,4.468q-7.64,4.507-15.287,9c-.139.083-.27.184-.419.288a7.685,7.685,0,0,0,8.909.415,10.421,10.421,0,0,1,11.564.04,7.434,7.434,0,0,0,8.145,0,11.185,11.185,0,0,1,3.709-1.528,1.962,1.962,0,0,0,.334-.136Z"/>
    <path id="Path_2660" data-name="Path 2660" d="M5100.35,9080.788a9.961,9.961,0,0,1-5.529-1.552,7.81,7.81,0,0,0-8.839.017,10.035,10.035,0,0,1-10.861.016,8.827,8.827,0,0,0-4.48-1.4,1.384,1.384,0,0,1-1.41-1.354v-.021a1.407,1.407,0,0,1,1.4-1.419h.042a9.9,9.9,0,0,1,5.747,1.692,7.383,7.383,0,0,0,6.031.951,8.09,8.09,0,0,0,2.172-.937,10.482,10.482,0,0,1,11.622,0,7.436,7.436,0,0,0,8.147.013,10.522,10.522,0,0,1,11.465-.11,7.819,7.819,0,0,0,8.684-.094,9.7,9.7,0,0,1,5.332-1.523,1.41,1.41,0,1,1,.329,2.8,1.435,1.435,0,0,1-.3,0,7.807,7.807,0,0,0-4,1.191,10.386,10.386,0,0,1-11.342.116,7.876,7.876,0,0,0-8.8.1A9.871,9.871,0,0,1,5100.35,9080.788Z"/>
    <path id="Path_2661" data-name="Path 2661" d="M5109.777,9054.735a10.111,10.111,0,1,1,10.184,10.121A10.11,10.11,0,0,1,5109.777,9054.735Zm10.081,7.271a7.257,7.257,0,1,0-7.23-7.284v.027a7.227,7.227,0,0,0,7.2,7.257h.031Z"/>
  </g>
</svg>
