<svg xmlns="http://www.w3.org/2000/svg" xmlns:xlink="http://www.w3.org/1999/xlink" width="69.833" height="29.569" viewBox="0 0 69.833 29.569">
  <defs>
    <clipPath id="clip-path">
      <rect id="Rectangle_48" data-name="Rectangle 48" width="69.833" height="29.569" transform="translate(8488.741 3323.195)" fill="none"/>
    </clipPath>
  </defs>
  <g id="Group_8208" data-name="Group 8208" transform="translate(-8488.741 -3323.195)" opacity="0.8">
    <g id="Group_82" data-name="Group 82">
      <g id="Group_81" data-name="Group 81" clip-path="url(#clip-path)">
        <g id="Group_8202" data-name="Group 8202">
          <path id="Path_10668" data-name="Path 10668" d="M8558.573,3330.981a6.146,6.146,0,0,0-.284.595q-2.859,8.01-5.719,16.024c-.2.554-.437,1.095-.668,1.637a5.456,5.456,0,0,1-5.663,3.521c-.407-.012-.812-.058-1.255-.091v-2.548c.616-.045,1.222-.063,1.819-.138a2.094,2.094,0,0,0,1.642-1.2,3.651,3.651,0,0,0,.306-3.219c-1.77-4.665-3.421-9.376-5.115-14.071-.075-.209-.138-.423-.245-.746,1.147,0,2.226-.023,3.3.027.15.007.347.36.418.585q1.849,5.875,3.67,11.759c.061.194.127.385.229.695.131-.375.234-.642.318-.915,1.191-3.835,2.389-7.667,3.56-11.508a.764.764,0,0,1,.895-.663c.928.041,1.859-.008,2.791-.02Z"/>
          <path id="Path_10669" data-name="Path 10669" d="M8507.572,3331.119c-3.929,2.769-3.174,7.784.537,9.571a13.07,13.07,0,0,1-3.517,5.561,2.82,2.82,0,0,1-2.881.522,7.659,7.659,0,0,1-.822-.325,4.863,4.863,0,0,0-4.025-.01c-2.181.9-3.2.641-4.687-1.2a14.412,14.412,0,0,1-3.434-9.467,6.736,6.736,0,0,1,2.743-5.735,5.019,5.019,0,0,1,4.9-.72,1.916,1.916,0,0,1,.258.087,3.953,3.953,0,0,0,3.824.022,5.471,5.471,0,0,1,5.178.183,15.8,15.8,0,0,1,1.92,1.512"/>
          <path id="Path_10670" data-name="Path 10670" d="M8512.039,3324.847c.155-.015.264-.034.373-.034,2.75,0,5.5-.043,8.249.029,4.418.115,7.281,3.657,6.735,8.122-.468,3.817-3.047,6.108-6.925,6.295-1.405.068-2.818.023-4.227.029h-.831v7.465h-3.375Zm3.4,11.576c.294,0,.517,0,.738,0,1.428-.035,2.865.02,4.28-.132a3.815,3.815,0,0,0,3.507-4.055c.076-2.417-1.043-4.073-3.262-4.372a44.434,44.434,0,0,0-5.154-.138c-.032,0-.065.056-.109.095Z"/>
          <path id="Path_10671" data-name="Path 10671" d="M8541.915,3346.772h-3.07v-2.428l-.133-.041c-.1.131-.205.26-.3.393a6.072,6.072,0,0,1-8.111,1.389c-2.5-1.692-2.833-6.2.54-7.783a13.088,13.088,0,0,1,4.922-.9c.948-.06,1.9-.111,2.83-.164.422-2.007-.258-3.445-1.816-3.915a3.606,3.606,0,0,0-4.7,2.129h-3.062a4.926,4.926,0,0,1,3.259-4.342,8.481,8.481,0,0,1,6.574-.034,4.592,4.592,0,0,1,3.105,4.464c.041,3.613.017,7.226.018,10.84a3.241,3.241,0,0,1-.05.388m-3.3-7.172c-.477,0-.91-.034-1.338.007a33.625,33.625,0,0,0-3.913.452,2.028,2.028,0,0,0-1.669,2.189,2.229,2.229,0,0,0,1.843,2.081c2.367.594,5.78-.845,5.077-4.729"/>
          <path id="Path_10672" data-name="Path 10672" d="M8503.105,3323.2a4.9,4.9,0,0,1-4.611,5.415c-.731-2.187,1.951-5.367,4.611-5.415"/>
        </g>
      </g>
    </g>
  </g>
</svg>
