<svg xmlns="http://www.w3.org/2000/svg" xmlns:xlink="http://www.w3.org/1999/xlink" width="79.834" height="33.804" viewBox="0 0 79.834 33.804">
  <defs>
    <clipPath id="clip-path">
      <rect id="Rectangle_30" data-name="Rectangle 30" width="79.835" height="33.804" transform="translate(4367.477 15329.718)" fill="none"/>
    </clipPath>
  </defs>
  <g id="Group_8208" data-name="Group 8208" transform="translate(-4367.477 -15329.718)" opacity="0.8">
    <g id="Group_64" data-name="Group 64">
      <g id="Group_63" data-name="Group 63" clip-path="url(#clip-path)">
        <g id="Group_8202" data-name="Group 8202">
          <path id="Path_10668" data-name="Path 10668" d="M4447.311,15338.619a7.082,7.082,0,0,0-.325.679l-6.539,18.32c-.227.634-.5,1.252-.763,1.872a6.238,6.238,0,0,1-6.475,4.023c-.464-.013-.927-.064-1.434-.1v-2.913c.706-.051,1.4-.072,2.081-.158a2.4,2.4,0,0,0,1.876-1.366,4.175,4.175,0,0,0,.35-3.68c-2.024-5.334-3.911-10.719-5.848-16.087-.086-.239-.158-.483-.28-.852,1.311,0,2.543-.027,3.771.03.173.008.4.411.478.669q2.115,6.716,4.2,13.443c.069.221.145.44.261.794.15-.428.268-.734.365-1.046,1.362-4.384,2.731-8.765,4.069-13.156.172-.564.414-.784,1.022-.758,1.061.047,2.127-.01,3.19-.023Z"/>
          <path id="Path_10669" data-name="Path 10669" d="M4389,15338.776c-4.49,3.167-3.628,8.9.615,10.941a14.947,14.947,0,0,1-4.02,6.358,3.222,3.222,0,0,1-3.293.6,8.277,8.277,0,0,1-.94-.371,5.563,5.563,0,0,0-4.6-.011c-2.492,1.031-3.663.733-5.358-1.374a16.475,16.475,0,0,1-3.926-10.823,7.7,7.7,0,0,1,3.136-6.557,5.739,5.739,0,0,1,5.6-.823,2.153,2.153,0,0,1,.294.1,4.52,4.52,0,0,0,4.373.024,6.254,6.254,0,0,1,5.918.209,17.853,17.853,0,0,1,2.195,1.729"/>
          <path id="Path_10670" data-name="Path 10670" d="M4394.111,15331.607c.177-.019.3-.04.427-.04,3.143,0,6.289-.05,9.43.032,5.051.133,8.324,4.182,7.7,9.286-.534,4.363-3.482,6.982-7.916,7.2-1.607.078-3.223.025-4.832.032h-.95v8.534h-3.859Zm3.883,13.232c.336,0,.59.006.844,0,1.632-.04,3.275.024,4.893-.15,2.486-.268,3.927-2.021,4.009-4.637.086-2.762-1.192-4.655-3.729-5a50.562,50.562,0,0,0-5.892-.157c-.037,0-.075.063-.125.108Z"/>
          <path id="Path_10671" data-name="Path 10671" d="M4428.266,15356.671h-3.509v-2.774l-.153-.048c-.114.149-.233.3-.343.449a6.941,6.941,0,0,1-9.273,1.588c-2.86-1.934-3.239-7.084.617-8.9a14.954,14.954,0,0,1,5.627-1.028c1.084-.067,2.168-.126,3.235-.187.483-2.3-.295-3.938-2.077-4.476a4.123,4.123,0,0,0-5.378,2.434h-3.5a5.635,5.635,0,0,1,3.726-4.965,9.7,9.7,0,0,1,7.516-.037,5.248,5.248,0,0,1,3.549,5.1c.047,4.131.019,8.261.02,12.393a3.928,3.928,0,0,1-.056.443m-3.776-8.2c-.543,0-1.04-.039-1.529.008a39.108,39.108,0,0,0-4.474.517,2.319,2.319,0,0,0-1.908,2.5,2.55,2.55,0,0,0,2.108,2.379c2.705.679,6.608-.966,5.8-5.406"/>
          <path id="Path_10672" data-name="Path 10672" d="M4383.9,15329.718c.488,3.036-2.288,6.271-5.272,6.19-.835-2.5,2.231-6.135,5.272-6.19"/>
        </g>
      </g>
    </g>
  </g>
</svg>
