<svg xmlns="http://www.w3.org/2000/svg" width="55" height="54.959" viewBox="0 0 55 54.959">
  <g id="Group_43474" data-name="Group 43474" transform="translate(-4487.658 -2743.466)">
    <path id="Path_47013" data-name="Path 47013" d="M4535.664,2798.425h-43.5a1.656,1.656,0,0,0-.252-.08,4.9,4.9,0,0,1-3.156-1.82,5.7,5.7,0,0,1-1.1-2.61v-31.031c.02-.029.052-.057.056-.089a5.053,5.053,0,0,1,5.376-4.349c1.143.048,2.29.021,3.435,0a1.793,1.793,0,0,0,.8-.212c.954-.528,1.888-1.09,2.83-1.639q10.542-6.137,21.082-12.277a5.069,5.069,0,0,1,4.764-.447,5.324,5.324,0,0,1,2.559,2.419q3.351,5.865,6.7,11.732a1.019,1.019,0,0,0,.821.57,4.456,4.456,0,0,1,2.213,1.016,5.066,5.066,0,0,1,1.855,4.155c0,2.308.008,4.615-.008,6.923a.653.653,0,0,0,.424.69,3.54,3.54,0,0,1,2.063,3.269q.054,3.781,0,7.566a3.562,3.562,0,0,1-2.1,3.3.61.61,0,0,0-.389.652q.018,3.489,0,6.977a5.118,5.118,0,0,1-2.036,4.285A5.984,5.984,0,0,1,4535.664,2798.425Zm1.944-12.487c-.462,0-.854,0-1.247,0-2.325-.018-4.658.067-6.975-.079a7.479,7.479,0,0,1,.944-14.919c2.237-.007,4.474,0,6.711,0h.569c0-2.637,0-5.2,0-7.752a1.588,1.588,0,0,0-.07-.42,2.535,2.535,0,0,0-2.706-1.818h-41.768a2.575,2.575,0,0,0-2.913,2.9q0,14.573,0,29.146a2.6,2.6,0,0,0,2.933,2.943h41.661a2.561,2.561,0,0,0,2.893-2.86q.006-3.274,0-6.549C4537.637,2786.351,4537.62,2786.177,4537.608,2785.938Zm-3.366-2.533v.019c1.467,0,2.935.007,4.4,0a1.321,1.321,0,0,0,1.506-1.519q.014-3.461,0-6.923a1.35,1.35,0,0,0-1.542-1.549c-2.755-.008-5.511-.015-8.266,0a4.888,4.888,0,0,0-4.392,2.332,4.939,4.939,0,0,0,4,7.627C4531.376,2783.473,4532.811,2783.405,4534.242,2783.405Zm-32.083-25.084.021.133c1.406,0,2.811.012,4.216-.011a1.823,1.823,0,0,0,.854-.225q9.253-5.367,18.492-10.757c.145-.085.284-.181.426-.271a2.429,2.429,0,0,0-3.536-.784q-7.7,4.471-15.385,8.954Zm25.28-8.955-15.4,8.968.03.12h.51c1.216,0,2.433.019,3.648-.013a2.214,2.214,0,0,0,1-.271q5.5-3.171,10.982-6.378c.148-.086.289-.187.453-.294Zm5.191,9.064-2.714-4.742-7.985,4.651.041.091Z" fill="#febb12"/>
    <path id="Path_47014" data-name="Path 47014" d="M4530.126,2775.952a2.486,2.486,0,1,1-2.473,2.5A2.5,2.5,0,0,1,4530.126,2775.952Z" fill="#febb12"/>
  </g>
</svg>
