<svg xmlns="http://www.w3.org/2000/svg" width="30" height="30.067" viewBox="0 0 30 30.067">
  <path id="Path_45361" data-name="Path 45361" d="M4618.675,3141a3.645,3.645,0,0,1,1.645.714c.067.057.138.11.2.172,1.35,1.348,2.705,2.691,4.046,4.05a2.828,2.828,0,0,1,.468,3.548,2.518,2.518,0,0,1-1.335,1.092,2.954,2.954,0,0,0-1.825,1.629,2.515,2.515,0,0,0-.116,1.69,9.913,9.913,0,0,0,2.244,3.941,13.594,13.594,0,0,0,4.266,3.392,3.807,3.807,0,0,0,2.219.527,2.694,2.694,0,0,0,2.293-1.681,3.124,3.124,0,0,1,1.255-1.643,2.77,2.77,0,0,1,3.277.285c.824.751,1.6,1.558,2.384,2.348.719.719,1.464,1.418,2.133,2.182a2.887,2.887,0,0,1,.124,3.514,5,5,0,0,1-.509.6c-.79.8-1.607,1.577-2.38,2.394a4.2,4.2,0,0,1-3.012,1.3,9.928,9.928,0,0,1-3.621-.623,24.47,24.47,0,0,1-6.363-3.4,41.386,41.386,0,0,1-8.6-8.274,26.325,26.325,0,0,1-4.333-7.643,10.122,10.122,0,0,1-.635-3.8,4.16,4.16,0,0,1,1.289-2.957c.718-.679,1.416-1.381,2.1-2.1a3.623,3.623,0,0,1,2.145-1.27Z" transform="translate(-4612.488 -3141.004)" fill="#8a8a8a"/>
</svg>
