<svg xmlns="http://www.w3.org/2000/svg" width="54.999" height="48.181" viewBox="0 0 54.999 48.181">
  <g id="Group_43477" data-name="Group 43477" transform="translate(-5613.448 -2746.855)">
    <path id="Path_47021" data-name="Path 47021" d="M5613.448,2790.488v-28.573a2.783,2.783,0,0,0,.094-.352,5.309,5.309,0,0,1,4.443-4.537,20.8,20.8,0,0,1,2.63-.018c.048-.221.093-.374.112-.529.191-1.562.4-3.123.56-4.688a5.339,5.339,0,0,1,6.176-4.886c2.36.3,4.724.553,7.088.821q6.851.775,13.7,1.543c4.993.565,9.985,1.151,14.98,1.7a5.5,5.5,0,0,1,5.182,6c-.443,4.125-.926,8.246-1.393,12.369-.533,4.709-1.076,9.417-1.6,14.128-.277,2.506-1.347,4.4-3.918,5.119-.554.154-.68.391-.652.916a4.782,4.782,0,0,1-1.24,3.55,5.964,5.964,0,0,1-4.732,1.991q-8.563-.016-17.128,0-9.477,0-18.953,0a4.917,4.917,0,0,1-4.408-2.195A12.507,12.507,0,0,1,5613.448,2790.488Zm2.678-8.952c.28-.2.466-.33.649-.464q3.972-2.888,7.945-5.774a5.973,5.973,0,0,1,7.947.388q3.385,2.979,6.769,5.962a3.44,3.44,0,0,0,4.434.433q6.955-4.046,13.909-8.094a.754.754,0,0,0,.432-.759c-.013-3.436,0-6.873-.014-10.309a3.9,3.9,0,0,0-.153-1.108,3.03,3.03,0,0,0-3.152-2.161h-35.924c-.143,0-.286,0-.429.005a2.188,2.188,0,0,0-1.57.71,3.235,3.235,0,0,0-.846,2.357q.007,9.156,0,18.311Zm42.077-4.655c-.273.153-.443.244-.609.341q-6.107,3.531-12.213,7.06a8.349,8.349,0,0,1-1.241.627,6.123,6.123,0,0,1-6.532-1.279c-2.3-1.994-4.562-4.026-6.853-6.029a3.136,3.136,0,0,0-4.212-.358c-3.406,2.464-6.784,4.968-10.164,7.468a.684.684,0,0,0-.242.479c-.017,1.629-.028,3.258,0,4.886a2.314,2.314,0,0,0,1.8,2.205,5.236,5.236,0,0,0,1.121.083q17.853.006,35.706,0c.232,0,.465-.007.7-.027a2.749,2.749,0,0,0,2.745-2.992q0-5.906,0-11.812Zm-34.87-19.909h.7q15.44,0,30.877,0a5.789,5.789,0,0,1,2.744.613,5.655,5.655,0,0,1,3.211,5.349q.012,11.2,0,22.392v.7a2.337,2.337,0,0,0,1.688-1.927c.476-4.032.935-8.066,1.4-12.1q.886-7.622,1.776-15.243a2.608,2.608,0,0,0-2.264-3c-2.16-.305-4.332-.523-6.5-.776q-7.2-.839-14.39-1.675c-5.135-.594-10.272-1.175-15.406-1.773a2.7,2.7,0,0,0-3.243,2.366C5623.687,2753.549,5623.535,2755.224,5623.333,2756.972Z" fill="#febb12"/>
    <path id="Path_47022" data-name="Path 47022" d="M5641.31,2775.061a5.605,5.605,0,1,1,5.59-5.613A5.642,5.642,0,0,1,5641.31,2775.061Zm-.032-8.53a2.932,2.932,0,1,0,2.959,2.908A2.939,2.939,0,0,0,5641.278,2766.531Z" fill="#febb12"/>
  </g>
</svg>
