<svg xmlns="http://www.w3.org/2000/svg" width="52.692" height="48.291" viewBox="0 0 52.692 48.291">
  <g id="Group_455" data-name="Group 455" transform="translate(-14951.172 -665.732)" opacity="0.5">
    <path id="Path_437" data-name="Path 437" d="M14951.172,699.282q1.44-4.816,2.882-9.632,1.178-3.936,2.36-7.869a.725.725,0,0,1,.237-.4v.539c0,4.6-.033,9.19.011,13.785a8.165,8.165,0,0,0,4.371,7.464,8.3,8.3,0,0,0,4.2.979q15.381-.016,30.76-.006h.753c-.056.2-.094.356-.142.507q-.914,2.916-1.83,5.83a4.906,4.906,0,0,1-6.125,3.35q-12.476-3.333-24.948-6.68c-2.844-.761-5.684-1.535-8.531-2.282a4.994,4.994,0,0,1-3.919-4.025c-.009-.045-.054-.081-.083-.122Z"/>
    <path id="Path_438" data-name="Path 438" d="M14981.881,700.852q-8.1,0-16.209,0a5.445,5.445,0,0,1-5.577-4.308,6.752,6.752,0,0,1-.144-1.479q-.013-11.757,0-23.515a5.514,5.514,0,0,1,5.808-5.815h32.314a5.5,5.5,0,0,1,5.794,5.768q0,11.808,0,23.618a5.471,5.471,0,0,1-5.722,5.731Q14990.011,700.862,14981.881,700.852Zm17.536-14.112a2.717,2.717,0,0,0,.045-.3q0-7.563,0-15.124c0-.8-.421-1.178-1.286-1.178q-16.255,0-32.511,0c-.934,0-1.316.385-1.316,1.312q0,9.98,0,19.959c0,.142.021.284.031.425l.114.055a5.354,5.354,0,0,1,.356-.441q2.725-2.731,5.455-5.457a3.823,3.823,0,0,1,3.763-1.106,3.953,3.953,0,0,1,1.954,1.173c.809.83,1.621,1.656,2.456,2.508.211-.248.356-.415.5-.585q3.721-4.465,7.439-8.932a3.871,3.871,0,0,1,6.342-.077c.518.6,1.026,1.2,1.54,1.8C14995.978,682.729,14997.662,684.693,14999.417,686.74Z"/>
    <path id="Path_439" data-name="Path 439" d="M14970.91,681.088a4.384,4.384,0,1,1,4.414-4.347A4.4,4.4,0,0,1,14970.91,681.088Z"/>
  </g>
</svg>
