<svg xmlns="http://www.w3.org/2000/svg" width="25" height="35.567" viewBox="0 0 25 35.567">
  <g id="Group_40454" data-name="Group 40454" transform="translate(-8743.265 -292.777)">
    <path id="Path_43673" data-name="Path 43673" d="M8755.7,328.344a1.834,1.834,0,0,1-.852-.822q-4.758-7.686-9.534-15.362a12.594,12.594,0,0,1-1.976-8.17,12.5,12.5,0,1,1,24.75,3.383,12.666,12.666,0,0,1-1.7,4.517q-4.692,7.827-9.375,15.66a1.723,1.723,0,0,1-.831.794Zm.228-3.066c.053-.075.081-.112.105-.151,2.894-4.832,5.8-9.656,8.676-14.5a10.079,10.079,0,0,0,1-8.455,10.418,10.418,0,0,0-20.295,1.9,10.512,10.512,0,0,0,1.646,6.947q4.348,6.96,8.657,13.944C8755.773,325.06,8755.839,325.153,8755.923,325.278Z" fill="#0e4763"/>
    <path id="Path_43674" data-name="Path 43674" d="M8755.756,311.53a6.252,6.252,0,1,1,6.26-6.239A6.256,6.256,0,0,1,8755.756,311.53Zm0-2.077a4.175,4.175,0,1,0-4.166-4.17A4.162,4.162,0,0,0,8755.756,309.453Z" fill="#0e4763"/>
  </g>
</svg>
