<svg xmlns="http://www.w3.org/2000/svg" width="69.124" height="57.916" viewBox="0 0 69.124 57.916">
  <g id="Group_2082" data-name="Group 2082" transform="translate(-4534.256 -9232.515)" opacity="0.7">
    <path id="Path_2672" data-name="Path 2672" d="M4562.353,9263.723c-.116.338-.207.578-.281.83q-3.486,12.2-6.968,24.4c-.059.207-.107.419-.182.622a1.17,1.17,0,0,1-1.415.8,1.152,1.152,0,0,1-.8-1.42c.006-.021.012-.04.019-.061.418-1.524.863-3.042,1.3-4.562.069-.251.139-.5.221-.823h-.691c-4.9,0-9.8.011-14.694-.016-.553,0-.737.2-.866.685-.443,1.667-.923,3.324-1.4,4.983-.283.99-.835,1.419-1.535,1.215-.729-.213-.972-.842-.692-1.829q6.58-23.086,13.165-46.173.759-2.662,1.521-5.322a5.806,5.806,0,0,1,7.222-4.369,7.043,7.043,0,0,1,3.756,1.667,5.7,5.7,0,0,1,1.641,5.659,1.554,1.554,0,0,1-.112.415c-1.225,2.163-.256,4.039.784,5.9a.772.772,0,0,0,.553.306c1.87.112,1.875.1,2.387-1.682q1.117-3.905,2.224-7.811c1.018-3.58,3.8-5.205,7.449-4.394a6.8,6.8,0,0,1,3.537,1.634,5.645,5.645,0,0,1,1.607,5.668c-.207.837-.5,1.654-.679,2.5a1.813,1.813,0,0,0,.087,1.085q9.262,19.676,18.556,39.34a.84.84,0,0,0,.928.562c.983-.038,1.968-.017,2.952-.011,1,.007,1.419.409,1.425,1.382q.015,2.09,0,4.178c-.008.932-.432,1.351-1.382,1.352l-26.076.009a1.49,1.49,0,0,1-1.442-1.065q-5.851-12.422-11.726-24.835C4562.635,9264.285,4562.517,9264.053,4562.353,9263.723Zm1.225-14.786c.76,1.615,1.481,3.148,2.205,4.68q6.9,14.618,13.806,29.237c.2.423.375.7.933.664.956-.061,1.919-.019,2.879-.016,1.165,0,1.529.376,1.532,1.563v3h7.369c-.219-.474-.406-.884-.6-1.29q-8.778-18.583-17.545-37.17a.968.968,0,0,0-1.067-.683c-1.175.051-2.35.015-3.525.015Zm-14.905-2.3h.776c1.921,0,3.846.069,5.761-.026a2.153,2.153,0,0,1,2.357,1.481q9.249,19.724,18.575,39.411a.89.89,0,0,0,.958.622c1.632-.037,3.266-.012,4.9-.015.207,0,.409-.027.587-.04V9285.8c-.973,0-1.909-.052-2.834.015a1.729,1.729,0,0,1-1.882-1.186q-5.519-11.785-11.1-23.542-3.823-8.092-7.66-16.18c-.117-.246-.441-.558-.672-.561-2.9-.037-5.81-.029-8.715-.013a.609.609,0,0,0-.476.287c-.22.633-.376,1.284-.576,2.008Zm52.364,39.173c-1.011,0-1.971-.045-2.923.014a1.646,1.646,0,0,1-1.777-1.123c-1.811-3.914-3.663-7.812-5.508-11.709q-6.618-14.007-13.225-28.019a.932.932,0,0,0-1.012-.655c-1.223.047-2.448.015-3.673.015h-5.059l-.657,2.3c2.3,0,4.526.042,6.752-.018a1.817,1.817,0,0,1,1.928,1.23c2.9,6.21,5.839,12.4,8.767,18.594q4.977,10.529,9.957,21.054c.115.242.382.582.584.587,1.935.045,3.874.027,5.846.027Zm-40.865-23.009h-16.1l-1.291,4.575h8.646c2.281,0,4.559.011,6.838-.017.24,0,.633-.187.691-.371.436-1.366.806-2.749,1.213-4.187Zm-1.991,6.961a.692.692,0,0,0-.138-.052q-7.767-.016-15.534-.021c-.153,0-.408.12-.442.236-.428,1.429-.823,2.867-1.244,4.362,5.283,0,10.461,0,15.638-.012.17,0,.452-.133.49-.261.434-1.413.828-2.839,1.229-4.253Zm-19.314,11.414h16.061l1.292-4.559h-16.061Zm7.18-25.322-1.293,4.573h16.054c-.663-1.405-1.309-2.73-1.911-4.078a.743.743,0,0,0-.807-.5c-2.253.02-4.506.009-6.76.009ZM4558.716,9242c.257-.929.538-1.82.747-2.728a3.4,3.4,0,0,0-2.323-4.016c-.5-.154-1.023-.25-1.537-.361a3.456,3.456,0,0,0-4.231,2.447l-.011.045c-.415,1.352-.806,2.709-1.2,4.065a5.046,5.046,0,0,0-.1.547Zm9.8-.01h8.646c.252-.915.533-1.8.743-2.712a3.4,3.4,0,0,0-2.309-4.017,13.6,13.6,0,0,0-1.817-.421,3.349,3.349,0,0,0-3.768,2.1c-.568,1.645-.995,3.34-1.495,5.053Zm-21.8,11.512h10.825c-.7-1.489-1.363-2.918-2.054-4.334a.6.6,0,0,0-.461-.226q-3.313-.022-6.625,0a.6.6,0,0,0-.466.3c-.422,1.395-.808,2.8-1.219,4.259Z"/>
  </g>
</svg>
