<svg xmlns="http://www.w3.org/2000/svg" width="63.938" height="66.876" viewBox="0 0 63.938 66.876">
  <g id="Group_2102" data-name="Group 2102" transform="translate(-14511.969 -6686.91)">
    <path id="Path_2696" data-name="Path 2696" d="M14574.466,6706.265a8.853,8.853,0,0,1,1.405,4.538c.076,1.6.01,3.213.006,4.819a1.222,1.222,0,0,1-.948.231q-15.709.009-31.421,0a1.658,1.658,0,0,1-.907-.158c-.431-.589-.2-1.261-.235-1.9a20.949,20.949,0,0,1,.291-4.973,8.55,8.55,0,0,1,.93-2.251.639.639,0,0,1,.614-.421c9.758.051,19.515.009,29.271.02A2.916,2.916,0,0,1,14574.466,6706.265Z" fill="#febe29"/>
    <path id="Path_2697" data-name="Path 2697" d="M14575.877,6741.673q.007,3.336.013,6.672a.849.849,0,0,1-.114.551,2.811,2.811,0,0,1-.711.069q-15.564-.015-31.129-.01c-.488,0-1.019.109-1.419-.319a2.053,2.053,0,0,1-.169-1.122c0-1.079-.028-2.158.016-3.237a6.7,6.7,0,0,1,.2-2.656,1.736,1.736,0,0,1,1.042-.181q15.593-.006,31.186,0A1.428,1.428,0,0,1,14575.877,6741.673Z" fill="#fdbb17"/>
    <path id="Path_2698" data-name="Path 2698" d="M14542.585,6715.621h33.292v7.628a.935.935,0,0,1-.729.223c-3.308,0-6.614.046-9.92-.023-.629-.111-1-.628-1.49-.955a4.24,4.24,0,0,0-2.478-.807c-.388-.069-.473-.358-.5-.69-.026-.43-.021-.863-.012-1.293.011-.47-.166-.734-.664-.71-.119,0-.238.007-.357.009-.806.014-.844.051-.856.845-.007.38.012.76-.016,1.14-.02.265-.057.527-.343.654a8.414,8.414,0,0,0-1.976.444,3.263,3.263,0,0,0-1,.6,1.8,1.8,0,0,1-1,.606c-3.6.088-7.2.018-10.8.037a2.312,2.312,0,0,1-1.126-.142.5.5,0,0,1-.177-.217,36.751,36.751,0,0,1-.085-4.326c-.011-.716-.02-1.436-.006-2.154A1.093,1.093,0,0,1,14542.585,6715.621Z" fill="#febd24"/>
    <path id="Path_2699" data-name="Path 2699" d="M14574.466,6706.265a1.487,1.487,0,0,1-.834.146h-28.789a1.5,1.5,0,0,1-.834-.145c-.107-.262.07-.453.16-.665a33.436,33.436,0,0,1,2.912-3.305,43.527,43.527,0,0,0,3.318-3.518.988.988,0,0,1,.825-.358c1.842.027,3.683-.049,5.52.038a.734.734,0,0,1,.565.487,2.122,2.122,0,0,0,1.157,1.106,2.334,2.334,0,0,0,1.41.051,2.187,2.187,0,0,0,1.32-1.219,1.357,1.357,0,0,1,.522-.656,15.294,15.294,0,0,0,1.875-1.274c.5-.3.717-.968,1.373-1.062l7.933,8.262A7.466,7.466,0,0,1,14574.466,6706.265Z" fill="#febe2e"/>
    <path id="Path_2700" data-name="Path 2700" d="M14575.877,6741.673h-33.3c-.441-.737-.164-1.542-.218-2.315-.039-1.118-.018-2.236-.017-3.354a1.361,1.361,0,0,1,.176-.823,1.734,1.734,0,0,1,1.174-.209q4.411-.012,8.823,0a8.029,8.029,0,0,0,1.286-.074c.342-.128.528.07.688.328a4.83,4.83,0,0,0,.783,1,3.517,3.517,0,0,0,1.369.9c.63.282,1.331.244,1.977.461.377.4.235.9.243,1.362.021,1.206.009,1.206,1.211,1.228.489.024.686-.219.674-.7-.011-.429-.015-.86.012-1.29.021-.326.089-.624.478-.7a4.339,4.339,0,0,0,2.475-.794c.531-.3.851-.921,1.525-1,3.205.009,6.409,0,9.615.007a1.342,1.342,0,0,1,1.022.226Z" fill="#fdbb1a"/>
    <path id="Path_2701" data-name="Path 2701" d="M14542.591,6748.581a1.606,1.606,0,0,0,.976.143l31.334.007c.294,0,.628-.125.875.166a5.611,5.611,0,0,1-5.6,4.858c-5,.023-10,.008-15,.008-1.794,0-3.589-.048-5.381.013a8.053,8.053,0,0,1-5.063-1.187,4.045,4.045,0,0,1-1.73-2.031c-.186-.362-.328-.743-.487-1.118C14542.425,6749.144,14542.317,6748.846,14542.591,6748.581Z" fill="#fdba13"/>
    <path id="Path_2702" data-name="Path 2702" d="M14564.942,6723.264l10.935-.014v7.2a1.45,1.45,0,0,1-1.093.224q-3.875.012-7.748,0c-.5,0-1,.01-1.5.058a.878.878,0,0,1-.763-.415,4.337,4.337,0,0,0-1.039-.93,4.745,4.745,0,0,0-2.547-.812c-.368-.121-.424-.435-.432-.752-.028-1.125-.023-2.254,0-3.381.01-.563.271-.85.855-.787a2.691,2.691,0,0,1,2.061,1.758,1.619,1.619,0,0,0,1.825.427.519.519,0,0,0,.121-.525,4.146,4.146,0,0,0-.475-1.33C14565.018,6723.763,14564.818,6723.555,14564.942,6723.264Z" fill="#fdbc20"/>
    <path id="Path_2703" data-name="Path 2703" d="M14512.14,6725.117a4.807,4.807,0,0,1,1.251-2.6c.587-.655,1.247-1.244,1.874-1.862.233-.159.409-.018.573.12,2.77,2.3,5.634,4.478,8.42,6.755a.594.594,0,0,1,.133.167c.1.315-.123.531-.234.78-.738,1.238-1.385,2.53-2.208,3.717a.458.458,0,0,1-.191.074,4.522,4.522,0,0,1-1.783-1.157q-3.4-2.7-6.779-5.429A1.861,1.861,0,0,0,14512.14,6725.117Z" fill="#fdbb17"/>
    <path id="Path_2704" data-name="Path 2704" d="M14542.718,6749.445a7.544,7.544,0,0,0,2.019,3.144,5.485,5.485,0,0,1-2.618-.875q-9.183-5.3-18.359-10.615a6.153,6.153,0,0,1-3.028-3.733c-.1-.225-.354-.409-.187-.7.5-.22.877.114,1.248.337,2.752,1.65,5.524,3.27,8.282,4.907q5.9,3.5,11.806,6.988C14542.169,6749.064,14542.43,6749.273,14542.718,6749.445Z" fill="#f87e28"/>
    <path id="Path_2705" data-name="Path 2705" d="M14524.336,6727.714a41.286,41.286,0,0,1-3.427-2.654c-1.777-1.384-3.508-2.826-5.265-4.238a1.583,1.583,0,0,0-.381-.168q1.8-1.942,3.733-3.743c.395-.081.606.235.853.429,2.188,1.727,4.373,3.459,6.537,5.217a5.834,5.834,0,0,1,.685.512c.09.273-.117.456-.2.677-.648,1.14-1.279,2.291-1.969,3.407C14524.765,6727.376,14524.706,6727.714,14524.336,6727.714Z" fill="#fdbb1a"/>
    <path id="Path_2706" data-name="Path 2706" d="M14565.237,6730.6a4.006,4.006,0,0,1,1.266-.159c3.125.008,6.249,0,9.374,0v5.47h-10.024a1.245,1.245,0,0,1-.828-.142c-.141-.2,0-.37.082-.53a4.6,4.6,0,0,0,.167-4.091A.578.578,0,0,1,14565.237,6730.6Z" fill="#fdbc1d"/>
    <path id="Path_2707" data-name="Path 2707" d="M14556.945,6698.637c-1.72,0-3.437,0-5.156,0-.25,0-.531.1-.74-.144-.072-.381.234-.557.445-.757,1.21-1.142,2.215-2.477,3.5-3.644-2.251.665-4.43,1.269-6.6,1.9a1.713,1.713,0,0,1-.637.074c-.439-.04-.687-.387-.989-.639a24.647,24.647,0,0,1-2.223-1.842,4.524,4.524,0,0,1,1.608-.271c2.557-.051,5.11-.154,7.666-.132a20.811,20.811,0,0,0,4.576-.6,5.139,5.139,0,0,1,4.886,1.592c-.027.6-.583.8-.893,1.184a5.555,5.555,0,0,1-.806.673c-.583.633-1.2.348-1.806.059a1.58,1.58,0,0,0-1.068,0,2.159,2.159,0,0,0-1.649,2.016C14557.03,6698.279,14557.105,6698.482,14556.945,6698.637Z" fill="#febf32"/>
    <path id="Path_2708" data-name="Path 2708" d="M14527.044,6723.106a6.752,6.752,0,0,1-2.07-1.471c-2.017-1.541-3.985-3.146-5.973-4.726,1.243-1.342,2.545-2.627,3.871-3.887.269-.166.45.017.636.165q2.886,2.3,5.764,4.622c.216.175.485.329.489.669a2.592,2.592,0,0,1-.295.786c-.614,1.107-1.284,2.182-1.892,3.294C14527.453,6722.782,14527.336,6723.036,14527.044,6723.106Z" fill="#fdbc1d"/>
    <path id="Path_2709" data-name="Path 2709" d="M14529.647,6718.5a8.749,8.749,0,0,0-2.058-1.822c-1.432-1.218-2.919-2.367-4.389-3.539a1.149,1.149,0,0,0-.329-.121c1.5-1.572,3.025-3.114,4.6-4.6.392-.086.609.21.861.406,1.6,1.237,3.111,2.579,4.766,3.742a.546.546,0,0,1-.062.5c-.634,1.054-1.228,2.134-1.841,3.2-.375.584-.683,1.21-1.061,1.79C14530.021,6718.248,14529.968,6718.536,14529.647,6718.5Z" fill="#fdbc21"/>
    <path id="Path_2710" data-name="Path 2710" d="M14520.607,6736.639l.123.725c-2.437-2.434-4.919-4.824-7.288-7.32a5.163,5.163,0,0,1-1.3-4.926c.186-.281.388-.188.592-.025,1.929,1.545,3.849,3.1,5.787,4.633a28.783,28.783,0,0,0,3.235,2.451c.164.247.036.466-.088.665a5.454,5.454,0,0,0-.88,3.2A.717.717,0,0,1,14520.607,6736.639Z" fill="#fdba14"/>
    <path id="Path_2711" data-name="Path 2711" d="M14533.086,6712.6c-.84-.124-1.292-.839-1.908-1.292-1.26-.928-2.471-1.922-3.7-2.89q2.3-2.445,4.741-4.749a.436.436,0,0,1,.472.079c1.251,1.031,2.592,1.954,3.758,3.089,0,.635-.5,1.038-.724,1.568-.137.321-.361.6-.507.921q-.829,1.356-1.6,2.749C14533.492,6712.3,14533.382,6712.545,14533.086,6712.6Z" fill="#febd25"/>
    <path id="Path_2712" data-name="Path 2712" d="M14536.393,6706.842c-1.239-.793-2.3-1.815-3.469-2.7a3.661,3.661,0,0,0-.707-.471q1.8-1.939,3.733-3.741c.338-.2.535.083.75.241.823.609,1.58,1.3,2.427,1.881.1.177.022.34-.037.5-.553.979-1.1,1.961-1.708,2.909C14536.986,6705.875,14536.917,6706.522,14536.393,6706.842Z" fill="#febd28"/>
    <path id="Path_2713" data-name="Path 2713" d="M14539.124,6702.09c-.88-.2-1.357-.98-2.064-1.432-.373-.238-.65-.623-1.109-.734q2.083-2.11,4.171-4.219a.846.846,0,0,1,.249-.118.429.429,0,0,1,.409.037,11.509,11.509,0,0,1,2.407,1.976c-.036.431-.454.5-.7.735-.358.343-.794.6-1.125.972a12.98,12.98,0,0,0-1.73,2.281C14539.514,6701.793,14539.487,6702.124,14539.124,6702.09Z" fill="#febe2c"/>
    <path id="Path_2714" data-name="Path 2714" d="M14543.157,6697.633a26.079,26.079,0,0,0-2.787-2.042,8.391,8.391,0,0,1,4.177-2.008,15.686,15.686,0,0,1,2.628,1.97c.186.14.317.358.585.358-.205.511-.726.436-1.115.608a10.543,10.543,0,0,0-2.839,1.031C14543.606,6697.659,14543.4,6697.815,14543.157,6697.633Z" fill="#febe2e"/>
    <path id="Path_2715" data-name="Path 2715" d="M14567.143,6692.606a9.342,9.342,0,0,1-1.578,2.452,1.879,1.879,0,0,1-.358-1.34c-.032-.71.038-1.424-.062-2.132a22.565,22.565,0,0,0,1.582-4.6c.534-.062.46.371.474.652.049,1.02.026,2.042.017,3.063A8.153,8.153,0,0,1,14567.143,6692.606Z" fill="#012f4c"/>
    <path id="Path_2716" data-name="Path 2716" d="M14567.143,6692.606a16.488,16.488,0,0,1-.144-3.483c-.024-.523,0-1.049-.007-1.573,0-.223.085-.5-.265-.57a5.552,5.552,0,0,1,2.112.145c.256.028.139.262.11.4A16.163,16.163,0,0,1,14567.143,6692.606Z" fill="#00314f"/>
    <path id="Path_2717" data-name="Path 2717" d="M14565.146,6691.586c.3.051.267.284.268.5a15.25,15.25,0,0,0,.15,2.976l-.6.832c-.467.334-.773.849-1.283,1.136a.927.927,0,0,1-.2-.732,17.2,17.2,0,0,0-.1-2.127A22.012,22.012,0,0,0,14565.146,6691.586Z" fill="#012d48"/>
    <path id="Path_2718" data-name="Path 2718" d="M14563.383,6694.167c.33.246.312.6.308.958,0,.634-.006,1.268-.008,1.9a6.245,6.245,0,0,1-1.861,1.295c-.549-.753-.316-1.6-.307-2.428a9.62,9.62,0,0,0,1.768-1.726A.577.577,0,0,1,14563.383,6694.167Z" fill="#012a44"/>
    <path id="Path_2719" data-name="Path 2719" d="M14533.086,6712.6c.725-1.074,1.219-2.29,2.013-3.322,2.377,1.4,4.741,2.827,7.129,4.21a1.778,1.778,0,0,1,.337.263q.012.936.021,1.871-.009,1.51-.02,3.018c-.371.117-.646-.12-.921-.284-2.733-1.614-5.473-3.218-8.187-4.866-.2-.121-.441-.2-.516-.466Z" fill="#e37e24"/>
    <path id="Path_2720" data-name="Path 2720" d="M14542.564,6713.752a11.357,11.357,0,0,1-2.5-1.335c-1.528-.879-3.033-1.8-4.549-2.7-.181-.108-.412-.163-.418-.437.313-.876.927-1.59,1.293-2.436a6.081,6.081,0,0,1,.869-1.437c1.883,1.078,3.739,2.2,5.605,3.308A25.368,25.368,0,0,0,14542.564,6713.752Z" fill="#df7f23"/>
    <path id="Path_2721" data-name="Path 2721" d="M14542.863,6708.713a2.58,2.58,0,0,1-1.341-.6q-1.957-1.152-3.907-2.315c-.161-.1-.358-.154-.358-.4q.858-1.443,1.719-2.886a2.681,2.681,0,0,1,.95.473c1.243.748,2.494,1.483,3.744,2.223a1.708,1.708,0,0,1,.616.475c-.093.192-.187.384-.281.576A9.645,9.645,0,0,0,14542.863,6708.713Z" fill="#dc7f23"/>
    <path id="Path_2722" data-name="Path 2722" d="M14520.607,6736.639a5.853,5.853,0,0,1,1-4.065,1.658,1.658,0,0,0,.147-.4l.131-.006c.349-.126.594.109.852.263,6.261,3.741,12.558,7.421,18.812,11.174a3.27,3.27,0,0,1,1.018.655q.013,2.158.025,4.318a1.349,1.349,0,0,0,.127.864,4.238,4.238,0,0,1-1.7-.866c-4.353-2.562-8.689-5.153-13.032-7.731q-3.195-1.9-6.4-3.78A9,9,0,0,0,14520.607,6736.639Z" fill="#f57d27"/>
    <path id="Path_2723" data-name="Path 2723" d="M14542.565,6744.263a18.468,18.468,0,0,1-3.307-1.836c-3.668-2.137-7.313-4.312-10.967-6.472l-6.407-3.785a39.336,39.336,0,0,1,2.156-3.744,13.377,13.377,0,0,1,2.754,1.508c5.064,3,10.147,5.984,15.2,9.01a2,2,0,0,1,.572.425q.009,1.152.018,2.3Z" fill="#f27e26"/>
    <path id="Path_2724" data-name="Path 2724" d="M14542.584,6723.1l12.224.008a.723.723,0,0,1-.152.606,4.529,4.529,0,0,0-.25,4.4c.105.242.318.533-.081.738a2.98,2.98,0,0,1-.99.09q-4.819,0-9.64,0a1.978,1.978,0,0,1-1.113-.169c-.4-.608-.183-1.286-.214-1.935-.036-.956-.021-1.912-.015-2.868A1.077,1.077,0,0,1,14542.584,6723.1Z" fill="#fdbc21"/>
    <path id="Path_2725" data-name="Path 2725" d="M14542.584,6723.1l-.02,3.742c-.368.223-.646-.051-.916-.2-1.912-1.081-3.79-2.221-5.682-3.339-2-1.179-3.989-2.353-5.976-3.545-.238-.143-.537-.228-.639-.54l.295-.716q.716-1.155,1.436-2.308c1.186.563,2.286,1.285,3.416,1.95,2.619,1.538,5.223,3.1,7.842,4.637a1.484,1.484,0,0,1,.224.178Z" fill="#e77e25"/>
    <path id="Path_2726" data-name="Path 2726" d="M14542.564,6722.962a5.524,5.524,0,0,1-2.075-1.068c-2.892-1.671-5.755-3.389-8.625-5.1a1.89,1.89,0,0,1-.781-.6,24.208,24.208,0,0,1,1.856-3.171q3.413,2.016,6.828,4.028c.926.542,1.864,1.059,2.8,1.586Q14542.564,6720.8,14542.564,6722.962Z" fill="#e57e24"/>
    <path id="Path_2727" data-name="Path 2727" d="M14560.1,6740.4c-1.437.128-1.416.128-1.447-1.263-.013-.5.179-1.034-.134-1.513a4.146,4.146,0,0,1-.164-2.263,25.761,25.761,0,0,0,0-4.625,10.06,10.06,0,0,1,0-2.274,16.118,16.118,0,0,0-.1-4.648,3.632,3.632,0,0,1,.125-2.262c.319-.008.289-.235.288-.451,0-.571.039-1.146-.012-1.712-.049-.544.139-.738.669-.658.259.028.519.042.778.044a1.383,1.383,0,0,1,.233.956q.006,9.858,0,19.713A1.383,1.383,0,0,1,14560.1,6740.4Z" fill="#002a43"/>
    <path id="Path_2728" data-name="Path 2728" d="M14560.1,6740.4V6718.77c.668-.183.95.036.872.759-.055.518.018,1.049-.02,1.571-.026.369.144.453.446.45.577-.018.813.279.787.839a9.038,9.038,0,0,1-.021.934c-.032.22-.011.5-.358.511-.655-.128-.912.074-.861.8.073,1.095.028,2.2.012,3.3,0,.336.051.557.444.524a.589.589,0,0,1,.634.539.533.533,0,0,1,0,.131,3.7,3.7,0,0,1-.138,1.6,1.09,1.09,0,0,0-.729,1.27,15.762,15.762,0,0,1,0,2.06c-.035.6.084,1.069.716,1.275a3.648,3.648,0,0,1,.133,1.748c-.01.4-.284.5-.617.535-.3,0-.471.084-.444.451.038.522-.035,1.053.021,1.57C14561.05,6740.36,14560.768,6740.578,14560.1,6740.4Z" fill="#002c46"/>
    <path id="Path_2729" data-name="Path 2729" d="M14554.489,6728.721a4.813,4.813,0,0,1,.316-5.608l.7-.581c.439.011.47.354.48.654.034,1.064.012,2.13.1,3.192a12.21,12.21,0,0,0-.087,2.32c-.024.371.04.768-.3,1.044C14555.067,6729.744,14554.752,6729.479,14554.489,6728.721Z" fill="#002339"/>
    <path id="Path_2730" data-name="Path 2730" d="M14564.942,6723.264a5.456,5.456,0,0,1,.92,2.377c.029.363-.052.528-.452.494a5.526,5.526,0,0,0-1.144,0c-.558.069-.792-.141-.73-.695a12.79,12.79,0,0,1-.043-2.506c.007-.233-.021-.563.379-.569Z" fill="#01314f"/>
    <path id="Path_2731" data-name="Path 2731" d="M14563.871,6722.368c-.3.24-.157.576-.176.87a7.694,7.694,0,0,1-.16,2.2,2.863,2.863,0,0,0-1.731-1.606,4.023,4.023,0,0,0,.14-1.934c.009-.326-.409-.153-.545-.352A3.781,3.781,0,0,1,14563.871,6722.368Z" fill="#012f4b"/>
    <path id="Path_2732" data-name="Path 2732" d="M14558.376,6721.546v2.256a6.118,6.118,0,0,1-1.867.746,4.771,4.771,0,0,1-.143-2.554A3.67,3.67,0,0,1,14558.376,6721.546Z" fill="#01273f"/>
    <path id="Path_2733" data-name="Path 2733" d="M14556.365,6721.994c.3.829,0,1.716.24,2.55-.056.691-.385,1.315-.484,2-.13.065-.212.051-.192-.121a20.721,20.721,0,0,1-.139-3.356.515.515,0,0,0-.284-.531A2.214,2.214,0,0,1,14556.365,6721.994Z" fill="#02263c"/>
    <path id="Path_2734" data-name="Path 2734" d="M14543.157,6697.633a13.629,13.629,0,0,1,3.438-1.289,3.35,3.35,0,0,0,1.27,1c.851.557,1.8.944,2.607,1.579a30.07,30.07,0,0,1-3.292,3.459,1.152,1.152,0,0,1-1.278-.057c-1.382-.835-2.789-1.629-4.165-2.473-.234-.143-.526-.269-.457-.64A10.969,10.969,0,0,1,14543.157,6697.633Z" fill="#d67f22"/>
    <path id="Path_2735" data-name="Path 2735" d="M14541.282,6699.215c.468.644,1.236.853,1.857,1.273.785.53,1.635.962,2.441,1.46a2.368,2.368,0,0,0,1.6.437c-.942,1.119-2.023,2.119-2.893,3.305a37.372,37.372,0,0,1-3.776-2.156,5.505,5.505,0,0,1-1.535-1.016c.049-.142.1-.284.146-.426a20.447,20.447,0,0,1,1.6-2.341A2.032,2.032,0,0,1,14541.282,6699.215Z" fill="#da7f22"/>
    <path id="Path_2736" data-name="Path 2736" d="M14550.474,6698.926a23.242,23.242,0,0,1-3.691-2.057c-.175-.1-.35-.27-.187-.525a4.678,4.678,0,0,0,1.165-.434c1.616-.295,3.157-.87,4.74-1.292.96-.255,1.911-.547,3.014-.864l-4.465,4.736Z" fill="#d37f21"/>
    <path id="Path_2737" data-name="Path 2737" d="M14558.66,6695.922a1.5,1.5,0,0,1,1.156,0,.641.641,0,0,1,.341.586c.041,1.09.049,2.182,0,3.273a.86.86,0,0,1-.191.454,1.774,1.774,0,0,1-1.585-.032,26.538,26.538,0,0,1-.054-3.7A.621.621,0,0,1,14558.66,6695.922Z" fill="#00253c"/>
    <path id="Path_2738" data-name="Path 2738" d="M14559.962,6700.239l-.006-3.486a1.383,1.383,0,0,0-.14-.826c.067.008.157-.009.2.029a1.044,1.044,0,0,0,1.5-.063c.272.223.174.535.153.8a11.928,11.928,0,0,0,.153,1.626,1.277,1.277,0,0,0-.488.673A1.932,1.932,0,0,1,14559.962,6700.239Z" fill="#00273f"/>
    <path id="Path_2739" data-name="Path 2739" d="M14558.66,6695.922a5.072,5.072,0,0,0-.141,1.822,9.1,9.1,0,0,1-.142,2.463c-.8-.226-1.125-.89-1.431-1.57A2.322,2.322,0,0,1,14558.66,6695.922Z" fill="#012439"/>
    <path id="Path_2740" data-name="Path 2740" d="M14542.565,6739.369a18.408,18.408,0,0,1-3.047-1.711c-3.4-1.981-6.795-3.972-10.166-6-1.773-1.069-3.618-2.023-5.312-3.228.1-.239.2-.477.295-.716q1.219-2.016,2.437-4.033a23.84,23.84,0,0,1,3.3,1.86q6.076,3.587,12.146,7.19c.2.122.429.221.506.479a3.248,3.248,0,0,1-.137,1.987Q14542.574,6737.282,14542.565,6739.369Z" fill="#ef7e26"/>
    <path id="Path_2741" data-name="Path 2741" d="M14542.584,6735.2l-.019-2.16a1.01,1.01,0,0,1-.214-.665c-.014-1-.018-2,0-3a.808.808,0,0,1,.228-.652h11.905c.347.327.578.772,1.019,1a10.234,10.234,0,0,0,2.064.746c.313.092.665.022.946.24.227.12.14.334.141.508q.012,1.819,0,3.637c0,.175.086.389-.141.508-.621.318-1.114-.021-1.616-.318a2.863,2.863,0,0,1-.956-1.4.535.535,0,0,0-.628-.419l-.021,0c-1.361,0-1.361,0-1.187,1.384a.5.5,0,0,1-.037.274c-.183.414-.556.307-.874.307Q14547.892,6735.2,14542.584,6735.2Z" fill="#fdbc1e"/>
    <path id="Path_2742" data-name="Path 2742" d="M14565.237,6730.6a4.869,4.869,0,0,1-.214,5.172,5.727,5.727,0,0,1-1.177,1.04c-.4-.2-.347-.578-.37-.924a10.926,10.926,0,0,0-.1-2.113,6.125,6.125,0,0,1,0-1.465,9.1,9.1,0,0,0,.105-1.968c.025-.394-.02-.815.37-1.086A4.686,4.686,0,0,1,14565.237,6730.6Z" fill="#00314f"/>
    <path id="Path_2743" data-name="Path 2743" d="M14563.534,6733.725a4.544,4.544,0,0,1,.152,1.83,2.62,2.62,0,0,0,.16,1.258,3.819,3.819,0,0,1-2.452.8.626.626,0,0,0,.437-.709c-.04-.524-.012-1.054-.014-1.581C14562.413,6734.816,14562.959,6734.255,14563.534,6733.725Z" fill="#012f4b"/>
    <path id="Path_2744" data-name="Path 2744" d="M14555.359,6733.06c.408-.074.711-.075.748.5a2.345,2.345,0,0,0,.833,1.349,5.23,5.23,0,0,1,.021,1.964c-.013.227-.112.487-.457.341a2.66,2.66,0,0,1-1.294-.854A7.835,7.835,0,0,1,14555.359,6733.06Z" fill="#01253c"/>
    <path id="Path_2745" data-name="Path 2745" d="M14556.5,6737.212c.4-.065.281-.379.289-.618a5.285,5.285,0,0,1,.147-1.688,3.2,3.2,0,0,0,1.579.457v2.255A3.453,3.453,0,0,1,14556.5,6737.212Z" fill="#01283f"/>
    <path id="Path_2746" data-name="Path 2746" d="M14555.359,6733.06a15.035,15.035,0,0,1-.149,3.3,4.809,4.809,0,0,1-1.137-1.471.341.341,0,0,0-.016-.07C14553.43,6733.057,14553.5,6732.962,14555.359,6733.06Z" fill="#012439"/>
    <path id="Path_2747" data-name="Path 2747" d="M14563.847,6729.257a6.6,6.6,0,0,0-.152,2.121,1.841,1.841,0,0,1-.159.972c-.575-.53-1.122-1.089-1.715-1.6,0-.526-.026-1.056.014-1.58a.624.624,0,0,0-.435-.709A3.814,3.814,0,0,1,14563.847,6729.257Z" fill="#012f4b"/>
    <path id="Path_2748" data-name="Path 2748" d="M14542.584,6728.719q-.009,2.158-.019,4.317a18.312,18.312,0,0,1-3.048-1.712q-5.1-2.972-10.168-6a15.171,15.171,0,0,1-2.577-1.641c-.027-.248.21-.37.271-.574l2.309-3.887c2.85,1.677,5.681,3.384,8.553,5.021a33.448,33.448,0,0,0,4.66,2.609Q14542.574,6727.784,14542.584,6728.719Z" fill="#eb7e25"/>
    <path id="Path_2749" data-name="Path 2749" d="M14556.05,6726.557a2.818,2.818,0,0,1,.557-2.013,2.734,2.734,0,0,1,1.77-.743c.188.016.291.088.29.307-.012,1.4-.012,2.8-.023,4.194,0,.052-.081.1-.124.154-.337.244-.675.106-1.013,0a3.2,3.2,0,0,1-1.39-1.182A.562.562,0,0,1,14556.05,6726.557Z" fill="#fdbc20"/>
    <path id="Path_2750" data-name="Path 2750" d="M14557.516,6728.311l1,.144v2.255a1.765,1.765,0,0,1-1.011-.1A3,3,0,0,1,14557.516,6728.311Z" fill="#022940"/>
    <path id="Path_2751" data-name="Path 2751" d="M14561.819,6730.748a2.873,2.873,0,0,1,1.715,1.6v1.376a2.874,2.874,0,0,1-1.715,1.6c-.738.17-.92-.147-.874-.856a21.238,21.238,0,0,0,0-2.864C14560.9,6730.9,14561.082,6730.578,14561.819,6730.748Z" fill="#fdbc1d"/>
    <path id="Path_2752" data-name="Path 2752" d="M14557.516,6728.311q0,1.148-.008,2.3a3.336,3.336,0,0,1-2-.882c.362-.174.255-.512.284-.8a8.956,8.956,0,0,1,.138-2.5l.12.138A2.5,2.5,0,0,0,14557.516,6728.311Z" fill="#01263d"/>
  </g>
</svg>
