<svg xmlns="http://www.w3.org/2000/svg" width="48.391" height="48.384" viewBox="0 0 48.391 48.384">
  <g id="Group_2086" data-name="Group 2086" transform="translate(-5076.143 -9529.78)" opacity="0.7">
    <path id="Path_2686" data-name="Path 2686" d="M5092.122,9578.164a11.32,11.32,0,0,1-1.644-.658,4.23,4.23,0,0,1-2.212-3.771c-.035-4.062-.017-8.126-.01-12.188a1.439,1.439,0,0,1,1.352-1.521c.052,0,.1,0,.156,0a1.456,1.456,0,0,1,1.513,1.4,1.488,1.488,0,0,1,0,.175q.006,5.856,0,11.717c0,1.282.552,1.826,1.844,1.826h26.593c1.231,0,1.8-.558,1.8-1.776v-38.788a1.545,1.545,0,0,0-1.756-1.772h-26.735a1.534,1.534,0,0,0-1.743,1.736v11.812a1.508,1.508,0,0,1-2.3,1.387,1.539,1.539,0,0,1-.723-1.488q.006-5.9,0-11.811a5.663,5.663,0,0,1,.076-.892,4.506,4.506,0,0,1,4.241-3.762c.208-.008.409-.007.614-.007h26.4a4.529,4.529,0,0,1,4.885,3.8c.006.027.037.048.056.068v40.637c-.033.1-.074.2-.1.3a4.525,4.525,0,0,1-3.064,3.361c-.233.081-.474.141-.71.211Z"/>
    <path id="Path_2687" data-name="Path 2687" d="M5104.122,9555.483h-26.3a1.5,1.5,0,0,1-1.583-2.021,1.384,1.384,0,0,1,1.249-.994,4.764,4.764,0,0,1,.566-.009h26.16c-.17-.185-.277-.31-.392-.426-1.49-1.493-2.99-2.979-4.472-4.48a1.52,1.52,0,1,1,1.963-2.321,1.413,1.413,0,0,1,.214.222q1.839,1.835,3.675,3.674l3.639,3.645a1.525,1.525,0,0,1,.256,2.141,1.55,1.55,0,0,1-.252.254q-3.686,3.694-7.382,7.383a1.416,1.416,0,0,1-1.718.37,1.482,1.482,0,0,1-.9-1.562,2.151,2.151,0,0,1,.553-1c1.451-1.489,2.931-2.948,4.4-4.415.121-.121.261-.224.392-.333Z"/>
  </g>
</svg>
