<svg xmlns="http://www.w3.org/2000/svg" width="59.269" height="59.256" viewBox="0 0 59.269 59.256">
  <g id="Group_1988" data-name="Group 1988" transform="translate(-1130.415 -10666.54)">
    <path id="Path_2517" data-name="Path 2517" d="M1130.415,10694.434c.148-1.046.266-2.1.448-3.139a30,30,0,0,1,6.719-14.26c.136-.163.273-.325.405-.491.019-.024.013-.067.029-.169-.268,0-.531.015-.79,0a1.728,1.728,0,0,1-1.641-1.757,1.691,1.691,0,0,1,1.636-1.7q2.546-.045,5.092,0a1.691,1.691,0,0,1,1.639,1.742v.015q.023,2.4,0,4.8a1.735,1.735,0,0,1-3.467.133c0-.034,0-.068,0-.1-.005-.115,0-.228,0-.514-.278.327-.475.542-.654.77a25.9,25.9,0,0,0,4.8,37.468,24.785,24.785,0,0,0,12.717,4.946,25.823,25.823,0,0,0,19.31-5.8,25.551,25.551,0,0,0,9.116-14.5c.183-.787.3-1.59.429-2.388a1.745,1.745,0,1,1,3.474.324,1.906,1.906,0,0,1-.033.209,30.043,30.043,0,0,1-26.173,25.563,29.7,29.7,0,0,1-32.281-22.782c-.319-1.384-.449-2.812-.668-4.219-.029-.188-.07-.376-.1-.562Z" fill="#febb12"/>
    <path id="Path_2518" data-name="Path 2518" d="M1157.035,10666.541c.022.029.037.071.067.086a1.786,1.786,0,0,1,1.19,1.9,1.816,1.816,0,0,1-1.736,1.5,26.7,26.7,0,0,0-6.393,1.93,1.79,1.79,0,0,1-2.134-.306,1.715,1.715,0,0,1,.612-2.812,29.492,29.492,0,0,1,7.153-2.2.74.74,0,0,0,.2-.1Z" fill="#febb12"/>
    <path id="Path_2519" data-name="Path 2519" d="M1164.093,10666.541c1.226.306,2.469.561,3.674.935,1.231.382,2.431.856,3.625,1.339a1.729,1.729,0,1,1-1.137,3.267c-.058-.021-.113-.043-.168-.068a28.217,28.217,0,0,0-6.9-2.044,1.683,1.683,0,0,1-1.39-1.445,1.732,1.732,0,0,1,.924-1.778c.113-.064.221-.137.331-.205Z" fill="#febb12"/>
    <path id="Path_2520" data-name="Path 2520" d="M1180.992,10696.149a20.948,20.948,0,1,1-20.982-20.928A20.948,20.948,0,0,1,1180.992,10696.149Zm-29.142,5.229c.446-.456.749-.824,1.107-1.125,1.018-.854,2.094-1.641,3.08-2.531a6.488,6.488,0,0,0,2.261-5.29,5.206,5.206,0,0,0-10.4.186,1.735,1.735,0,0,0,3.466.167,1.773,1.773,0,0,1,1.939-1.813,1.836,1.836,0,0,1,1.488,2.325,4.127,4.127,0,0,1-1.687,2.406c-1,.82-2.046,1.58-3,2.446a6.417,6.417,0,0,0-2.207,4.909,1.7,1.7,0,0,0,1.619,1.78l.054,0q3.526.038,7.055,0a1.718,1.718,0,0,0,1.68-1.6,1.742,1.742,0,0,0-1.377-1.816,3.318,3.318,0,0,0-.689-.042c-1.4,0-2.8,0-4.386,0Zm16.875-3.473v.689c0,1.484-.006,2.969,0,4.452a1.737,1.737,0,1,0,3.467-.091q.009-5.87,0-11.738c0-.674.017-1.35-.007-2.023a1.668,1.668,0,0,0-1.083-1.569,1.487,1.487,0,0,0-1.8.353,2.468,2.468,0,0,0-.555,1.388c-.065,1.668-.025,3.342-.025,5.033h-3.473c0-1.668,0-3.3,0-4.937a1.748,1.748,0,1,0-3.47-.017q0,3.234,0,6.476a1.776,1.776,0,0,0,2,1.985c1.619,0,3.237,0,4.942,0Z" fill="#febb12"/>
    <path id="Path_2521" data-name="Path 2521" d="M1189.67,10692.635a1.777,1.777,0,0,1-1.488,1.783,1.724,1.724,0,0,1-1.915-1.308c-.253-1.026-.393-2.085-.711-3.091-.426-1.354-.976-2.671-1.474-4a1.742,1.742,0,0,1,.406-2.01,1.611,1.611,0,0,1,1.924-.259,1.946,1.946,0,0,1,.792.8,30.211,30.211,0,0,1,2.448,7.855C1189.664,10692.494,1189.667,10692.59,1189.67,10692.635Z" fill="#febb12"/>
    <path id="Path_2522" data-name="Path 2522" d="M1183.994,10679.227a1.948,1.948,0,0,1-1.2,1.653,1.763,1.763,0,0,1-2.016-.58c-1.153-1.264-2.311-2.522-3.5-3.752a18.335,18.335,0,0,0-1.461-1.22,1.735,1.735,0,1,1,2.041-2.807,1.329,1.329,0,0,1,.118.093,28.563,28.563,0,0,1,5.489,5.5A5.98,5.98,0,0,1,1183.994,10679.227Z" fill="#febb12"/>
    <path id="Path_2523" data-name="Path 2523" d="M1151.85,10701.376h4.387a3.331,3.331,0,0,1,.69.042,1.742,1.742,0,0,1,1.376,1.816,1.717,1.717,0,0,1-1.679,1.6q-3.528.032-7.056,0a1.7,1.7,0,0,1-1.674-1.728l0-.055a6.418,6.418,0,0,1,2.206-4.91c.954-.865,2-1.627,3-2.445a4.135,4.135,0,0,0,1.687-2.406,1.837,1.837,0,0,0-1.488-2.325,1.772,1.772,0,0,0-1.938,1.813,1.736,1.736,0,0,1-3.467-.168,5.206,5.206,0,0,1,10.405-.185,6.492,6.492,0,0,1-2.262,5.29c-.986.89-2.062,1.676-3.08,2.531C1152.6,10700.555,1152.3,10700.92,1151.85,10701.376Z" fill="#fff"/>
    <path id="Path_2524" data-name="Path 2524" d="M1168.724,10697.905h-4.941a1.776,1.776,0,0,1-2-1.984q0-3.24,0-6.477a1.748,1.748,0,1,1,3.47.017c0,1.635,0,3.27,0,4.938h3.473c0-1.692-.041-3.365.025-5.034a2.465,2.465,0,0,1,.555-1.387,1.486,1.486,0,0,1,1.8-.354,1.669,1.669,0,0,1,1.083,1.57c.024.673.006,1.349.006,2.022v11.738a1.737,1.737,0,1,1-3.467.091c-.008-1.483,0-2.968,0-4.452Z" fill="#fff"/>
  </g>
</svg>
