<svg xmlns="http://www.w3.org/2000/svg" width="57.208" height="49.308" viewBox="0 0 57.208 49.308">
  <g id="Group_43472" data-name="Group 43472" transform="translate(-4486.554 -2589.916)">
    <path id="Path_47001" data-name="Path 47001" d="M4486.554,2605.129c.294-.347.593-.688,1.122-.49s.572.623.567,1.1c-.009,1.08,0,2.16-.005,3.24a.624.624,0,0,0,.712.719l20.054,0a1.6,1.6,0,0,0,.221-.045,4.041,4.041,0,0,1,1.406-3.618,3.614,3.614,0,0,1,5.154.649,4.7,4.7,0,0,1,.8,3.018h24.483c.9,0,1-.1,1-.983v-16.143c0-.825-.118-.945-.923-.947-.745,0-1.49.008-2.235-.005a.846.846,0,1,1,0-1.677c.894-.014,1.788-.024,2.681,0a2.157,2.157,0,0,1,2.155,2.19q.023,8.518,0,17.037a2.176,2.176,0,0,1-2.313,2.207c-2.42.013-4.841,0-7.262,0h-17.569v7.516c.223,0,.439,0,.655,0,1.6.021,3.21-.057,4.8.085a6.376,6.376,0,0,1,5.733,6.066c.063,1.374.042,2.755,0,4.131a5.829,5.829,0,0,1-1.548,3.8,2.443,2.443,0,0,0-.69,1.868c.035.65.022,1.3-.007,1.954a2.456,2.456,0,0,1-2.4,2.4q-5.641.042-11.283,0a2.462,2.462,0,0,1-2.415-2.387c-.03-.613-.025-1.229-.016-1.843a2,2,0,0,0-.656-1.513c-.927-.963-1.766-2.013-2.6-3.059-.986-1.235-2-2.459-2.876-3.769a3.869,3.869,0,0,1-.413-4.121,3.813,3.813,0,0,1,5.169-1.474c.146.081.282.184.432.256.423.205.688.057.738-.4a1.608,1.608,0,0,0,0-.168q0-4.524,0-9.049c0-.073-.011-.145-.024-.295h-.65c-6.405,0-12.811-.019-19.216.014a2.533,2.533,0,0,1-2.789-1.8Zm24.367,9.828v1.564c0,1.451.02,2.9-.006,4.355a2.112,2.112,0,0,1-3.257,1.882,5.3,5.3,0,0,0-.64-.336,2.059,2.059,0,0,0-2.316.474,1.78,1.78,0,0,0-.3,2.164,6.112,6.112,0,0,0,.733,1.308,50.539,50.539,0,0,0,4.26,5.231,5.522,5.522,0,0,1,1.745,4.795c-.069.84.283,1.138,1.131,1.139q3.406.006,6.812,0c1.229,0,2.457.005,3.686,0,.808,0,1.1-.3,1.106-1.12a9.979,9.979,0,0,0,0-1,4.856,4.856,0,0,1,1.277-3.837,4.189,4.189,0,0,0,.9-2.223,29.119,29.119,0,0,0,.025-4.46,4.675,4.675,0,0,0-4.275-4.222c-1.708-.09-3.422-.059-5.134-.074-1.3-.012-1.806-.517-1.807-1.834q0-3.575,0-7.148c0-.967.029-1.937-.032-2.9a1.925,1.925,0,0,0-2.373-1.738,1.985,1.985,0,0,0-1.528,2.067C4510.915,2611.011,4510.922,2612.984,4510.921,2614.957Z" fill="#febb12"/>
    <path id="Path_47002" data-name="Path 47002" d="M4486.554,2591.61a2.72,2.72,0,0,1,2.923-1.694q22.679.044,45.356.018a5.692,5.692,0,0,1,.613.011.86.86,0,0,1,.809.845.848.848,0,0,1-.828.821c-.2.018-.409.009-.614.009H4489.29c-.972,0-1.05.077-1.05,1.044q0,4.552,0,9.1c0,.435-.061.824-.51,1.024-.542.241-.867-.1-1.179-.457Z" fill="#febb12"/>
    <path id="Path_47003" data-name="Path 47003" d="M4495.854,2600.7c.462.84.919,1.666,1.371,2.5.337.617.2,1.024-.437,1.364a.865.865,0,0,1-1.336-.415c-.45-.855-.92-1.7-1.316-2.583a.8.8,0,0,0-1.151-.5c0,.844,0,1.712,0,2.581,0,.363.013.8-.409.873a3.551,3.551,0,0,1-1.33-.1c-.117-.027-.228-.37-.229-.568-.015-2.569-.013-5.138-.008-7.707,0-.593.17-.773.768-.777,1-.006,2.011-.01,3.014.042a2.406,2.406,0,0,1,2.466,1.8c.343,1.417-.118,2.894-1.212,3.345A.979.979,0,0,0,4495.854,2600.7Zm-2.84-1.281a14.576,14.576,0,0,0,1.567-.012c.528-.058.771-.428.8-1.04.029-.7-.183-1.117-.724-1.207a13.844,13.844,0,0,0-1.64-.086Z" fill="#febb12"/>
    <path id="Path_47004" data-name="Path 47004" d="M4523.766,2600.69c.484.877.947,1.705,1.4,2.538.313.576.169.984-.451,1.32a.855.855,0,0,1-1.312-.353c-.464-.869-.942-1.733-1.345-2.631a.819.819,0,0,0-1.165-.51c0,.816,0,1.664,0,2.512a1,1,0,0,1-1.57.951.831.831,0,0,1-.382-.6c-.025-2.625-.016-5.25-.016-7.875a.616.616,0,0,1,.7-.682c1.061.006,2.123-.01,3.181.05a2.361,2.361,0,0,1,2.378,1.83,2.793,2.793,0,0,1-1.21,3.3A1.234,1.234,0,0,0,4523.766,2600.69Zm-2.842-1.275a14.62,14.62,0,0,0,1.569-.012c.542-.06.795-.455.809-1.095s-.207-1.068-.732-1.153a14.351,14.351,0,0,0-1.646-.086Z" fill="#febb12"/>
    <path id="Path_47005" data-name="Path 47005" d="M4500.428,2597.084v2.142c.55,0,1.082-.006,1.614,0,.6.008.855.245.854.779s-.258.752-.87.758c-.517.005-1.035,0-1.584,0v2.147c1.027,0,2.044-.005,3.061,0a.826.826,0,0,1,.9,1.085.71.71,0,0,1-.761.661c-1.433,0-2.867.014-4.3-.011-.706-.012-.92-.265-.921-.968q0-3.685,0-7.371c0-.7.187-.929.879-.942,1.469-.028,2.94-.023,4.41-.006.481,0,.728.349.71.878s-.267.834-.758.84C4502.6,2597.092,4501.542,2597.084,4500.428,2597.084Z" fill="#febb12"/>
    <path id="Path_47006" data-name="Path 47006" d="M4514.068,2597.085v2.141c.524,0,1.054-.005,1.584,0,.614.007.869.231.879.755.01.548-.252.778-.9.784-.465,0-.931,0-1.4,0a1.078,1.078,0,0,0-.151.028v2.077c.141.011.3.035.459.035.874,0,1.749,0,2.624,0a.777.777,0,0,1,.883.893.754.754,0,0,1-.864.85c-1.359.008-2.718.011-4.076,0-.843-.007-1.059-.236-1.06-1.061q0-3.6,0-7.2c0-.814.191-1.024,1.022-1.034,1.377-.018,2.754-.012,4.131,0a.746.746,0,0,1,.847.861.757.757,0,0,1-.844.866C4516.169,2597.089,4515.132,2597.085,4514.068,2597.085Z" fill="#febb12"/>
    <path id="Path_47007" data-name="Path 47007" d="M4535.847,2597.084v2.142c.533,0,1.063-.005,1.593,0,.613.008.859.231.864.766s-.243.764-.854.771c-.517.006-1.035,0-1.627,0v2.147c1.071,0,2.1.011,3.138,0a.756.756,0,0,1,.854.751.788.788,0,0,1-.873,1c-1.357.008-2.715.012-4.073,0-.831-.008-1.043-.241-1.043-1.075q0-3.6,0-7.2c0-.788.19-1.012.973-1.023,1.413-.021,2.827-.015,4.24,0,.538.005.791.308.786.863s-.269.856-.794.861C4537.991,2597.091,4536.951,2597.084,4535.847,2597.084Z" fill="#febb12"/>
    <path id="Path_47008" data-name="Path 47008" d="M4508.417,2595.2a15.438,15.438,0,0,1,1.827.439.841.841,0,0,1,.468,1.278c-.254.537-.545.627-1.194.329a2.358,2.358,0,0,0-1.838-.175.981.981,0,0,0-.565.584.822.822,0,0,0,.377.648c.7.419,1.457.741,2.16,1.155a2.8,2.8,0,0,1,1.188,3.627,2.853,2.853,0,0,1-1.183,1.263,4.061,4.061,0,0,1-4.147-.248,1.061,1.061,0,0,1-.453-1.606.74.74,0,0,1,1.146-.237c.281.182.549.386.845.54a1.886,1.886,0,0,0,.637.182,1.245,1.245,0,0,0,1.371-.621c.139-.434-.119-.842-.783-1.2-.508-.272-1.035-.511-1.539-.789a2.655,2.655,0,0,1-1.594-3.107,2.832,2.832,0,0,1,2.81-1.967c.149-.008.3,0,.447,0Z" fill="#febb12"/>
    <path id="Path_47009" data-name="Path 47009" d="M4529.414,2602.18c.182-.646.335-1.176.48-1.708.4-1.487.8-2.977,1.212-4.463.167-.6.533-.772,1.2-.574.635.188.851.529.678,1.1q-1.094,3.628-2.2,7.253a1.2,1.2,0,0,1-1.343.924,1.238,1.238,0,0,1-1.418-.9q-1.107-3.594-2.2-7.192c-.194-.639.038-1.019.7-1.2s1.006,0,1.18.626q.764,2.766,1.517,5.535C4529.274,2601.743,4529.328,2601.9,4529.414,2602.18Z" fill="#febb12"/>
  </g>
</svg>
