<svg xmlns="http://www.w3.org/2000/svg" width="90.292" height="57.935" viewBox="0 0 90.292 57.935">
  <g id="Group_7133" data-name="Group 7133" transform="translate(-5129.43 -237.335)">
    <g id="Group_7100" data-name="Group 7100">
      <path id="Path_9062" data-name="Path 9062" d="M5210.252,266.322l-24.619,18.54,1.12.2,23.3-17.574Z" fill="#7a6353"/>
    </g>
    <g id="Group_7101" data-name="Group 7101">
      <path id="Path_9063" data-name="Path 9063" d="M5187.667,276.409l19.383,8.244h1.7l-19.483-8.286Z" fill="#7a6353"/>
    </g>
    <g id="Group_7102" data-name="Group 7102">
      <path id="Path_9064" data-name="Path 9064" d="M5192.942,279.51a20.3,20.3,0,0,0,6.749.715,21.454,21.454,0,0,0,4.576-.449c.338-.081.749-.279.717-.625a.6.6,0,0,0-.229-.38,2.6,2.6,0,0,0-.878-.467c-2.152-.76-4.514-.6-6.751-1.058a21.364,21.364,0,0,0-2.963-.589c-.7-.043-6.4-.351-6.5-.248-.142.154,2.993,2.1,3.318,2.268A13.442,13.442,0,0,0,5192.942,279.51Z" fill="#3d6184"/>
    </g>
    <g id="Group_7103" data-name="Group 7103">
      <rect id="Rectangle_10286" data-name="Rectangle 10286" width="90.292" height="42.858" transform="translate(5129.431 240.871)" fill="#e0dbce"/>
    </g>
    <g id="Group_7104" data-name="Group 7104">
      <rect id="Rectangle_10287" data-name="Rectangle 10287" width="90.292" height="3.537" transform="translate(5129.431 237.335)" fill="#7a6353"/>
    </g>
    <g id="Group_7105" data-name="Group 7105">
      <rect id="Rectangle_10288" data-name="Rectangle 10288" width="90.292" height="3.537" transform="translate(5129.431 283.729)" fill="#7a6353"/>
    </g>
    <g id="Group_7106" data-name="Group 7106">
      <rect id="Rectangle_10289" data-name="Rectangle 10289" width="81.345" height="26.63" transform="translate(5133.937 245.482)" fill="#7a6353"/>
    </g>
    <g id="Group_7107" data-name="Group 7107">
      <rect id="Rectangle_10290" data-name="Rectangle 10290" width="77.497" height="23.093" transform="translate(5135.861 247.251)" fill="#9ed4ef"/>
    </g>
    <g id="Group_7108" data-name="Group 7108">
      <path id="Path_9065" data-name="Path 9065" d="M5135.862,270.344V247.251h77.5V249.2h-75.283l-.406,21.146Z" fill="#91c4d8"/>
    </g>
    <g id="Group_7109" data-name="Group 7109">
      <rect id="Rectangle_10291" data-name="Rectangle 10291" width="1.929" height="22.059" transform="translate(5159.701 248.285)" fill="#91c4d8"/>
    </g>
    <g id="Group_7110" data-name="Group 7110">
      <rect id="Rectangle_10292" data-name="Rectangle 10292" width="1.487" height="22.059" transform="translate(5189.179 248.285)" fill="#91c4d8"/>
    </g>
    <g id="Group_7111" data-name="Group 7111">
      <rect id="Rectangle_10293" data-name="Rectangle 10293" width="1.523" height="25.179" transform="translate(5158.482 246.457)" fill="#7a6353"/>
    </g>
    <g id="Group_7112" data-name="Group 7112">
      <rect id="Rectangle_10294" data-name="Rectangle 10294" width="1.523" height="25.179" transform="translate(5187.657 246.457)" fill="#7a6353"/>
    </g>
    <g id="Group_7113" data-name="Group 7113">
      <rect id="Rectangle_10295" data-name="Rectangle 10295" width="10.668" height="8.005" transform="translate(5129.431 287.266)" fill="#635144"/>
    </g>
    <g id="Group_7114" data-name="Group 7114">
      <rect id="Rectangle_10296" data-name="Rectangle 10296" width="10.668" height="8.005" transform="translate(5209.054 287.266)" fill="#635144"/>
    </g>
    <g id="Group_7122" data-name="Group 7122">
      <g id="Group_7115" data-name="Group 7115">
        <path id="Path_9066" data-name="Path 9066" d="M5137.4,269.754a1.277,1.277,0,0,1,.951-.434,7.816,7.816,0,0,1-4.425-3.343l1.241.11a8.9,8.9,0,0,1-3.249-3.788,3.548,3.548,0,0,1,1.209-.228,4.441,4.441,0,0,1-.947-2.682,19.355,19.355,0,0,1,4.36,1.749,2.381,2.381,0,0,1,.245-1.391q.664,1.023,1.329,2.045a.686.686,0,0,1,.921-.309.665.665,0,0,1,.1.064,1.72,1.72,0,0,1,.589,1.044,2.885,2.885,0,0,0,.435,1.135c.3-.939-.324-1.89-.736-2.785-.962-2.078-.83-4.478-.627-6.759l1.3,1.174a7.86,7.86,0,0,1,1.635-4.883,13.66,13.66,0,0,0,2.007,3.382l.327-1.132a19.631,19.631,0,0,1,2.44,7,6.715,6.715,0,0,1,2.127-3.81,20.028,20.028,0,0,1,3.62-2.564q-.091.952-.181,1.9c.088-.534.683-.8,1.2-.948a12.948,12.948,0,0,1,3.6-.468c-1.2.968-2.475,2.052-2.815,3.556a6.2,6.2,0,0,1,1.73-.416l-.985,1.878c2.508-.238,4.814,1.284,6.827,2.8a4.727,4.727,0,0,0-2.788.625,2.945,2.945,0,0,1,1.27,1.956l-1.959-.589c-.155-.047-.358-.078-.449.056a.391.391,0,0,0,.023.359q.4.991.806,1.985a3.947,3.947,0,0,0-3.209.434c1.97-.053,4.1-.058,5.7,1.105a9.077,9.077,0,0,1,2.548,3.69,4.422,4.422,0,0,0-2.374-1.1,3.094,3.094,0,0,1-.153,2.552,4.012,4.012,0,0,0-3.48-3.216,5.645,5.645,0,0,1,.027,2.457c-.338-.464-.335-1.132-.736-1.545a1.457,1.457,0,0,0-1.612-.185,5.633,5.633,0,0,0-1.374,1.039c-2.087,1.852-6.542,4.085-9.3,2.536-1.124-.632-1.417-1.8-2.316-2.61a5.14,5.14,0,0,0-2.2-.987C5139.7,270.135,5137.606,269.522,5137.4,269.754Z" fill="#69b76f"/>
      </g>
      <g id="Group_7116" data-name="Group 7116">
        <path id="Path_9067" data-name="Path 9067" d="M5153.055,256.276a29.433,29.433,0,0,0-4.967,18.825c-.054-.655-.847-1.5-.958-2.274a10.155,10.155,0,0,1,.036-2.2,25.455,25.455,0,0,1,5.888-14.349Z" fill="#8ced8e"/>
      </g>
      <g id="Group_7117" data-name="Group 7117">
        <path id="Path_9068" data-name="Path 9068" d="M5140.231,265.5l2.268.389a24.365,24.365,0,0,1-1.286-4.312,7.649,7.649,0,0,0,1.462,1.947c-.706-2.536-1.417-5.2-.815-7.765a23.049,23.049,0,0,0,2.159,5.32,1.442,1.442,0,0,1,.5-1.016,10.5,10.5,0,0,0,.361,3.391,3.863,3.863,0,0,1,1.893-2.09,13.845,13.845,0,0,0-.442,4.657,4.624,4.624,0,0,1,4.5-1.825,7.372,7.372,0,0,0-2.711,5.054,20.915,20.915,0,0,0-.156,3.242c0,.522.357,2.711-.085,3.027-1.15.823-2.085-1.609-2.1-2.367a5.906,5.906,0,0,0-1.3-4.1,12.548,12.548,0,0,0-2.054-1.984C5141.9,266.662,5140.881,265.615,5140.231,265.5Z" fill="#8ced8e"/>
      </g>
      <g id="Group_7118" data-name="Group 7118">
        <path id="Path_9069" data-name="Path 9069" d="M5148.564,273.9a24.381,24.381,0,0,1,2.906-7.754,11.245,11.245,0,0,1,6.383-5.029,8.544,8.544,0,0,0-2.2,1.506,2.141,2.141,0,0,1,.921.2.892.892,0,0,1-.436.533l-2.771,1.966a13,13,0,0,1,2.526-.094,8.94,8.94,0,0,0-4.345,2.348,4.972,4.972,0,0,1,3.124,1.279,8.991,8.991,0,0,0-3.822,1.313l1.069-.093c-.977.306-1.406,1.42-1.705,2.4l-1.594,5.2a1.623,1.623,0,0,1,.014-2.123Z" fill="#8ced8e"/>
      </g>
      <g id="Group_7121" data-name="Group 7121">
        <g id="Group_7119" data-name="Group 7119">
          <path id="Path_9070" data-name="Path 9070" d="M5153.515,271.759c-.208-.186-11.6-.186-11.806,0a.836.836,0,0,0-.207.879c.122.273.393.322.585.5a2.032,2.032,0,0,1,.428,1.085,59.833,59.833,0,0,0,1.672,7.725,6.074,6.074,0,0,0,.848,1.779h5.153a6.047,6.047,0,0,0,.847-1.779,60.115,60.115,0,0,0,1.672-7.725,2.046,2.046,0,0,1,.428-1.085c.193-.18.464-.229.585-.5A.834.834,0,0,0,5153.515,271.759Z" fill="#aa7053"/>
        </g>
        <g id="Group_7120" data-name="Group 7120">
          <path id="Path_9071" data-name="Path 9071" d="M5153.137,273.14c.193-.18.464-.229.585-.5a.836.836,0,0,0-.207-.879,12.091,12.091,0,0,0-1.853-.1.64.64,0,0,1-.07.589,1.6,1.6,0,0,1-.823.518,8.963,8.963,0,0,1-2.073.455,2.06,2.06,0,0,0-1.385.448c.513.38,1.338.042,1.823.457a1.415,1.415,0,0,1,.364.995,14.6,14.6,0,0,1-2.078,8.612h2.769a6.032,6.032,0,0,0,.848-1.778,60.317,60.317,0,0,0,1.672-7.725A2.028,2.028,0,0,1,5153.137,273.14Z" fill="#9b664e"/>
        </g>
      </g>
    </g>
    <g id="Group_7126" data-name="Group 7126">
      <g id="Group_7123" data-name="Group 7123">
        <path id="Path_9072" data-name="Path 9072" d="M5186.666,277.276a22,22,0,0,0,4.073,2.215,8.128,8.128,0,0,0,4.557.477c2.528-.549,4.419-2.593,6.116-4.546q4.344-5,8.529-10.14a37.88,37.88,0,0,1-8.561.481,32.356,32.356,0,0,1-6.634,7.731,13.525,13.525,0,0,1-2.544,1.781,14.163,14.163,0,0,1-5.294,1.28,40.468,40.468,0,0,1-7.672-.072,30.689,30.689,0,0,0,4.306.22,9.525,9.525,0,0,1,2.5-.015C5186.436,276.846,5186.283,277.028,5186.666,277.276Z" fill="#5686bf"/>
      </g>
      <g id="Group_7124" data-name="Group 7124">
        <path id="Path_9073" data-name="Path 9073" d="M5209.723,265.4l-24.619,18.54,1.12.2,23.3-17.574Z" fill="#7a6353"/>
      </g>
      <g id="Group_7125" data-name="Group 7125">
        <path id="Path_9074" data-name="Path 9074" d="M5185.778,276.668l20.742,7.061h1.7L5187.45,276.5Z" fill="#7a6353"/>
      </g>
    </g>
    <g id="Group_7127" data-name="Group 7127">
      <rect id="Rectangle_10297" data-name="Rectangle 10297" width="0.198" height="9.055" transform="translate(5200.126 239.89) rotate(-2.264)" fill="#7a6353"/>
    </g>
    <g id="Group_7128" data-name="Group 7128">
      <path id="Path_9075" data-name="Path 9075" d="M5205.187,250.888a4.431,4.431,0,1,1-4.432-4.431A4.432,4.432,0,0,1,5205.187,250.888Z" fill="#9ed4ef"/>
    </g>
    <g id="Group_7129" data-name="Group 7129">
      <path id="Path_9076" data-name="Path 9076" d="M5202.4,246.774a4.431,4.431,0,0,1-4.265,7.688,4.431,4.431,0,1,0,4.265-7.688Z" fill="#8dbfd3"/>
    </g>
    <g id="Group_7130" data-name="Group 7130" opacity="0.53">
      <path id="Path_9077" data-name="Path 9077" d="M5198.3,248.694a2.928,2.928,0,0,0-.768,2.575c.109.5.494,1.031,1,.973s.757-.653.736-1.156a5.805,5.805,0,0,1-.032-.589,1.269,1.269,0,0,1,.657-1.021c.463-.246,1.253-.2,1.506-.754a.811.811,0,0,0-.374-1.031C5200.207,247.249,5198.834,248.131,5198.3,248.694Z" fill="#fff"/>
    </g>
    <g id="Group_7131" data-name="Group 7131">
      <path id="Path_9078" data-name="Path 9078" d="M5129.43,287.266H5140.1v4.693l-10.669-3.252Z" fill="#4c3f35"/>
    </g>
    <g id="Group_7132" data-name="Group 7132">
      <path id="Path_9079" data-name="Path 9079" d="M5209.054,287.266h10.668v4.693l-10.668-3.252Z" fill="#4c3f35"/>
    </g>
  </g>
</svg>
