<svg xmlns="http://www.w3.org/2000/svg" width="55" height="55.03" viewBox="0 0 55 55.03">
  <g id="Group_43476" data-name="Group 43476" transform="translate(-5613.448 -2587.055)">
    <path id="Path_47020" data-name="Path 47020" d="M5653.625,2631.006a24.688,24.688,0,1,1-.715-38.99,23.969,23.969,0,0,1,9.7,16.629,24.416,24.416,0,0,1-5.291,18.649,4.04,4.04,0,0,1,.653.436q4.761,4.742,9.511,9.5a2.791,2.791,0,0,1,.9,2.673,2.74,2.74,0,0,1-4.488,1.511c-.277-.236-.525-.5-.783-.763q-4.548-4.544-9.093-9.094A4.312,4.312,0,0,1,5653.625,2631.006Zm3.713-19.222a19.209,19.209,0,1,0-19.232,19.2A19.162,19.162,0,0,0,5657.338,2611.784Z" fill="#febb12"/>
  </g>
</svg>
