<svg xmlns="http://www.w3.org/2000/svg" width="62.604" height="64.152" viewBox="0 0 62.604 64.152">
  <g id="Group_2195" data-name="Group 2195" transform="translate(-3631.883 -13398.074)">
    <path id="Path_2950" data-name="Path 2950" d="M3667.645,13430.088c-.8-.147-1.61-.3-2.415-.443q-5.649-.979-11.3-1.952-5.682-.981-11.363-1.959c-1.584-.274-3.164-.579-4.752-.833a.675.675,0,0,1-.643-.616q-2.592-11.626-5.191-23.251a3.771,3.771,0,0,1-.021-1.61,1.936,1.936,0,0,1,2.85-1.109c1.348.626,2.661,1.328,3.984,2.007q17.031,8.73,34.061,17.465,10.066,5.162,20.136,10.32a2.252,2.252,0,0,1,1.475,1.8,2.166,2.166,0,0,1-1.355,2.313q-6.974,3.552-13.933,7.129-21.957,11.253-43.912,22.49a4.018,4.018,0,0,1-1.8.386,1.572,1.572,0,0,1-1.56-1.584l0-.06a15.679,15.679,0,0,1,.386-2.719q2.424-10.893,4.882-21.777a.639.639,0,0,1,.593-.594c3.316-.562,6.626-1.151,9.94-1.727q5.619-.976,11.239-1.943,4.2-.727,8.4-1.458a2.934,2.934,0,0,0,.287-.086Z" fill="#febb12"/>
  </g>
</svg>
