<svg xmlns="http://www.w3.org/2000/svg" width="25" height="24.997" viewBox="0 0 25 24.997">
  <g id="Group_2127" data-name="Group 2127" transform="translate(-2087.337 -514.003)" opacity="0.5">
    <path id="Path_2818" data-name="Path 2818" d="M2087.337,534.02V518.985c.042-.214.072-.431.121-.644a5.439,5.439,0,0,1,5.364-4.33c4.678-.015,9.356-.007,14.034,0a5.262,5.262,0,0,1,3.155,1,5.378,5.378,0,0,1,2.321,4.573q.011,6.917,0,13.836c0,.13,0,.261-.011.39a5.353,5.353,0,0,1-3.6,4.85,10.667,10.667,0,0,1-1.364.34h-15.037c-.071-.017-.14-.038-.208-.049a5.356,5.356,0,0,1-4.423-3.542A11.1,11.1,0,0,1,2087.337,534.02Zm12.524-18.451c-2.333,0-4.671-.006-7.005,0a3.884,3.884,0,0,0-3.952,3.816c0,.033,0,.067,0,.1q-.016,7.017,0,14.033a3.878,3.878,0,0,0,3.84,3.916h.087q7,.016,14.01,0a3.883,3.883,0,0,0,3.93-3.834c0-.035,0-.07,0-.1q.014-6.993-.006-13.984a4.14,4.14,0,0,0-.209-1.291,3.854,3.854,0,0,0-3.735-2.651C2104.5,515.564,2102.18,515.569,2099.861,515.569Z"/>
    <path id="Path_2819" data-name="Path 2819" d="M2097.5,521.8v-1.529h9.351V521.8Z"/>
    <path id="Path_2820" data-name="Path 2820" d="M2097.5,527.267v-1.533h9.342v1.533Z"/>
    <path id="Path_2821" data-name="Path 2821" d="M2106.856,531.206v1.531H2097.5v-1.531Z"/>
    <path id="Path_2822" data-name="Path 2822" d="M2094.367,522.6c-.26,0-.521.007-.781,0a.769.769,0,0,1-.777-.761v-.013c-.011-.528-.011-1.057,0-1.583a.761.761,0,0,1,.764-.759h0q.791-.017,1.585,0a.761.761,0,0,1,.765.757v0c.011.537.012,1.074,0,1.61a.761.761,0,0,1-.753.746c-.268.011-.536,0-.805,0Z"/>
    <path id="Path_2823" data-name="Path 2823" d="M2094.366,528.064c-.26,0-.52.006-.78,0a.769.769,0,0,1-.777-.762v-.013q-.015-.78,0-1.561a.769.769,0,0,1,.755-.783h.037q.768-.012,1.536,0a.769.769,0,0,1,.791.747c0,.013,0,.027,0,.04.008.512.008,1.025,0,1.536a.775.775,0,0,1-.753.8h-.053C2094.87,528.069,2094.618,528.064,2094.366,528.064Z"/>
    <path id="Path_2824" data-name="Path 2824" d="M2095.93,531.968c0,.26.007.521,0,.781a.769.769,0,0,1-.761.778h-.012c-.529.01-1.057.011-1.586,0a.76.76,0,0,1-.759-.762v0q-.016-.792,0-1.583a.76.76,0,0,1,.755-.765h0c.537-.012,1.074-.013,1.61,0a.761.761,0,0,1,.747.75c.011.268,0,.536,0,.8Z"/>
  </g>
</svg>
