<svg xmlns="http://www.w3.org/2000/svg" width="63.932" height="63.944" viewBox="0 0 63.932 63.944">
  <g id="Group_2104" data-name="Group 2104" transform="translate(-15047.401 -6478.955)">
    <path id="Path_2763" data-name="Path 2763" d="M15047.4,6532.092v-42.036c.128-.2.033-.426.063-.637a9.936,9.936,0,0,1,2.612-6.316,11.933,11.933,0,0,1,5.794-3.825,20.234,20.234,0,0,1,2.258-.323h42.41a10.524,10.524,0,0,1,3.56.764,12.161,12.161,0,0,1,7.027,8.32,9.2,9.2,0,0,1,.2,2.353l.009,40.91a11.3,11.3,0,0,1-4.553,9.145,10.971,10.971,0,0,1-7.16,2.448q-20.392-.043-40.786,0a11.99,11.99,0,0,1-11.186-8.718C15047.464,6533.5,15047.53,6532.783,15047.4,6532.092Z" fill="#f2f5f9"/>
    <path id="Path_2764" data-name="Path 2764" d="M15047.4,6489.433h.123c-.022.212.073.448-.123.625Z" fill="#fef2f0"/>
    <path id="Path_2765" data-name="Path 2765" d="M15079.278,6502.9H15066a2.359,2.359,0,0,1-2.628-2.612c0-1-.01-1.994,0-2.993a2.3,2.3,0,0,1,2.228-2.373h.133q13.6-.01,27.189,0a2.3,2.3,0,0,1,2.376,2.225c0,.044,0,.088,0,.133.014,1.018.006,2.037,0,3.055a2.345,2.345,0,0,1-2.551,2.565Q15086.012,6502.907,15079.278,6502.9Z" fill="#febb12"/>
    <path id="Path_2766" data-name="Path 2766" d="M15087.318,6510.875a3.989,3.989,0,1,1,3.992,4,3.988,3.988,0,0,1-3.992-4Z" fill="#febb12"/>
    <path id="Path_2767" data-name="Path 2767" d="M15095.3,6522.86a3.989,3.989,0,1,1-4.007-3.989A3.99,3.99,0,0,1,15095.3,6522.86Z" fill="#febb12"/>
    <path id="Path_2768" data-name="Path 2768" d="M15074.032,6508.252l9.468,0a1.024,1.024,0,0,1,1.063.59.908.908,0,0,1-.132.99,1.265,1.265,0,0,1-1.12.419h-18.375a2.292,2.292,0,0,1-.86-.093.948.948,0,0,1-.689-1.054.9.9,0,0,1,.929-.839c.663-.022,1.328-.01,1.994-.01Z" fill="#febb12"/>
    <path id="Path_2769" data-name="Path 2769" d="M15074.026,6514.239h-9.032a5.149,5.149,0,0,1-.562-.009,1.078,1.078,0,0,1-1.06-1.082c.035-.549.457-.9,1.133-.9q9.469-.006,18.937,0c.754,0,1.212.363,1.225.948a1.1,1.1,0,0,1-1.236,1.041c-2.429.012-4.857.005-7.288.005Z" fill="#febb12"/>
    <path id="Path_2770" data-name="Path 2770" d="M15074.1,6520.227l9.405,0a1.022,1.022,0,0,1,1.063.592.909.909,0,0,1-.134.989,1.271,1.271,0,0,1-1.121.418h-18.373a2.3,2.3,0,0,1-.86-.093.949.949,0,0,1-.688-1.055.9.9,0,0,1,.931-.838c.684-.021,1.37-.01,2.055-.01Z" fill="#febb12"/>
    <path id="Path_2771" data-name="Path 2771" d="M15074.1,6524.218h9.281c.809,0,1.274.352,1.284.953s-.506,1.038-1.3,1.039q-9.346.006-18.688,0a1.752,1.752,0,0,1-.664-.117.926.926,0,0,1-.625-1.034.893.893,0,0,1,.875-.825c.5-.034,1-.014,1.494-.015Z" fill="#febb12"/>
  </g>
</svg>
