<svg xmlns="http://www.w3.org/2000/svg" width="25" height="25.004" viewBox="0 0 25 25.004">
  <g id="Group_716" data-name="Group 716" transform="translate(-2087.337 -648.688)" opacity="0.5">
    <path id="Path_701" data-name="Path 701" d="M2093.65,651.025a2.247,2.247,0,0,1,1.408.684.816.816,0,0,0,.962.247.834.834,0,0,0,.488-.843,2.429,2.429,0,0,1,2.43-2.411,16.122,16.122,0,0,1,2.156.045,2.378,2.378,0,0,1,2.074,2.392.81.81,0,0,0,.6.865.834.834,0,0,0,.823-.264,2.356,2.356,0,0,1,2.617-.538,2.814,2.814,0,0,1,.841.547c.433.386.834.81,1.239,1.227a2.433,2.433,0,0,1,.02,3.463.808.808,0,0,0-.235.941.827.827,0,0,0,.84.489,2.434,2.434,0,0,1,2.418,2.425q.014.9,0,1.8a2.443,2.443,0,0,1-2.433,2.44.794.794,0,0,0-.862.6.81.81,0,0,0,.26.822,2.434,2.434,0,0,1,.487,2.765,9.214,9.214,0,0,1-2.445,2.437,2.43,2.43,0,0,1-2.743-.485.838.838,0,0,0-.8-.276.806.806,0,0,0-.631.865,2.441,2.441,0,0,1-1.818,2.355,1.146,1.146,0,0,1-.28.055,21.333,21.333,0,0,1-2.518-.026,2.343,2.343,0,0,1-2.047-2.381.815.815,0,0,0-.479-.821.805.805,0,0,0-.945.217,2.43,2.43,0,0,1-3.5-.038q-.587-.574-1.16-1.16a2.433,2.433,0,0,1-.04-3.519.794.794,0,0,0,.218-.922.812.812,0,0,0-.814-.489,2.438,2.438,0,0,1-2.445-2.478q-.006-.846,0-1.692a2.444,2.444,0,0,1,2.459-2.493.8.8,0,0,0,.851-.647.834.834,0,0,0-.274-.773,2.369,2.369,0,0,1-.53-2.642,2.684,2.684,0,0,1,.521-.8c.4-.443.836-.857,1.267-1.273A2.587,2.587,0,0,1,2093.65,651.025Zm12.694,18.737a2.706,2.706,0,0,0,.545-.31c.409-.376.8-.776,1.184-1.172a.789.789,0,0,0,0-1.2,2.469,2.469,0,0,1,1.76-4.217.785.785,0,0,0,.83-.834c0-.547,0-1.093,0-1.64a.793.793,0,0,0-.856-.861,2.465,2.465,0,0,1-1.752-4.2.8.8,0,0,0,0-1.236q-.556-.566-1.122-1.123a.792.792,0,0,0-1.215-.019,2.469,2.469,0,0,1-4.215-1.763.783.783,0,0,0-.835-.827q-.834-.006-1.666,0a.783.783,0,0,0-.833.83,2.468,2.468,0,0,1-4.217,1.757.788.788,0,0,0-1.2.007c-.365.359-.725.723-1.086,1.085a.815.815,0,0,0-.017,1.328,2.424,2.424,0,0,1,.677,1.672,2.463,2.463,0,0,1-2.447,2.486.793.793,0,0,0-.877.89c0,.538,0,1.076,0,1.614a.781.781,0,0,0,.809.828,2.47,2.47,0,0,1,1.779,4.22.789.789,0,0,0,.007,1.2q.565.576,1.141,1.141a.793.793,0,0,0,1.216.015,2.463,2.463,0,0,1,4.211,1.76.788.788,0,0,0,.856.834c.521,0,1.041,0,1.562,0a.8.8,0,0,0,.916-.9,2.462,2.462,0,0,1,4.155-1.742A1.246,1.246,0,0,0,2106.344,669.762Z"/>
    <path id="Path_702" data-name="Path 702" d="M2094,661.205a5.832,5.832,0,1,1,5.884,5.825A5.838,5.838,0,0,1,2094,661.205Zm10,.006a4.165,4.165,0,1,0-4.14,4.154A4.172,4.172,0,0,0,2104,661.211Z"/>
  </g>
</svg>
