<svg xmlns="http://www.w3.org/2000/svg" width="60" height="40.035" viewBox="0 0 60 40.035">
  <g id="Group_40471" data-name="Group 40471" transform="translate(-9438.653 -1602.159)" opacity="0.7">
    <path id="Path_43690" data-name="Path 43690" d="M9438.653,1602.837a1.513,1.513,0,0,1,1.442-.678q28.564.01,57.128.006c1.11,0,1.429.323,1.429,1.434q0,18.578,0,37.155c0,1.111-.318,1.434-1.429,1.434q-28.564,0-57.128.006a1.514,1.514,0,0,1-1.442-.678Zm2.023,9.012h.7q3.955,0,7.909,0c1.045,0,1.358.313,1.359,1.364q0,8.964,0,17.929c0,1.05-.315,1.361-1.361,1.362q-3.983,0-7.967,0h-.64v7.647h26.931v-9a9.092,9.092,0,0,1-7.943-8.562,8.715,8.715,0,0,1,1.4-5.229,9.019,9.019,0,0,1,6.538-4.132V1604.2h-26.93Zm55.961-7.646H9469.7v9.013a9.036,9.036,0,0,1-.016,17.943c-.01.182-.027.373-.027.563,0,2.6.013,5.2-.015,7.793,0,.538.144.684.685.683q12.829-.025,25.659-.012h.619V1632.5h-8.541c-1.1,0-1.4-.3-1.405-1.378q0-8.964,0-17.929c0-1.042.316-1.347,1.375-1.348q3.984,0,7.967,0h.635Zm-48.038,26.281v-16.6h-7.91v16.6Zm48.032-16.6H9488.7v16.589h7.933Zm-29.019,1.438a6.991,6.991,0,0,0-5.96,7.08,6.881,6.881,0,0,0,5.96,6.6Zm2.078,13.731a6.931,6.931,0,0,0,0-13.727Z"/>
  </g>
</svg>
