<svg xmlns="http://www.w3.org/2000/svg" width="69.12" height="46.145" viewBox="0 0 69.12 46.145">
  <g id="Group_2075" data-name="Group 2075" transform="translate(-4797.415 -8736.725)" opacity="0.7">
    <path id="Path_2637" data-name="Path 2637" d="M4797.415,8737.517a1.744,1.744,0,0,1,1.663-.78q32.906.01,65.812.007c1.278,0,1.645.372,1.645,1.651v42.8c0,1.278-.367,1.651-1.645,1.651q-32.908,0-65.812.009a1.749,1.749,0,0,1-1.663-.782Zm2.332,10.383h9.916c1.2,0,1.566.358,1.567,1.569q0,10.327,0,20.655c0,1.209-.364,1.567-1.569,1.568q-4.589,0-9.178,0h-.736v8.809h31.024v-10.373a10.475,10.475,0,0,1-9.152-9.863,10.054,10.054,0,0,1,1.618-6.023,10.388,10.388,0,0,1,7.535-4.76v-10.394h-31.023Zm64.468-8.81h-31.032v10.384a10.408,10.408,0,0,1-.018,20.67c-.011.207-.032.431-.032.649,0,2.993.015,5.985-.016,8.977-.007.622.165.788.788.787q14.78-.029,29.559-.014h.714V8771.7h-9.84c-1.26,0-1.617-.347-1.618-1.59q-.005-10.329,0-20.654c0-1.2.366-1.552,1.584-1.553h9.91Zm-55.341,30.275v-19.119h-9.113v19.119Zm55.333-19.126h-9.138v19.109h9.138Zm-33.429,1.659a8.051,8.051,0,0,0-6.867,8.155c.2,4.379,3.766,7.424,6.867,7.6Zm2.393,15.818a7.985,7.985,0,0,0,0-15.813Z"/>
  </g>
</svg>
