<svg xmlns="http://www.w3.org/2000/svg" width="22.618" height="33.953" viewBox="0 0 22.618 33.953">
  <g id="Group_40519" data-name="Group 40519" transform="translate(-7737.318 -447.289)">
    <g id="Group_40518" data-name="Group 40518">
      <path id="Path_43803" data-name="Path 43803" d="M7753.2,447.289a11.239,11.239,0,0,1,1.081.839c1.722,1.7,3.424,3.418,5.138,5.125a1.432,1.432,0,0,1,.435,1.562,1.4,1.4,0,0,1-2.366.5c-.886-.864-1.753-1.746-2.627-2.623-.17-.17-.331-.349-.5-.525l-.086.031v.373q0,7.854,0,15.708a1.435,1.435,0,0,1-.97,1.555,1.4,1.4,0,0,1-1.837-1.223c-.012-.154-.011-.309-.011-.464q0-7.786,0-15.575v-.448c-.137.131-.22.207-.3.287-.961.961-1.918,1.926-2.884,2.881a1.41,1.41,0,0,1-2.155-1.818c.091-.111.193-.213.295-.315,1.678-1.68,3.351-3.366,5.042-5.033a11.054,11.054,0,0,1,1.08-.839Z" fill="#0e4763"/>
      <path id="Path_43804" data-name="Path 43804" d="M7742.974,476.383V475.9q0-7.836,0-15.673a1.442,1.442,0,0,1,1.042-1.57,1.4,1.4,0,0,1,1.763,1.225c.013.165.013.331.013.5q0,7.787,0,15.573v.447c.143-.14.226-.219.306-.3.961-.961,1.918-1.925,2.884-2.88a1.4,1.4,0,0,1,1.942-.154,1.349,1.349,0,0,1,.2,1.974q-2.9,2.961-5.853,5.861a1.337,1.337,0,0,1-1.792-.006c-.042-.035-.083-.072-.122-.111q-2.788-2.788-5.573-5.579a1.413,1.413,0,1,1,2.017-1.972c.965.956,1.922,1.92,2.883,2.88C7742.757,476.187,7742.838,476.257,7742.974,476.383Z" fill="#0e4763"/>
    </g>
  </g>
</svg>
