<svg xmlns="http://www.w3.org/2000/svg" width="29.999" height="30.004" viewBox="0 0 29.999 30.004">
  <g id="Group_40452" data-name="Group 40452" transform="translate(-9132.93 -295.559)">
    <path id="Path_43670" data-name="Path 43670" d="M9156.077,325.563h-16.283a1.774,1.774,0,0,0-.224-.053,7.469,7.469,0,0,1-6.62-7.277q-.042-7.646,0-15.29a7.448,7.448,0,0,1,7.364-7.366q7.613-.041,15.228,0a7.439,7.439,0,0,1,7.1,5.448c.128.458.2.932.291,1.4v16.286a1.83,1.83,0,0,0-.053.225,7.48,7.48,0,0,1-5.374,6.331C9157.036,325.395,9156.552,325.465,9156.077,325.563Zm-21.73-15q0,3.69,0,7.381a6.44,6.44,0,0,0,.082,1.107,6.081,6.081,0,0,0,6.1,5.1q7.408.006,14.817,0a6.12,6.12,0,0,0,6.179-6.208q0-7.38,0-14.761a6.362,6.362,0,0,0-.081-1.108,6.076,6.076,0,0,0-6.1-5.1q-7.408-.006-14.817,0a6.114,6.114,0,0,0-6.179,6.207Q9134.345,306.876,9134.347,310.566Z" fill="#0e4763"/>
    <path id="Path_43671" data-name="Path 43671" d="M9154.269,315.793v-4.5h1.375v6.979h-6.978V316.9h4.5l-11.552-11.553v4.485h-1.389v-6.977h6.976v1.37h-4.5Z" fill="#0e4763"/>
  </g>
</svg>
