<svg xmlns="http://www.w3.org/2000/svg" width="105.995" height="66.317" viewBox="0 0 105.995 66.317">
  <g id="Group_7451" data-name="Group 7451" transform="translate(-4493.341 -569.64)">
    <g id="Group_7450" data-name="Group 7450">
      <path id="Path_9987" data-name="Path 9987" d="M4546.287,576.106c-27.583,0-49.943,15.785-49.943,30.326s22.36,26.334,49.943,26.334,49.943-11.79,49.943-26.334S4573.87,576.106,4546.287,576.106Z" fill="#1c75bc" opacity="0.2" style="mix-blend-mode: normal;isolation: isolate"/>
      <path id="Path_9988" data-name="Path 9988" d="M4597.515,617.242l-.959.269-8.424-6.2,4.907-1.654Z" fill="#4c637f"/>
      <path id="Path_9989" data-name="Path 9989" d="M4591.071,624.1l-1.222.157-7.743-6.625,4.907-1.653Z" fill="#4c637f"/>
      <path id="Path_9990" data-name="Path 9990" d="M4580.941,629.729l-1.159.109-6.287-8.616,5.1-.89Z" fill="#4c637f"/>
      <path id="Path_9991" data-name="Path 9991" d="M4495.161,617.242l.84.362,8.425-6.2-4.908-1.653Z" fill="#4c637f"/>
      <path id="Path_9992" data-name="Path 9992" d="M4501.6,624.1l1.1.25,7.744-6.625-4.907-1.653Z" fill="#4c637f"/>
      <path id="Path_9993" data-name="Path 9993" d="M4511.738,629.729l1.04.2,6.288-8.616-5.1-.89Z" fill="#4c637f"/>
      <path id="Path_9994" data-name="Path 9994" d="M4560.8,634.978l-4.428.579-2.657-9.438h4.57Z" fill="#4c637f"/>
      <path id="Path_9995" data-name="Path 9995" d="M4531.9,634.978l4.428.579,2.657-9.438h-4.571Z" fill="#4c637f"/>
      <path id="Path_9996" data-name="Path 9996" d="M4546.287,575.944c-27.583,0-49.943,14.581-49.943,28.016s22.36,24.325,49.943,24.325,49.943-10.891,49.943-24.325S4573.87,575.944,4546.287,575.944Z" fill="#4c637f"/>
      <path id="Path_9997" data-name="Path 9997" d="M4546.287,574.722c-27.583,0-49.943,14.581-49.943,28.015s22.36,24.326,49.943,24.326,49.943-10.891,49.943-24.326S4573.87,574.722,4546.287,574.722Z" fill="#6691a3"/>
      <path id="Path_9998" data-name="Path 9998" d="M4546.287,576.016c-25.77,0-46.661,13.4-46.661,25.746s20.891,22.355,46.661,22.355,46.661-10.01,46.661-22.355S4572.057,576.016,4546.287,576.016Z" fill="#4c637f"/>
      <path id="Path_9999" data-name="Path 9999" d="M4524.42,592.721l13.359-10.01,22.561,3.391,8.142,6.235-17.924,10.069Z" fill="#e08760"/>
      <path id="Path_10000" data-name="Path 10000" d="M4526.354,599a5.6,5.6,0,0,1-.83-2.866c0-5.659,9.3-10.246,20.764-10.246s20.762,4.587,20.762,10.246c0,.028,0,.056,0,.084l1.594.029,2.152,2.586L4578,585.483a66.407,66.407,0,0,0-31.71-7.722c-15.288,0-28.862,4.843-37.4,11.438l13.374,12.355Z" fill="#bfd9ef"/>
      <path id="Path_10001" data-name="Path 10001" d="M4529.751,589.937a25.8,25.8,0,0,1,9.159-3.383v-1.475l-9.159,2.723Z" fill="#f05338"/>
      <path id="Path_10002" data-name="Path 10002" d="M4541.577,586.153a41.67,41.67,0,0,1,9.159-.029v-2.568h-9.159Z" fill="#f05338"/>
      <path id="Path_10003" data-name="Path 10003" d="M4553.195,586.469a26.949,26.949,0,0,1,9.159,3.174V587.8l-9.159-2.723Z" fill="#f05338"/>
      <path id="Path_10004" data-name="Path 10004" d="M4526.354,598.042a5.6,5.6,0,0,1-.83-2.866c0-5.66,9.3-10.247,20.764-10.247s20.762,4.587,20.762,10.247c0,.027,0,.055,0,.083l1.594.029,2.152,2.586L4578,584.527a66.4,66.4,0,0,0-31.71-7.723c-15.288,0-28.862,4.843-37.4,11.438l13.374,12.355Z" fill="#6a78ea"/>
      <path id="Path_10005" data-name="Path 10005" d="M4567.434,593.984c0-.028,0-.056,0-.084,0-5.659-9.471-10.246-21.15-10.246s-21.152,4.587-21.152,10.246c0,.138.007.275.019.412.385-5.5,9.7-9.892,21.133-9.892,11.22,0,20.4,4.233,21.1,9.581Z" fill="#5365d3"/>
      <path id="Path_10006" data-name="Path 10006" d="M4567.434,592.509c0-.028,0-.056,0-.084,0-5.659-9.471-10.246-21.15-10.246s-21.155,4.587-21.155,10.246c0,.138.008.276.019.412.385-5.495,9.7-9.892,21.134-9.892,11.22,0,20.4,4.233,21.1,9.581Z" fill="#5365d3"/>
      <path id="Path_10007" data-name="Path 10007" d="M4567.434,591.034c0-.028,0-.055,0-.084,0-5.659-9.471-10.246-21.15-10.246s-21.152,4.587-21.152,10.246c0,.139.007.276.019.412.385-5.5,9.7-9.892,21.133-9.892,11.22,0,20.4,4.232,21.1,9.582Z" fill="#5365d3"/>
      <path id="Path_10008" data-name="Path 10008" d="M4567.434,589.559c0-.028,0-.055,0-.084,0-5.658-9.471-10.246-21.15-10.246s-21.152,4.588-21.152,10.246c0,.138.007.276.019.413.385-5.5,9.7-9.893,21.133-9.893,11.22,0,20.4,4.233,21.1,9.582Z" fill="#5365d3"/>
      <g id="Group_7446" data-name="Group 7446">
        <path id="Path_10009" data-name="Path 10009" d="M4545.984,587.39l-26.308,15.189,17.5,10.167,26.308-15.189Z" fill="#70bb44"/>
        <path id="Path_10010" data-name="Path 10010" d="M4520.623,602.566l.695.4,3.393,1.972,2.27,1.32,3.857,2.24,2.27,1.32,3.391,1.97.695.4.711-.411,23.916-13.807.711-.411-.7-.4-3.391-1.971-2.27-1.319-3.856-2.241-2.27-1.319-3.393-1.972-.7-.4-.711.41-23.916,13.809Zm25.826-14.238a1.765,1.765,0,0,1-.99.005l.5-.29Zm9.543,5.545-1.287.743-3.672-2.134,1.287-.743Zm2.271,1.32-3.3,1.9-2.084-1.211-4.081-2.371-2.049-1.191,3.3-1.9,2.179,1.266-1.378.8,3.855,2.24,1.379-.8Zm-9.372-1.521,3.72,2.162a5,5,0,0,1-2.778-.552,1.545,1.545,0,0,1-.943-1.611Zm12.969,3.612.491.284-.5.29a.4.4,0,0,1,0-.561l.015-.014Zm-12.081,7.542L4544,601.469c1.292-.775,1.285-2.012-.03-2.776a5.354,5.354,0,0,0-4.793-.026l-5.79-3.365,11.974-6.913a1.956,1.956,0,0,0,1.18-.006l3.413,1.984-3.386,1.956,2.208,1.282a1.584,1.584,0,0,0,.965,1.731,5.232,5.232,0,0,0,2.984.564l2.242,1.3,3.386-1.956,3.412,1.983a.45.45,0,0,0-.062.633.579.579,0,0,0,.048.05Zm-5.961-3.356a5.152,5.152,0,0,1-4.609-.027,1.418,1.418,0,0,1-.03-2.67Zm-4.547-2.748a5.149,5.149,0,0,1,4.609.026,1.418,1.418,0,0,1,.03,2.67Zm-2.565,13.086a1.764,1.764,0,0,1,.99-.005l-.5.289Zm-9.54-5.545,1.287-.743,3.672,2.135-1.286.742Zm-2.271-1.32,3.3-1.9,2.049,1.191,4.08,2.372,2.085,1.211-3.3,1.9-2.179-1.267,1.379-.795-3.856-2.241-1.379.8Zm9.337,1.5-3.72-2.159a5,5,0,0,1,2.778.55,1.54,1.54,0,0,1,.942,1.608Zm-12.842-3.537a.45.45,0,0,0,.061-.633.587.587,0,0,0-.048-.051l11.894-6.867,5.791,3.365c-1.293.775-1.285,2.012.029,2.776a5.354,5.354,0,0,0,4.793.026l5.777,3.357-11.9,6.867a1.965,1.965,0,0,0-1.178.005l-3.412-1.982,3.389-1.956-2.242-1.3a1.583,1.583,0,0,0-.965-1.73,5.233,5.233,0,0,0-2.984-.565l-2.208-1.282-3.386,1.957Zm-.1-.055-.49-.285.5-.289a.4.4,0,0,1,0,.561l-.012.011Z" fill="#f1f2f2"/>
      </g>
      <path id="Path_10011" data-name="Path 10011" d="M4595.734,599.818l-1.655-1.775-.929-1,.4-.152,2.27-.86-1.95-1.446-.815-.6,2.117-1.03-2.073-1.264-1.369-.835,1.793-.743-2-1.385-1.995-1.384-.245,2.315-.248,2.314,1.953-.81-.075,1.589-.111,2.326.908-.442-.112.811-.32,2.306.741-.28-.333,1-.733,2.208.353-.064-.212.459-.018.04-.627-2.1-3.157,4.139-.992,1.3-2.7,2.591-3.754,3.6.613.11-1.821,1.055-3.182,1.845.14-.949-4.312,2.035-3.2,1.51.392-1.355-4.9,1.77-3.611,1.3.364-.7-5.146.781-3.812.578.218-.271h-11.555l.147.181-3.223-.49-5.146-.781.364.7-3.611-1.3-4.9-1.77.393,1.355-3.2-1.51-4.313-2.035.14.949-3.182-1.845-1.821-1.055.614-.11-3.754-3.6-2.7-2.591-.993-1.3-3.156-4.139-.628,2.1-.018-.04-.211-.459.353.064-.734-2.208-.332-1,.741.28-.32-2.306-.113-.811.908.442-.111-2.326-.085-1.791.2.082,2.242.932-.245-2.314-.248-2.315-1.995,1.385-2,1.384,1.51.627-1.561.951L4497,592.954l2.117,1.031-.816.6-1.95,1.446,2.271.86.4.153-.929,1-1.656,1.776,2.389.434.28.049-.455.612-1.448,1.949,2.422.165.878.06-.052.175-1.27,4.241,4.426-.1.664-.015-.061.448-.6,4.385,4.357-.78,1.668-.3.288,2.156.517,3.865,3.609-1.472,2.8-1.14.358,2.427.628,4.256,3.685-2.221,2.866-1.726.543,1.878,1.23,4.252,3.664-2.482,2.9-1.96,1.16,2.241,2.037,3.93,3.109-3.151,2.181-2.208,1.749,2.167,2.889,3.582,2.889-3.582,1.981-2.453,2.466,2.5,3.109,3.151,2.037-3.93,1.16-2.241,2.893,1.959,3.664,2.483,1.23-4.252.544-1.879,2.866,1.727,3.685,2.221.628-4.256.357-2.427,2.8,1.14,3.61,1.472.516-3.865.288-2.156,1.669.3,4.357.78-.6-4.385-.061-.448.664.015,4.425.1-1.268-4.24-.053-.175.877-.06,2.423-.165-1.449-1.949-.454-.612.28-.049Z" fill="#9fddf4"/>
      <path id="Path_10012" data-name="Path 10012" d="M4595.734,599.818l-1.655-1.775-.929-1,.4-.152,2.27-.86-1.95-1.446-.815-.6,2.117-1.031-2.073-1.264-1.369-.834,1.793-.743-2-1.385-1.995-1.384-.245,2.315-.248,2.314,1.953-.81-.075,1.589-.111,2.326.908-.442-.112.811-.32,2.306.741-.28-.333,1-.733,2.208.353-.064-.212.459-.018.04-.627-2.1-3.157,4.139-.992,1.3-2.7,2.591-3.754,3.6.613.11-1.821,1.055-3.182,1.845.14-.95-4.312,2.036-3.2,1.51.393-1.355-4.9,1.767-3.611,1.306.364-.7-5.147.78-3.811.578.217-.271h-11.555l.147.182-3.222-.491-5.146-.78.364.7-3.612-1.306-4.894-1.767.393,1.355-3.2-1.51-4.313-2.036.14.95-3.182-1.845-1.821-1.055.614-.11-3.754-3.605-2.7-2.591-.992-1.3-3.157-4.139-.627,2.1-.018-.04-.212-.459.354.064-.737-2.208-.332-1,.741.28-.32-2.306-.112-.811.907.442-.111-2.326-.085-1.791.2.082,2.242.932-.245-2.314-.249-2.315-1.994,1.385-1.995,1.384,1.51.627-1.561.951-2.074,1.264,2.118,1.031-.816.6-1.95,1.446,2.271.86.4.152-.929,1-1.656,1.775,2.389.434.28.049-.455.613-1.448,1.948,2.422.166.878.06-.053.175-1.269,4.24,4.426-.1.664-.015-.061.447-.6,4.385,4.357-.78,1.668-.3.288,2.155.517,3.865,3.609-1.472,2.8-1.141.357,2.428.628,4.255,3.685-2.22,2.866-1.727.544,1.878,1.229,4.252,3.665-2.483,2.9-1.959,1.161,2.241,2.036,3.93,3.11-3.15,2.181-2.208,1.748,2.167,2.889,3.582,2.889-3.582,1.981-2.454,2.466,2.5,3.11,3.15,2.036-3.93,1.16-2.241,2.893,1.959,3.665,2.483,1.23-4.252.543-1.878,2.866,1.727,3.685,2.22.628-4.255.358-2.428,2.8,1.141,3.609,1.472.516-3.865.288-2.155,1.669.3,4.357.78-.6-4.385-.061-.447.664.015,4.426.1-1.269-4.24-.053-.176.877-.059,2.423-.166-1.448-1.948-.456-.613.281-.049ZM4500.143,590l1.247-.865,1.306-.907.159,1.481.158,1.482-1.468-.609-.2-.081-.252-.1-.286-.118Zm-2.12,2.9,1.3-.79,1.358-.827.07,1.488.071,1.488-.154-.075-.6-.294-.737-.359Zm.762,3.523-1.42-.54,1.22-.9.815-.6.463-.343.092.665.112.811.205,1.475-.692-.262-.393-.147Zm15.063,18.8-3.015,1.23-.431-3.227-.288-2.156-.068-.515-.512.091-1.669.3-3.683.66.51-3.708.061-.447.079-.578-.582.013-.664.015-3.742.087,1.074-3.585.053-.176.178-.6-.621-.043-.877-.06-1.516-.1.907-1.218.454-.611.478-.644-.788-.143-.28-.049-1.493-.271,1.035-1.11.929-1,.155-.167.136.411.334,1,.469,1.414-.469-.085.4.868.211.459.019.04.55,1.2.377-1.26.348-1.163,2.565,3.363.992,1.3.023.031.028.026,2.7,2.591,3.051,2.929-.989.177,1.173.681,1.822,1.055,3.181,1.845.068.039Zm10.263,1.63-2.865,1.727-3.046,1.836-.519-3.518-.337-2.287h0l-.15-1.019,0-.032,3.473,1.64,3.2,1.51.273.129Zm5.416,3.662-3.1,2.1-1.04-3.6-.532-1.839-.306-1.058-.121-.418,3.975,1.438,3.611,1.305.365.132Zm11.306-1.085-2.181,2.208-2.63,2.664-1.721-3.323-1.161-2.241-.257-.5h0l-.169-.327,4.181.634,3.223.491.958.147Zm9.474-.252-1.981,2.454-2.5,3.1-2.5-3.1-1.748-2.167-.191-.238h0l-.295-.367h9.476Zm8.975-.936-.258.5-1.16,2.241-1.722,3.323-2.629-2.663-2.424-2.454.368-.056,3.813-.578,4.181-.634Zm8.332-2.12-.306,1.058-.532,1.839-1.04,3.6-3.1-2.1-2.857-1.935.366-.132,3.612-1.306,3.974-1.438Zm7.357-2.53-.15,1.019h0l-.338,2.287-.519,3.518-3.045-1.836-2.866-1.727-.024-.014.275-.129,3.2-1.51,3.473-1.64ZM4590.8,590.7l-1.18.491.159-1.482.158-1.481,1.306.907,1.247.865-.952.395-.275.114Zm.694,3.485-.154.074.071-1.488.071-1.488,1.357.827,1.3.79-1.3.631-.5.246Zm.392,2.8.206-1.475.112-.811.092-.665.463.343.815.6,1.219.9-1.419.54-.4.153-.393.147Zm1.088,2.822-.785.142.478.644.454.612.9,1.218-1.514.1-.878.06-.62.043.178.6.053.175,1.073,3.585-3.742-.086-.664-.016-.584-.013.08.578.062.448.509,3.707-3.684-.66-1.669-.3-.511-.092-.069.516-.287,2.155-.432,3.227-3.014-1.229-2.673-1.09.069-.04,3.181-1.845,1.821-1.055,1.174-.68-.989-.177,3.051-2.929,2.7-2.591.027-.026.023-.031.993-1.3,2.564-3.363.348,1.162.377,1.261.55-1.195.019-.04.212-.459.4-.868-.468.085.469-1.414.332-1,.137-.411.156.167.928,1,1.035,1.11-1.493.271Z" fill="#7cbdd1"/>
      <path id="Path_10013" data-name="Path 10013" d="M4526.354,592.052a5.6,5.6,0,0,1-.83-2.866c0-5.659,9.3-10.247,20.764-10.247s20.762,4.588,20.762,10.247c0,.028,0,.056,0,.084l1.594.029,2.152,2.586L4578,578.538a66.4,66.4,0,0,0-31.71-7.722c-15.288,0-28.862,4.842-37.4,11.437l13.374,12.356Z" fill="#bfd9ef"/>
      <g id="Group_7447" data-name="Group 7447">
        <path id="Path_10014" data-name="Path 10014" d="M4553.242,592.112l.648-.4v-.884l-.648-.105Z" fill="#fff" opacity="0.5" style="mix-blend-mode: normal;isolation: isolate"/>
        <path id="Path_10015" data-name="Path 10015" d="M4553.89,591.711l2.186,1.238v-.883l-2.186-1.238Z" fill="#fff" opacity="0.4" style="mix-blend-mode: normal;isolation: isolate"/>
        <path id="Path_10016" data-name="Path 10016" d="M4555.428,593.35l.648-.4v-.883l-.687-.2Z" fill="#fff" opacity="0.4" style="mix-blend-mode: normal;isolation: isolate"/>
        <path id="Path_10017" data-name="Path 10017" d="M4553.242,590.6l.648.23,2.186,1.238-.648-.18-2.233-1.227Z" fill="#d0d2d3" opacity="0.5" style="mix-blend-mode: normal;isolation: isolate"/>
        <path id="Path_10018" data-name="Path 10018" d="M4555.357,591.82l-.574-.33-.008-.008-1.3-.754-.186-.108c-.045-.025-.109-.052-.15-.006a.128.128,0,0,0-.027.081v1.415c0,.022.029.041.065.041s.066-.019.066-.041v-1.363l1.467.847.01,0,.585.337v1.415c0,.021.028.037.063.037s.064-.016.064-.037v-1.387A.16.16,0,0,0,4555.357,591.82Z" fill="#6a78ea"/>
      </g>
      <path id="Path_10019" data-name="Path 10019" d="M4546.287,569.64c-25.851,0-46.807,13.846-46.807,26.6s20.956,23.1,46.807,23.1,46.807-10.341,46.807-23.1S4572.138,569.64,4546.287,569.64Zm0,28.616c-11.467,0-20.762-4.588-20.762-10.247s9.295-10.246,20.763-10.246,20.763,4.587,20.763,10.246S4557.754,598.256,4546.287,598.256Z" fill="#9fddf4"/>
      <rect id="Rectangle_10322" data-name="Rectangle 10322" width="5.316" height="9.651" transform="translate(4543.068 626.306)" fill="#6691a3"/>
      <path id="Path_10020" data-name="Path 10020" d="M4561.585,634.875l-4.427.579-2.657-9.437h4.57Z" fill="#6691a3"/>
      <path id="Path_10021" data-name="Path 10021" d="M4585.511,627.569l-4.57,2.159-6.287-8.615,5.1-.891Z" fill="#6691a3"/>
      <path id="Path_10022" data-name="Path 10022" d="M4594.476,621.132l-3.405,2.965-7.743-6.625,4.907-1.653Z" fill="#6691a3"/>
      <path id="Path_10023" data-name="Path 10023" d="M4599.336,613.314l-1.821,3.926-8.424-6.2,4.908-1.654Z" fill="#6691a3"/>
      <path id="Path_10024" data-name="Path 10024" d="M4531.092,634.875l4.427.579,2.657-9.437h-4.57Z" fill="#6691a3"/>
      <path id="Path_10025" data-name="Path 10025" d="M4507.166,627.569l4.57,2.159,6.287-8.615-5.1-.891Z" fill="#6691a3"/>
      <path id="Path_10026" data-name="Path 10026" d="M4498.2,621.132l3.4,2.965,7.744-6.625-4.907-1.653Z" fill="#6691a3"/>
      <path id="Path_10027" data-name="Path 10027" d="M4493.341,613.314l1.82,3.926,8.425-6.2-4.907-1.654Z" fill="#6691a3"/>
      <g id="Group_7448" data-name="Group 7448">
        <path id="Path_10028" data-name="Path 10028" d="M4589.615,594.183a11.422,11.422,0,0,0-.3-2.175l-.136-.528a4.5,4.5,0,0,0-.155-.52c-.126-.338-.233-.682-.374-1.011a16.919,16.919,0,0,0-2.114-3.641c-.4-.566-.859-1.075-1.294-1.6-.471-.491-.917-1-1.412-1.445a32.608,32.608,0,0,0-3-2.536c-1.038-.756-2.077-1.472-3.137-2.1a50.033,50.033,0,0,0-6.3-3.206,55.845,55.845,0,0,0-6-2.159c-1.919-.565-3.735-1.026-5.432-1.364-1.694-.361-3.266-.6-4.687-.8-2.846-.378-5.1-.485-6.641-.552l-2.355-.039,2.355.046c1.536.071,3.791.184,6.637.571a63.155,63.155,0,0,1,10.1,2.216,55.576,55.576,0,0,1,5.966,2.208,47.349,47.349,0,0,1,6.237,3.27c1.045.643,2.068,1.367,3.088,2.133a32.539,32.539,0,0,1,2.933,2.551c.482.451.915.956,1.374,1.445.422.52.868,1.027,1.251,1.588a16.454,16.454,0,0,1,2.012,3.582c.132.32.23.654.347.981a4.019,4.019,0,0,1,.142.5l.125.509a10.807,10.807,0,0,1,.251,2.1,10.363,10.363,0,0,1-.8,4.167,13.907,13.907,0,0,1-2.322,3.707,21.831,21.831,0,0,1-3.278,3.074,30.468,30.468,0,0,1-3.853,2.5,40.888,40.888,0,0,1-4.207,2.03l-1.09.449-1.108.415-.555.207-.562.191-1.129.38-1.141.348-.572.174-.577.158-1.156.316-1.168.285a86.584,86.584,0,0,1-38.6,0l-1.168-.285-1.157-.316-.577-.158-.572-.174-1.141-.348c-1.507-.5-3-1.023-4.444-1.641a40.868,40.868,0,0,1-4.207-2.03,30.416,30.416,0,0,1-3.852-2.5,21.825,21.825,0,0,1-3.28-3.074,13.914,13.914,0,0,1-2.321-3.709,10.335,10.335,0,0,1-.8-4.173,11.751,11.751,0,0,1,.865-4.087,16.54,16.54,0,0,1,2.012-3.582c.383-.561.83-1.068,1.251-1.587.457-.491.89-.995,1.374-1.445a32.408,32.408,0,0,1,2.934-2.552c1.02-.765,2.042-1.489,3.088-2.133a47.312,47.312,0,0,1,6.237-3.268,55.574,55.574,0,0,1,5.966-2.209,63.268,63.268,0,0,1,10.1-2.216c2.846-.386,5.1-.5,6.636-.57l2.359-.047-2.359.04c-1.536.066-3.792.173-6.64.551-1.423.2-2.993.442-4.687.8-1.7.339-3.514.8-5.432,1.365a55.924,55.924,0,0,0-6,2.159,50.253,50.253,0,0,0-6.3,3.206c-1.06.632-2.1,1.346-3.137,2.1a32.691,32.691,0,0,0-3,2.536c-.494.449-.94.954-1.411,1.444-.435.521-.9,1.031-1.294,1.6a16.937,16.937,0,0,0-2.113,3.641,12.189,12.189,0,0,0-.958,4.239,10.89,10.89,0,0,0,.78,4.4,14.482,14.482,0,0,0,2.364,3.9,22.439,22.439,0,0,0,3.337,3.218,31.35,31.35,0,0,0,3.9,2.615,41.415,41.415,0,0,0,4.257,2.128l1.1.47,1.121.432.562.215.57.2,1.141.4,1.154.364.579.181.584.165,1.17.33,1.181.3c.785.208,1.584.37,2.379.551s1.6.32,2.405.471c1.613.274,3.235.523,4.869.7a89.474,89.474,0,0,0,9.871.565c.821-.012,1.638-.016,2.462-.038.826-.038,1.654-.049,2.476-.107s1.645-.095,2.465-.175l1.226-.108,1.227-.136c1.634-.177,3.256-.427,4.869-.7.805-.147,1.608-.3,2.4-.47s1.594-.343,2.379-.551l1.181-.3,1.171-.33.584-.165.578-.181,1.155-.364,1.141-.4.569-.2.563-.215,1.121-.432,1.1-.469a41.637,41.637,0,0,0,4.258-2.128,31.28,31.28,0,0,0,3.9-2.616,22.392,22.392,0,0,0,3.337-3.218,14.514,14.514,0,0,0,2.364-3.9A10.888,10.888,0,0,0,4589.615,594.183Z" fill="#daeffe"/>
        <path id="Path_10029" data-name="Path 10029" d="M4529.347,574.229a48.948,48.948,0,0,0-10.949,4.606,31.275,31.275,0,0,0-5.508,4.009,20.546,20.546,0,0,0-2.45,2.646,14.541,14.541,0,0,0-1.929,3.2,10.367,10.367,0,0,0-.883,3.757c0,.088-.013.151-.014.26l.012.24.022.482a3.353,3.353,0,0,0,.054.493l.077.5a3.777,3.777,0,0,0,.111.49l.128.486c.095.322.227.631.34.949a12.7,12.7,0,0,0,2.169,3.418,20.224,20.224,0,0,0,3.019,2.789,27.5,27.5,0,0,0,3.5,2.257c.607.35,1.239.652,1.864.971.638.289,1.276.6,1.931.862a53.045,53.045,0,0,0,8.146,2.622,66.717,66.717,0,0,0,8.559,1.478,81.757,81.757,0,0,0,8.738.486c.736-.01,1.454-.014,2.185-.033s1.466-.045,2.194-.092,1.457-.081,2.183-.151l1.089-.093c.363-.033.724-.078,1.086-.116a66.686,66.686,0,0,0,8.56-1.477,53.366,53.366,0,0,0,8.146-2.62c.657-.262,1.292-.573,1.931-.864.628-.317,1.261-.621,1.865-.97a27.647,27.647,0,0,0,3.5-2.257,20.152,20.152,0,0,0,3.019-2.789,12.691,12.691,0,0,0,2.17-3.42,9.262,9.262,0,0,0,.729-3.909,9.641,9.641,0,0,0-.268-1.93,11.651,11.651,0,0,0-.613-1.82,14.531,14.531,0,0,0-1.93-3.2,20.546,20.546,0,0,0-2.45-2.647,31.3,31.3,0,0,0-5.508-4.007,49.012,49.012,0,0,0-10.949-4.607,61.553,61.553,0,0,0-8.974-1.85c-2.522-.323-4.52-.412-5.879-.47l-2.087-.033,2.087.04c1.359.062,3.356.158,5.876.491a57.734,57.734,0,0,1,8.954,1.9,51.125,51.125,0,0,1,5.3,1.9,42.6,42.6,0,0,1,5.559,2.819,30.95,30.95,0,0,1,5.4,4.059,20.174,20.174,0,0,1,2.367,2.639,14.139,14.139,0,0,1,1.827,3.136,11.279,11.279,0,0,1,.561,1.756,9.113,9.113,0,0,1,.226,1.847,8.742,8.742,0,0,1-.747,3.66,12.106,12.106,0,0,1-2.122,3.226,19.451,19.451,0,0,1-2.961,2.65,26.757,26.757,0,0,1-3.446,2.147c-.6.332-1.223.619-1.842.92-.633.275-1.258.57-1.908.816-1.283.529-2.609.978-3.948,1.4-.675.2-1.346.409-2.032.581l-1.025.27-1.036.246a79.583,79.583,0,0,1-34.176,0l-1.035-.246-1.025-.269c-.687-.172-1.357-.385-2.033-.582-1.339-.424-2.664-.875-3.948-1.4-.65-.245-1.276-.54-1.908-.817-.619-.3-1.244-.588-1.842-.92a26.664,26.664,0,0,1-3.446-2.148,19.444,19.444,0,0,1-2.961-2.649,12.087,12.087,0,0,1-2.123-3.226c-.11-.3-.241-.589-.335-.892l-.127-.456a3.371,3.371,0,0,1-.112-.456l-.078-.457a2.765,2.765,0,0,1-.06-.466l-.029-.481-.015-.241.009-.22a9.908,9.908,0,0,1,.785-3.6,14.12,14.12,0,0,1,1.827-3.137,20.364,20.364,0,0,1,2.368-2.64,30.994,30.994,0,0,1,5.4-4.058,42.41,42.41,0,0,1,5.559-2.819,51.6,51.6,0,0,1,5.3-1.9,57.845,57.845,0,0,1,8.954-1.9c2.52-.332,4.517-.428,5.876-.491l2.088-.04-2.088.033c-1.36.058-3.357.148-5.879.47A61.415,61.415,0,0,0,4529.347,574.229Z" fill="#daeffe"/>
        <path id="Path_10030" data-name="Path 10030" d="M4531.487,575.361a43.837,43.837,0,0,0-9.6,3.921,27.7,27.7,0,0,0-4.863,3.43,18.147,18.147,0,0,0-2.177,2.278c-.162.213-.34.416-.491.642l-.459.673c-.137.236-.274.473-.413.711s-.245.5-.366.746a8.83,8.83,0,0,0-.8,3.288c0,.078-.012.131-.009.229l.009.21.02.421a3,3,0,0,0,.049.434l.068.441c.057.291.147.569.218.855.1.278.206.551.309.829a11.039,11.039,0,0,0,1.949,2.964,17.8,17.8,0,0,0,2.681,2.4,24.534,24.534,0,0,0,3.085,1.936c.533.3,1.089.556,1.641.829.561.25,1.119.513,1.694.736a47.628,47.628,0,0,0,7.135,2.239,59.74,59.74,0,0,0,7.483,1.26,73.3,73.3,0,0,0,7.64.416c.634-.008,1.266-.013,1.9-.029s1.281-.039,1.917-.079c1.273-.072,2.544-.164,3.808-.307a59.559,59.559,0,0,0,7.483-1.259,47.877,47.877,0,0,0,7.136-2.238c.575-.225,1.134-.488,1.695-.736.551-.273,1.108-.529,1.641-.829a24.488,24.488,0,0,0,3.084-1.936,17.8,17.8,0,0,0,2.682-2.4,11.042,11.042,0,0,0,1.95-2.965,7.9,7.9,0,0,0,.665-3.427l-.027-.418-.013-.208-.036-.215-.072-.43c-.013-.071-.023-.143-.038-.214l-.057-.2a9.762,9.762,0,0,0-.554-1.589c-.123-.249-.233-.5-.366-.745s-.275-.476-.413-.712c-.154-.225-.306-.45-.459-.673s-.328-.428-.491-.642a18.264,18.264,0,0,0-2.178-2.278,27.758,27.758,0,0,0-4.863-3.43,43.851,43.851,0,0,0-9.6-3.92,55.7,55.7,0,0,0-7.844-1.571c-2.2-.274-3.947-.348-5.134-.4l-1.822-.027,1.822.035c1.187.053,2.93.134,5.131.416a51.652,51.652,0,0,1,7.824,1.62,41.912,41.912,0,0,1,9.515,4.034,27.459,27.459,0,0,1,4.753,3.481,17.983,17.983,0,0,1,2.1,2.273c.154.212.325.412.465.634s.289.442.434.661c.127.231.257.463.386.7s.224.481.339.722a9.277,9.277,0,0,1,.5,1.521,7.639,7.639,0,0,1,.2,1.606,7.392,7.392,0,0,1-.679,3.169,10.494,10.494,0,0,1-1.9,2.771,17.182,17.182,0,0,1-2.622,2.257,23.8,23.8,0,0,1-3.032,1.826c-.524.283-1.075.524-1.617.78-.553.235-1.1.481-1.672.692a47.625,47.625,0,0,1-7.032,2.116,71.593,71.593,0,0,1-29.827,0,47.988,47.988,0,0,1-7.032-2.116c-.569-.21-1.119-.457-1.672-.692-.54-.257-1.093-.5-1.617-.78a23.623,23.623,0,0,1-3.032-1.827,17.136,17.136,0,0,1-2.623-2.257,10.468,10.468,0,0,1-1.9-2.772c-.1-.257-.209-.511-.3-.769-.071-.264-.16-.527-.216-.791l-.07-.392a2.818,2.818,0,0,1-.057-.4l-.027-.421-.013-.209c0-.042,0-.128.007-.19a8.362,8.362,0,0,1,.7-3.121c.115-.241.216-.488.339-.722s.258-.464.386-.7c.146-.221.29-.442.434-.662s.312-.422.465-.633a17.916,17.916,0,0,1,2.1-2.273,27.4,27.4,0,0,1,4.752-3.481,41.938,41.938,0,0,1,9.517-4.034,51.649,51.649,0,0,1,7.824-1.619c2.2-.283,3.944-.364,5.131-.417l1.823-.035-1.823.028c-1.187.049-2.931.123-5.134.4A55.484,55.484,0,0,0,4531.487,575.361Z" fill="#daeffe"/>
      </g>
      <g id="Group_7449" data-name="Group 7449">
        <path id="Path_10031" data-name="Path 10031" d="M4547.56,598.235l1.848,21.055q.553-.018,1.1-.043l-1.848-21.06C4548.3,598.207,4547.932,598.223,4547.56,598.235Z" fill="#daeffe"/>
        <path id="Path_10032" data-name="Path 10032" d="M4551.047,597.982l7.16,20.6q.554-.072,1.1-.15l-7.157-20.6Q4551.607,597.917,4551.047,597.982Z" fill="#daeffe"/>
        <path id="Path_10033" data-name="Path 10033" d="M4554.844,597.345l11.588,19.754q.547-.129,1.087-.265l-11.586-19.751Q4555.4,597.221,4554.844,597.345Z" fill="#daeffe"/>
        <path id="Path_10034" data-name="Path 10034" d="M4558.695,596.225l15.7,18.489q.525-.2,1.039-.4l-15.711-18.5C4559.39,595.958,4559.048,596.095,4558.695,596.225Z" fill="#daeffe"/>
        <path id="Path_10035" data-name="Path 10035" d="M4561.343,595.061l19.482,16.772q.487-.262.956-.532L4562.3,594.53C4562,594.714,4561.674,594.889,4561.343,595.061Z" fill="#daeffe"/>
        <path id="Path_10036" data-name="Path 10036" d="M4563.708,593.581l22.685,14.574q.414-.338.8-.684l-22.668-14.565C4564.272,593.138,4564,593.362,4563.708,593.581Z" fill="#daeffe"/>
        <path id="Path_10037" data-name="Path 10037" d="M4565.177,592.259l24.644,12.483c.214-.267.416-.537.61-.808l-24.6-12.461A8.723,8.723,0,0,1,4565.177,592.259Z" fill="#daeffe"/>
        <path id="Path_10038" data-name="Path 10038" d="M4566.966,588.908a5.43,5.43,0,0,1-.207.807l26.21,8.217c.041-.28.07-.562.09-.844Z" fill="#daeffe"/>
        <path id="Path_10039" data-name="Path 10039" d="M4567.275,587.36l25.223,5.1q-.125-.4-.274-.8l-24.762-5.005Z" fill="#daeffe"/>
        <path id="Path_10040" data-name="Path 10040" d="M4565.441,584.049c.165.2.316.393.457.595l.574.015-.078.533,23.871,2.7c-.177-.265-.365-.53-.559-.794l-21.046-2.378,19.537.519c-.222-.249-.449-.5-.684-.744l-22.067-.585Z" fill="#daeffe"/>
        <path id="Path_10041" data-name="Path 10041" d="M4564.606,583.185c.068.063.133.128.2.192l20.789-.727c-.177-.155-.354-.311-.536-.465l-20.463.715Z" fill="#daeffe"/>
        <path id="Path_10042" data-name="Path 10042" d="M4563.19,582.063q.267.184.519.375l18.592-2.386c-.2-.138-.393-.276-.593-.412l-18.526,2.377Z" fill="#daeffe"/>
        <path id="Path_10043" data-name="Path 10043" d="M4561.862,581.238c.2.11.392.222.579.337l15.948-3.992c-.206-.117-.411-.232-.621-.347l-15.915,3.983Z" fill="#daeffe"/>
        <path id="Path_10044" data-name="Path 10044" d="M4560.881,580.723l13.439-5.216c-.21-.1-.422-.189-.633-.283l-13.421,5.21C4560.475,580.528,4560.68,580.625,4560.881,580.723Z" fill="#daeffe"/>
        <path id="Path_10045" data-name="Path 10045" d="M4559.225,579.963l10.972-6.153c-.206-.077-.411-.154-.619-.228l-10.651,5.975Z" fill="#daeffe"/>
        <path id="Path_10046" data-name="Path 10046" d="M4557.256,579.035l7.127-7.064c-.194-.051-.39-.1-.586-.151l-6.955,6.9Z" fill="#daeffe"/>
        <path id="Path_10047" data-name="Path 10047" d="M4559.38,570.845q-.278-.052-.558-.1l-4.048,7.22.5.212Z" fill="#daeffe"/>
        <path id="Path_10048" data-name="Path 10048" d="M4554.457,570.1l-.552-.059-2.1,7.462.536.115Z" fill="#daeffe"/>
        <path id="Path_10049" data-name="Path 10049" d="M4550.019,569.738c-.183-.01-.367-.017-.552-.025l-.571,7.837.551.031Z" fill="#daeffe"/>
        <path id="Path_10050" data-name="Path 10050" d="M4541.676,619.231c.368.017.736.034,1.1.049l1.847-21.058q-.557-.021-1.1-.057Z" fill="#daeffe"/>
        <path id="Path_10051" data-name="Path 10051" d="M4532.9,618.381q.548.081,1.1.155l7.157-20.6q-.557-.07-1.1-.155Z" fill="#daeffe"/>
        <path id="Path_10052" data-name="Path 10052" d="M4536.306,596.995l-11.586,19.753c.359.093.721.182,1.084.27l11.584-19.749C4537.021,597.182,4536.661,597.091,4536.306,596.995Z" fill="#daeffe"/>
        <path id="Path_10053" data-name="Path 10053" d="M4533.36,596.027c-.271-.107-.535-.216-.794-.329L4516.85,614.2q.511.206,1.035.4l15.671-18.451Z" fill="#daeffe"/>
        <path id="Path_10054" data-name="Path 10054" d="M4530.048,594.391l-19.486,16.776c.312.181.628.36.952.537l19.476-16.768C4530.662,594.76,4530.35,594.578,4530.048,594.391Z" fill="#daeffe"/>
        <path id="Path_10055" data-name="Path 10055" d="M4527.891,592.76l-22.675,14.57c.257.232.524.461.8.687l22.678-14.574Q4528.265,593.111,4527.891,592.76Z" fill="#daeffe"/>
        <path id="Path_10056" data-name="Path 10056" d="M4526.643,591.328l-24.6,12.464q.286.408.6.811l24.634-12.476A8.518,8.518,0,0,1,4526.643,591.328Z" fill="#daeffe"/>
        <path id="Path_10057" data-name="Path 10057" d="M4525.6,588.825l-.012-.031-26.077,8.176c.017.283.046.565.084.845l26.186-8.209A5.482,5.482,0,0,1,4525.6,588.825Z" fill="#daeffe"/>
        <path id="Path_10058" data-name="Path 10058" d="M4524.727,586.654l-24.346,4.92q-.152.4-.277.8l24.81-5.013Z" fill="#daeffe"/>
        <path id="Path_10059" data-name="Path 10059" d="M4525.716,584.659l.967-.025c.028-.04.049-.079.081-.118l-.021-.609-21.671.575c-.236.245-.463.494-.687.743l19.142-.508-20.622,2.33q-.294.395-.563.794l23.454-2.65Z" fill="#daeffe"/>
        <path id="Path_10060" data-name="Path 10060" d="M4527.6,582.9l-20.1-.7c-.181.154-.358.309-.535.465l20.611.72Z" fill="#daeffe"/>
        <path id="Path_10061" data-name="Path 10061" d="M4528.946,582.376l.06-.359-18.2-2.336c-.2.137-.4.275-.593.413l18.6,2.387Z" fill="#daeffe"/>
        <path id="Path_10062" data-name="Path 10062" d="M4530.238,581.509l.1-.29-15.648-3.917c-.208.115-.416.231-.62.347l15.959,3.995C4530.1,581.6,4530.164,581.553,4530.238,581.509Z" fill="#daeffe"/>
        <path id="Path_10063" data-name="Path 10063" d="M4532.133,580.516l-13.425-5.212q-.316.141-.629.285l13.443,5.218Q4531.822,580.659,4532.133,580.516Z" fill="#daeffe"/>
        <path id="Path_10064" data-name="Path 10064" d="M4533.261,579.557l-10.5-5.889-.619.227,10.818,6.069Z" fill="#daeffe"/>
        <path id="Path_10065" data-name="Path 10065" d="M4535.346,578.715l-6.876-6.816c-.2.049-.389.1-.582.154l7.043,6.982Z" fill="#daeffe"/>
        <path id="Path_10066" data-name="Path 10066" d="M4537.415,577.963,4533.4,570.8l-.556.106,4.073,7.263Z" fill="#daeffe"/>
        <path id="Path_10067" data-name="Path 10067" d="M4540.383,577.508l-2.088-7.422-.551.064,2.1,7.473Z" fill="#daeffe"/>
        <path id="Path_10068" data-name="Path 10068" d="M4544.535,577.55l-.574-7.871c-.184.006-.368.014-.552.021l.574,7.881Z" fill="#daeffe"/>
      </g>
      <path id="Path_10069" data-name="Path 10069" d="M4590.433,588.147a14.248,14.248,0,0,1,1.617,6.358c0,12.759-20.489,23.1-45.763,23.1s-45.763-10.342-45.763-23.1a14.229,14.229,0,0,1,1.62-6.358,14.959,14.959,0,0,0-2.662,8.1c0,12.758,20.956,23.1,46.807,23.1S4593.1,609,4593.1,596.244A14.991,14.991,0,0,0,4590.433,588.147Z" fill="#7cbdd1"/>
      <path id="Path_10070" data-name="Path 10070" d="M4572.188,589.053c0-6.689-11.871-13.2-25.9-13.2s-25.9,6.513-25.9,13.2,11.871,13.351,25.9,13.351S4572.188,595.74,4572.188,589.053Zm-46.664-1.044c0-5.659,9.3-10.246,20.764-10.246s20.762,4.587,20.762,10.246-9.295,10.247-20.762,10.247S4525.524,593.668,4525.524,588.009Z" fill="#daeffe"/>
      <path id="Path_10071" data-name="Path 10071" d="M4564.729,579.5a43.061,43.061,0,0,0-36.884,0c-5.052,2.637-7.957,6.12-7.957,9.55s2.9,6.944,7.954,9.623a42.367,42.367,0,0,0,36.89,0c5.054-2.679,7.953-6.186,7.953-9.623S4569.786,582.142,4564.729,579.5Zm-18.442,22.9c-14.03,0-25.9-6.664-25.9-13.351s11.871-13.2,25.9-13.2,25.9,6.513,25.9,13.2-11.869,13.353-25.9,13.353Z" fill="#7cbdd1"/>
    </g>
  </g>
</svg>
