<svg xmlns="http://www.w3.org/2000/svg" width="30" height="28.761" viewBox="0 0 30 28.761">
  <g id="Group_40451" data-name="Group 40451" transform="translate(-8936.848 -296.18)">
    <path id="Path_43669" data-name="Path 43669" d="M8952.018,296.18a2.375,2.375,0,0,1,2.04,1.433c1.026,2.083,2.06,4.162,3.078,6.248a.734.734,0,0,0,.632.457q3.483.486,6.961,1.013a2.315,2.315,0,0,1,1.97,1.619,2.287,2.287,0,0,1-.59,2.507q-2.479,2.454-5,4.866a.9.9,0,0,0-.3.91c.4,2.265.786,4.534,1.174,6.8a2.432,2.432,0,0,1-3.558,2.587q-2.641-1.382-5.278-2.772c-.325-.171-.656-.331-.974-.516a.618.618,0,0,0-.666.006q-3.122,1.653-6.254,3.285a2.4,2.4,0,0,1-3.559-1.751,4.854,4.854,0,0,1,.11-1.475q.519-3.115,1.076-6.226a.8.8,0,0,0-.263-.8q-2.522-2.432-5.021-4.89a2.4,2.4,0,0,1-.395-3,2.371,2.371,0,0,1,1.756-1.149c2.341-.343,4.682-.688,7.025-1.019a.638.638,0,0,0,.535-.4q1.553-3.171,3.12-6.336A2.483,2.483,0,0,1,8952.018,296.18Zm-8.284,26.267c0,.376.27.491.65.292,2.057-1.079,4.115-2.152,6.165-3.242a2.608,2.608,0,0,1,2.624.015q3.057,1.632,6.139,3.221a.569.569,0,0,0,.49.025.589.589,0,0,0,.117-.482c-.365-2.194-.716-4.392-1.136-6.576a2.962,2.962,0,0,1,.979-2.964c1.621-1.511,3.188-3.081,4.767-4.637a.39.39,0,0,0-.236-.729q-3.445-.516-6.895-1a2.519,2.519,0,0,1-2.049-1.448c-.235-.485-.478-.968-.717-1.452-.8-1.626-1.6-3.255-2.417-4.875a.6.6,0,0,0-.392-.307c-.113-.008-.271.174-.357.306a6.082,6.082,0,0,0-.335.664c-.923,1.868-1.852,3.734-2.764,5.607a2.509,2.509,0,0,1-1.984,1.487c-1.389.206-2.78.4-4.17.6-.962.14-1.925.272-2.884.429a.513.513,0,0,0-.361.255.566.566,0,0,0,.147.415,5.521,5.521,0,0,0,.5.5c1.517,1.479,3.031,2.963,4.554,4.436a2.51,2.51,0,0,1,.779,2.355q-.431,2.523-.87,5.044C8943.965,321.084,8943.848,321.776,8943.733,322.447Z" fill="#0e4763"/>
  </g>
</svg>
