<svg xmlns="http://www.w3.org/2000/svg" width="60" height="59.77" viewBox="0 0 60 59.77">
  <g id="Group_40473" data-name="Group 40473" transform="translate(-8765.589 -1966.408)" opacity="0.7">
    <path id="Path_43692" data-name="Path 43692" d="M8786.83,2020.364v-1.938h-11.207c-.968,0-1.187-.165-1.424-1.111-.571-2.266-1.134-4.534-1.7-6.8-.337-1.338-.109-1.676,1.311-1.822-.2-.534-.386-1.055-.58-1.573-.458-1.226-.935-2.446-1.368-3.681-.135-.378-.295-.589-.723-.517a4.916,4.916,0,0,1-.544.007,1.086,1.086,0,0,1-1.183-.818c-.895-2.461-1.811-4.914-2.705-7.374-.325-.9.05-1.425,1.021-1.5.076-.005.151-.025.274-.046-.713-1.912-1.353-3.823-2.141-5.671-.614-1.439-.2-2.054,1.425-2.051q28.327.05,56.655.021c.2,0,.4-.007.6,0a.963.963,0,0,1,.952,1.4c-.69,1.892-1.4,3.775-2.108,5.662-.077.2-.151.408-.239.645.153.016.251.03.349.036.964.057,1.339.6,1,1.506-.846,2.285-1.706,4.565-2.562,6.847-.493,1.316-.5,1.342-1.915,1.323a.642.642,0,0,0-.729.514c-.626,1.742-1.289,3.47-1.96,5.259.152.021.259.043.367.049.9.054,1.251.53,1.032,1.414q-.894,3.608-1.8,7.212c-.225.9-.454,1.061-1.4,1.062h-3.463v1.939c.293,0,.587-.011.879,0a.959.959,0,0,1,1.022,1.027q.025,1.876,0,3.753a.963.963,0,0,1-1.023,1.027c-.142.007-.283,0-.424,0h-26.148c-1.2,0-1.457-.259-1.458-1.449q0-1.514,0-3.026c0-1.036.294-1.33,1.325-1.337Zm36.372-32.9H8767.95c.077.231.133.42.2.6.563,1.508,1.154,3.008,1.684,4.529a.82.82,0,0,0,.933.66q24.177-.025,48.354-.014c.444,0,.89-.031,1.33.009a.682.682,0,0,0,.823-.553c.546-1.557,1.148-3.1,1.729-4.642C8823.073,1987.871,8823.129,1987.682,8823.2,1987.46Zm-54.256,7.734c.665,1.819,1.313,3.552,1.926,5.3a.644.644,0,0,0,.731.509q23.965-.018,47.927,0a.681.681,0,0,0,.769-.54c.563-1.574,1.167-3.132,1.754-4.7.066-.175.117-.355.187-.569Zm4.813,7.759c.08.24.137.429.206.614.572,1.527,1.166,3.046,1.709,4.584a.749.749,0,0,0,.85.6q13.583-.027,27.169-.014c3.671,0,7.342-.006,11.013.01a.644.644,0,0,0,.738-.5c.567-1.593,1.18-3.17,1.771-4.755.063-.165.106-.336.169-.541Zm41.411,13.507,1.429-5.75h-42.054l1.435,5.729h10.878v-.9c0-.283-.007-.565,0-.847a.987.987,0,0,1,1.124-1.111q11.465-.006,22.933,0a.986.986,0,0,1,1.125,1.109c.011.58,0,1.159,0,1.765Zm-26.349,3.861h21.255v-4.768h-21.255Zm-1.916,2v1.885h25.1v-1.885Z"/>
    <path id="Path_43693" data-name="Path 43693" d="M8787.1,1966.409l1.438,1.445c-.484.447-.94.9-1.43,1.315a2.727,2.727,0,0,0-.019,4.538,4.6,4.6,0,0,1,1.494,2.228,4.248,4.248,0,0,1-.858,4.187c-.639.743-1.413,1.37-2.139,2.06l-1.281-1.4c.465-.443,1.024-.958,1.563-1.495a2.561,2.561,0,0,0,.008-4.056,5.569,5.569,0,0,1-1.833-2.91,4.176,4.176,0,0,1,.808-3.534C8785.531,1967.949,8786.336,1967.211,8787.1,1966.409Z"/>
    <path id="Path_43694" data-name="Path 43694" d="M8795.347,1982.329l-1.483-1.5c.469-.416.923-.839,1.4-1.238,1.727-1.452,1.7-3.225.017-4.668a4.5,4.5,0,0,1-1.542-2.6,4.142,4.142,0,0,1,.8-3.534c.677-.841,1.483-1.58,2.25-2.384l1.434,1.453c-.448.411-.879.834-1.339,1.222-1.789,1.507-1.683,3.248-.035,4.724a5.508,5.508,0,0,1,1.326,1.906,3.842,3.842,0,0,1-.382,3.863A32.246,32.246,0,0,1,8795.347,1982.329Z"/>
    <path id="Path_43695" data-name="Path 43695" d="M8804.053,1982.317l-1.413-1.474c.542-.513,1.118-1.037,1.669-1.586a2.552,2.552,0,0,0-.017-4.012,5.581,5.581,0,0,1-1.839-2.908,4.133,4.133,0,0,1,.874-3.628,28.619,28.619,0,0,1,2.31-2.166l1.222,1.339c-.521.506-1.105,1.056-1.672,1.625a2.547,2.547,0,0,0,0,3.889,9.448,9.448,0,0,1,1.3,1.5,4.139,4.139,0,0,1-.073,4.828A25.674,25.674,0,0,1,8804.053,1982.317Z"/>
    <path id="Path_43696" data-name="Path 43696" d="M8779.153,1997.14h1.857v1.884h-1.857Z"/>
    <path id="Path_43697" data-name="Path 43697" d="M8788.747,1999.031h-1.853v-1.884h1.853Z"/>
    <path id="Path_43698" data-name="Path 43698" d="M8794.641,1997.144h1.859v1.869h-1.859Z"/>
    <path id="Path_43699" data-name="Path 43699" d="M8804.252,1999.025h-1.864v-1.863h1.864Z"/>
    <path id="Path_43700" data-name="Path 43700" d="M8810.142,1997.145H8812v1.867h-1.855Z"/>
    <path id="Path_43701" data-name="Path 43701" d="M8781.017,2012.648v1.859h-1.869v-1.859Z"/>
  </g>
</svg>
