<svg xmlns="http://www.w3.org/2000/svg" width="62.227" height="61.963" viewBox="0 0 62.227 61.963">
  <g id="Group_2078" data-name="Group 2078" transform="translate(-4537.712 -9033.943)" opacity="0.7">
    <path id="Path_2646" data-name="Path 2646" d="M4559.735,9089.883v-2.008h-11.619c-1,0-1.23-.171-1.477-1.152q-.888-3.524-1.766-7.051c-.346-1.387-.113-1.738,1.359-1.889-.2-.553-.4-1.093-.6-1.63-.476-1.272-.968-2.536-1.421-3.816-.138-.392-.3-.611-.748-.537a4.712,4.712,0,0,1-.563.007,1.126,1.126,0,0,1-1.227-.847c-.927-2.552-1.877-5.095-2.8-7.646-.338-.928.052-1.479,1.059-1.554.079-.006.157-.025.284-.048-.739-1.983-1.4-3.964-2.22-5.88-.637-1.493-.207-2.129,1.478-2.126q29.368.05,58.74.021c.207,0,.419-.006.628,0a1,1,0,0,1,1.1.892.988.988,0,0,1-.108.564c-.716,1.961-1.456,3.914-2.187,5.87l-.247.668c.159.019.26.032.361.038,1,.06,1.388.622,1.041,1.562-.877,2.37-1.769,4.733-2.656,7.1-.511,1.365-.522,1.392-1.986,1.371a.664.664,0,0,0-.754.533c-.65,1.806-1.337,3.6-2.033,5.453.158.021.269.045.381.051.929.055,1.3.549,1.07,1.466q-.925,3.741-1.866,7.479c-.234.927-.471,1.1-1.451,1.1h-3.59v2.01c.3,0,.608-.011.911,0a.991.991,0,0,1,1.06.92,1.02,1.02,0,0,1,0,.145q.026,1.945,0,3.891a1,1,0,0,1-.929,1.064,1.011,1.011,0,0,1-.133,0c-.147.007-.293,0-.44,0h-27.111c-1.241,0-1.511-.27-1.511-1.5v-3.139c0-1.072.306-1.382,1.375-1.386C4559.315,9089.883,4559.5,9089.883,4559.735,9089.883Zm37.712-34.114h-57.284c.079.239.138.436.207.628.584,1.563,1.2,3.118,1.745,4.7a.852.852,0,0,0,.968.686q25.066-.028,50.134-.016c.46,0,.923-.031,1.382.01a.706.706,0,0,0,.845-.532c0-.014.006-.027.008-.041.566-1.615,1.192-3.209,1.792-4.813.069-.189.126-.387.2-.619Zm-56.255,8.019c.691,1.886,1.364,3.683,2,5.492a.666.666,0,0,0,.76.527q24.844-.018,49.69,0a.709.709,0,0,0,.8-.562c.583-1.631,1.21-3.248,1.819-4.869.068-.181.12-.368.193-.59Zm4.992,8.044c.083.249.139.446.213.637.594,1.583,1.21,3.159,1.773,4.753a.774.774,0,0,0,.879.622q14.085-.028,28.17-.014c3.806,0,7.613-.007,11.419.01a.667.667,0,0,0,.765-.519c.588-1.652,1.223-3.286,1.837-4.93.064-.171.109-.346.175-.562Zm42.936,14,1.481-5.962H4547l1.487,5.941h11.278v-.93c0-.293-.006-.586,0-.878a1.025,1.025,0,0,1,.877-1.154.982.982,0,0,1,.288,0q11.889-.007,23.778,0a1.022,1.022,0,0,1,1.165.856.988.988,0,0,1,0,.294c.011.6,0,1.2,0,1.829Zm-27.32,4h22.038V9084.9H4561.8Zm-1.986,2.074v1.954h26.025v-1.95Z"/>
    <path id="Path_2647" data-name="Path 2647" d="M4560.017,9033.943l1.492,1.5c-.5.463-.975.935-1.484,1.362a2.828,2.828,0,0,0-.018,4.706,4.781,4.781,0,0,1,1.549,2.31,4.41,4.41,0,0,1-.889,4.342c-.663.771-1.466,1.42-2.218,2.135l-1.329-1.448c.484-.459,1.062-.992,1.62-1.55a2.655,2.655,0,0,0,.008-4.2,5.769,5.769,0,0,1-1.9-3.018,4.325,4.325,0,0,1,.838-3.663C4558.388,9035.54,4559.223,9034.774,4560.017,9033.943Z"/>
    <path id="Path_2648" data-name="Path 2648" d="M4568.566,9050.449l-1.539-1.551c.484-.433.958-.87,1.452-1.283,1.788-1.507,1.764-3.346.016-4.839a4.675,4.675,0,0,1-1.6-2.7,4.3,4.3,0,0,1,.834-3.664c.7-.872,1.538-1.638,2.334-2.472l1.486,1.507c-.465.426-.911.865-1.388,1.267-1.855,1.563-1.744,3.368-.037,4.9a5.733,5.733,0,0,1,1.376,1.976,3.987,3.987,0,0,1-.4,4A33.882,33.882,0,0,1,4568.566,9050.449Z"/>
    <path id="Path_2649" data-name="Path 2649" d="M4577.592,9050.437l-1.464-1.527c.562-.533,1.159-1.076,1.728-1.646a2.646,2.646,0,0,0-.017-4.16,5.783,5.783,0,0,1-1.907-3.014,4.281,4.281,0,0,1,.907-3.763,30.151,30.151,0,0,1,2.394-2.245l1.267,1.388c-.541.524-1.147,1.1-1.733,1.686a2.64,2.64,0,0,0-.309,3.723,2.563,2.563,0,0,0,.309.309,9.78,9.78,0,0,1,1.353,1.553,4.29,4.29,0,0,1-.076,5.006A26.5,26.5,0,0,1,4577.592,9050.437Z"/>
    <path id="Path_2650" data-name="Path 2650" d="M4551.775,9065.8h1.926v1.953h-1.926Z"/>
    <path id="Path_2651" data-name="Path 2651" d="M4561.722,9067.765H4559.8v-1.951h1.919Z"/>
    <path id="Path_2652" data-name="Path 2652" d="M4567.833,9065.809h1.928v1.936h-1.928Z"/>
    <path id="Path_2653" data-name="Path 2653" d="M4577.8,9067.759h-1.935v-1.93h1.935Z"/>
    <path id="Path_2654" data-name="Path 2654" d="M4583.9,9065.811h1.924v1.936H4583.9Z"/>
    <path id="Path_2655" data-name="Path 2655" d="M4553.71,9081.884v1.928h-1.935v-1.928Z"/>
  </g>
</svg>
