<svg xmlns="http://www.w3.org/2000/svg" width="48.385" height="52.736" viewBox="0 0 48.385 52.736">
  <g id="Group_2081" data-name="Group 2081" transform="translate(-5344.313 -9032.138)" opacity="0.7">
    <path id="Path_2662" data-name="Path 2662" d="M5377.674,9032.138c.87.622.982,1.07.4,2.02a4.371,4.371,0,0,0-.2,4.4,23.309,23.309,0,0,1,1.469,3.763,5.622,5.622,0,0,1-1.122,4.748,1.049,1.049,0,0,1-1.378.312,1.082,1.082,0,0,1-.489-1.366,3.873,3.873,0,0,1,.309-.592,3.889,3.889,0,0,0,.191-3.874c-.467-1.027-.968-2.045-1.35-3.1a6.116,6.116,0,0,1,.908-5.752,3.176,3.176,0,0,1,.648-.554Z"/>
    <path id="Path_2663" data-name="Path 2663" d="M5360.162,9032.138c.875.613.989,1.066.4,2.017a4.376,4.376,0,0,0-.207,4.4,23.354,23.354,0,0,1,1.471,3.762,5.633,5.633,0,0,1-1.121,4.75,1.052,1.052,0,0,1-1.376.315,1.078,1.078,0,0,1-.491-1.366,3.82,3.82,0,0,1,.307-.592,3.922,3.922,0,0,0,.177-3.922c-.468-1.027-.972-2.044-1.347-3.105a6.081,6.081,0,0,1,.921-5.7,3.3,3.3,0,0,1,.642-.559Z"/>
    <path id="Path_2664" data-name="Path 2664" d="M5368.919,9032.138c.873.622.985,1.068.4,2.018a4.372,4.372,0,0,0-.2,4.4,23.4,23.4,0,0,1,1.471,3.762,5.62,5.62,0,0,1-1.121,4.749,1.064,1.064,0,0,1-1.424.291,1.092,1.092,0,0,1-.426-1.391,3.967,3.967,0,0,1,.289-.544,3.888,3.888,0,0,0,.193-3.871c-.48-1.06-1.005-2.105-1.383-3.2a6.121,6.121,0,0,1,.968-5.7,2.9,2.9,0,0,1,.617-.514Z"/>
    <path id="Path_2665" data-name="Path 2665" d="M5381.691,9080.493h-26.37v.86c0,.773.012,1.547,0,2.318a1.094,1.094,0,1,1-2.178.211.994.994,0,0,1,0-.194c-.018-.858-.006-1.718-.006-2.575v-.638h-.644a28.585,28.585,0,0,1-3.495-.081,5.391,5.391,0,0,1-4.655-5.447q-.049-9.836,0-19.672a5.418,5.418,0,0,1,5.29-5.545c.1,0,.21,0,.315,0q18.565-.022,37.129,0a5.433,5.433,0,0,1,5.608,5.252c0,.115,0,.23,0,.347q.036,9.759,0,19.517a5.467,5.467,0,0,1-5.3,5.63q-.166.006-.335,0c-.909.01-1.82.014-2.729,0-.335-.007-.45.1-.443.438.02.892.015,1.785,0,2.678-.008.788-.449,1.292-1.1,1.285s-1.082-.511-1.088-1.3C5381.686,9082.559,5381.691,9081.548,5381.691,9080.493Zm-13.178-2.207h18.335a3.321,3.321,0,0,0,3.624-3.612q.007-9.58,0-19.16a4.323,4.323,0,0,0-.1-1.069,3.286,3.286,0,0,0-3.482-2.528h-36.722a3.321,3.321,0,0,0-3.624,3.611q-.007,9.58,0,19.159a4.327,4.327,0,0,0,.1,1.07,3.278,3.278,0,0,0,3.43,2.528Q5359.293,9078.29,5368.513,9078.286Z"/>
    <path id="Path_2666" data-name="Path 2666" d="M5353.131,9065.119v9.418c0,1.01-.388,1.543-1.113,1.538s-1.1-.534-1.1-1.55v-18.939c0-.86.277-1.3.885-1.422a1.026,1.026,0,0,1,1.246.747l.006.025a3.383,3.383,0,0,1,.069.762Q5353.134,9060.409,5353.131,9065.119Z"/>
    <path id="Path_2667" data-name="Path 2667" d="M5359.724,9065.107v9.419c0,1.016-.378,1.545-1.1,1.549s-1.11-.529-1.11-1.539q0-9.444,0-18.889c0-1,.4-1.542,1.125-1.525.707.016,1.086.54,1.087,1.515Q5359.726,9060.373,5359.724,9065.107Z"/>
    <path id="Path_2668" data-name="Path 2668" d="M5364.1,9065.076v-9.47c0-.959.4-1.492,1.115-1.484s1.1.53,1.1,1.452v19.043a2.445,2.445,0,0,1-.085.711,1.023,1.023,0,0,1-1,.741,1.045,1.045,0,0,1-1.037-.761,3.229,3.229,0,0,1-.079-.76Q5364.1,9069.812,5364.1,9065.076Z"/>
    <path id="Path_2669" data-name="Path 2669" d="M5372.909,9065.152v9.521c0,.829-.312,1.274-.941,1.374a1.038,1.038,0,0,1-1.2-.791,3.212,3.212,0,0,1-.068-.714q-.007-9.444,0-18.889c0-1,.4-1.544,1.119-1.532s1.093.539,1.093,1.558Q5372.91,9060.417,5372.909,9065.152Z"/>
    <path id="Path_2670" data-name="Path 2670" d="M5379.5,9065.1v9.573c0,.834-.31,1.275-.938,1.376a1.029,1.029,0,0,1-1.2-.789,3.166,3.166,0,0,1-.069-.712q-.007-9.444,0-18.889c0-1.006.393-1.545,1.117-1.535s1.094.539,1.095,1.556Q5379.5,9060.39,5379.5,9065.1Z"/>
    <path id="Path_2671" data-name="Path 2671" d="M5383.88,9065.1q0-4.786,0-9.572c0-.83.311-1.274.939-1.378a1.036,1.036,0,0,1,1.2.788,3.232,3.232,0,0,1,.068.713q0,9.444,0,18.889c0,1.007-.39,1.542-1.115,1.533s-1.1-.535-1.1-1.555Q5383.881,9069.812,5383.88,9065.1Z"/>
  </g>
</svg>
