<svg xmlns="http://www.w3.org/2000/svg" width="59.999" height="45.697" viewBox="0 0 59.999 45.697">
  <g id="Group_40469" data-name="Group 40469" transform="translate(-9102.121 -1599.328)" opacity="0.7">
    <path id="Path_43682" data-name="Path 43682" d="M9109.338,1622.658a2.267,2.267,0,0,1-1.613-2.475c.033-1.784.006-3.569.011-5.354a3.082,3.082,0,0,1,3.294-3.322c.574-.006,1.152-.032,1.725.008a.779.779,0,0,0,.91-.6c1.286-3.323,2.6-6.634,3.915-9.948a2.14,2.14,0,0,1,2.432-1.642h24.218a2.139,2.139,0,0,1,2.433,1.643c1.3,3.3,2.62,6.584,3.892,9.892a.85.85,0,0,0,.992.655,14.536,14.536,0,0,1,2.2.028,2.954,2.954,0,0,1,2.746,2.928c.045,2.061.029,4.125,0,6.187-.012.947-.46,1.48-1.578,2.024.077.227.153.464.238.7q3.376,9.292,6.753,18.585c.652,1.8-.222,3.056-2.118,3.056H9104.45c-1.885,0-2.767-1.271-2.118-3.056q3.375-9.294,6.754-18.587C9109.166,1623.162,9109.24,1622.939,9109.338,1622.658Zm45.071-2.038a.9.9,0,0,0,.055-.179q.007-2.676.01-5.353c0-1.268-.273-1.546-1.529-1.547h-41.649c-1.258,0-1.531.277-1.531,1.546v5.533Zm-5.3,15.279h-33.987l-1.974,7.067h37.934Zm-18.053-13.19h-12.253l-3.1,11.1h15.352Zm2.123,0v11.114h15.35c-1.042-3.73-2.072-7.421-3.1-11.114Zm-22.146,20.275,5.658-20.273c-.254-.015-.427-.032-.6-.033-1.348,0-2.7.02-4.046-.013a.673.673,0,0,0-.755.549q-3.472,9.6-6.969,19.2c-.065.177-.123.357-.2.569Zm36.5-20.307,5.662,20.285h6.905c-.073-.215-.129-.382-.188-.547q-3.34-9.18-6.679-18.359c-.5-1.38-.506-1.379-2-1.379Zm-22.77-21.3-.838,3h16.386l-.838-3Zm8.41,10.095h9.052a1.14,1.14,0,0,0,0-.269c-.406-1.47-.828-2.935-1.221-4.408-.091-.34-.3-.349-.571-.349-2.28.006-4.562,0-6.843.006a3.6,3.6,0,0,0-.414.047Zm-2.119.005v-5h-7.718l-1.389,5Zm10.615-10.118a.689.689,0,0,0-.023.179q1.34,4.83,2.692,9.657c.034.12.188.294.287.3,1.3.02,2.6.014,3.893.014.018-.106.04-.151.028-.183q-1.906-4.859-3.828-9.713a.468.468,0,0,0-.344-.238C9143.47,1601.347,9142.565,1601.356,9141.67,1601.356Zm-19.021,0c-.866,0-1.657.029-2.445-.011a.712.712,0,0,0-.82.544c-1.166,3.005-2.359,6-3.544,9-.07.177-.123.36-.212.621,1.294,0,2.5-.018,3.7.01.4.009.543-.146.641-.505.628-2.309,1.275-4.612,1.916-6.918C9122.137,1603.2,9122.384,1602.31,9122.649,1601.355Z"/>
  </g>
</svg>
