<svg xmlns="http://www.w3.org/2000/svg" width="69.121" height="52.643" viewBox="0 0 69.121 52.643">
  <g id="Group_2073" data-name="Group 2073" transform="translate(-5065.78 -8527.424)" opacity="0.7">
    <path id="Path_2629" data-name="Path 2629" d="M5074.093,8554.3a2.606,2.606,0,0,1-1.857-2.851c.037-2.056.005-4.112.01-6.168a3.552,3.552,0,0,1,3.255-3.825,3.706,3.706,0,0,1,.541,0c.662-.006,1.328-.036,1.987.01a.9.9,0,0,0,1.048-.69c1.482-3.828,3-7.642,4.51-11.459a2.467,2.467,0,0,1,2.8-1.893h27.9a2.461,2.461,0,0,1,2.8,1.893c1.5,3.8,3.019,7.586,4.484,11.4a.979.979,0,0,0,1.142.755,16.622,16.622,0,0,1,2.533.032,3.4,3.4,0,0,1,3.163,3.373c.052,2.374.034,4.751,0,7.127-.013,1.091-.528,1.705-1.818,2.332.089.261.177.535.277.8q3.888,10.707,7.78,21.411c.751,2.069-.256,3.52-2.441,3.52h-63.75c-2.173,0-3.187-1.465-2.44-3.52q3.888-10.707,7.78-21.412C5073.894,8554.883,5073.98,8554.627,5074.093,8554.3Zm51.922-2.35a1.166,1.166,0,0,0,.064-.208q.007-3.082.012-6.167c0-1.461-.316-1.781-1.764-1.782h-47.98c-1.451,0-1.763.319-1.764,1.781v6.375Zm-6.1,17.6H5080.76l-2.273,8.144h43.7c-.767-2.744-1.519-5.437-2.273-8.141Zm-20.795-15.193H5085q-1.781,6.378-3.569,12.787h17.686Zm2.444,0v12.8h17.683c-1.2-4.3-2.387-8.549-3.575-12.8Zm-25.512,23.355c2.167-7.766,4.335-15.53,6.519-23.354-.294-.018-.492-.037-.691-.037-1.554,0-3.111.022-4.661-.017a.775.775,0,0,0-.87.634q-4,11.065-8.029,22.118c-.075.207-.139.41-.225.655Zm42.043-23.394c2.194,7.863,4.361,15.628,6.522,23.369h7.957c-.085-.248-.149-.44-.218-.631q-3.847-10.575-7.694-21.15c-.579-1.59-.582-1.59-2.3-1.59Zm-26.231-24.538-.968,3.456h18.877l-.968-3.456Zm9.69,11.631h10.427a1.338,1.338,0,0,0,0-.312c-.47-1.692-.955-3.38-1.407-5.076-.105-.393-.342-.4-.658-.4-2.626.006-5.253,0-7.884.006a4.347,4.347,0,0,0-.476.054Zm-2.442,0v-5.755h-8.891l-1.6,5.755Zm12.229-11.655a.726.726,0,0,0-.027.207q1.543,5.565,3.1,11.128c.039.14.217.338.331.342,1.5.022,3,.015,4.484.015.021-.122.047-.174.033-.207q-2.2-5.6-4.41-11.19a.539.539,0,0,0-.4-.276c-1.043-.028-2.085-.02-3.116-.02Zm-21.912,0c-1,0-1.909.033-2.816-.014a.822.822,0,0,0-.945.628c-1.344,3.461-2.719,6.912-4.082,10.364-.081.2-.143.415-.245.715,1.491,0,2.88-.021,4.268.012.459.01.625-.167.738-.581.723-2.66,1.469-5.313,2.207-7.97.28-1.027.569-2.055.874-3.156Z"/>
  </g>
</svg>
