<svg xmlns="http://www.w3.org/2000/svg" width="34.999" height="33.429" viewBox="0 0 34.999 33.429">
  <g id="Group_40486" data-name="Group 40486" transform="translate(-9848.287 -1415.545)" opacity="0.4">
    <path id="Path_43743" data-name="Path 43743" d="M9883.286,1426.992q-.854,2.042-1.709,4.083c-.031.073-.059.149-.09.221a.76.76,0,0,1-1.223.377c-.713-.449-1.416-.914-2.123-1.372-.506-.328-1.022-.642-1.514-.992a.47.47,0,1,1,.138-.925c.5-.188,1.017-.325,1.545-.489a1.13,1.13,0,0,0-.031-.2,13.727,13.727,0,0,0-11.04-9.235,13.985,13.985,0,0,0-15.937,10.913,13.785,13.785,0,0,0,2.939,11.908c.115.142.235.279.344.425a1.338,1.338,0,0,1-.209,1.867,1.3,1.3,0,0,1-1.865-.183,22.612,22.612,0,0,1-1.676-2.239,16.733,16.733,0,0,1,9.487-24.918,16.715,16.715,0,0,1,20.455,10.469c.041.117.088.232.145.38.563-.171,1.113-.338,1.663-.509a.665.665,0,0,1,.7.081Z"/>
    <path id="Path_43744" data-name="Path 43744" d="M9864.653,1437.035h-8.078a4.653,4.653,0,0,1,1.412-2.929c.907-.859,1.911-1.617,2.849-2.444a4.936,4.936,0,0,0,.9-1.012,1.026,1.026,0,0,0-.388-1.495,1.179,1.179,0,0,0-1.623.456,7.326,7.326,0,0,0-.3.866l-2.623-.214a2.93,2.93,0,0,1,2.488-2.984,7.512,7.512,0,0,1,3.021.034,2.756,2.756,0,0,1,1.679,4.477,8.413,8.413,0,0,1-1.33,1.313c-.616.521-1.276.99-1.919,1.479-.079.061-.166.111-.25.166l.059.1h4.1Z"/>
    <path id="Path_43745" data-name="Path 43745" d="M9872.838,1437.035h-2.351v-1.8h-4.934c0-.744,0-1.448.007-2.151a.488.488,0,0,1,.147-.258q2.3-2.736,4.6-5.466a.531.531,0,0,1,.325-.2c.715-.019,1.432-.01,2.188-.01v5.98h1.212v2.095h-1.191Zm-2.383-6.94-2.569,3.024h2.569Z"/>
    <path id="Path_43746" data-name="Path 43746" d="M9866.746,1447.373a1.336,1.336,0,0,1,.94-1.287,9.528,9.528,0,0,1,1.162-.272,1.329,1.329,0,0,1,1.449.982,1.3,1.3,0,0,1-.794,1.583,6.483,6.483,0,0,1-1.325.309A1.321,1.321,0,0,1,9866.746,1447.373Z"/>
    <path id="Path_43747" data-name="Path 43747" d="M9875.088,1444.979a1.918,1.918,0,0,1-.021.232,2.514,2.514,0,0,1-2.358,1.555,1.273,1.273,0,0,1-1.038-.967,1.231,1.231,0,0,1,.447-1.374,6.582,6.582,0,0,1,1.06-.681A1.333,1.333,0,0,1,9875.088,1444.979Z"/>
    <path id="Path_43748" data-name="Path 43748" d="M9881.117,1436.825a9.8,9.8,0,0,1-.525,1.4,1.267,1.267,0,0,1-1.613.5,1.331,1.331,0,0,1-.8-1.5,7.9,7.9,0,0,1,.4-1.194,1.314,1.314,0,0,1,1.5-.744A1.427,1.427,0,0,1,9881.117,1436.825Z"/>
    <path id="Path_43749" data-name="Path 43749" d="M9877.453,1439.882a1.394,1.394,0,0,1,1.209,2.032,5.706,5.706,0,0,1-.849,1.1,1.325,1.325,0,0,1-2.1-1.543,5.614,5.614,0,0,1,.909-1.183A2.9,2.9,0,0,1,9877.453,1439.882Z"/>
    <path id="Path_43750" data-name="Path 43750" d="M9858.607,1447.661a3.453,3.453,0,0,1-1.764-.916,1.271,1.271,0,0,1-.044-1.61,1.3,1.3,0,0,1,1.511-.482,7.354,7.354,0,0,1,1.134.547,1.312,1.312,0,0,1,.567,1.514A1.375,1.375,0,0,1,9858.607,1447.661Z"/>
    <path id="Path_43751" data-name="Path 43751" d="M9863.662,1448.974a11.756,11.756,0,0,1-1.175-.186,1.326,1.326,0,0,1,.405-2.6,8.949,8.949,0,0,1,1.085.106,1.332,1.332,0,0,1,1.152,1.449A1.366,1.366,0,0,1,9863.662,1448.974Z"/>
  </g>
</svg>
