<svg xmlns="http://www.w3.org/2000/svg" width="69.13" height="69.268" viewBox="0 0 69.13 69.268">
  <g id="Group_2077" data-name="Group 2077" transform="translate(-4534.246 -8721.909)" opacity="0.7">
    <path id="Path_2639" data-name="Path 2639" d="M4534.256,8775.395a3.2,3.2,0,0,1,1.919-1.7,49.479,49.479,0,0,1,6.481-2.012c4.009-.784,8.069-1.3,12.11-1.929a5.447,5.447,0,0,1,.6-.039.961.961,0,0,1,1.091.814.416.416,0,0,1,.006.049,1,1,0,0,1-.855,1.128l-.053.006c-.527.091-1.062.138-1.594.2l.005.165h29.708l.01-.2c-1.216-.118-2.43-.259-3.648-.352a137.406,137.406,0,0,0-18.948-.22c-.4.025-.809.049-1.213.047a.969.969,0,0,1-1.078-.845c0-.034-.006-.067-.007-.1a.987.987,0,0,1,.908-1.059l.076,0c.807-.068,1.616-.1,2.425-.139a140.532,140.532,0,0,1,21.832.674,79.84,79.84,0,0,1,14.944,2.834c.98.307,1.911.773,2.862,1.172a2.282,2.282,0,0,1,.405.241c.646.452,1.258.967,1.1,1.853s-.945,1.066-1.685,1.19c-1.127.188-2.262.325-3.486.5.049.207.091.415.147.622.8,2.92,1.612,5.839,2.4,8.762a2.92,2.92,0,0,1-.852,3.079,3.027,3.027,0,0,1-4.994-1.479c-.744-2.61-1.451-5.231-2.169-7.849-.189-.69-.422-1.377-.553-2.081-.12-.65-.443-.78-1.063-.739-1.526.1-3.056.128-4.586.16a.967.967,0,0,1-1.1-.807.716.716,0,0,1-.011-.106c-.043-.614.324-1.011,1.02-1.091.178-.021.359-.023.538-.029,1.822-.06,3.645-.091,5.461-.183,2.536-.13,5.07-.3,7.6-.462l.037-.178a4.449,4.449,0,0,0-.617-.271c-2.212-.595-4.412-1.222-6.64-1.737a6.4,6.4,0,0,0-1.7.225c-2.445.185-4.888.424-7.335.5-10.887.324-21.773.364-32.658-.128-1.922-.086-3.833-.423-5.749-.639a1.267,1.267,0,0,0-.466.011q-3.449.916-6.889,1.847a.66.66,0,0,0-.408.345c1.615.122,3.228.282,4.846.359,13.017.622,26.04.645,39.067.437.138,0,.27-.009.405,0,.712.025,1.175.442,1.161,1.041a1.013,1.013,0,0,1-1.045.983c-.032,0-.064,0-.095-.007q-4.589.067-9.179.116h-.9v.83c0,2.7-.065,5.391.022,8.087.062,1.886-.567,3.221-2.386,3.894h-1.35c-1.817-.672-2.447-2-2.386-3.89.088-2.7.022-5.393.022-8.088v-.8c-.2-.018-.31-.032-.418-.034q-9.577-.187-19.153-.38c-.382-.01-.546.093-.647.478-.5,1.907-1.037,3.806-1.574,5.706-.212.76-.7,1.092-1.309.923-.593-.163-.83-.715-.626-1.474q.665-2.435,1.337-4.865c.073-.268.132-.541.23-.939-.613,0-1.106.027-1.6-.009a.5.5,0,0,0-.6.374.426.426,0,0,0-.011.069c-.836,3.072-1.692,6.139-2.531,9.21a1.048,1.048,0,0,0,.536,1.381c.014.006.029.013.044.018.584.208,1.062-.068,1.352-.76.277-.661.749-.942,1.287-.766a1.048,1.048,0,0,1,.664,1.324c-.012.036-.026.07-.042.105a2.918,2.918,0,0,1-2.383,2.128,2.88,2.88,0,0,1-2.972-1.175,2.958,2.958,0,0,1-.463-2.686q1.139-4.153,2.281-8.3c.093-.339.172-.682.273-1.084-.761-.082-1.452-.116-2.131-.236-1.1-.2-2.32-.113-3.08-1.194Zm59.79,2.473a3.768,3.768,0,0,0,.069.392q1.33,4.835,2.663,9.666c.22.79.734,1.134,1.366.937.575-.181.791-.728.579-1.509q-.6-2.208-1.215-4.41l-1.4-5.075Zm-26.2.53c-.016.176-.035.285-.035.4v9.087a2.144,2.144,0,0,0,.042.468.986.986,0,0,0,1.926.021,2.947,2.947,0,0,0,.051-.668q0-4.308,0-8.616c0-.219-.019-.437-.031-.69Z"/>
    <path id="Path_2640" data-name="Path 2640" d="M4576.174,8721.909c.484.371,1.033.581,1.191.955a6.773,6.773,0,0,0,3.682,3.684,1.273,1.273,0,0,1,.006,2.358,6.967,6.967,0,0,0-3.682,3.682,1.276,1.276,0,0,1-2.36-.024,6.778,6.778,0,0,0-3.634-3.636,1.282,1.282,0,0,1-.006-2.392,6.658,6.658,0,0,0,3.64-3.633C4575.177,8722.524,4575.707,8722.3,4576.174,8721.909Zm-2.771,5.821a4.644,4.644,0,0,1,2.794,2.8,4.862,4.862,0,0,1,2.8-2.829,4.421,4.421,0,0,1-2.811-2.968,4.478,4.478,0,0,1-2.777,3Z"/>
    <path id="Path_2641" data-name="Path 2641" d="M4548.027,8746.324c-.372.483-.58,1.027-.954,1.188a6.787,6.787,0,0,0-3.684,3.68,1.275,1.275,0,0,1-2.358-.006,6.9,6.9,0,0,0-3.687-3.674,1.276,1.276,0,0,1,.031-2.357,6.779,6.779,0,0,0,3.637-3.628,1.286,1.286,0,0,1,2.4,0,6.719,6.719,0,0,0,3.638,3.634C4547.424,8745.318,4547.644,8745.852,4548.027,8746.324Zm-8.62.027a2.809,2.809,0,0,0,5.618-.01,4.77,4.77,0,0,1-2.834-2.787A4.6,4.6,0,0,1,4539.407,8746.352Z"/>
    <path id="Path_2642" data-name="Path 2642" d="M4599.33,8759.965c-.355.468-.553,1-.908,1.149a6.886,6.886,0,0,0-3.733,3.721,1.277,1.277,0,0,1-2.36-.041,6.787,6.787,0,0,0-3.634-3.632,1.284,1.284,0,0,1,.012-2.393,6.814,6.814,0,0,0,3.628-3.639,1.277,1.277,0,0,1,2.361-.019,6.8,6.8,0,0,0,3.68,3.683C4598.747,8758.957,4598.959,8759.5,4599.33,8759.965Zm-3.017,0a4.442,4.442,0,0,1-2.75-2.834,9.567,9.567,0,0,1-1.121,1.761,10.123,10.123,0,0,1-1.789,1.142,4.52,4.52,0,0,1,2.889,2.716,4.617,4.617,0,0,1,2.768-2.784Z"/>
    <path id="Path_2643" data-name="Path 2643" d="M4567.806,8748.833v-10.645a3.122,3.122,0,0,1,.063-.8.988.988,0,0,1,1.893,0,2.774,2.774,0,0,1,.065.734q0,10.783,0,21.561a3.284,3.284,0,0,1-.027.537.938.938,0,0,1-1,.876l-.019,0a.926.926,0,0,1-.953-.869,5.26,5.26,0,0,1-.029-.738Q4567.805,8754.154,4567.806,8748.833Z"/>
    <path id="Path_2644" data-name="Path 2644" d="M4561.742,8759.9a.986.986,0,0,1-.818,1.046.951.951,0,0,1-1.155-.688c-.006-.023-.012-.048-.016-.073q-.579-2-1.138-4.014c-1.335-4.775-2.679-9.547-3.986-14.329a1.684,1.684,0,0,1,.139-1.183.993.993,0,0,1,.921-.308,1.544,1.544,0,0,1,.812.85c.539,1.711,1,3.447,1.481,5.175q1.8,6.45,3.6,12.9C4561.648,8759.493,4561.695,8759.711,4561.742,8759.9Z"/>
    <path id="Path_2645" data-name="Path 2645" d="M4582.089,8740.288c.808.021,1.193.639.968,1.464q-.713,2.6-1.443,5.184-1.8,6.416-3.6,12.829c-.037.13-.069.262-.114.389a1.02,1.02,0,0,1-1.207.791c-.026,0-.052-.013-.079-.02a1,1,0,0,1-.666-1.238l.019-.057c.39-1.474.811-2.94,1.222-4.41q1.951-6.965,3.9-13.934C4581.246,8740.713,4581.514,8740.307,4582.089,8740.288Z"/>
  </g>
</svg>
