<svg xmlns="http://www.w3.org/2000/svg" width="60.001" height="57.478" viewBox="0 0 60.001 57.478">
  <g id="Group_40478" data-name="Group 40478" transform="translate(-9606.918 -1967.554)" opacity="0.7">
    <path id="Path_43719" data-name="Path 43719" d="M9666.919,1998.059a4.678,4.678,0,0,1-1.122,2.143.938.938,0,0,0-.131.6c-.014,2.109.017,4.219-.027,6.327a15.105,15.105,0,0,1-5.591,11.765c-.089.074-.171.156-.294.269q.639,1.276,1.278,2.549c.235.471.485.935.7,1.414a1.267,1.267,0,0,1-.506,1.766,1.246,1.246,0,0,1-1.715-.646c-.556-1.052-1.075-2.123-1.612-3.184-.086-.171-.182-.338-.2-.363-1.7.524-3.308,1.114-4.966,1.5a15.675,15.675,0,0,1-3.485.332c-8.221.026-16.442.011-24.665.015a17.354,17.354,0,0,1-8.017-1.853c-.1-.052-.213-.092-.371-.159q-.806,1.6-1.6,3.186a7.073,7.073,0,0,1-.354.672,1.218,1.218,0,0,1-1.619.508,1.2,1.2,0,0,1-.566-1.64c.4-.888.86-1.749,1.3-2.622.234-.471.471-.941.728-1.453-.5-.455-1.019-.891-1.491-1.376a15.418,15.418,0,0,1-4.412-11.243c0-1.914.01-3.828-.01-5.741a1.223,1.223,0,0,0-.233-.736,3.613,3.613,0,0,1-.7-3.978,3.552,3.552,0,0,1,3.2-2.282,1.735,1.735,0,0,0,.237-.06v-.672c0-6.62.052-13.241-.021-19.861a5.475,5.475,0,0,1,5.658-5.677c1.522.043,3.048.049,4.569,0a5.234,5.234,0,0,1,5.516,4.848c.011.167.271.387.463.463a5.7,5.7,0,0,1,3.65,3.972,6.124,6.124,0,0,1,.165,1.389c.025.9.012,1.8.006,2.694-.007,1.162-.477,1.638-1.632,1.64q-4.014.008-8.027,0a1.243,1.243,0,0,1-.682-.1c-.324-.24-.813-.567-.823-.87a22.241,22.241,0,0,1,.133-4.775,5.356,5.356,0,0,1,3.592-3.868c.213-.087.431-.162.634-.238a2.585,2.585,0,0,0-2.486-2.636c-1.834-.053-3.672-.057-5.506,0a2.787,2.787,0,0,0-2.713,2.94c-.011,2.715,0,5.429,0,8.144v12.655h.809q24.374,0,48.745-.009a3.85,3.85,0,0,1,3.464,1.565,9.735,9.735,0,0,1,.737,1.635Zm-56.161,3.28c0,2.358-.187,4.676.038,6.953a12.376,12.376,0,0,0,7.668,10.528,15.021,15.021,0,0,0,6.382,1.24q11.776.009,23.548-.007a29.318,29.318,0,0,0,3.326-.2,12.838,12.838,0,0,0,11.316-11.43c.22-2.3.091-4.641.118-6.963,0-.033-.035-.065-.068-.122Zm26.155-2.546h25.654c.215,0,.43.006.644-.009a1.279,1.279,0,0,0,1.205-1.147,1.254,1.254,0,0,0-.992-1.276,3.741,3.741,0,0,0-.813-.056q-25.714,0-51.427,0c-.194,0-.391-.01-.585.009a1.307,1.307,0,0,0-1.176,1.245,1.255,1.255,0,0,0,1.134,1.21,6.642,6.642,0,0,0,.761.026Zm-8.752-18.781c0-.684.013-1.3,0-1.926a3.154,3.154,0,0,0-2.808-3,3.373,3.373,0,0,0-3.388,2.636,19.445,19.445,0,0,0-.015,2.292Z"/>
  </g>
</svg>
