<svg xmlns="http://www.w3.org/2000/svg" width="20" height="16.289" viewBox="0 0 20 16.289">
  <path id="Path_45369" data-name="Path 45369" d="M5911.647,3047.185a8.518,8.518,0,0,0,2.182-.618,8.318,8.318,0,0,1-1.231,1.456,7.122,7.122,0,0,1-.707.587.219.219,0,0,0-.111.206,11.786,11.786,0,0,1-2.173,7.226,10.864,10.864,0,0,1-7.147,4.65,11.648,11.648,0,0,1-8.441-1.488c-.049-.029-.1-.062-.19-.123a8.38,8.38,0,0,0,6.03-1.688,4.24,4.24,0,0,1-3.834-2.88,4.223,4.223,0,0,0,.922.066,3.5,3.5,0,0,0,.919-.13,4.172,4.172,0,0,1-2.361-1.47,4.063,4.063,0,0,1-.9-2.6,5.571,5.571,0,0,0,.872.345,3.225,3.225,0,0,0,.949.134,4.16,4.16,0,0,1-1.689-2.5,4.094,4.094,0,0,1,.455-2.966c.114.128.215.244.317.358a11.565,11.565,0,0,0,6.8,3.783c.386.067.775.1,1.163.141.129.013.193.02.163-.162a4.1,4.1,0,0,1,2.985-4.733,3.988,3.988,0,0,1,3.917,1.027.31.31,0,0,0,.325.091,8.366,8.366,0,0,0,2.184-.826c.056-.031.115-.058.225-.113a4.1,4.1,0,0,1-1.7,2.186C5911.567,3047.2,5911.575,3047.207,5911.647,3047.185Z" transform="translate(-5893.829 -3044.632)" fill="#8a8a8a"/>
</svg>
