<svg xmlns="http://www.w3.org/2000/svg" width="30" height="26.762" viewBox="0 0 30 26.762">
  <g id="Group_40514" data-name="Group 40514" transform="translate(-7958.529 -450.885)">
    <path id="Path_43800" data-name="Path 43800" d="M7958.529,463.623a3.41,3.41,0,0,1,.4-.492q7.007-5.982,14.021-11.952c.464-.395.713-.392,1.179.006q2.016,1.721,4.034,3.44c.057.049.12.09.213.159.006-.13.014-.222.014-.315,0-.713-.005-1.425,0-2.138a.682.682,0,0,1,.741-.756q1.436-.018,2.871,0c.529.006.785.29.786.841q0,2.93,0,5.859a.54.54,0,0,0,.213.469q2.592,2.2,5.171,4.409c.343.293.435.562.3.863a.623.623,0,0,1-.882.3,1.762,1.762,0,0,1-.283-.205q-6.781-5.772-13.559-11.546c-.059-.05-.121-.1-.206-.167-.074.057-.151.11-.222.171q-6.769,5.763-13.54,11.524a1.259,1.259,0,0,1-.5.284c-.377.088-.6-.15-.754-.46Zm21.153-10.732c0,.99,0,1.955.007,2.919a.416.416,0,0,0,.161.252c.435.377.878.745,1.32,1.115.091.077.185.151.3.245v-4.531Z" fill="#0e4763"/>
    <path id="Path_43801" data-name="Path 43801" d="M7963.253,464.861c-.281.242-.493.428-.708.609-.365.3-.731.312-.987.023a.667.667,0,0,1,.154-1q2.334-2,4.674-4,3.272-2.8,6.547-5.593c.484-.412.719-.413,1.2,0q5.6,4.783,11.2,9.569a.738.738,0,0,1,.325.733.627.627,0,0,1-1.011.363c-.273-.2-.522-.433-.84-.7v.4q0,5.712,0,11.423a2.33,2.33,0,0,1-.023.409.611.611,0,0,1-.519.524,2.138,2.138,0,0,1-.408.023q-9.33,0-18.659,0c-.1,0-.195,0-.292-.007a.664.664,0,0,1-.642-.638,3.363,3.363,0,0,1-.009-.351q0-5.682,0-11.365Zm10.289-8.758c-.06.045-.092.067-.121.092q-4.35,3.705-8.693,7.416a.623.623,0,0,0-.171.422q-.014,5.993-.007,11.984v.306h5.108v-.372q0-3.516,0-7.032c0-.63.215-.844.845-.844h6.007c.707,0,.9.193.9.908q0,3.5,0,7v.339h5.095c.006-.081.013-.14.013-.2q0-6.08-.008-12.16a.578.578,0,0,0-.2-.381q-2.844-2.443-5.7-4.87Zm-2.582,20.224h5.136v-6.94h-5.136Z" fill="#0e4763"/>
  </g>
</svg>
