<svg xmlns="http://www.w3.org/2000/svg" width="65.924" height="65.845" viewBox="0 0 65.924 65.845">
  <g id="Group_2196" data-name="Group 2196" transform="translate(-2654.226 -12542.74)">
    <path id="Path_2951" data-name="Path 2951" d="M2720.15,12573.087v.514c-.139.232-.021.49-.075.73-.159.193-.31.059-.449-.022a2.553,2.553,0,0,1-.48-.425q-8.251-8.247-16.5-16.5c-.091-.091-.174-.188-.264-.28a37.261,37.261,0,0,0-4.718-4.427,21.9,21.9,0,0,0-6.2-3.581,9.9,9.9,0,0,0-4.275-.624,10.68,10.68,0,0,0-5.843,2.563,2.525,2.525,0,0,1-1.223.67c-2.826.481-4.165,2.378-4.74,4.989a16.77,16.77,0,0,0-.092,5.359,1.379,1.379,0,0,1-.026.635,4.752,4.752,0,0,0-1.093,4.287,7,7,0,0,1,.069,1.022,3.086,3.086,0,0,0,1.355,2.683c.868.915,1.75,1.817,2.663,2.689.653.834,1.156,1.773,1.8,2.612a.828.828,0,0,1,.156.541c.172,2.69.049,5.383.071,8.073a.928.928,0,0,1-.155.547c-.292.337-.692.29-1.073.29-3.082.007-6.165,0-9.247,0a5.546,5.546,0,0,0-5.718,5.369c0,.114,0,.228,0,.341-.008,2.162,0,4.323,0,6.484a1.754,1.754,0,0,1-.128.941c-.353.338-.589.02-.812-.175a15.507,15.507,0,0,1-1.961-2.205,31.9,31.9,0,0,1-6.752-15.812,46.6,46.6,0,0,1-.15-6.98,26.156,26.156,0,0,1,.841-6.149,33.359,33.359,0,0,1,25.78-24.158,26.863,26.863,0,0,1,3.252-.291c.166-.013.343.056.495-.065h.515a1.352,1.352,0,0,0,.9,0h2.058a1.724,1.724,0,0,0,1.028,0h.643a20.419,20.419,0,0,0,2.157.169,26.374,26.374,0,0,1,8.564,2.366,32.761,32.761,0,0,1,15.4,13.769,30.775,30.775,0,0,1,3.991,11.118C2720.058,12571.132,2720.01,12572.118,2720.15,12573.087Z" fill="#dce1e5"/>
    <path id="Path_2952" data-name="Path 2952" d="M2720.15,12578.487a21.88,21.88,0,0,0-.5,3,32.724,32.724,0,0,1-8.075,16.335c-.3.33-.623.644-.936.965-.334-.244-.267-.609-.268-.943-.009-2.228,0-4.456-.006-6.685a5.523,5.523,0,0,0-4.692-5.649,5.279,5.279,0,0,0-1.023-.065q-4.6,0-9.192,0a1.827,1.827,0,0,1-1-.146.583.583,0,0,1-.164-.181,1.448,1.448,0,0,1-.125-.75c-.007-2.308,0-4.614,0-6.921,0-.279.057-.552.075-.826a1.177,1.177,0,0,1,.33-.875,15.658,15.658,0,0,0,2.194-3.838,1.566,1.566,0,0,1,1.5-1.157,2.288,2.288,0,0,0,1.952-2.223c.066-1.025.171-2.049.188-3.076a3.061,3.061,0,0,0-.667-2.031c-.188-.234-.368-.472-.548-.712a2.665,2.665,0,0,1-.079-1.384,6.713,6.713,0,0,0,.065-1.526.9.9,0,0,1,.389-.887,30.265,30.265,0,0,0,2.495-1.775.636.636,0,0,1,.485-.114c.188.174.385.338.566.52q8.146,8.142,16.291,16.287c.2.2.407.376.613.563.087-.008.091.08.138.119v2.187a1.347,1.347,0,0,0,0,.9Z" fill="#dce1e5"/>
    <path id="Path_2953" data-name="Path 2953" d="M2689.163,12542.743a.992.992,0,0,1-1.028,0Z" fill="#fbe9a1"/>
    <path id="Path_2954" data-name="Path 2954" d="M2686.077,12542.743a.763.763,0,0,1-.9,0Z" fill="#fbeaa4"/>
    <path id="Path_2955" data-name="Path 2955" d="M2720.15,12574.5l-.137-.118c.049-.26-.084-.553.137-.782Z" fill="#fbeaa5"/>
    <path id="Path_2956" data-name="Path 2956" d="M2720.15,12577.587a.767.767,0,0,1,0-.9Z" fill="#f1cf6a"/>
    <path id="Path_2957" data-name="Path 2957" d="M2670.4,12603.92a29.071,29.071,0,0,1-6.579-5.2l.024-7.44a5.74,5.74,0,0,1,6.109-6.1q5.035,0,10.074.012l.053.044-.024.064q-.011,4.37-.019,8.739,0,6.491,0,12.98v.754a28.835,28.835,0,0,1-5.528-1.78,1.17,1.17,0,0,1-.268-.956c0-2.355,0-4.71,0-7.064,0-.887-.066-.946-.949-.952-.621,0-1.242-.012-1.863,0-.648.015-.748.1-.753.753-.016,1.756,0,3.511-.011,5.267C2670.656,12603.353,2670.707,12603.694,2670.4,12603.92Z" fill="#336b8f"/>
    <path id="Path_2958" data-name="Path 2958" d="M2702.543,12557.013a15.917,15.917,0,0,1-2.737,2,.675.675,0,0,0-.407.761q.021,1.443-.1,2.881a3.214,3.214,0,0,1-.637,2.886c-.561.673-1.155,1.319-1.749,1.965-.189.206-.391.438-.7.36s-.388-.386-.44-.654q-.458-2.4-.941-4.784c-.176-.869-.183-.876-1.049-.674a23.386,23.386,0,0,1-5.657.659,1.474,1.474,0,0,1-.923-.192.592.592,0,0,1-.137-.2,2.032,2.032,0,0,1-.092-.886q-.009-5.892,0-11.785c0-.375-.076-.781.271-1.075a9.185,9.185,0,0,1,4.989.853,28.408,28.408,0,0,1,9.515,6.963C2702.021,12556.391,2702.276,12556.708,2702.543,12557.013Z" fill="#88491d"/>
    <path id="Path_2959" data-name="Path 2959" d="M2675.531,12570.9a3.271,3.271,0,0,1-1.55-3.146c.008-.763-.121-1.522-.132-2.29a3.3,3.3,0,0,1,1.268-2.795c.342.171.369.513.4.822a3.346,3.346,0,0,0,.962,2.108c.51.51.974,1.063,1.539,1.682.288-.982.411-1.885.6-2.771.2-.919.354-1.846.533-2.769.162-.833.4-1,1.187-.794a37.152,37.152,0,0,0,6.261.951.983.983,0,0,1,.645.239l-.016.029c.37.313.274.744.275,1.139q.011,7.414,0,14.825a5.449,5.449,0,0,1-.083,1.592c-.159.33-.449.355-.763.318a10.685,10.685,0,0,1-6.217-2.937c-.236-.225-.241-.542-.4-.791a32.929,32.929,0,0,1-1.934-2.835,6.419,6.419,0,0,1-.967-1.641.711.711,0,0,0-.743-.567A1.685,1.685,0,0,1,2675.531,12570.9Z" fill="#fec296"/>
    <path id="Path_2960" data-name="Path 2960" d="M2687.244,12562.139a28.477,28.477,0,0,1-7.032-.983c-.521-.142-.7-.019-.792.5-.329,1.809-.7,3.609-1.054,5.414-.044.226-.1.45-.179.809a28.013,28.013,0,0,1-2.571-2.966,6.6,6.6,0,0,1-.5-2.232,18.126,18.126,0,0,1,.023-6.063c.607-2.809,2.13-4.725,5.118-5.182a1.439,1.439,0,0,0,.762-.427,9.976,9.976,0,0,1,6.218-2.72Z" fill="#ae5e22"/>
    <path id="Path_2961" data-name="Path 2961" d="M2680.041,12576.312a10.7,10.7,0,0,0,7.185,3.579c.034.026.065.052.1.076a1.026,1.026,0,0,1,.174.726q.012,1.846,0,3.7a1.1,1.1,0,0,1-.232.836,1.164,1.164,0,0,1-.844.218c-1.811.008-3.625,0-5.434.006a2.013,2.013,0,0,1-.972-.268v.009Q2680.033,12580.751,2680.041,12576.312Z" fill="#e9a578"/>
    <path id="Path_2962" data-name="Path 2962" d="M2675.531,12570.9a5.986,5.986,0,0,0,1.2.137.409.409,0,0,1,.457.267c.3.726.611,1.45.918,2.176A29.654,29.654,0,0,1,2675.531,12570.9Z" fill="#eec75a"/>
    <path id="Path_2963" data-name="Path 2963" d="M2694.428,12585.21c3.64-.006,7.277-.018,10.915-.01a4.2,4.2,0,0,1,1.07.19,5.668,5.668,0,0,1,4.209,5.5c.028,2.633.015,5.267.019,7.9a31.074,31.074,0,0,1-6.566,5.134c-.313-.226-.264-.566-.264-.88-.011-1.714,0-3.428-.007-5.141,0-.81-.076-.875-.886-.885-.621-.006-1.242-.008-1.863,0-.721.013-.814.1-.817.824-.011,2.355,0,4.71-.006,7.065a1.321,1.321,0,0,1-.268,1.085,28.849,28.849,0,0,1-5.5,1.788c-.4-.295-.3-.731-.3-1.125q-.012-7.189-.005-14.38c0-1.9-.007-3.809.005-5.714A2.224,2.224,0,0,1,2694.428,12585.21Z" fill="#205077"/>
    <path id="Path_2964" data-name="Path 2964" d="M2694.428,12585.21q0,10.871.009,21.739c0,.275.019.554.029.831a36.916,36.916,0,0,1-6.531.8c-.582.02-.713-.179-.711-.73q.022-9.331,0-18.665c.014-.029.028-.059.041-.088a2.4,2.4,0,0,1,1.168-.3,7.874,7.874,0,0,0,5.249-3.05,3.671,3.671,0,0,1,.569-.605.155.155,0,0,1,.179.025Z" fill="#cdcdcd"/>
    <path id="Path_2965" data-name="Path 2965" d="M2680.058,12585.21q0,10.871-.009,21.739c0,.275-.019.554-.029.831a36.916,36.916,0,0,0,6.53.8c.582.02.714-.179.712-.73q-.021-9.331,0-18.665c-.014-.029-.028-.059-.041-.088a2.4,2.4,0,0,0-1.166-.3,7.874,7.874,0,0,1-5.249-3.05,3.662,3.662,0,0,0-.569-.605.154.154,0,0,0-.179.025Z" fill="#fff"/>
    <path id="Path_2966" data-name="Path 2966" d="M2670.4,12603.92c0-2.164.012-4.328-.014-6.492-.007-.53.156-.717.693-.7.923.036,1.845.039,2.763,0,.554-.023.683.2.68.71-.021,2.849-.012,5.7-.014,8.549A21.138,21.138,0,0,1,2670.4,12603.92Z" fill="#205077"/>
    <path id="Path_2967" data-name="Path 2967" d="M2699.965,12605.992c0-2.827.011-5.655-.013-8.482,0-.564.12-.813.743-.779.919.052,1.842.033,2.763.006.476-.016.633.151.629.628-.021,2.185-.011,4.37-.012,6.555A20.162,20.162,0,0,1,2699.965,12605.992Z" fill="#163c66"/>
    <path id="Path_2968" data-name="Path 2968" d="M2680.02,12585.181l7.214-.008.1.079a.959.959,0,0,1,.166.659c.009.824.007,1.646,0,2.472a.882.882,0,0,1-.255.751l-.018.053a8.681,8.681,0,0,1-7.176-3.889A.293.293,0,0,1,2680.02,12585.181Z" fill="#fec296"/>
    <path id="Path_2969" data-name="Path 2969" d="M2687.224,12579.891l0-17.722a25.07,25.07,0,0,0,7.173-.841c.452-.125.5.091.562.43.372,1.929.761,3.856,1.146,5.782.016.077.047.15.088.278.522-.361.791-.9,1.224-1.261a5.3,5.3,0,0,0,1.876-3.9,3.174,3.174,0,0,1,1.33,3.063c-.072.872-.1,1.748-.151,2.622a2.683,2.683,0,0,1-1.633,2.544,1.3,1.3,0,0,1-.683.143.86.86,0,0,0-1.026.628,15.677,15.677,0,0,1-2.619,4.537.721.721,0,0,0-.085.238,2.861,2.861,0,0,1-.984,1.231,11.3,11.3,0,0,1-5.361,2.406.855.855,0,0,1-.839-.157Z" fill="#e9a578"/>
    <path id="Path_2970" data-name="Path 2970" d="M2687.246,12579.913a10.636,10.636,0,0,0,6.433-2.792l.751-.689v8.741a.224.224,0,0,1-.094.019,1.45,1.45,0,0,1-.906.254c-1.793,0-3.586,0-5.378,0a.979.979,0,0,1-.821-.27h0Q2687.24,12582.543,2687.246,12579.913Z" fill="#d28b5b"/>
    <path id="Path_2971" data-name="Path 2971" d="M2687.234,12585.173l7.1.019a8.078,8.078,0,0,1-7.092,3.944Z" fill="#e9a578"/>
  </g>
</svg>
