<svg xmlns="http://www.w3.org/2000/svg" width="23" height="34.632" viewBox="0 0 23 34.632">
  <g id="Group_8221" data-name="Group 8221" transform="translate(-2088.337 -376.746)" opacity="0.5">
    <g id="Group_3841" data-name="Group 3841">
      <path id="Path_5380" data-name="Path 5380" d="M2100.173,376.746a16.9,16.9,0,0,1,2.218.546,8.44,8.44,0,0,1,5.494,8.078c-.007,1.9.056,3.814-.066,5.712a7.445,7.445,0,0,1-2.89,5.415,1.047,1.047,0,0,0-.476,1.015,11.6,11.6,0,0,1,.008,1.2c.625,0,1.211-.031,1.792.005a5.267,5.267,0,0,1,5.065,5.271c.037,2.242.01,4.486.007,6.73,0,.472-.192.66-.657.66q-10.837,0-21.677,0c-.449,0-.645-.192-.646-.638,0-2.255-.019-4.509.006-6.763a5.231,5.231,0,0,1,1.712-3.877.583.583,0,0,1,.637-.192c.367.134.417.555.128.89a10.193,10.193,0,0,0-.866,1.072,3.972,3.972,0,0,0-.586,2.191c-.007,2.018,0,4.036,0,6.053,0,.066.013.132.021.219h3.067v-3.25c0-.583.15-.833.5-.84s.519.247.519.819v3.268h3.859l1.193-7.16c-.472-.01-.6-.352-.671-.715A3.23,3.23,0,0,0,2096,400a1.763,1.763,0,0,0-.941-.273c-.863.063-1.725.1-2.588.165-.368.027-.614-.105-.667-.408a.517.517,0,0,1,.427-.594.364.364,0,0,1,.074-.007c.769-.086,1.543-.133,2.316-.192.178-.013.357,0,.581,0,0-.592.011-1.15-.01-1.711,0-.1-.127-.2-.219-.274a7.643,7.643,0,0,1-2.857-4.193,11.164,11.164,0,0,1-.325-2.364c-.051-1.351-.017-2.7-.01-4.058,0-.212-.023-.36-.265-.426a.562.562,0,0,1-.421-.64,8.421,8.421,0,0,1,6.759-8.111c.319-.063.642-.109.962-.162Zm-7.368,9.411v.336c0,1.206-.029,2.413.012,3.618a9.982,9.982,0,0,0,.26,2.035,7.018,7.018,0,0,0,13.789-1.9c.01-.9-.017-1.8.007-2.7a4.293,4.293,0,0,0-.8-2.427,1.548,1.548,0,0,0-1.64-.7,3.64,3.64,0,0,0-.691.157c-1.275.44-2.539.913-3.822,1.333a11.965,11.965,0,0,1-5.362.575C2093.979,386.4,2093.409,386.27,2092.8,386.157Zm8.326,17c.407,2.436.8,4.816,1.2,7.179h3.856v-.388c0-1.048,0-2.1,0-3.143a.513.513,0,0,1,.463-.558l.042,0a.527.527,0,0,1,.515.539v.018c0,.079,0,.158,0,.237v3.306h3.058a1.446,1.446,0,0,0,.032-.206c0-2.039.032-4.079-.009-6.117a4.164,4.164,0,0,0-3.3-4.155,13.73,13.73,0,0,0-2.555-.124,1.227,1.227,0,0,0-.619.188,4.994,4.994,0,0,0-1.428,1,5.575,5.575,0,0,0-.617,1.661c-.1.306-.228.567-.641.567Zm5.624-18.842.1-.061c-.153-.561-.273-1.134-.466-1.682a7.351,7.351,0,0,0-9.134-4.432,7.253,7.253,0,0,0-5.111,6.43c-.025.21.066.266.233.328a10.039,10.039,0,0,0,6.4.259c1.306-.376,2.572-.888,3.863-1.315a10.957,10.957,0,0,1,1.661-.431,2.516,2.516,0,0,1,2.449.9Zm-5.471,26.026c-.4-2.4-.8-4.784-1.195-7.171h-.505l-1.194,7.171Zm-1.974-11.9-3.067-.824c0,.363-.01.787.009,1.209,0,.086.107.188.192.245.406.282.819.554,1.233.824.072.048.173.116.237.1.46-.144.913-.308,1.369-.466q.018-.519.034-1.039c0-.033-.012-.066-.009-.045Zm1.046,0c0,.258-.012.584.008.907a.326.326,0,0,0,.174.232c.366.14.74.263,1.117.372a.418.418,0,0,0,.3-.039q.669-.423,1.318-.878a.359.359,0,0,0,.147-.236c.014-.413.007-.828.007-1.188Zm-1.524,3.668h2.013l.378-1.145a2.422,2.422,0,0,0-2.771,0Z"/>
    </g>
  </g>
</svg>
