<svg xmlns="http://www.w3.org/2000/svg" width="79.756" height="25.877" viewBox="0 0 79.756 25.877">
  <g id="Group_8207" data-name="Group 8207" transform="translate(-4460.18 -15223.804)">
    <g id="Group_38" data-name="Group 38">
      <path id="Path_111" data-name="Path 111" d="M4494.755,15249.248h-6.508l4.067-25h6.508Z" fill="#0066b2"/>
      <path id="Path_112" data-name="Path 112" d="M4482.771,15224.251l-6.2,17.193-.734-3.7h0l-2.19-11.241s-.264-2.251-3.087-2.251H4460.3l-.12.423a24.3,24.3,0,0,1,6.807,2.858l5.652,21.716h6.78l10.355-25Z" fill="#0066b2"/>
      <path id="Path_113" data-name="Path 113" d="M4533.96,15249.248h5.976l-5.21-25H4529.5a2.991,2.991,0,0,0-3,1.863l-9.705,23.134h6.783l1.355-3.713h8.273Zm-7.161-8.842,3.419-9.355,1.924,9.355Z" fill="#0066b2"/>
      <path id="Path_114" data-name="Path 114" d="M4517.293,15230.262l.928-5.369a18.8,18.8,0,0,0-5.853-1.089c-3.23,0-10.9,1.412-10.9,8.275,0,6.459,9,6.539,9,9.93s-8.073,2.784-10.737.646l-.969,5.611a18.216,18.216,0,0,0,7.347,1.412c4.44,0,11.141-2.3,11.141-8.558,0-6.5-9.082-7.1-9.082-9.929S4514.508,15228.728,4517.293,15230.262Z" fill="#0066b2"/>
    </g>
    <path id="Path_115" data-name="Path 115" d="M4475.834,15237.743l-2.191-11.241s-.264-2.251-3.087-2.251H4460.3l-.12.423a25.2,25.2,0,0,1,9.659,4.851A19.49,19.49,0,0,1,4475.834,15237.743Z" fill="#f9a533"/>
  </g>
</svg>
