<svg xmlns="http://www.w3.org/2000/svg" width="69.764" height="22.635" viewBox="0 0 69.764 22.635">
  <g id="Group_8207" data-name="Group 8207" transform="translate(-8488.775 -3247.986)">
    <g id="Group_38" data-name="Group 38">
      <path id="Path_111" data-name="Path 111" d="M8519.019,3270.243h-5.692l3.558-21.866h5.693Z" fill="#0066b2"/>
      <path id="Path_112" data-name="Path 112" d="M8508.537,3248.378l-5.428,15.038-.642-3.238h0l-1.916-9.833a2.436,2.436,0,0,0-2.7-1.969h-8.971l-.1.37a21.308,21.308,0,0,1,5.955,2.5l4.942,19h5.931l9.059-21.866Z" fill="#0066b2"/>
      <path id="Path_113" data-name="Path 113" d="M8553.313,3270.243h5.226l-4.557-21.865h-4.576a2.616,2.616,0,0,0-2.628,1.629l-8.489,20.236h5.934l1.185-3.248h7.236Zm-6.265-7.735,2.991-8.182,1.682,8.182Z" fill="#0066b2"/>
      <path id="Path_114" data-name="Path 114" d="M8538.733,3253.635l.812-4.7a16.466,16.466,0,0,0-5.12-.953c-2.825,0-9.533,1.235-9.533,7.239,0,5.649,7.874,5.719,7.874,8.685s-7.062,2.436-9.393.565l-.847,4.909a15.95,15.95,0,0,0,6.427,1.235c3.883,0,9.745-2.012,9.745-7.486,0-5.685-7.945-6.214-7.945-8.685S8536.3,3252.294,8538.733,3253.635Z" fill="#0066b2"/>
    </g>
    <path id="Path_115" data-name="Path 115" d="M8502.468,3260.179l-1.916-9.832a2.436,2.436,0,0,0-2.7-1.969h-8.971l-.1.369a22.055,22.055,0,0,1,8.448,4.242A17.061,17.061,0,0,1,8502.468,3260.179Z" fill="#f9a533"/>
  </g>
</svg>
