<svg xmlns="http://www.w3.org/2000/svg" width="60" height="59.895" viewBox="0 0 60 59.895">
  <g id="Group_40472" data-name="Group 40472" transform="translate(-9606.919 -1592.229)" opacity="0.7">
    <path id="Path_43691" data-name="Path 43691" d="M9666.919,1620.4v3.512c-.046.4-.094.8-.137,1.2a29.96,29.96,0,0,1-24.73,26.549c-1.107.193-2.228.31-3.343.462H9635.2c-.168-.036-.334-.079-.5-.1a44.967,44.967,0,0,1-4.9-.789c-11.261-3.077-18.616-10.232-21.808-21.467a28.488,28.488,0,0,1,.789-17.826,29.871,29.871,0,0,1,27.19-19.693,30.475,30.475,0,0,1,4.784.226,29.914,29.914,0,0,1,25.7,24.522C9666.651,1618.12,9666.766,1619.262,9666.919,1620.4Zm-32.376,8.1c.216.189.412.372.62.541a39.049,39.049,0,0,0,11.383,6.222.983.983,0,0,0,1.135-.267,43.12,43.12,0,0,0,9.75-12.748,34.3,34.3,0,0,0,3.748-13.472,1.9,1.9,0,0,0-.268-1.034,27.829,27.829,0,0,0-8.508-8.88c-.849-.562-1.743-1.053-2.69-1.62C9648.716,1609.691,9643.8,1620.1,9634.543,1628.495Zm24,11.428c-1.167-.155-2.226-.276-3.28-.44a47.46,47.46,0,0,1-16.405-5.509,31.971,31.971,0,0,1-13.93-15.125c-.142-.324-.313-.533-.666-.532a19.506,19.506,0,0,0-2.964.052,10.462,10.462,0,0,0-5.93,3.493.669.669,0,0,0-.062.56,34.206,34.206,0,0,0,10.715,15.94,45.125,45.125,0,0,0,20.778,9.715,1.67,1.67,0,0,0,.9-.106,26.513,26.513,0,0,0,5.745-3.22A27.935,27.935,0,0,0,9658.545,1639.923Zm-22.47-45.6a2.26,2.26,0,0,0-.027.235,34.746,34.746,0,0,1-.979,7.928,29.461,29.461,0,0,1-8.291,14.638c-.281.268-.229.47-.1.762a27.623,27.623,0,0,0,3.524,6.041c.854,1.1,1.81,2.131,2.731,3.207.163-.125.241-.178.312-.24a42.67,42.67,0,0,0,10.992-15.3,44.094,44.094,0,0,0,3.476-14.648.666.666,0,0,0-.5-.809,27.939,27.939,0,0,0-7.65-1.8C9638.421,1594.239,9637.27,1594.32,9636.075,1594.32Zm-3.828,10.794a1.631,1.631,0,0,0-.271-.15,19.37,19.37,0,0,0-10.107.364,24.028,24.028,0,0,0-10.653,6.826,3.794,3.794,0,0,0-.826,1.3,27.555,27.555,0,0,0-1.271,11.478c.062.654.179,1.3.271,1.955a.8.8,0,0,0,.319-.362,24.875,24.875,0,0,1,4.939-6.77,11.6,11.6,0,0,1,9.557-3.476,1.17,1.17,0,0,0,.816-.274,24.845,24.845,0,0,0,5.274-6.807C9631,1607.868,9631.6,1606.478,9632.247,1605.114Zm-18.606,18.82a27.543,27.543,0,0,0-3.357,6.2,1.023,1.023,0,0,0,.058.62,27.976,27.976,0,0,0,29.241,19.234c1.2-.107,2.377-.341,3.566-.517C9629.451,1645.414,9618.918,1637.8,9613.641,1623.934Zm35.795,12.214a52.135,52.135,0,0,0,10,1.811.892.892,0,0,0,.943-.479,28.147,28.147,0,0,0,2.813-25.023c-.065-.182-.151-.356-.279-.652C9661.238,1621.574,9656.52,1629.47,9649.436,1636.148Zm-16.674-33.061a26.341,26.341,0,0,0,1.2-8.66c-6.757-.252-17.964,6.846-20.9,13.311C9618.994,1603.307,9625.448,1601.407,9632.762,1603.087Z"/>
  </g>
</svg>
