<svg xmlns="http://www.w3.org/2000/svg" width="55.292" height="55.199" viewBox="0 0 55.292 55.199">
  <g id="Group_2076" data-name="Group 2076" transform="translate(-5072.695 -8732.194)" opacity="0.7">
    <path id="Path_2638" data-name="Path 2638" d="M5127.987,8758.156v3.233c-.042.37-.087.74-.126,1.11a27.609,27.609,0,0,1-22.791,24.469c-1.021.179-2.055.286-3.081.425h-3.237c-.155-.031-.308-.068-.464-.1a41.471,41.471,0,0,1-4.512-.727c-10.379-2.834-17.158-9.431-20.1-19.784a26.248,26.248,0,0,1,.727-16.429,27.53,27.53,0,0,1,25.06-18.149,27.96,27.96,0,0,1,4.409.207,27.567,27.567,0,0,1,23.688,22.6C5127.741,8756.058,5127.847,8757.11,5127.987,8758.156Zm-29.838,7.465c.2.173.38.342.572.5a36.049,36.049,0,0,0,10.49,5.737.907.907,0,0,0,1.046-.246,39.772,39.772,0,0,0,8.986-11.751,31.635,31.635,0,0,0,3.456-12.415,1.764,1.764,0,0,0-.247-.953,25.655,25.655,0,0,0-7.841-8.185c-.782-.518-1.607-.971-2.48-1.492a41.89,41.89,0,0,1-13.982,28.806Zm22.119,10.532c-1.076-.144-2.053-.255-3.023-.406a43.673,43.673,0,0,1-15.12-5.078,29.453,29.453,0,0,1-12.838-13.938c-.132-.3-.289-.491-.613-.49a17.846,17.846,0,0,0-2.732.049,9.634,9.634,0,0,0-5.465,3.219.618.618,0,0,0-.058.516,31.531,31.531,0,0,0,9.875,14.69,41.581,41.581,0,0,0,19.15,8.954,1.553,1.553,0,0,0,.824-.1,24.5,24.5,0,0,0,5.295-2.968,25.834,25.834,0,0,0,4.708-4.45Zm-20.71-42.026a2.18,2.18,0,0,0-.024.217,32.014,32.014,0,0,1-.9,7.307,27.149,27.149,0,0,1-7.641,13.49c-.259.246-.207.433-.093.7a25.483,25.483,0,0,0,3.248,5.568c.789,1.018,1.669,1.964,2.518,2.955.15-.115.222-.164.287-.222a39.33,39.33,0,0,0,10.131-14.1,40.66,40.66,0,0,0,3.2-13.5.614.614,0,0,0-.449-.742l-.015,0a25.8,25.8,0,0,0-7.051-1.658c-1.045-.091-2.1-.017-3.207-.017Zm-3.525,9.948a1.64,1.64,0,0,0-.249-.14,17.862,17.862,0,0,0-9.316.336,22.159,22.159,0,0,0-9.815,6.289,3.5,3.5,0,0,0-.76,1.2,25.337,25.337,0,0,0-1.175,10.575c.056.6.164,1.2.248,1.8a.725.725,0,0,0,.3-.333,22.936,22.936,0,0,1,4.552-6.238,10.691,10.691,0,0,1,8.808-3.2,1.084,1.084,0,0,0,.752-.252,22.89,22.89,0,0,0,4.862-6.274c.65-1.228,1.2-2.509,1.8-3.766Zm-17.147,17.345a25.4,25.4,0,0,0-3.1,5.718.939.939,0,0,0,.054.571,25.78,25.78,0,0,0,26.949,17.727c1.1-.1,2.19-.314,3.286-.477-12.623-3.747-22.331-10.765-27.194-23.543Zm32.989,11.257a48.133,48.133,0,0,0,9.211,1.669.823.823,0,0,0,.87-.441,25.943,25.943,0,0,0,2.592-23.062c-.061-.168-.138-.328-.258-.6-1.538,9-5.886,16.275-12.415,22.431Zm-15.367-30.47a24.2,24.2,0,0,0,1.1-7.981c-6.227-.231-16.556,6.311-19.265,12.269,5.471-4.088,11.419-5.84,18.158-4.291Z"/>
  </g>
</svg>
