<svg xmlns="http://www.w3.org/2000/svg" width="41.466" height="52.37" viewBox="0 0 41.466 52.37">
  <g id="Group_2085" data-name="Group 2085" transform="translate(-4811.242 -9527.793)" opacity="0.7">
    <path id="Path_2683" data-name="Path 2683" d="M4831.668,9527.793a7.714,7.714,0,0,1,3.16,1.336,6.534,6.534,0,1,1-5.127-1.232,3.055,3.055,0,0,0,.331-.1Zm3.569,6.532a4.359,4.359,0,1,0-4.339,4.381A4.358,4.358,0,0,0,4835.237,9534.325Z"/>
    <path id="Path_2684" data-name="Path 2684" d="M4835.243,9553.328c0,1.424-.014,2.685.007,3.944.012.691.488,1.069,1.287,1.071,2.281.006,4.568-.033,6.85.021a8.568,8.568,0,0,1,2.6.4,7.362,7.362,0,0,1,5.122,6.186q.8,5.093,1.551,10.2a4.4,4.4,0,0,1-3.434,4.907,4.345,4.345,0,0,1-5.191-3.188c-.664-2.8-1.234-5.617-1.839-8.429-.253-1.175-.484-1.369-1.688-1.369h-6.236a7.587,7.587,0,0,1-7.751-7.418c0-.067,0-.134,0-.2-.046-4.327-.023-8.656-.007-12.985a3.259,3.259,0,0,1,3.107-3.4,3.023,3.023,0,0,1,.312,0c.75-.008,1.5,0,2.25,0a5.606,5.606,0,0,1,4.127,1.718c1.44,1.45,2.9,2.886,4.334,4.341a1.513,1.513,0,0,0,1.175.492c1.073-.019,2.148-.026,3.221,0a3.271,3.271,0,0,1,.729,6.463.482.482,0,0,1-.1.024c-2.194-.026-4.393.019-6.581-.114a4.354,4.354,0,0,1-2.719-1.511Zm-6.548-.247v5.828a8.173,8.173,0,0,0,.056,1.274,5.441,5.441,0,0,0,5.558,4.7c2.216.018,4.431-.006,6.647.007a3.231,3.231,0,0,1,3.291,2.708q.913,4.27,1.843,8.533a2.243,2.243,0,0,0,2.608,1.8c.07-.014.14-.029.208-.05a2.328,2.328,0,0,0,1.55-2.884c-.478-3.078-1.013-6.152-1.394-9.24a5.678,5.678,0,0,0-6.034-5.264c-2.178.091-4.362.022-6.543.016a3.248,3.248,0,0,1-3.423-3.064c-.006-.109-.006-.218,0-.327-.018-2.08,0-4.159-.007-6.238a1.129,1.129,0,0,1,.691-1.192,1.147,1.147,0,0,1,1.327.386c.96.968,1.928,1.929,2.892,2.892a3.312,3.312,0,0,0,2.436,1h4.448c.786,0,1.277-.414,1.287-1.073s-.476-1.091-1.257-1.1c-1.006-.007-2.011-.011-3.016,0a3.609,3.609,0,0,1-2.748-1.129c-1.431-1.461-2.893-2.891-4.335-4.342a3.416,3.416,0,0,0-2.608-1.079c-.715.018-1.432,0-2.147,0-.962,0-1.328.371-1.33,1.331Q4828.691,9549.833,4828.695,9553.081Z"/>
    <path id="Path_2685" data-name="Path 2685" d="M4825.289,9577.982a12.1,12.1,0,0,0,11.294-7.656c.364-.933.9-1.27,1.584-.988.641.264.8.887.448,1.788a14.17,14.17,0,1,1-15.879-19.067c.873-.167,1.478.165,1.57.862a1.109,1.109,0,0,1-.947,1.251c-.033,0-.065.008-.1.01a11.994,11.994,0,0,0,.3,23.636,6.045,6.045,0,0,0,.607.084C4824.59,9577.939,4825.016,9577.963,4825.289,9577.982Z"/>
  </g>
</svg>
