<svg xmlns="http://www.w3.org/2000/svg" width="24" height="23.995" viewBox="0 0 24 23.995">
  <g id="Group_633" data-name="Group 633" transform="translate(-4128.742 -254.489)">
    <path id="Path_589" data-name="Path 589" d="M4128.742,258.053c.043-.188.081-.378.13-.565a3.991,3.991,0,0,1,3.842-3c.984-.007,1.967,0,2.951,0a3.954,3.954,0,0,1,4.06,3.818,32.849,32.849,0,0,1-.022,3.6,3.882,3.882,0,0,1-3.534,3.535,34.149,34.149,0,0,1-3.813,0,3.931,3.931,0,0,1-3.566-3.334,1.7,1.7,0,0,0-.048-.174Zm2,1.931c0,.476,0,.952,0,1.428a1.989,1.989,0,0,0,2.077,2.076q1.417,0,2.834,0a2,2,0,0,0,2.083-2.076q0-1.416,0-2.833a1.99,1.99,0,0,0-2.07-2.084q-1.427-.008-2.857,0a1.981,1.981,0,0,0-2.067,2.06C4130.742,259.032,4130.746,259.508,4130.746,259.984Z" fill="#fff"/>
    <path id="Path_590" data-name="Path 590" d="M4145.287,278.484c-.232-.057-.468-.1-.7-.173a3.919,3.919,0,0,1-2.835-3.649,35.052,35.052,0,0,1,.024-3.6,3.877,3.877,0,0,1,3.537-3.532,35.513,35.513,0,0,1,3.861,0,3.89,3.89,0,0,1,3.508,3.382,20.718,20.718,0,0,1,.051,2.127,17.315,17.315,0,0,1-.044,1.964,3.945,3.945,0,0,1-3.385,3.441.807.807,0,0,0-.13.042Zm5.449-5.506c0-.476,0-.952,0-1.429a1.987,1.987,0,0,0-2.069-2.061q-1.428,0-2.857,0a2,2,0,0,0-2.068,2.065q-.005,1.428,0,2.856a1.985,1.985,0,0,0,2.06,2.07q1.441.01,2.881,0a1.979,1.979,0,0,0,2.053-2.05C4150.74,273.945,4150.736,273.462,4150.736,272.978Z" fill="#fff"/>
    <path id="Path_591" data-name="Path 591" d="M4128.742,271.033c.04-.172.077-.346.121-.517a3.954,3.954,0,0,1,3.747-3.019c1.185-.037,2.375-.043,3.557.029a3.879,3.879,0,0,1,3.534,3.534,33.363,33.363,0,0,1,0,3.789,3.918,3.918,0,0,1-3.383,3.592.686.686,0,0,0-.128.043h-3.89a.767.767,0,0,0-.129-.042,4,4,0,0,1-3.323-3.022c-.04-.165-.073-.331-.11-.5Zm2,1.934c0,.492,0,.983,0,1.475a1.976,1.976,0,0,0,2.042,2.037q1.452.012,2.9,0a1.984,1.984,0,0,0,2.047-2.059q.006-1.428,0-2.856a2,2,0,0,0-2.082-2.076q-1.417,0-2.833,0a1.988,1.988,0,0,0-2.079,2.074C4130.743,272.031,4130.746,272.5,4130.746,272.967Z" fill="#fff"/>
    <path id="Path_592" data-name="Path 592" d="M4145.744,259.494v-.312c0-.914-.007-1.827.006-2.741a.974.974,0,0,1,.9-.946.989.989,0,0,1,1.046.723,1.516,1.516,0,0,1,.038.394c0,.867,0,1.734,0,2.6v.282h.277c.921,0,1.843,0,2.765.005a.922.922,0,0,1,.867.575.949.949,0,0,1-.125,1.036.994.994,0,0,1-.843.377c-.883-.005-1.765,0-2.648,0h-.293v.288c0,.922.007,1.844-.006,2.765a.971.971,0,0,1-.9.945.992.992,0,0,1-1.047-.723,1.515,1.515,0,0,1-.037-.394c0-.867,0-1.734,0-2.6v-.28h-.3c-.914,0-1.828,0-2.741-.005a.962.962,0,0,1-.9-.662,1,1,0,0,1,.291-1.086,1.038,1.038,0,0,1,.714-.24c.883,0,1.766,0,2.648,0Z" fill="#fff"/>
  </g>
</svg>
