<svg xmlns="http://www.w3.org/2000/svg" width="20.653" height="20.653" viewBox="0 0 20.653 20.653">
  <g id="dashboard_1_copy-2" data-name="dashboard 1 copy-2" transform="translate(-2089.511 -188.248)">
    <g id="Group_1805" data-name="Group 1805">
      <path id="Vector" d="M2095.369,188.248a3.32,3.32,0,0,1,3.321,3.32v2.538a3.321,3.321,0,0,1-3.321,3.321h-2.538a3.32,3.32,0,0,1-3.32-3.321v-2.538a3.32,3.32,0,0,1,3.32-3.32Z" fill="#fff"/>
      <path id="Vector-2" d="M2095.369,199.722a3.32,3.32,0,0,1,3.321,3.32v2.538a3.321,3.321,0,0,1-3.321,3.321h-2.538a3.32,3.32,0,0,1-3.32-3.321v-2.538a3.32,3.32,0,0,1,3.32-3.32Z" fill="#fff"/>
      <path id="Vector-3" d="M2106.843,188.248a3.32,3.32,0,0,1,3.321,3.32v2.538a3.321,3.321,0,0,1-3.321,3.321H2104.3a3.32,3.32,0,0,1-3.32-3.321v-2.538a3.319,3.319,0,0,1,3.32-3.32Z" fill="#fff"/>
      <path id="Vector-4" d="M2106.843,199.722a3.32,3.32,0,0,1,3.321,3.32v2.538a3.321,3.321,0,0,1-3.321,3.321H2104.3a3.32,3.32,0,0,1-3.32-3.321v-2.538a3.319,3.319,0,0,1,3.32-3.32Z" fill="#fff"/>
    </g>
  </g>
</svg>
