<svg xmlns="http://www.w3.org/2000/svg" width="25" height="30.872" viewBox="0 0 25 30.872">
  <g id="Group_185" data-name="Group 185" transform="translate(-14061.585 -2039.836)">
    <path id="Path_217" data-name="Path 217" d="M14086.585,2052.576a13.863,13.863,0,0,1-1.543,5.807,29.8,29.8,0,0,1-5.044,7.122,45.218,45.218,0,0,1-5.273,4.891c-.521.412-.76.417-1.272.008a41.826,41.826,0,0,1-8.565-9,18.215,18.215,0,0,1-3.008-6.549,12.024,12.024,0,0,1,2.661-10.592,11.713,11.713,0,0,1,7.676-4.3,12.527,12.527,0,0,1,14.369,12.607Zm-23.534-.293-.082.013c.142.863.229,1.739.433,2.587a17.838,17.838,0,0,0,2.926,6.018,41.116,41.116,0,0,0,7.563,7.978c.171.142.267.1.411-.023a45.406,45.406,0,0,0,5-4.774,27.293,27.293,0,0,0,4.485-6.505,11.7,11.7,0,0,0,1.156-7.186,11.031,11.031,0,0,0-21.895,1.892Z" fill="#fff"/>
    <path id="Path_218" data-name="Path 218" d="M14083.643,2052.337a9.56,9.56,0,1,1-9.553-9.582A9.577,9.577,0,0,1,14083.643,2052.337Zm-14.218.215v-.36q0-2.788,0-5.576c0-.662.261-.919.932-.92h7.475c.646,0,.909.264.909.911q0,2.8,0,5.606v.324h3.416a8.085,8.085,0,1,0-16.165.015Zm2.942,4.9c0-.728,0-1.431,0-2.134a.727.727,0,0,1,.75-.79q.965-.016,1.931,0a.722.722,0,0,1,.747.761c.009.561,0,1.123,0,1.685v.477h1.453V2047.19h-6.34v10.259Zm-2.877,1.5a7.963,7.963,0,0,0,9.151,0Zm-3.307-4.906a7.992,7.992,0,0,0,1.559,3.282c.042.052.1.126.157.127.5.01,1.011.006,1.509.006v-3.415Zm12.57,3.419c.461,0,.9.014,1.335-.009a.537.537,0,0,0,.369-.187,11.662,11.662,0,0,0,.9-1.451c.269-.557.446-1.159.675-1.769h-3.28Zm-4.44-.012v-1.441h-.456v1.441Z" fill="#fff"/>
    <path id="Path_219" data-name="Path 219" d="M14072.853,2048.882c0,.183.014.367,0,.549a.73.73,0,0,1-1.457-.013c-.018-.356-.018-.713,0-1.069a.73.73,0,0,1,1.459.014c.013.172,0,.346,0,.519Z" fill="#fff"/>
    <path id="Path_220" data-name="Path 220" d="M14073.351,2048.879c0-.183-.013-.367,0-.549a.733.733,0,0,1,.74-.671.719.719,0,0,1,.714.663,9.056,9.056,0,0,1,0,1.128.718.718,0,0,1-.72.656.735.735,0,0,1-.734-.677C14073.338,2049.247,14073.351,2049.062,14073.351,2048.879Z" fill="#fff"/>
    <path id="Path_221" data-name="Path 221" d="M14075.311,2048.883c0-.173-.01-.346,0-.519a.736.736,0,0,1,.739-.7.726.726,0,0,1,.722.689c.018.355.018.713,0,1.068a.725.725,0,0,1-.721.69.736.736,0,0,1-.74-.7C14075.3,2049.23,14075.311,2049.056,14075.311,2048.883Z" fill="#fff"/>
    <path id="Path_222" data-name="Path 222" d="M14071.39,2052.8c0-.183-.013-.367,0-.549a.732.732,0,0,1,.74-.67.718.718,0,0,1,.714.662,8.891,8.891,0,0,1,0,1.129.717.717,0,0,1-.719.656.736.736,0,0,1-.734-.678C14071.377,2053.169,14071.39,2052.984,14071.39,2052.8Z" fill="#fff"/>
    <path id="Path_223" data-name="Path 223" d="M14074.815,2052.817c0,.173.01.347,0,.519a.731.731,0,0,1-1.461-.009c-.016-.346-.016-.693,0-1.038a.732.732,0,0,1,1.463.009c.01.173,0,.346,0,.519Z" fill="#fff"/>
    <path id="Path_224" data-name="Path 224" d="M14076.776,2052.81c0,.173.01.346,0,.518a.73.73,0,0,1-1.459.006,10.527,10.527,0,0,1,0-1.068.724.724,0,0,1,.726-.684.732.732,0,0,1,.732.678C14076.788,2052.442,14076.775,2052.626,14076.776,2052.81Z" fill="#fff"/>
    <path id="Path_225" data-name="Path 225" d="M14068.931,2055.743c0,.183.013.367,0,.549a.73.73,0,0,1-1.457-.008c-.019-.355-.018-.713,0-1.068a.731.731,0,0,1,1.46.008c.013.172,0,.346,0,.519Z" fill="#fff"/>
    <path id="Path_226" data-name="Path 226" d="M14080.7,2055.751c0,.173.01.347,0,.519a.73.73,0,0,1-1.459.006,10.527,10.527,0,0,1,0-1.068.726.726,0,0,1,.726-.685.734.734,0,0,1,.732.679C14080.71,2055.384,14080.7,2055.568,14080.7,2055.751Z" fill="#fff"/>
  </g>
</svg>
