<svg xmlns="http://www.w3.org/2000/svg" width="28" height="28.294" viewBox="0 0 28 28.294">
  <g id="Group_545" data-name="Group 545" transform="translate(-8113.954 -319.118)">
    <path id="Path_497" data-name="Path 497" d="M8122.205,333.735h-.37c-2.028,0-4.056,0-6.084,0a1.7,1.7,0,0,1-1.757-1.354,2.187,2.187,0,0,1-.038-.48q0-5.47,0-10.942a1.723,1.723,0,0,1,1.831-1.837q8.87,0,17.739,0a1.864,1.864,0,0,1,1.474.667c.732.831,1.477,1.653,2.226,2.469a.535.535,0,0,0,.351.172,2.927,2.927,0,0,1,3.219,2.636c.388,2.016.757,4.035,1.129,6.055a1.775,1.775,0,0,1-.391,1.46q-2.42,3.14-4.827,6.289l-5.917,7.709a1.741,1.741,0,0,1-2.69.359q-4.308-3.3-8.613-6.6a1.731,1.731,0,0,1-.34-2.592q1.424-1.861,2.853-3.72C8122.056,333.943,8122.11,333.866,8122.205,333.735Zm15.176-10.382c-1.864.148-3.837.312-5.811.455a1.179,1.179,0,0,0-.949.46q-5.336,6.972-10.684,13.933c-.468.61-.42,1.007.179,1.466l8.566,6.571a.84.84,0,0,0,1.345-.166q.965-1.248,1.921-2.5,4.41-5.746,8.823-11.493a1.007,1.007,0,0,0,.254-.836c-.381-2.027-.753-4.056-1.141-6.081a2.111,2.111,0,0,0-.94-1.524A2.688,2.688,0,0,0,8137.381,323.353Zm-1.161-.823c-.084-.1-.133-.17-.188-.231-.569-.635-1.146-1.264-1.707-1.906a1.051,1.051,0,0,0-.851-.367q-8.814.006-17.628,0c-.683,0-.981.3-.981.994q0,5.4,0,10.8c0,.712.287,1,1,1,2.076,0,4.152-.027,6.227.017a1.45,1.45,0,0,0,1.347-.667c2.148-2.853,4.338-5.675,6.508-8.511a1.734,1.734,0,0,1,1.259-.737c1.01-.087,2.021-.159,3.032-.238C8134.881,322.639,8135.529,322.586,8136.22,322.53Z" fill="#fff"/>
    <path id="Path_498" data-name="Path 498" d="M8129.192,340.946a3.9,3.9,0,0,1-.287.816,11.064,11.064,0,0,1-.848,1.137c-.182.223-.431.213-.705,0q-1.4-1.068-2.795-2.142c-.33-.253-.664-.5-.99-.762a.459.459,0,0,1-.094-.736c.232-.311.466-.621.711-.922a1.67,1.67,0,0,1,2.271-.319c.705.511,1.391,1.048,2.075,1.587A1.877,1.877,0,0,1,8129.192,340.946Zm-1.56,1.028c.176-.233.341-.429.481-.642a.735.735,0,0,0-.135-1q-1.011-.8-2.052-1.57a.724.724,0,0,0-1.02.135c-.166.191-.312.4-.483.618Z" fill="#fff"/>
    <path id="Path_499" data-name="Path 499" d="M8126.884,336.309l1.237.95.57-.732c.076-.1.145-.2.229-.289a.453.453,0,0,1,.615-.058.43.43,0,0,1,.09.608c-.241.34-.5.665-.776,1.028l1.233.947c.076-.093.146-.176.213-.262.329-.427.652-.859.987-1.282a.439.439,0,0,1,.628-.111.428.428,0,0,1,.108.626q-.738.991-1.5,1.96c-.184.231-.42.22-.7,0q-1.354-1.033-2.705-2.072c-.353-.271-.707-.54-1.058-.813a.472.472,0,0,1-.1-.774q.68-.893,1.366-1.78c.211-.272.459-.322.684-.151s.241.428.035.7C8127.656,335.306,8127.275,335.8,8126.884,336.309Z" fill="#fff"/>
    <path id="Path_500" data-name="Path 500" d="M8132.531,336.934a1.829,1.829,0,0,1-.4-.3c-.974-1.388-1.936-2.783-2.9-4.176a.457.457,0,0,1-.022-.578.451.451,0,0,1,.561-.142q2.4.859,4.808,1.722a.45.45,0,0,1,.3.612.461.461,0,0,1-.619.234c-.313-.106-.625-.216-.934-.335a.225.225,0,0,0-.31.089c-.227.315-.464.624-.709.924a.223.223,0,0,0,0,.322,7.85,7.85,0,0,1,.574.844.631.631,0,0,1,.03.475C8132.86,336.741,8132.685,336.813,8132.531,336.934Zm-1.694-3.852-.036.047.847,1.218.59-.764Z" fill="#fff"/>
    <path id="Path_501" data-name="Path 501" d="M8135.249,332.04c.367-.477.717-.934,1.069-1.391a1.745,1.745,0,0,1,.181-.217.418.418,0,0,1,.57-.042.394.394,0,0,1,.131.574q-.755,1.031-1.554,2.028c-.175.218-.4.192-.681-.021q-1.455-1.111-2.908-2.228c-.27-.208-.541-.414-.81-.623-.3-.231-.374-.495-.2-.721s.445-.234.747,0l3.156,2.418C8135.035,331.882,8135.127,331.949,8135.249,332.04Z" fill="#fff"/>
    <path id="Path_502" data-name="Path 502" d="M8138.527,326.631a1.636,1.636,0,1,1-1.634-1.652A1.637,1.637,0,0,1,8138.527,326.631Zm-1.651-.742a.726.726,0,1,0,.738.715A.746.746,0,0,0,8136.876,325.889Z" fill="#fff"/>
    <path id="Path_503" data-name="Path 503" d="M8118.51,330.362c-.428,0-.648-.325-.525-.619a1.107,1.107,0,0,1,.133-.217q2.394-3.334,4.794-6.666a.631.631,0,0,1,.337-.271.557.557,0,0,1,.444.144.771.771,0,0,1,.064.467c0,.073-.083.145-.133.214q-2.379,3.312-4.762,6.62A2.077,2.077,0,0,1,8118.51,330.362Z" fill="#fff"/>
    <path id="Path_504" data-name="Path 504" d="M8122.843,327.166a1.629,1.629,0,1,1-1.622,1.626A1.628,1.628,0,0,1,8122.843,327.166Zm.014,2.347a.727.727,0,0,0,.714-.727.718.718,0,0,0-.729-.708.7.7,0,0,0-.709.722A.717.717,0,0,0,8122.857,329.513Z" fill="#fff"/>
    <path id="Path_505" data-name="Path 505" d="M8118.9,322.445a1.629,1.629,0,1,1-1.626,1.629A1.629,1.629,0,0,1,8118.9,322.445Zm0,.912a.721.721,0,0,0-.716.723.723.723,0,0,0,1.446-.016A.715.715,0,0,0,8118.9,323.357Z" fill="#fff"/>
  </g>
</svg>
