<svg xmlns="http://www.w3.org/2000/svg" width="24.999" height="24.997" viewBox="0 0 24.999 24.997">
  <g id="Group_2127" data-name="Group 2127" transform="translate(-10084.157 -1975.43)">
    <path id="Path_2818" data-name="Path 2818" d="M10084.157,1995.447v-15.034c.041-.215.07-.431.12-.644a5.438,5.438,0,0,1,5.364-4.33c4.678-.015,9.355-.007,14.033,0a5.261,5.261,0,0,1,3.155,1,5.382,5.382,0,0,1,2.322,4.574q.009,6.915,0,13.835c0,.13,0,.261-.012.39a5.353,5.353,0,0,1-3.6,4.85,10.387,10.387,0,0,1-1.365.34h-15.037c-.069-.016-.139-.037-.208-.049a5.355,5.355,0,0,1-4.422-3.541A10.987,10.987,0,0,1,10084.157,1995.447ZM10096.68,1977c-2.333,0-4.67-.006-7,0a3.886,3.886,0,0,0-3.952,3.816v.1q-.018,7.016,0,14.032a3.879,3.879,0,0,0,3.839,3.917h.088q7,.015,14.011,0a3.882,3.882,0,0,0,3.929-3.834v-.1q.012-6.992-.007-13.983a4.177,4.177,0,0,0-.208-1.292,3.857,3.857,0,0,0-3.736-2.65C10101.318,1976.991,10099,1977,10096.68,1977Z" fill="#fff"/>
    <path id="Path_2819" data-name="Path 2819" d="M10094.322,1983.226v-1.53h9.351v1.53Z" fill="#fff"/>
    <path id="Path_2820" data-name="Path 2820" d="M10094.323,1988.694v-1.533h9.342v1.533Z" fill="#fff"/>
    <path id="Path_2821" data-name="Path 2821" d="M10103.675,1992.634v1.531h-9.351v-1.531Z" fill="#fff"/>
    <path id="Path_2822" data-name="Path 2822" d="M10091.187,1984.024c-.261,0-.521.007-.78,0a.77.77,0,0,1-.778-.76v-.013c-.01-.529-.011-1.057,0-1.584a.763.763,0,0,1,.764-.759h0c.527-.011,1.057-.011,1.585,0a.761.761,0,0,1,.766.758v0c.011.536.013,1.073,0,1.609a.761.761,0,0,1-.753.747c-.269.011-.536,0-.8,0Z" fill="#fff"/>
    <path id="Path_2823" data-name="Path 2823" d="M10091.185,1989.491c-.26,0-.52.007-.779,0a.77.77,0,0,1-.777-.762v-.012c-.01-.52-.009-1.042,0-1.561a.77.77,0,0,1,.755-.784h.037q.768-.012,1.537,0a.769.769,0,0,1,.791.747c0,.013,0,.026,0,.04q.012.768,0,1.536a.775.775,0,0,1-.752.8h-.053C10091.689,1989.5,10091.437,1989.492,10091.185,1989.491Z" fill="#fff"/>
    <path id="Path_2824" data-name="Path 2824" d="M10092.749,1993.4c0,.26.007.52,0,.78a.77.77,0,0,1-.76.779h-.014c-.527.009-1.057.01-1.585,0a.761.761,0,0,1-.76-.762v0q-.016-.792,0-1.583a.761.761,0,0,1,.756-.765h0c.536-.011,1.073-.013,1.609,0a.761.761,0,0,1,.748.75c.011.268,0,.536,0,.805Z" fill="#fff"/>
  </g>
</svg>
