<svg xmlns="http://www.w3.org/2000/svg" width="23" height="34.63" viewBox="0 0 23 34.63">
  <g id="Group_8221" data-name="Group 8221" transform="translate(-45.067 -1838.166)">
    <g id="Group_3841" data-name="Group 3841">
      <path id="Path_5380" data-name="Path 5380" d="M56.9,1838.166a16.72,16.72,0,0,1,2.218.545,8.441,8.441,0,0,1,5.494,8.079c-.007,1.9.056,3.814-.066,5.712a7.44,7.44,0,0,1-2.891,5.414,1.048,1.048,0,0,0-.475,1.015,11.676,11.676,0,0,1,.008,1.2c.625,0,1.211-.03,1.792.005a5.268,5.268,0,0,1,5.065,5.271c.037,2.243.01,4.487.007,6.73,0,.473-.192.66-.657.66q-10.838,0-21.677,0c-.449,0-.645-.191-.646-.637,0-2.255-.019-4.509.006-6.764a5.231,5.231,0,0,1,1.712-3.877.584.584,0,0,1,.637-.191c.367.134.417.555.128.889a10.265,10.265,0,0,0-.866,1.073,3.96,3.96,0,0,0-.586,2.191c-.007,2.017,0,4.035,0,6.053,0,.065.012.131.021.218h3.067v-3.25c0-.583.15-.832.5-.84s.519.248.519.82v3.268h3.859l1.193-7.16c-.472-.01-.606-.353-.671-.716a3.23,3.23,0,0,0-1.864-2.456,1.763,1.763,0,0,0-.941-.273c-.863.063-1.725.1-2.588.164-.368.027-.615-.1-.667-.407a.517.517,0,0,1,.427-.595.588.588,0,0,1,.074-.007c.769-.086,1.543-.132,2.316-.191.178-.013.357,0,.581,0,0-.592.011-1.15-.01-1.711,0-.1-.127-.2-.219-.274a7.644,7.644,0,0,1-2.857-4.194,11.086,11.086,0,0,1-.325-2.364c-.051-1.351-.017-2.7-.01-4.057,0-.213-.023-.36-.265-.426a.563.563,0,0,1-.421-.64,8.423,8.423,0,0,1,6.759-8.112c.319-.063.642-.108.962-.162Zm-7.368,9.411v.335c0,1.207-.029,2.413.012,3.618a9.957,9.957,0,0,0,.26,2.035,7.017,7.017,0,0,0,13.789-1.9c.01-.9-.017-1.8.007-2.7a4.3,4.3,0,0,0-.8-2.427,1.548,1.548,0,0,0-1.64-.7,3.561,3.561,0,0,0-.691.156c-1.275.44-2.54.914-3.822,1.334a11.98,11.98,0,0,1-5.362.575C50.709,1847.821,50.139,1847.69,49.535,1847.577Zm8.326,17c.406,2.436.8,4.815,1.2,7.178h3.856v-.387c0-1.048,0-2.1,0-3.143a.513.513,0,0,1,.463-.558l.042,0a.526.526,0,0,1,.515.538v.019c.005.079,0,.158,0,.237v3.306H67a1.308,1.308,0,0,0,.031-.207c0-2.038.033-4.078-.008-6.116a4.166,4.166,0,0,0-3.3-4.156,13.725,13.725,0,0,0-2.555-.123,1.225,1.225,0,0,0-.619.187,5,5,0,0,0-1.428,1,5.582,5.582,0,0,0-.617,1.662c-.1.305-.228.567-.641.567Zm5.624-18.843.1-.06c-.154-.561-.273-1.134-.466-1.682a7.353,7.353,0,0,0-9.134-4.433,7.252,7.252,0,0,0-5.111,6.43c-.026.211.066.267.233.329a10.039,10.039,0,0,0,6.4.258c1.306-.376,2.572-.887,3.863-1.314a10.807,10.807,0,0,1,1.661-.431,2.516,2.516,0,0,1,2.449.9Zm-5.471,26.026-1.2-7.17h-.5l-1.194,7.17Zm-1.974-11.9-3.067-.824c0,.363-.01.786.009,1.208,0,.086.107.188.192.246.406.282.819.553,1.233.824.072.048.173.116.237.1.46-.144.913-.308,1.369-.466.012-.346.023-.693.034-1.039,0-.033-.012-.066-.009-.046Zm1.046,0c0,.258-.012.583.008.907a.327.327,0,0,0,.173.232c.367.139.741.262,1.118.371a.414.414,0,0,0,.3-.039q.669-.423,1.318-.878a.354.354,0,0,0,.147-.235c.014-.414.007-.829.007-1.188Zm-1.524,3.667h2.013l.378-1.144a2.421,2.421,0,0,0-2.771,0Z" fill="#fff"/>
    </g>
  </g>
</svg>
