<svg xmlns="http://www.w3.org/2000/svg" width="25" height="25.004" viewBox="0 0 25 25.004">
  <g id="Group_133" data-name="Group 133" transform="translate(-2086.966 -3560.226)">
    <path id="Path_176" data-name="Path 176" d="M2093.279,3562.563a2.238,2.238,0,0,1,1.407.683.817.817,0,0,0,.962.247.832.832,0,0,0,.488-.843,2.429,2.429,0,0,1,2.431-2.41,16.143,16.143,0,0,1,2.156.044,2.378,2.378,0,0,1,2.074,2.392.808.808,0,0,0,.6.865.833.833,0,0,0,.823-.264,2.359,2.359,0,0,1,2.618-.538,2.845,2.845,0,0,1,.841.547c.433.386.834.81,1.239,1.227a2.433,2.433,0,0,1,.02,3.463.805.805,0,0,0-.235.941.826.826,0,0,0,.84.49,2.431,2.431,0,0,1,2.417,2.425q.014.9,0,1.8a2.445,2.445,0,0,1-2.433,2.441.794.794,0,0,0-.863.6.811.811,0,0,0,.261.822,2.434,2.434,0,0,1,.486,2.766,9.2,9.2,0,0,1-2.444,2.436,2.429,2.429,0,0,1-2.743-.484.837.837,0,0,0-.8-.277.807.807,0,0,0-.631.866,2.442,2.442,0,0,1-1.819,2.354,1.081,1.081,0,0,1-.28.055,21.354,21.354,0,0,1-2.517-.026,2.342,2.342,0,0,1-2.047-2.381.816.816,0,0,0-.479-.821.805.805,0,0,0-.945.217,2.432,2.432,0,0,1-3.5-.038q-.585-.575-1.16-1.16a2.434,2.434,0,0,1-.039-3.519.791.791,0,0,0,.217-.922.808.808,0,0,0-.813-.488,2.438,2.438,0,0,1-2.445-2.479q-.006-.846,0-1.692a2.441,2.441,0,0,1,2.459-2.492.8.8,0,0,0,.851-.648.831.831,0,0,0-.275-.772,2.37,2.37,0,0,1-.529-2.643,2.649,2.649,0,0,1,.521-.8c.4-.443.836-.857,1.267-1.273A2.583,2.583,0,0,1,2093.279,3562.563Zm12.693,18.736a2.7,2.7,0,0,0,.546-.31c.409-.375.795-.776,1.184-1.172a.79.79,0,0,0,0-1.2,2.468,2.468,0,0,1,1.76-4.216.785.785,0,0,0,.829-.835c0-.546,0-1.093,0-1.64a.792.792,0,0,0-.856-.86,2.467,2.467,0,0,1-1.752-4.2.8.8,0,0,0,0-1.236q-.558-.565-1.123-1.123a.793.793,0,0,0-1.215-.019,2.468,2.468,0,0,1-4.215-1.762.783.783,0,0,0-.835-.828q-.832-.006-1.666,0a.782.782,0,0,0-.832.83,2.468,2.468,0,0,1-4.217,1.757.789.789,0,0,0-1.2.007c-.365.359-.725.723-1.086,1.086a.815.815,0,0,0-.018,1.328,2.42,2.42,0,0,1,.678,1.671,2.464,2.464,0,0,1-2.448,2.486.794.794,0,0,0-.877.89c0,.538,0,1.077,0,1.614a.781.781,0,0,0,.808.829,2.469,2.469,0,0,1,1.78,4.219.788.788,0,0,0,.007,1.2q.565.576,1.141,1.142a.793.793,0,0,0,1.216.014,2.464,2.464,0,0,1,4.211,1.76.788.788,0,0,0,.856.834c.52,0,1.041,0,1.561,0a.8.8,0,0,0,.917-.9,2.423,2.423,0,0,1,.52-1.469,2.452,2.452,0,0,1,3.635-.272A1.236,1.236,0,0,0,2105.972,3581.3Z" fill="#fff"/>
    <path id="Path_177" data-name="Path 177" d="M2093.633,3572.742a5.831,5.831,0,1,1,5.884,5.825A5.838,5.838,0,0,1,2093.633,3572.742Zm10,.007a4.165,4.165,0,1,0-4.14,4.153A4.171,4.171,0,0,0,2103.63,3572.749Z" fill="#fff"/>
  </g>
</svg>
