<svg xmlns="http://www.w3.org/2000/svg" width="25" height="25.004" viewBox="0 0 25 25.004">
  <g id="Group_2226" data-name="Group 2226" transform="translate(-4128.242 -1908.802)">
    <path id="Path_3308" data-name="Path 3308" d="M4146.575,1913.805c1.418,0,2.8-.007,4.177,0a2.471,2.471,0,0,1,2.408,1.894,2.9,2.9,0,0,1,.078.695q.007,7.407,0,14.816a2.493,2.493,0,0,1-2.391,2.592c-.067,0-.133,0-.2,0q-9.907,0-19.813,0a2.5,2.5,0,0,1-2.592-2.4c0-.065,0-.13,0-.194q0-7.408,0-14.816a2.5,2.5,0,0,1,2.4-2.592q.1,0,.192,0c1.328,0,2.656,0,3.983,0a.714.714,0,0,0,.091-.016v-.266c0-.72,0-1.44,0-2.161a2.492,2.492,0,0,1,2.432-2.553h.119q3.281-.008,6.561,0a2.492,2.492,0,0,1,2.551,2.433c0,.04,0,.079,0,.119C4146.579,1912.164,4146.575,1912.969,4146.575,1913.805Zm.823,1.685h-13.3v16.634h13.3Zm-15.006,16.646v-16.665h-1.473c-.71,0-1.009.3-1.009,1.015v14.633c0,.078,0,.157,0,.235a.821.821,0,0,0,.771.778c.562.017,1.126,0,1.709,0Zm16.7-16.663v16.665h1.475c.706,0,1.006-.3,1.006-1.019v-14.632c0-.078,0-.157,0-.235a.822.822,0,0,0-.773-.775c-.565-.018-1.128,0-1.707,0Zm-4.188-1.681c0-.868.013-1.717-.006-2.565a.8.8,0,0,0-.818-.753q-3.332-.009-6.664,0a.823.823,0,0,0-.841.8v.038c0,.164,0,.329,0,.494v1.982Z" fill="#fff"/>
  </g>
</svg>
